<?xml version="1.0" encoding="UTF-8" standalone="no"?>
<svg
   xmlns:dc="http://purl.org/dc/elements/1.1/"
   xmlns:cc="http://creativecommons.org/ns#"
   xmlns:rdf="http://www.w3.org/1999/02/22-rdf-syntax-ns#"
   xmlns:svg="http://www.w3.org/2000/svg"
   xmlns="http://www.w3.org/2000/svg"
   xmlns:sodipodi="http://sodipodi.sourceforge.net/DTD/sodipodi-0.dtd"
   xmlns:inkscape="http://www.inkscape.org/namespaces/inkscape"
   width="30"
   height="30"
   viewBox="0 0 30 30"
   fill="none"
   version="1.1"
   id="svg14"
   sodipodi:docname="1.svg"
   inkscape:version="0.92.2 (5c3e80d, 2017-08-06)">
  <metadata
     id="metadata20">
    <rdf:RDF>
      <cc:Work
         rdf:about="">
        <dc:format>image/svg+xml</dc:format>
        <dc:type
           rdf:resource="http://purl.org/dc/dcmitype/StillImage" />
        <dc:title></dc:title>
      </cc:Work>
    </rdf:RDF>
  </metadata>
  <defs
     id="defs18" />
  <sodipodi:namedview
     pagecolor="#ffffff"
     bordercolor="#666666"
     borderopacity="1"
     objecttolerance="10"
     gridtolerance="10"
     guidetolerance="10"
     inkscape:pageopacity="0"
     inkscape:pageshadow="2"
     inkscape:window-width="1366"
     inkscape:window-height="705"
     id="namedview16"
     showgrid="false"
     inkscape:zoom="7.8666667"
     inkscape:cx="-0.69915254"
     inkscape:cy="15"
     inkscape:window-x="-4"
     inkscape:window-y="-4"
     inkscape:window-maximized="1"
     inkscape:current-layer="svg14" />
  <path
     style="fill:#000000;fill-opacity:1"
     inkscape:connector-curvature="0"
     id="path2"
     d="m 18.5955,20.5914 2.009,-2.009 8.5384,8.538 -2.009,2.009 z" />
  <path
     style="fill:#000000;fill-opacity:1"
     inkscape:connector-curvature="0"
     id="path4"
     d="M 12.2524,0 C 9.00286,0 5.88641,1.29087 3.58864,3.58864 1.29087,5.88641 0,9.00286 0,12.2524 c 0,3.2495 1.29087,6.366 3.58864,8.6637 2.29777,2.2978 5.41422,3.5887 8.66376,3.5887 3.2495,0 6.366,-1.2909 8.6637,-3.5887 2.2978,-2.2977 3.5887,-5.4142 3.5887,-8.6637 0,-3.24954 -1.2909,-6.36599 -3.5887,-8.66376 C 18.6184,1.29087 15.5019,0 12.2524,0 Z" />
  <path
     style="fill:#000000;fill-opacity:1"
     inkscape:connector-curvature="0"
     id="path6"
     d="m 21.7252,24.1924 2.4267,-2.4268 5.8079,5.8076 L 27.5331,30 Z" />
  <path
     style="fill:#000000;stroke:#ffffff;fill-opacity:1;stroke-opacity:1"
     inkscape:connector-curvature="0"
     id="path8"
     d="M 5.44894,5.44894 C 7.25333,3.64455 9.70061,2.63086 12.2524,2.63086 c 2.5518,0 4.9991,1.01369 6.8035,2.81808 1.8044,1.80439 2.818,4.25167 2.818,6.80346 0,2.5518 -1.0136,4.9991 -2.818,6.8035 -1.8044,1.8044 -4.2517,2.818 -6.8035,2.818 -2.55179,0 -4.99907,-1.0136 -6.80346,-2.818 -1.80439,-1.8044 -2.81808,-4.2517 -2.81808,-6.8035 0,-2.55179 1.01369,-4.99907 2.81808,-6.80346 z" />
  <path
     style="fill:#ffffff;fill-opacity:1"
     inkscape:connector-curvature="0"
     id="path10"
     d="M 16.2688,6.55221 C 15.2533,5.39257 13.7599,4.69678 12.147,4.69678 10.5341,4.69678 9.04073,5.39257 8.02522,6.55221 7.78628,6.78414 7.84601,7.19002 8.08495,7.36397 8.3239,7.59589 8.74205,7.53791 8.92126,7.30598 9.75756,6.37827 10.8925,5.85642 12.147,5.85642 c 1.2544,0 2.3894,0.52185 3.2257,1.44956 0.1195,0.11597 0.2987,0.23193 0.4779,0.23193 0.1195,0 0.2987,-0.05798 0.3584,-0.11596 0.239,-0.23193 0.239,-0.63781 0.0598,-0.86974 z" />
</svg>
