<svg width="29" height="29" viewBox="0 0 29 29" fill="none" xmlns="http://www.w3.org/2000/svg">
<path d="M17.4534 19.3271L19.339 17.4415L27.353 25.4552L25.4674 27.3409L17.4534 19.3271Z" fill="#929292"/>
<path d="M20.3914 22.707L22.6691 20.4293L28.1202 25.8802L25.8425 28.158L20.3914 22.707Z" fill="#929292"/>
<path fill-rule="evenodd" clip-rule="evenodd" d="M3.36827 3.36827C5.52494 1.2116 8.45001 0 11.5 0C14.55 0 17.4751 1.2116 19.6317 3.36827C21.7884 5.52494 23 8.45001 23 11.5C23 14.55 21.7884 17.4751 19.6317 19.6317C17.4751 21.7884 14.55 23 11.5 23C8.45001 23 5.52494 21.7884 3.36827 19.6317C1.2116 17.4751 0 14.55 0 11.5C0 8.45001 1.2116 5.52494 3.36827 3.36827ZM4.78249 4.78249C6.56408 3.00089 8.98044 2 11.5 2C14.0196 2 16.4359 3.00089 18.2175 4.78249C19.9991 6.56408 21 8.98044 21 11.5C21 14.0196 19.9991 16.4359 18.2175 18.2175C16.4359 19.9991 14.0196 21 11.5 21C8.98044 21 6.56408 19.9991 4.78249 18.2175C3.00089 16.4359 2 14.0196 2 11.5C2 8.98044 3.00089 6.56408 4.78249 4.78249Z" fill="#929292"/>
<path d="M15.2695 6.1497C14.3164 5.06126 12.9147 4.4082 11.4008 4.4082C9.88701 4.4082 8.48532 5.06126 7.53217 6.1497C7.3079 6.36739 7.36397 6.74834 7.58824 6.9116C7.81251 7.12929 8.20499 7.07487 8.37319 6.85718C9.15814 5.98643 10.2234 5.49664 11.4008 5.49664C12.5783 5.49664 13.6435 5.98643 14.4285 6.85718C14.5406 6.96603 14.7088 7.07487 14.877 7.07487C14.9892 7.07487 15.1574 7.02045 15.2134 6.96603C15.4377 6.74834 15.4377 6.36739 15.2695 6.1497Z" fill="#929292"/>
</svg>
