<?xml version='1.0' encoding='UTF-8'?>
<svg width="22" height="30" viewBox="0 0 22 30" fill="none" xmlns="http://www.w3.org/2000/svg">
<path d="M5.98256 0.809043C-1.08774 2.46152 0.362579 10.9065 0 15.6799C2.71935 10.1721 5.46089 9.89305 7.0703 9.62141C10.3335 9.07063 14.6845 9.62156 18.4916 10.7231C20.5949 11.3317 23.3864 5.21548 21.2109 3.01212C18.1106 -0.127971 12.5375 -0.722992 5.98256 0.809043Z" fill="white"></path>
<path d="M4.89482 13.477C-0.437492 15.7915 0.290399 26.3113 0 30C2.17799 25.7438 4.2265 23.331 5.43869 22.8399C8.15804 21.7384 10.0037 21.4381 13.0529 22.2894C14.7375 22.7597 17.2743 16.4765 15.6841 14.7032C13.5967 12.3754 8.70191 11.8245 4.89482 13.477Z" fill="white"></path>
</svg>