<svg width="26" height="32" viewBox="0 0 26 32" fill="none" xmlns="http://www.w3.org/2000/svg">
<path d="M25.6708 26.3879L24.2419 8.38112C24.1532 7.22094 23.1716 6.3125 22.0083 6.3125H19.1856V10.4948C19.1856 11.0128 18.7663 11.432 18.2484 11.432C17.7311 11.432 17.3112 11.0128 17.3112 10.4948V6.3125H8.68925V10.4948C8.68925 11.0128 8.26938 11.432 7.75207 11.432C7.23413 11.432 6.81488 11.0128 6.81488 10.4948V6.3125H3.99213C2.82882 6.3125 1.84725 7.22094 1.75857 8.37863L0.329067 26.3904C0.218504 27.8331 0.718941 29.2688 1.70169 30.3297C2.6845 31.3905 4.07775 31.9997 5.52413 31.9997H20.4764C21.9228 31.9997 23.316 31.3905 24.2988 30.3296C25.2816 29.2687 25.782 27.833 25.6708 26.3879Z" fill="#929292"/>
<path d="M19.9915 13.4075C19.9856 13.4223 19.5685 14.4746 18.9634 15.4981L17.6541 13.9271C18.6111 13.3895 19.5418 13.0237 19.5864 13.0063C19.5885 13.0055 19.5891 13.0053 19.5912 13.0049C19.6136 12.9998 19.753 12.9754 19.8917 13.1135C20.0363 13.2575 19.9958 13.3944 19.9918 13.4064L19.9915 13.4075Z" fill="white"/>
<path d="M16.3637 16.2885C16.3927 16.5699 16.6457 16.7747 16.9287 16.7458C17.2118 16.717 17.4177 16.4654 17.3886 16.1841C17.3596 15.9027 17.1067 15.6979 16.8236 15.7268C16.5406 15.7556 16.3347 16.0072 16.3637 16.2885Z" fill="white"/>
<path fill-rule="evenodd" clip-rule="evenodd" d="M11.3595 22.6465C11.3817 22.6899 11.4371 22.7092 11.4748 22.6803C12.0797 22.2169 16.2256 19.0065 18.2527 16.5357C18.4708 16.27 18.6786 15.9656 18.8699 15.6535L17.503 14.0134C17.1282 14.2308 16.7563 14.473 16.4389 14.7296C13.9507 16.7413 10.7155 20.8584 10.2484 21.4591C10.2194 21.4966 10.2386 21.5517 10.2822 21.5738C10.4004 21.6339 10.6238 21.7691 10.8937 22.0379C11.1636 22.3067 11.2993 22.529 11.3595 22.6465ZM16.9461 16.9156C16.5687 16.9541 16.2314 16.6811 16.1927 16.3059C16.154 15.9308 16.4286 15.5954 16.8059 15.5569C17.1833 15.5185 17.5206 15.7914 17.5593 16.1666C17.598 16.5418 17.3234 16.8772 16.9461 16.9156Z" fill="white"/>
<path d="M13.372 21.6996C13.4214 21.663 13.4926 21.7056 13.4849 21.7671L13.2065 23.9691C13.1988 24.0305 13.1198 24.0495 13.0814 23.9992L12.1083 22.7247C12.0845 22.6935 12.0899 22.6498 12.1206 22.6271L13.372 21.6996Z" fill="white"/>
<path d="M11.2414 19.587C11.2783 19.5379 11.2356 19.467 11.1737 19.4747L8.95856 19.748C8.89674 19.7557 8.87753 19.8341 8.9281 19.8724L10.2085 20.8418C10.2398 20.8656 10.2838 20.8602 10.3066 20.8298L11.2414 19.587Z" fill="white"/>
<path d="M9.47702 25.4903L7.37734 27.3589C7.17781 27.5688 7.17231 27.6906 7.28319 27.8603C7.47204 28.1494 7.88212 27.9002 7.88212 27.9002C7.88212 27.9002 9.78879 27.0626 10.434 26.3657C10.4472 26.3514 10.46 26.3371 10.4724 26.3229C11.4127 25.2619 11.3317 23.6429 10.28 22.6805C9.2507 21.7386 7.66814 21.77 6.67719 22.7273C6.65431 22.7482 6.63204 22.7703 6.6104 22.7937C6.60624 22.7982 6.60209 22.8027 6.59793 22.8072C6.58973 22.8158 6.58158 22.8245 6.57346 22.8333L6.57394 22.8337C5.85641 23.6355 5.08238 25.2693 5.08238 25.2693C5.08238 25.2693 4.88158 25.6236 5.10697 25.8154C5.40749 26.0711 5.65831 25.7436 5.65831 25.7436L7.53647 23.7146L7.53849 23.7165C8.02903 23.1865 8.85877 23.1523 9.39175 23.64C9.92473 24.1277 9.95914 24.9527 9.46861 25.4826L9.47702 25.4903Z" fill="white"/>
<path d="M8.85627 24.1476C9.06989 24.3484 9.08132 24.6813 8.88178 24.8912L6.76747 26.7816C6.50088 26.9941 6.33759 27.0373 6.18678 26.8956C6.04321 26.7607 6.06716 26.521 6.26495 26.3095L8.10818 24.1642C8.30772 23.9543 8.64264 23.9469 8.85627 24.1476Z" fill="white"/>
<path d="M12.7818 24.4074C12.8701 24.3362 12.8771 24.2047 12.7968 24.1247C12.7164 24.0447 12.5841 24.0514 12.5124 24.1391L12.0664 24.6849C12.0282 24.7315 12.0317 24.7993 12.0744 24.8418C12.1171 24.8843 12.1852 24.8879 12.2322 24.85L12.7818 24.4074Z" fill="white"/>
<path d="M8.81503 20.4574C8.90339 20.3863 8.91036 20.2547 8.83002 20.1747C8.74968 20.0947 8.61736 20.1015 8.54565 20.1892L8.0996 20.735C8.06149 20.7816 8.06497 20.8493 8.10767 20.8918C8.15037 20.9343 8.21847 20.9379 8.26542 20.9001L8.81503 20.4574Z" fill="white"/>
<path d="M12.4739 23.9181C12.5646 23.8539 12.5755 23.7241 12.4968 23.6457C12.4182 23.5674 12.2876 23.5781 12.2228 23.6681L12.0321 23.9331C11.9964 23.9828 12.002 24.0508 12.0453 24.0939C12.0887 24.1371 12.1571 24.1428 12.2071 24.1074L12.4739 23.9181Z" fill="white"/>
<path d="M9.28776 20.7463C9.3784 20.682 9.3893 20.5522 9.31065 20.4739C9.23199 20.3956 9.10142 20.4062 9.03665 20.4962L8.84592 20.7613C8.81021 20.8109 8.81582 20.8789 8.85918 20.9221C8.90253 20.9653 8.97092 20.9709 9.02088 20.9355L9.28776 20.7463Z" fill="white"/>
<path d="M13.0003 0C9.58957 0 6.81494 2.77525 6.81494 6.18594V6.31275H8.68932V6.18594C8.68932 3.80862 10.623 1.87431 13.0003 1.87431C15.3776 1.87431 17.3113 3.80862 17.3113 6.18594V6.31275H19.1856V6.18594C19.1856 2.77525 16.4109 0 13.0003 0Z" fill="#929292"/>
</svg>
