<?xml version="1.0" encoding="UTF-8" standalone="no"?>
<svg
   xmlns:dc="http://purl.org/dc/elements/1.1/"
   xmlns:cc="http://creativecommons.org/ns#"
   xmlns:rdf="http://www.w3.org/1999/02/22-rdf-syntax-ns#"
   xmlns:svg="http://www.w3.org/2000/svg"
   xmlns="http://www.w3.org/2000/svg"
   xmlns:sodipodi="http://sodipodi.sourceforge.net/DTD/sodipodi-0.dtd"
   xmlns:inkscape="http://www.inkscape.org/namespaces/inkscape"
   width="22"
   height="30"
   viewBox="0 0 22 30"
   fill="none"
   version="1.1"
   id="svg884"
   sodipodi:docname="3.svg"
   inkscape:version="0.92.2 (5c3e80d, 2017-08-06)">
  <metadata
     id="metadata890">
    <rdf:RDF>
      <cc:Work
         rdf:about="">
        <dc:format>image/svg+xml</dc:format>
        <dc:type
           rdf:resource="http://purl.org/dc/dcmitype/StillImage" />
        <dc:title></dc:title>
      </cc:Work>
    </rdf:RDF>
  </metadata>
  <defs
     id="defs888" />
  <sodipodi:namedview
     pagecolor="#ffffff"
     bordercolor="#666666"
     borderopacity="1"
     objecttolerance="10"
     gridtolerance="10"
     guidetolerance="10"
     inkscape:pageopacity="0"
     inkscape:pageshadow="2"
     inkscape:window-width="1366"
     inkscape:window-height="705"
     id="namedview886"
     showgrid="false"
     inkscape:zoom="17.866667"
     inkscape:cx="11"
     inkscape:cy="15"
     inkscape:window-x="-4"
     inkscape:window-y="-4"
     inkscape:window-maximized="1"
     inkscape:current-layer="svg884" />
  <path
     style="fill:#000000;fill-opacity:1"
     inkscape:connector-curvature="0"
     id="path874"
     d="M 21.969,25.9125 20.3697,8.35312 C 20.3265,7.86937 19.9215,7.5 19.4359,7.5 H 16.6234 V 5.625 c 0,-1.5075 -0.585,-2.92125 -1.6444,-3.98063 C 13.9365,0.6 12.4853,0 10.9984,0 7.89716,0 5.37341,2.52375 5.37341,5.625 V 7.5 H 2.56091 C 2.07528,7.5 1.67028,7.86937 1.62716,8.35312 L 0.0315307,25.9106 C -0.0640943,26.9587 0.288406,28.0031 0.997156,28.7794 1.70591,29.5556 2.71466,30 3.76653,30 H 18.2322 c 1.05,0 2.0587,-0.4444 2.7675,-1.2188 0.7106,-0.7762 1.0612,-1.8225 0.9693,-2.8687 z M 14.7484,7.5 H 7.24841 V 5.625 c 0,-2.06813 1.68187,-3.75 3.74999,-3.75 0.9938,0 1.9613,0.3975 2.655,1.09312 0.7069,0.70688 1.095,1.65 1.095,2.65688 z" />
  <path
     style="stroke:#ffffff;fill:#000000;fill-opacity:1"
     inkscape:connector-curvature="0"
     id="path876"
     d="M 18.4078,13.0687 19.4999,24.775 C 19.5626,25.4725 19.3232,26.17 18.838,26.6875 18.354,27.2037 17.6652,27.5 16.9482,27.5" />
  <path
     style="stroke:#ffffff;fill:#000000;fill-opacity:1;stroke-opacity:1"
     inkscape:connector-curvature="0"
     id="path878"
     d="M 18.4078,13.0687 19.4999,24.775 C 19.5626,25.4725 19.3232,26.17 18.838,26.6875 18.354,27.2037 17.6652,27.5 16.9482,27.5" />
  <path
     style="stroke:#ffffff;fill:#000000;fill-opacity:1;stroke-opacity:1"
     inkscape:connector-curvature="0"
     id="path880"
     d="M 3.5402,13 2.4481,24.7062 c -0.06274,0.6975 0.17668,1.395 0.66192,1.9125 0.48395,0.5163 1.17276,0.8125 1.88974,0.8125" />
</svg>
