<?xml version="1.0" encoding="UTF-8" standalone="no"?>
<svg
   xmlns:dc="http://purl.org/dc/elements/1.1/"
   xmlns:cc="http://creativecommons.org/ns#"
   xmlns:rdf="http://www.w3.org/1999/02/22-rdf-syntax-ns#"
   xmlns:svg="http://www.w3.org/2000/svg"
   xmlns="http://www.w3.org/2000/svg"
   xmlns:sodipodi="http://sodipodi.sourceforge.net/DTD/sodipodi-0.dtd"
   xmlns:inkscape="http://www.inkscape.org/namespaces/inkscape"
   width="27"
   height="30"
   viewBox="0 0 27 30"
   fill="none"
   version="1.1"
   id="svg928"
   sodipodi:docname="4.svg"
   inkscape:version="0.92.2 (5c3e80d, 2017-08-06)">
  <metadata
     id="metadata934">
    <rdf:RDF>
      <cc:Work
         rdf:about="">
        <dc:format>image/svg+xml</dc:format>
        <dc:type
           rdf:resource="http://purl.org/dc/dcmitype/StillImage" />
        <dc:title></dc:title>
      </cc:Work>
    </rdf:RDF>
  </metadata>
  <defs
     id="defs932" />
  <sodipodi:namedview
     pagecolor="#ffffff"
     bordercolor="#666666"
     borderopacity="1"
     objecttolerance="10"
     gridtolerance="10"
     guidetolerance="10"
     inkscape:pageopacity="0"
     inkscape:pageshadow="2"
     inkscape:window-width="1366"
     inkscape:window-height="705"
     id="namedview930"
     showgrid="false"
     inkscape:zoom="17.866667"
     inkscape:cx="13.5"
     inkscape:cy="15"
     inkscape:window-x="-4"
     inkscape:window-y="-4"
     inkscape:window-maximized="1"
     inkscape:current-layer="svg928" />
  <path
     style="fill:#000000;fill-opacity:1"
     inkscape:connector-curvature="0"
     id="path920"
     d="M 25.3373,15.6269 15.2046,5.68449 C 14.3561,4.85094 12.9836,4.37892 11.7912,4.50848 L 7.99196,4.92324 8.55284,1.14914 C 8.6337,0.600801 8.24681,0.0906244 7.68695,0.0102815 7.12812,-0.0680527 6.60818,0.309559 6.5263,0.858903 L 5.88866,5.15222 4.05249,5.35208 C 2.63392,5.50774 1.27471,6.83942 1.11504,8.23638 L 0.256319,15.8268 c -0.133055,1.171 0.347992,2.5177 1.197501,3.3513 l 10.13168,9.9414 c 1.1975,1.174 3.1442,1.174 4.3417,0 l 9.408,-9.2304 c 1.1986,-1.176 1.1985,-3.0882 0.0021,-4.2622 z M 6.01046,11.2934 C 6.34207,11.3406 6.6614,11.2271 6.88248,11.0092 7.03294,10.8626 7.13836,10.6678 7.17111,10.4448 L 7.42494,8.73451 c 0.06141,0.0472 0.12487,0.08938 0.18116,0.14562 0.79935,0.78435 0.79833,2.05577 0,2.84007 -0.79936,0.7844 -2.09511,0.7854 -2.89549,0 -0.79834,-0.7833 -0.79834,-2.05572 0,-2.84007 0.20367,-0.19985 0.4401,-0.34849 0.69086,-0.4449 L 5.1456,10.1556 c -0.08086,0.5483 0.30602,1.0575 0.86486,1.1378 z m 8.63534,10.2056 -1.0358,1.0153 -2.1279,-9.845 1.043,-1.0244 z m -0.3491,-4.8316 c -0.0163,-0.5675 0.2109,-1.0817 0.6807,-1.5416 0.4513,-0.4439 0.9365,-0.6588 1.4544,-0.6458 0.5168,0.0151 1.0184,0.2601 1.5066,0.7362 0.4994,0.4911 0.7574,1.0193 0.7758,1.5847 0.0174,0.5644 -0.2078,1.0776 -0.6735,1.5356 -0.4329,0.4238 -0.9181,0.6317 -1.4575,0.6206 -0.5373,-0.01 -1.0409,-0.241 -1.5045,-0.6959 -0.5056,-0.4962 -0.7676,-1.0274 -0.782,-1.5938 z m -2.4492,0.8295 c 0.0153,0.5644 -0.2119,1.0736 -0.6776,1.5305 -0.4329,0.4248 -0.918,0.6317 -1.45743,0.6227 C 9.1741,19.64 8.67259,19.4081 8.20894,18.9531 7.70333,18.457 7.44234,17.9257 7.42596,17.3573 7.41061,16.7909 7.63783,16.2767 8.10659,15.8157 8.55591,15.3758 9.04207,15.1629 9.56406,15.177 c 0.52194,0.0151 1.02554,0.2611 1.51174,0.7381 0.5005,0.4911 0.7574,1.0184 0.7717,1.5818 z m 12.7662,1.6802 -9.4081,9.2304 c -0.7973,0.7833 -2.0961,0.7833 -2.8945,0 L 2.17948,18.467 C 1.55924,17.8574 1.17747,16.7939 1.27573,15.9362 L 2.13342,8.34786 C 2.18869,7.87484 2.43229,7.40483 2.82122,7.02321 3.21015,6.64158 3.69017,6.40256 4.16815,6.35033 L 5.73718,6.17961 5.58468,7.20699 4.28176,7.34759 C 3.7219,7.40885 3.21322,7.90798 3.15181,8.45732 L 2.29309,16.0487 c -0.06346,0.5494 0.21187,1.3176 0.61001,1.7083 l 10.1317,9.9404 c 0.3981,0.3917 1.048,0.3917 1.4462,0 l 9.408,-9.2304 c 0.3992,-0.3916 0.3992,-1.0294 0,-1.42 L 13.7584,7.10556 C 13.3602,6.71489 12.5773,6.44474 12.0174,6.507 L 7.689,6.97701 7.84048,5.95163 11.9058,5.50874 c 0.8721,-0.0954 1.956,0.27719 2.5772,0.88679 l 10.1317,9.94137 c 0.7963,0.7824 0.7963,2.0568 -10e-4,2.8402 z" />
  <path
     style="fill:#000000;fill-opacity:1"
     inkscape:connector-curvature="0"
     id="path922"
     d="m 17.3438,17.5541 c 0.4022,-0.3947 0.3193,-0.8677 -0.2457,-1.423 -0.263,-0.2581 -0.5209,-0.4048 -0.7717,-0.4409 -0.2518,-0.0362 -0.4657,0.0321 -0.6407,0.2038 -0.4094,0.4018 -0.3275,0.8848 0.2446,1.4482 0.5435,0.5343 1.0143,0.6036 1.4135,0.2119 z" />
  <path
     style="fill:#000000;fill-opacity:1"
     inkscape:connector-curvature="0"
     id="path924"
     d="m 8.82813,16.573 c -0.41247,0.4047 -0.33264,0.8897 0.24155,1.4521 0.54245,0.5323 1.01022,0.6066 1.40322,0.221 0.4012,-0.3937 0.3193,-0.8677 -0.2456,-1.4231 -0.55171,-0.5413 -1.0174,-0.6246 -1.39917,-0.25 z" />
</svg>
