<svg width="32" height="32" viewBox="0 0 32 32" fill="none" xmlns="http://www.w3.org/2000/svg">
<path d="M21.625 19.75C21.625 20.2678 21.2053 20.6875 20.6875 20.6875C20.1697 20.6875 19.75 20.2678 19.75 19.75C19.75 19.2322 20.1697 18.8125 20.6875 18.8125C21.2053 18.8125 21.625 19.2322 21.625 19.75Z" fill="#929292"/>
<path d="M12.25 12.25C12.25 12.7678 11.8303 13.1875 11.3125 13.1875C10.7947 13.1875 10.375 12.7678 10.375 12.25C10.375 11.7322 10.7947 11.3125 11.3125 11.3125C11.8303 11.3125 12.25 11.7322 12.25 12.25Z" fill="#929292"/>
<path d="M32 16L28.6187 12.6187L29.8564 8L25.2375 6.76245L24 2.14355L19.3813 3.38135L16 0L12.6187 3.38135L8 2.14355L6.76245 6.76245L2.14355 8L3.38135 12.6187L0 16L3.38135 19.3813L2.14355 24L6.76245 25.2375L8 29.8564L12.6187 28.6187L16 32L19.3813 28.6187L24 29.8564L25.2375 25.2375L29.8564 24L28.6187 19.3813L32 16ZM17.875 19.75C17.875 18.1992 19.1367 16.9375 20.6875 16.9375C22.2383 16.9375 23.5 18.1992 23.5 19.75C23.5 21.3008 22.2383 22.5625 20.6875 22.5625C19.1367 22.5625 17.875 21.3008 17.875 19.75ZM14.125 12.25C14.125 13.8008 12.8633 15.0625 11.3125 15.0625C9.76172 15.0625 8.5 13.8008 8.5 12.25C8.5 10.6992 9.76172 9.4375 11.3125 9.4375C12.8633 9.4375 14.125 10.6992 14.125 12.25ZM20.0247 10.6497L21.3503 11.9753L11.9753 21.3503L10.6497 20.0247L20.0247 10.6497Z" fill="#929292"/>
</svg>
