<svg width="30" height="31" viewBox="0 0 30 31" fill="none" xmlns="http://www.w3.org/2000/svg">
<g clip-path="url(#clip0)">
<path d="M15.0225 14.9267C16.9569 14.9267 18.6319 14.2329 20.0006 12.8641C21.3692 11.4955 22.063 9.82087 22.063 7.88624C22.063 5.95228 21.3692 4.27746 20.0003 2.90839C18.6315 1.53998 16.9566 0.846191 15.0225 0.846191C13.0878 0.846191 11.4132 1.53998 10.0446 2.90861C8.67595 4.27723 7.98193 5.95206 7.98193 7.88624C7.98193 9.82087 8.67595 11.4957 10.0448 12.8643C11.4137 14.2327 13.0885 14.9267 15.0225 14.9267Z" fill="black"/>
<path d="M27.3417 23.323C27.3022 22.7534 27.2224 22.1321 27.1049 21.476C26.9862 20.815 26.8335 20.1901 26.6506 19.619C26.4617 19.0286 26.2048 18.4457 25.8872 17.887C25.5576 17.3072 25.1704 16.8023 24.736 16.3868C24.2817 15.9522 23.7255 15.6027 23.0824 15.3478C22.4414 15.0943 21.7311 14.9658 20.9713 14.9658C20.6729 14.9658 20.3844 15.0882 19.8271 15.4511C19.4841 15.6748 19.0829 15.9334 18.635 16.2196C18.2521 16.4635 17.7334 16.6921 17.0927 16.8991C16.4676 17.1014 15.8329 17.204 15.2064 17.204C14.58 17.204 13.9455 17.1014 13.3198 16.8991C12.6797 16.6924 12.161 16.4638 11.7785 16.2198C11.3349 15.9363 10.9335 15.6777 10.5854 15.4509C10.0287 15.088 9.73995 14.9656 9.44156 14.9656C8.68153 14.9656 7.97145 15.0943 7.33074 15.348C6.68801 15.6025 6.1316 15.952 5.67687 16.3871C5.24267 16.8028 4.85529 17.3074 4.52613 17.887C4.20878 18.4457 3.95187 19.0284 3.76275 19.6192C3.5801 20.1903 3.42734 20.815 3.3087 21.476C3.19117 22.1312 3.11133 22.7527 3.07186 23.3236C3.03305 23.8829 3.01343 24.4634 3.01343 25.0497C3.01343 26.5756 3.49848 27.8109 4.45498 28.7219C5.39967 29.6208 6.64966 30.0769 8.16971 30.0769H22.2445C23.7646 30.0769 25.0141 29.6211 25.959 28.7219C26.9157 27.8115 27.4008 26.576 27.4008 25.0495C27.4006 24.4605 27.3807 23.8796 27.3417 23.323Z" fill="black"/>
</g>
<defs>
<clipPath id="clip0">
<rect x="0.615479" y="0.846191" width="29.2308" height="29.2308" fill="white"/>
</clipPath>
</defs>
</svg>
