<svg width="30" height="30" viewBox="0 0 30 30" fill="none" xmlns="http://www.w3.org/2000/svg">
<g clip-path="url(#clip0)">
<path d="M29.4851 10.947L28.0179 9.47971C27.3325 8.79428 26.2174 8.79439 25.5319 9.47971L22.4414 12.5702V2.63672C22.4414 1.18283 21.2586 0 19.8047 0H2.63672C1.18283 0 0 1.18283 0 2.63672V27.3633C0 28.8172 1.18283 30 2.63672 30H19.8047C21.2586 30 22.4414 28.8172 22.4414 27.3633V20.3887L29.4851 13.4329C30.1705 12.7475 30.1705 11.6323 29.4851 10.947ZM18.9735 21.3428L16.3296 22.5767L17.5622 19.9354L24.1233 13.3744L25.5739 14.8249L18.9735 21.3428ZM20.6836 27.3633C20.6836 27.8479 20.2893 28.2422 19.8047 28.2422H2.63672C2.15209 28.2422 1.75781 27.8479 1.75781 27.3633V2.63672C1.75781 2.15209 2.15209 1.75781 2.63672 1.75781H19.8047C20.2893 1.75781 20.6836 2.15209 20.6836 2.63672V14.328C15.8098 19.2018 16.1281 18.8517 16.0348 19.0516L13.7146 24.0236C13.5583 24.3585 13.6282 24.7554 13.8895 25.0167C14.1509 25.2781 14.5479 25.3479 14.8827 25.1917L19.8546 22.8714C20.0369 22.7863 20.0669 22.7335 20.6836 22.1245V27.3633ZM26.8246 13.5898L25.3662 12.1314L26.7749 10.7227L28.2417 12.1904L26.8246 13.5898Z" fill="#F98500"/>
<path d="M4.6875 7.44141H17.8125C18.2979 7.44141 18.6914 7.04789 18.6914 6.5625C18.6914 6.07711 18.2979 5.68359 17.8125 5.68359H4.6875C4.20211 5.68359 3.80859 6.07711 3.80859 6.5625C3.80859 7.04789 4.20211 7.44141 4.6875 7.44141Z" fill="#F98500"/>
<path d="M4.6875 12.1289H15C15.4854 12.1289 15.8789 11.7354 15.8789 11.25C15.8789 10.7646 15.4854 10.3711 15 10.3711H4.6875C4.20211 10.3711 3.80859 10.7646 3.80859 11.25C3.80859 11.7354 4.20211 12.1289 4.6875 12.1289Z" fill="#F98500"/>
<path d="M12.1875 15.0586H4.6875C4.20211 15.0586 3.80859 15.4521 3.80859 15.9375C3.80859 16.4229 4.20211 16.8164 4.6875 16.8164H12.1875C12.6729 16.8164 13.0664 16.4229 13.0664 15.9375C13.0664 15.4521 12.6729 15.0586 12.1875 15.0586Z" fill="#F98500"/>
</g>
<defs>
<clipPath id="clip0">
<rect width="30" height="30" fill="white"/>
</clipPath>
</defs>
</svg>
