<svg width="25" height="22" viewBox="0 0 25 22" fill="none" xmlns="http://www.w3.org/2000/svg">
<path fill-rule="evenodd" clip-rule="evenodd" d="M20.4688 5.86927C20.9866 5.86927 21.4062 6.28767 21.4062 6.80573C21.4062 7.32243 20.9866 7.74219 20.4688 7.74219C19.9523 7.74219 19.5327 7.32243 19.5327 6.80573C19.5327 6.28767 19.9523 5.86927 20.4688 5.86927ZM14.6478 5.86927C15.1644 5.86927 15.5839 6.28767 15.5839 6.80573C15.5839 7.32243 15.1644 7.74219 14.6478 7.74219C14.13 7.74219 13.7104 7.32243 13.7104 6.80573C13.7104 6.28767 14.13 5.86927 14.6478 5.86927ZM10.6752 16.2872L17.5756 17.0603L24.4415 16.2872L23.2093 3.48227C23.1974 3.35079 23.1018 3.24316 22.9703 3.24316H20.4688H14.6478H12.1463C12.0149 3.24316 11.9193 3.35074 11.9073 3.48227L11.7374 5.24893L11.582 6.85753L10.6752 16.2872Z" fill="#FFE07D"/>
<path fill-rule="evenodd" clip-rule="evenodd" d="M12.5406 18.665H24.4082C24.5038 18.665 24.5941 18.6079 24.6313 18.5269V18.2506L24.4414 16.2874H10.6751L10.4693 18.4259C10.456 18.5574 10.5768 18.665 10.7083 18.665H12.5406Z" fill="#FFC269"/>
<path fill-rule="evenodd" clip-rule="evenodd" d="M24.6317 18.2506L24.4418 16.2874H22.899L22.9162 16.4587L23.0888 18.2506V18.5269C23.0516 18.6079 22.9613 18.665 22.8657 18.665H24.4086C24.5042 18.665 24.5945 18.6079 24.6317 18.5269V18.2506H24.6317Z" fill="#FFA95F"/>
<path fill-rule="evenodd" clip-rule="evenodd" d="M8.26561 6.85726L9.92001 7.46298L11.5824 6.85726L12.2224 6.043L11.7377 5.24865C11.1721 4.82626 10.471 4.5752 9.7102 4.5752C8.84981 4.5752 8.06376 4.89798 7.46625 5.42799L7.42908 6.47073L8.26561 6.85726Z" fill="#FF8086"/>
<path fill-rule="evenodd" clip-rule="evenodd" d="M2.01038 6.85804L5.50507 7.6205L8.26551 6.85804L7.46621 5.42879L6.69479 4.04866C6.62706 3.92777 6.47837 3.89191 6.36287 3.96761L2.01038 6.85804Z" fill="#FFE07D"/>
<path fill-rule="evenodd" clip-rule="evenodd" d="M1.57994 21.4449H7.19242H12.3123C12.4371 21.4449 12.5407 21.3426 12.5407 21.2164V18.6648L11.582 6.85742H8.26529H2.01015H1.57994C1.4538 6.85742 1.35156 6.96101 1.35156 7.0872V21.2164C1.35156 21.3426 1.4538 21.4449 1.57994 21.4449Z" fill="#ECEAEC"/>
<path fill-rule="evenodd" clip-rule="evenodd" d="M20.4688 5.86927C20.9866 5.86927 21.4062 6.28767 21.4062 6.80573C21.4062 7.32243 20.9866 7.74219 20.4688 7.74219C19.9523 7.74219 19.5327 7.32243 19.5327 6.80573C19.5327 6.28767 19.9523 5.86927 20.4688 5.86927ZM14.6478 5.86927C15.1644 5.86927 15.5839 6.28767 15.5839 6.80573C15.5839 7.32243 15.1644 7.74219 14.6478 7.74219C14.13 7.74219 13.7104 7.32243 13.7104 6.80573C13.7104 6.28767 14.13 5.86927 14.6478 5.86927ZM10.6752 16.2872L17.5756 17.0603L24.4415 16.2872L23.2093 3.48227C23.1974 3.35079 23.1018 3.24316 22.9703 3.24316H20.4688H14.6478H12.1463C12.0149 3.24316 11.9193 3.35074 11.9073 3.48227L11.7374 5.24893L11.582 6.85753L10.6752 16.2872Z" fill="#FFE07D"/>
<path fill-rule="evenodd" clip-rule="evenodd" d="M12.5406 18.665H24.4082C24.5038 18.665 24.5941 18.6079 24.6313 18.5269V18.2506L24.4414 16.2874H10.6751L10.4693 18.4259C10.456 18.5574 10.5768 18.665 10.7083 18.665H12.5406Z" fill="#FFC269"/>
<path fill-rule="evenodd" clip-rule="evenodd" d="M11.5819 6.85742H10.0828L10.0284 7.42461L8.80025 20.187C8.78431 20.3491 8.93304 20.4832 9.09635 20.4832H11.3602H12.5406V18.6648H10.7083C10.5768 18.6648 10.456 18.5572 10.4693 18.4257C10.8397 14.5696 11.2114 10.7135 11.5819 6.85742Z" fill="#DAD8DB"/>
<path fill-rule="evenodd" clip-rule="evenodd" d="M24.4418 16.2872L23.2096 3.48227C23.1977 3.35079 23.1021 3.24316 22.9706 3.24316H21.4277C21.5592 3.24316 21.6548 3.35074 21.6667 3.48227L22.8989 16.2872H24.4418Z" fill="#FFC269"/>
<path fill-rule="evenodd" clip-rule="evenodd" d="M8.26555 6.85806L7.46624 5.4288L6.69482 4.04866C6.62709 3.92777 6.4784 3.89191 6.3629 3.96761L5.45203 4.57333C5.69367 5.07011 5.82913 5.63069 5.82913 6.22445C5.82913 6.43965 5.81053 6.65218 5.77603 6.85806H8.26555Z" fill="#FFC269"/>
<path fill-rule="evenodd" clip-rule="evenodd" d="M11.5821 6.85789L11.7374 5.24929C11.1824 4.83487 10.4986 4.58648 9.755 4.57715C9.998 5.07393 10.1334 5.63713 10.1334 6.23089C10.1334 6.44474 10.1162 6.65464 10.083 6.85784H11.5821V6.85789Z" fill="#F76672"/>
<path d="M3.3793 8.75586C3.18515 8.75586 3.02774 8.91327 3.02774 9.10742V10.4424C3.02774 12.052 4.33682 13.3616 5.94589 13.3616C7.55567 13.3616 8.86536 12.052 8.86536 10.4424V9.10742C8.86536 8.91327 8.70795 8.75586 8.5138 8.75586C8.31964 8.75586 8.16223 8.91327 8.16223 9.10742V10.4424C8.16223 11.6643 7.16797 12.6585 5.94589 12.6585C4.72452 12.6585 3.73086 11.6643 3.73086 10.4424V9.10742C3.73086 8.91327 3.57346 8.75586 3.3793 8.75586Z" fill="black"/>
<path d="M23.9972 18.3922L23.7939 16.2802C23.7936 16.2624 23.7918 16.245 23.7889 16.2279L22.5594 3.45058C22.5305 3.13202 22.2772 2.89174 21.9703 2.89174H19.7986C19.6136 1.26679 18.2314 0 16.5583 0C14.8852 0 13.5031 1.26679 13.3181 2.89174H11.1464C10.8395 2.89174 10.5862 3.13198 10.5574 3.44871L10.442 4.64842C9.91038 4.36947 9.32121 4.22401 8.70992 4.22401C7.9415 4.22401 7.19723 4.46158 6.57262 4.89835L6.00122 3.87644C5.92158 3.73422 5.78639 3.63077 5.63035 3.59261C5.47421 3.55441 5.3063 3.5838 5.16807 3.67436L0.904024 6.50606H0.579933C0.260154 6.50606 0 6.76687 0 7.08744V21.2167C0 21.5365 0.260154 21.7967 0.579933 21.7967H5.29618C5.49033 21.7967 5.64774 21.6393 5.64774 21.4451C5.64774 21.251 5.49033 21.0936 5.29618 21.0936H0.70312V7.20918H10.1955L9.32768 16.2276C9.32472 16.2449 9.3229 16.2626 9.32257 16.2807L9.11955 18.3906C9.10371 18.5473 9.15448 18.6994 9.26243 18.8188C9.37605 18.9445 9.53857 19.0165 9.70835 19.0165H11.1891V21.0936H6.77132C6.57717 21.0936 6.41976 21.251 6.41976 21.4451C6.41976 21.6393 6.57717 21.7967 6.77132 21.7967H11.3123C11.6321 21.7967 11.8922 21.5365 11.8922 21.2167V19.0165H23.4083C23.578 19.0165 23.7405 18.9444 23.8542 18.8188C23.9621 18.6994 24.0128 18.5473 23.9972 18.3922ZM20.0546 6.80582C20.0546 7.12832 19.7918 7.39072 19.4688 7.39072C19.1465 7.39072 18.8842 7.12832 18.8842 6.80582C18.8842 6.48332 19.1465 6.22092 19.4688 6.22092C19.7918 6.22092 20.0546 6.48328 20.0546 6.80582ZM16.5583 0.703119C17.8432 0.703119 18.9095 1.65557 19.0899 2.89174H14.0267C14.2071 1.65557 15.2734 0.703119 16.5583 0.703119ZM13.6478 6.22092C13.9701 6.22092 14.2324 6.48332 14.2324 6.80582C14.2324 7.12832 13.9701 7.39072 13.6478 7.39072C13.3248 7.39072 13.062 7.12832 13.062 6.80582C13.062 6.48332 13.3248 6.22092 13.6478 6.22092ZM5.44993 4.33122L6.15839 5.59838C6.15994 5.60119 6.16148 5.60405 6.16312 5.60686L6.6659 6.50611H2.17503L5.44993 4.33122ZM7.47149 6.50606L6.91743 5.51513C7.43591 5.13427 8.06258 4.92713 8.70987 4.92713C9.3049 4.92713 9.87391 5.09729 10.3677 5.42002L10.2632 6.50606H7.47149ZM9.83336 18.3134L9.99452 16.6389H15.7776C15.9718 16.6389 16.1291 16.4814 16.1291 16.2873C16.1291 16.0931 15.9718 15.9357 15.7776 15.9357H10.0622L11.2497 3.59486H13.2963V5.56688C12.7559 5.72021 12.3589 6.2174 12.3589 6.80582C12.3589 7.51602 12.9371 8.09384 13.6478 8.09384C14.3578 8.09384 14.9355 7.51602 14.9355 6.80582C14.9355 6.21755 14.539 5.72049 13.9994 5.56702V3.59486H19.1172V5.56702C18.5776 5.72049 18.1811 6.21755 18.1811 6.80582C18.1811 7.51602 18.7588 8.09384 19.4688 8.09384C20.1795 8.09384 20.7577 7.51602 20.7577 6.80582C20.7577 6.2174 20.3607 5.72025 19.8203 5.56688V3.59486H21.8669L23.0544 15.9357H17.3988C17.2046 15.9357 17.0472 16.0931 17.0472 16.2873C17.0472 16.4814 17.2046 16.6389 17.3988 16.6389H23.1221L23.2833 18.3134H9.83336Z" fill="black"/>
</svg>
