<svg width="24" height="24" viewBox="0 0 24 24" fill="none" xmlns="http://www.w3.org/2000/svg">
<path d="M22.3009 2.87289C20.0355 0.607474 16.3493 0.607474 14.0839 2.87289L0.728221 16.2286C-0.242699 17.1996 -0.242699 18.7792 0.728221 19.7502L3.07595 22.0979C4.04687 23.0689 5.62655 23.0689 6.59752 22.0979L16.9712 11.7243C17.9421 10.7534 17.9421 9.17368 16.9712 8.20271C16.0003 7.23174 14.4206 7.23179 13.4496 8.20271L7.92099 13.7313C7.59685 14.0554 7.59685 14.581 7.92099 14.9051C8.24513 15.2293 8.77069 15.2293 9.09483 14.9051L14.6234 9.37655C14.947 9.05297 15.4736 9.05283 15.7972 9.37655C16.121 9.70027 16.1208 10.2269 15.7972 10.5504L5.42368 20.924C5.1001 21.2476 4.57351 21.2477 4.24984 20.924L1.90211 18.5763C1.57839 18.2526 1.57853 17.726 1.90211 17.4024L15.2578 4.04678C16.8758 2.4287 19.5088 2.42856 21.127 4.04678C22.7452 5.665 22.7451 8.29801 21.127 9.91603L12.6164 18.4266C12.2923 18.7508 12.2923 19.2763 12.6164 19.6005C12.9405 19.9246 13.4661 19.9246 13.7902 19.6005L22.3009 11.0899C24.5664 8.82446 24.5664 5.1384 22.3009 2.87289Z" fill="#FF6464"/>
<path d="M14.0365 8.78963L8.50793 14.3182C8.29122 14.5349 8.22288 14.8408 8.29591 15.1172C8.15885 15.081 8.02849 15.0126 7.92105 14.9052C7.59691 14.5811 7.59691 14.0555 7.92105 13.7314L13.4496 8.2028C14.4205 7.23188 16.0002 7.23188 16.9712 8.2028C17.0714 8.30297 17.1586 8.41092 17.2381 8.52277C16.2663 7.8316 14.9072 7.91888 14.0365 8.78963Z" fill="#D2555A"/>
<path d="M21.4057 4.35522C21.5119 4.44218 21.615 4.53476 21.714 4.6338C23.3322 6.25202 23.3321 8.88503 21.714 10.5031L13.2034 19.0137C12.9867 19.2304 12.9184 19.5363 12.9914 19.8126C12.8543 19.7765 12.724 19.7081 12.6165 19.6006C12.2924 19.2765 12.2924 18.7509 12.6165 18.4268L21.1272 9.91618C22.6461 8.39711 22.7388 5.98385 21.4057 4.35522Z" fill="#D2555A"/>
<path d="M5.42369 20.9241L15.7973 10.5505C16.0136 10.3342 16.0819 10.0282 16.0092 9.75171C16.1464 9.7878 16.2769 9.85615 16.3843 9.96354C16.708 10.2873 16.7079 10.8138 16.3843 11.1374L6.01061 21.5111C5.68703 21.8347 5.16044 21.8348 4.83677 21.5111L4.24985 20.9241C4.57352 21.2478 5.10011 21.2477 5.42369 20.9241Z" fill="#D2555A"/>
<path d="M14.6708 3.45986L1.3152 16.8155C0.344282 17.7864 0.344282 19.3661 1.3152 20.3371L0.728282 19.7502C-0.242638 18.7792 -0.242638 17.1996 0.728282 16.2286L14.0839 2.87289C16.3493 0.607474 20.0355 0.607474 22.3009 2.87289C22.4 2.97194 22.4891 3.07698 22.5795 3.18119C20.2995 1.20433 16.8373 1.29344 14.6708 3.45986Z" fill="#D2555A"/>
</svg>
