<?xml version="1.0" encoding="UTF-8" standalone="no"?>
<svg
   xmlns:dc="http://purl.org/dc/elements/1.1/"
   xmlns:cc="http://creativecommons.org/ns#"
   xmlns:rdf="http://www.w3.org/1999/02/22-rdf-syntax-ns#"
   xmlns:svg="http://www.w3.org/2000/svg"
   xmlns="http://www.w3.org/2000/svg"
   xmlns:sodipodi="http://sodipodi.sourceforge.net/DTD/sodipodi-0.dtd"
   xmlns:inkscape="http://www.inkscape.org/namespaces/inkscape"
   width="24"
   height="24"
   viewBox="0 0 24 24"
   version="1.1"
   id="svg4"
   sodipodi:docname="back.svg"
   inkscape:version="0.92.2 (5c3e80d, 2017-08-06)"
   style="fill:none">
  <metadata
     id="metadata10">
    <rdf:RDF>
      <cc:Work
         rdf:about="">
        <dc:format>image/svg+xml</dc:format>
        <dc:type
           rdf:resource="http://purl.org/dc/dcmitype/StillImage" />
        <dc:title></dc:title>
      </cc:Work>
    </rdf:RDF>
  </metadata>
  <defs
     id="defs8" />
  <sodipodi:namedview
     pagecolor="#ffffff"
     bordercolor="#666666"
     borderopacity="1"
     objecttolerance="10"
     gridtolerance="10"
     guidetolerance="10"
     inkscape:pageopacity="0"
     inkscape:pageshadow="2"
     inkscape:window-width="1366"
     inkscape:window-height="705"
     id="namedview6"
     showgrid="false"
     inkscape:zoom="13.111111"
     inkscape:cx="0.50847458"
     inkscape:cy="12.050847"
     inkscape:window-x="-4"
     inkscape:window-y="-4"
     inkscape:window-maximized="1"
     inkscape:current-layer="svg4" />
  <path
     d="m 10.242077,11.648155 7.223004,-7.223337 c 0.19887,-0.1984203 0.308282,-0.4637102 0.308282,-0.7465703 0,-0.2830316 -0.109406,-0.5481607 -0.308282,-0.7468889 L 16.832212,2.2987519 C 16.633556,2.0997084 16.368158,1.9901406 16.085288,1.9901406 c -0.282871,0 -0.548,0.1095676 -0.746721,0.3086113 L 6.7384092,10.898753 c -0.1995187,0.199352 -0.3087722,0.465748 -0.307987,0.74893 -7.852e-4,0.284437 0.108312,0.550509 0.307987,0.750024 l 8.5921448,8.591684 c 0.198731,0.199086 0.46386,0.308604 0.746882,0.308604 0.28287,0 0.547967,-0.109523 0.746838,-0.308604 l 0.632762,-0.632653 c 0.411793,-0.411687 0.411793,-1.081991 0,-1.49357 z"
     id="path2"
     style="fill:#000000;fill-opacity:1;stroke-width:1.07265866"
     inkscape:connector-curvature="0" />
</svg>
