<svg width="21" height="21" viewBox="0 0 21 21" fill="none" xmlns="http://www.w3.org/2000/svg">
<g clip-path="url(#clip0)">
<path d="M18.5937 20.9999H2.4063C1.0789 20.9999 0 19.921 0 18.5936V4.15614C0 2.82874 1.0789 1.75 2.4063 1.75H18.5937C19.9211 1.75 21 2.82874 21 4.15614V18.5936C21 19.921 19.9211 20.9999 18.5937 20.9999ZM2.4063 3.0625C1.80341 3.0625 1.3125 3.55325 1.3125 4.15614V18.5936C1.3125 19.1965 1.80341 19.6874 2.4063 19.6874H18.5937C19.1966 19.6874 19.6875 19.1965 19.6875 18.5936V4.15614C19.6875 3.55325 19.1966 3.0625 18.5937 3.0625H2.4063Z" fill="black"/>
<path d="M20.3438 8.3125H0.65625C0.293999 8.3125 0 8.0185 0 7.65625C0 7.294 0.293999 7 0.65625 7H20.3438C20.706 7 21 7.294 21 7.65625C21 8.0185 20.706 8.3125 20.3438 8.3125Z" fill="black"/>
<path d="M5.03125 5.25C4.669 5.25 4.375 4.956 4.375 4.59375V0.65625C4.375 0.293999 4.669 0 5.03125 0C5.3935 0 5.6875 0.293999 5.6875 0.65625V4.59375C5.6875 4.956 5.3935 5.25 5.03125 5.25Z" fill="black"/>
<path d="M15.9688 5.25C15.6065 5.25 15.3125 4.956 15.3125 4.59375V0.65625C15.3125 0.293999 15.6065 0 15.9688 0C16.331 0 16.625 0.293999 16.625 0.65625V4.59375C16.625 4.956 16.331 5.25 15.9688 5.25Z" fill="black"/>
</g>
<defs>
<clipPath id="clip0">
<rect width="21" height="21" fill="white"/>
</clipPath>
</defs>
</svg>
