<svg width="60" height="60" viewBox="0 0 60 60" fill="none" xmlns="http://www.w3.org/2000/svg">
<g clip-path="url(#clip0)">
<path d="M42.7042 2.42828V57.5714C42.7042 58.4238 42.012 59.1159 41.1588 59.1159H2.54639C1.69312 59.1159 1.00098 58.4238 1.00098 57.5714V2.42828C1.00098 1.57593 1.69312 0.883789 2.54639 0.883789H41.1588C42.012 0.883789 42.7042 1.57593 42.7042 2.42828Z" fill="#D2D2D7"/>
<path d="M42.7046 2.42828V57.5714C42.7046 58.4238 42.0125 59.1159 41.1592 59.1159H6.0835C5.22977 59.1159 4.53809 58.4238 4.53809 57.5714V2.42828C4.53809 1.57593 5.22977 0.883789 6.0835 0.883789H41.1592C42.0125 0.883789 42.7046 1.57593 42.7046 2.42828Z" fill="#EBEBF0"/>
<path d="M59.1573 46.5714C59.1573 52.888 54.4812 58.1125 48.4008 58.9708C47.8231 59.0532 47.2325 59.0958 46.6329 59.0958C39.7156 59.0958 34.1094 53.4882 34.1094 46.5714C34.1094 39.6541 39.7156 34.0479 46.6329 34.0479C47.2325 34.0479 47.8231 34.0904 48.4008 34.1728C54.4812 35.0307 59.1573 40.2542 59.1573 46.5714Z" fill="#C42D2D"/>
<path d="M59.1582 46.5714C59.1582 52.8881 54.4821 58.1125 48.4016 58.9708C42.3216 58.1125 37.6465 52.8881 37.6465 46.5714C37.6465 40.2542 42.3216 35.0307 48.4016 34.1729C54.4821 35.0307 59.1582 40.2542 59.1582 46.5714Z" fill="#F44545"/>
<path d="M52.3451 49.7821L49.1343 46.5714L52.3451 43.3602C53.0354 42.6699 53.0354 41.5502 52.3451 40.8599C51.6543 40.1691 50.5351 40.1691 49.8443 40.8599L46.6335 44.0706L43.4228 40.8599C42.732 40.1691 41.6123 40.1691 40.922 40.8599C40.2317 41.5502 40.2317 42.6699 40.922 43.3602L44.1328 46.5714L40.922 49.7821C40.2317 50.4729 40.2317 51.5921 40.922 52.2829C41.6123 52.9732 42.732 52.9732 43.4228 52.2829L46.6335 49.0717L49.8443 52.2829C50.5351 52.9732 51.6543 52.9732 52.3451 52.2829C53.0354 51.5921 53.0354 50.4729 52.3451 49.7821Z" fill="#AF2727"/>
<path d="M5.51871 41.0335H30.7982C31.2867 41.0335 31.6826 40.6375 31.6826 40.1495C31.6826 39.6611 31.2867 39.2651 30.7982 39.2651H5.51871C5.03027 39.2651 4.63477 39.6611 4.63477 40.1495C4.63477 40.6375 5.03027 41.0335 5.51871 41.0335Z" fill="black"/>
<path d="M6.07846 12H36.921C37.5169 12 38 11.5522 38 11.0003C38 10.4478 37.5169 10 36.921 10H6.07846C5.48254 10 5 10.4478 5 11.0003C5 11.5522 5.48254 12 6.07846 12Z" fill="black"/>
<path d="M6.07846 20H36.921C37.5169 20 38 19.5522 38 19.0003C38 18.4478 37.5169 18 36.921 18H6.07846C5.48254 18 5 18.4478 5 19.0003C5 19.5522 5.48254 20 6.07846 20Z" fill="black"/>
<path d="M6.07846 28H36.921C37.5169 28 38 27.5522 38 27.0003C38 26.4478 37.5169 26 36.921 26H6.07846C5.48254 26 5 26.4478 5 27.0003C5 27.5522 5.48254 28 6.07846 28Z" fill="black"/>
<path d="M30.1894 45.6378C30.1894 45.1494 29.7935 44.7539 29.3055 44.7539H5.51871C5.03027 44.7539 4.63477 45.1494 4.63477 45.6378C4.63477 46.1263 5.03027 46.5218 5.51871 46.5218H29.3055C29.7935 46.5218 30.1894 46.1263 30.1894 45.6378Z" fill="black"/>
<path d="M5.51871 50.2417C5.03073 50.2417 4.63477 50.6381 4.63477 51.1261C4.63477 51.6141 5.03073 52.01 5.51871 52.01H23.2003C23.6896 52.01 24.0847 51.6141 24.0847 51.1261C24.0847 50.6381 23.6896 50.2417 23.2003 50.2417H5.51871Z" fill="black"/>
<path d="M26.7369 52.01H31.5851C32.0731 52.01 32.4691 51.6141 32.4691 51.1261C32.4691 50.6381 32.0731 50.2417 31.5851 50.2417H26.7369C26.249 50.2417 25.8525 50.6381 25.8525 51.1261C25.8525 51.6141 26.249 52.01 26.7369 52.01Z" fill="black"/>
<path d="M58.2641 46.1082C58.2843 46.5948 58.6899 46.9766 59.1824 46.9556C59.6704 46.9368 60.0499 46.5253 60.0311 46.0373C59.6992 37.6959 51.8495 31.5857 43.5882 33.5106V2.42844C43.5882 1.08902 42.4978 0 41.1589 0H25.3514C24.862 0 24.4675 0.395966 24.4675 0.883942C24.4675 1.37192 24.862 1.76834 25.3514 1.76834H41.1589C41.5233 1.76834 41.8199 2.06406 41.8199 2.42844V34.0489C31.2909 38.0946 30.1643 52.6149 40.0026 58.2317H2.54654C2.18262 58.2317 1.88553 57.9359 1.88553 57.5716V2.42844C1.88553 2.06406 2.18262 1.76834 2.54654 1.76834H21.8152C22.3032 1.76834 22.6991 1.37192 22.6991 0.883942C22.6991 0.395966 22.3032 0 21.8152 0H2.54654C1.20758 0 0.117188 1.08902 0.117188 2.42844V57.5716C0.117188 58.911 1.20758 60 2.54654 60H41.1589C41.7636 60 42.3166 59.7784 42.7432 59.4095C50.1283 61.6383 57.8228 57.2049 59.6516 49.7905C59.7683 49.3167 59.4781 48.837 59.0043 48.7202C58.5306 48.6035 58.0508 48.8937 57.9341 49.3675C55.7542 58.2138 44.7391 61.1389 38.4027 54.8026C36.2045 52.603 34.9937 49.6811 34.9937 46.5715C34.9937 36.3121 47.4902 30.9709 54.8643 38.3409C56.9403 40.4169 58.1474 43.1754 58.2641 46.1082Z" fill="black"/>
<path d="M42.1718 53.6845C42.88 53.6845 43.546 53.4089 44.0473 52.9082L46.6332 50.3222L49.1838 52.8729C50.1799 53.8685 51.8151 53.9633 52.878 52.9956C53.9913 51.9826 54.0485 50.2353 52.97 49.1572L50.3841 46.5713L52.9348 44.0207C53.4433 43.5121 53.7354 42.8085 53.7354 42.0907C53.7354 39.7516 50.8812 38.5724 49.2191 40.2345L46.6332 42.8204L44.0825 40.2702C42.3957 38.5824 39.5195 39.7346 39.5195 42.11C39.5195 42.8186 39.7956 43.4846 40.2964 43.9854L42.8823 46.5713L40.3321 49.122C38.6534 50.7997 39.78 53.6845 42.1718 53.6845ZM41.5822 50.3721L44.554 47.4003C45.0122 46.9421 45.0122 46.201 44.554 45.7423L41.547 42.7353C41.1949 42.3837 41.1972 41.8019 41.5786 41.4549C41.9356 41.1299 42.4964 41.1839 42.8324 41.5204L45.8051 44.4931C46.2619 44.949 47.0017 44.9518 47.4622 44.4922C50.4871 41.5835 50.4555 41.226 51.095 41.226C51.9002 41.226 52.2609 42.1942 51.6841 42.771L48.7123 45.7428C48.7032 45.7565 48.369 46.0504 48.369 46.5713C48.369 46.8844 48.4912 47.1788 48.7123 47.4003C51.6214 50.4252 51.9785 50.3932 51.9785 51.0327C51.9785 51.8429 51.0089 52.1977 50.434 51.6223L47.4613 48.65C47.0017 48.1909 46.2596 48.1941 45.8042 48.6505L42.7971 51.6575C42.63 51.8246 42.408 51.9166 42.1718 51.9166C41.3565 51.9166 41.01 50.9439 41.5822 50.3721Z" fill="black"/>
</g>
<defs>
<clipPath id="clip0">
<rect width="60" height="60" fill="white"/>
</clipPath>
</defs>
</svg>
