<svg width="20" height="21" viewBox="0 0 20 21" fill="none" xmlns="http://www.w3.org/2000/svg">
<path d="M9.81288 20.1429C4.40184 20.1429 0 15.8173 0 10.5C0 5.18275 4.40184 0.857178 9.81288 0.857178C15.2239 0.857178 19.6258 5.18275 19.6258 10.5C19.6258 15.8173 15.2239 20.1429 9.81288 20.1429ZM9.81288 2.06253C5.07818 2.06253 1.22661 5.84737 1.22661 10.5C1.22661 15.1527 5.07818 18.9375 9.81288 18.9375C14.5476 18.9375 18.3991 15.1527 18.3991 10.5C18.3991 5.84737 14.5476 2.06253 9.81288 2.06253Z" fill="#313233"/>
<path d="M14.1057 15.723C13.9486 15.723 13.7917 15.6643 13.6722 15.5462L9.37905 11.3274C9.26375 11.2141 9.19922 11.0607 9.19922 10.9016V5.27651C9.19922 4.94383 9.47398 4.67383 9.81252 4.67383C10.1511 4.67383 10.4258 4.94383 10.4258 5.27651V10.6516L14.5391 14.6937C14.7787 14.9291 14.7787 15.3108 14.5391 15.5462C14.4197 15.6643 14.2627 15.723 14.1057 15.723Z" fill="#313233"/>
</svg>
