<svg width="36" height="36" viewBox="0 0 36 36" fill="none" xmlns="http://www.w3.org/2000/svg">
<path d="M7.54736 26.1574V31.7323C10.7227 31.8724 9.8065 32.4335 15.3313 34.9175C16.035 35.1944 17.6593 35.6477 19.3989 34.8483C19.3998 34.848 19.4013 34.8473 19.4023 34.8469L30.2561 30.9608C30.6093 30.7983 32.3909 29.8303 31.6882 28.0275C30.8666 26.1051 28.7526 26.907 28.5754 26.9647L22.909 28.5313" fill="#EAC092"/>
<path d="M13.9582 28.4898L20.2687 30.4895C21.37 30.8027 22.5165 30.1638 22.8297 29.0625C23.1429 27.9612 22.504 26.8146 21.2421 26.3463L15.6439 24.4463C15.6437 24.4459 14.4487 22.4944 11.6029 22.4944C9.80601 22.4944 8.25689 23.9468 7.54736 25.2181V27.7567" fill="#FEDBAB"/>
<path d="M11.4434 28.3959C11.3977 28.3959 11.3513 28.391 11.3063 28.3818C11.2613 28.3734 11.217 28.3593 11.1741 28.3418C11.1319 28.3242 11.0911 28.3024 11.0531 28.277C11.0145 28.2517 10.9786 28.2222 10.9462 28.1898C10.9139 28.1575 10.8844 28.1216 10.8591 28.0829C10.833 28.045 10.812 28.0042 10.7944 27.9613C10.7768 27.9191 10.7627 27.8748 10.7543 27.8298C10.7452 27.7848 10.7402 27.7384 10.7402 27.6927C10.7402 27.647 10.7452 27.6006 10.7543 27.5556C10.7627 27.5106 10.7768 27.4663 10.7944 27.4234C10.812 27.3812 10.833 27.3405 10.8591 27.3025C10.8844 27.2638 10.9139 27.228 10.9462 27.1956C10.9786 27.1633 11.0145 27.1337 11.0531 27.1084C11.0911 27.0831 11.1319 27.0613 11.1741 27.0437C11.217 27.0262 11.2613 27.0121 11.3063 27.0037C11.3963 26.9854 11.4898 26.9854 11.5805 27.0037C11.6255 27.0121 11.6698 27.0262 11.712 27.0437C11.7548 27.0613 11.7956 27.0831 11.8336 27.1084C11.8723 27.1337 11.9081 27.1633 11.9405 27.1956C11.9728 27.228 12.0023 27.2638 12.0277 27.3025C12.053 27.3405 12.0748 27.3812 12.0923 27.4234C12.1099 27.4663 12.1233 27.5106 12.1324 27.5556C12.1416 27.6006 12.1465 27.647 12.1465 27.6927C12.1465 27.7384 12.1416 27.7848 12.1324 27.8298C12.1233 27.8748 12.1099 27.9191 12.0923 27.9613C12.0748 28.0042 12.053 28.045 12.0277 28.0829C12.0023 28.1216 11.9728 28.1575 11.9405 28.1898C11.9081 28.2222 11.8723 28.2517 11.8336 28.277C11.7956 28.3023 11.7548 28.3242 11.712 28.3418C11.6698 28.3593 11.6255 28.3734 11.5805 28.3818C11.5355 28.391 11.4891 28.3959 11.4434 28.3959Z" fill="black"/>
<path d="M7.54744 25.1282H4.88379V32.6826H7.54744V25.1282Z" fill="#EAECF0"/>
<path d="M4.88391 25.1282H0.703125V33.9932H4.88391V25.1282Z" fill="#FFC94B"/>
<path d="M32.3433 27.7722C32.3405 27.7651 32.3377 27.7582 32.3348 27.7513C31.6876 26.237 30.1698 25.6773 28.3736 26.2907L23.4751 27.6454C23.1919 26.7877 22.4854 26.0579 21.4866 25.6872C21.4804 25.6849 21.4742 25.6827 21.468 25.6806L16.0834 23.853C15.6352 23.2737 14.2313 21.7914 11.6028 21.7914C9.76591 21.7914 8.14092 23.0515 7.21125 24.4251H0.703125C0.314789 24.4251 0 24.7399 0 25.1282V33.993C0 34.3813 0.314789 34.6961 0.703125 34.6961H4.8837C5.27203 34.6961 5.58682 34.3813 5.58682 33.993V33.3859H7.54734C7.93568 33.3859 8.25047 33.0711 8.25047 32.6828V32.4804C9.39333 32.5801 9.76922 32.7969 10.8188 33.4022C11.626 33.8676 12.846 34.5711 15.043 35.5589C15.0532 35.5635 15.0635 35.5679 15.0739 35.5719C15.4955 35.7378 16.3198 35.9984 17.336 35.9984C18.0434 35.9984 18.8439 35.872 19.6656 35.4996L30.4931 31.6228C30.5123 31.6159 30.5313 31.6082 30.5499 31.5996C31.5847 31.1235 33.1267 29.7818 32.3433 27.7722ZM4.18057 33.2898H1.40625V25.8313H4.18057V33.2898ZM6.84422 31.9796H5.58682V25.8313H6.84422V31.9796ZM29.988 30.3099L19.1654 34.1849C19.1559 34.1883 19.143 34.1933 19.1336 34.1971C19.1242 34.201 19.1147 34.2051 19.1053 34.2093C17.598 34.9021 16.1653 34.4874 15.6038 34.269C13.4816 33.3141 12.3489 32.661 11.5213 32.1838C10.3707 31.5203 9.81633 31.2005 8.25047 31.0712V25.4081C8.91696 24.3157 10.2094 23.1976 11.6029 23.1976C13.9925 23.1976 15.0051 24.7518 15.0449 24.8145C15.1308 24.9542 15.2627 25.0594 15.4179 25.1121L21.006 27.0087C21.8985 27.3437 22.3701 28.108 22.1534 28.8702C22.0533 29.2221 21.8221 29.5141 21.5025 29.6922C21.1856 29.8687 20.8193 29.9124 20.4701 29.8158L14.1706 27.8195C13.8002 27.7021 13.4051 27.9072 13.2879 28.2774C13.1705 28.6476 13.3755 29.0427 13.7457 29.1601L20.0562 31.1598C20.0629 31.1619 20.0696 31.164 20.0763 31.1659C20.3283 31.2375 20.5848 31.273 20.8397 31.273C21.3064 31.273 21.768 31.1541 22.187 30.9206C22.8348 30.5597 23.3032 29.9681 23.506 29.2548C23.5221 29.1978 23.5365 29.1409 23.5489 29.0839L28.8282 27.6214C29.5907 27.361 30.5916 27.2671 31.0372 28.2935C31.4985 29.4984 30.2996 30.1612 29.988 30.3099Z" fill="black"/>
<path d="M16.8682 6.94976L10.6232 0.704742L2.79346 8.53453L16.173 21.9141L23.5616 14.5255" fill="#F98500"/>
<path d="M13.1704 8.01649C13.1708 8.01508 13.1713 8.01367 13.1716 8.01227C12.4029 8.06479 11.6489 8.38478 11.0613 8.97246C9.7706 10.2631 9.7706 12.3556 11.0613 13.6463C12.3519 14.9369 14.4444 14.9369 15.7351 13.6463C16.3593 13.022 16.6815 12.2103 16.702 11.3924" fill="#FFD36C"/>
<path d="M28.4529 10.9216V5.34668C25.2775 5.20662 26.1937 4.64553 20.6689 2.16146C19.9652 1.88464 18.341 1.43126 16.6014 2.23065C16.6004 2.23107 16.5989 2.2317 16.5979 2.23205L13.3232 3.40451L16.702 6.78331" fill="#EAC092"/>
<path d="M2.79346 8.53454L5.44789 5.8801C6.91173 7.34393 6.91173 9.72514 5.44789 11.189L2.79346 8.53454Z" fill="#F98500"/>
<path d="M13.5186 19.2596C14.9824 17.7958 17.3636 17.7958 18.8274 19.2596L16.173 21.9141L13.5186 19.2596Z" fill="#F98500"/>
<path d="M7.96875 3.35918L10.6232 0.704742L13.2776 3.35918C11.8139 4.82302 9.43259 4.82302 7.96875 3.35918Z" fill="#F98500"/>
<path d="M20.4759 12.8002C19.9947 14.1284 20.2856 15.6755 21.3488 16.7387L23.5621 14.5255" fill="#F98500"/>
<path d="M22.0416 8.58923L15.7311 6.58948C14.6298 6.2763 13.4832 6.91523 13.1701 8.01654C12.8569 9.11784 13.4959 10.2644 14.7578 10.7327L20.3582 12.6335L20.3559 12.6327C20.3559 12.6327 21.5508 14.5846 24.3969 14.5846C26.1938 14.5846 27.7429 13.1322 28.4524 11.8609V9.32231" fill="#FEDBAB"/>
<path d="M24.5566 10.0894C24.5109 10.0894 24.4645 10.0844 24.4195 10.0753C24.3745 10.0662 24.3302 10.0528 24.288 10.0352C24.2452 10.0177 24.2044 9.99585 24.1664 9.97054C24.1277 9.94523 24.0919 9.9157 24.0595 9.88335C24.0272 9.85101 23.9977 9.81515 23.9723 9.77648C23.947 9.73851 23.9252 9.69773 23.9077 9.65484C23.8901 9.61265 23.876 9.56835 23.8676 9.52335C23.8584 9.47835 23.8535 9.43195 23.8535 9.38624C23.8535 9.34054 23.8584 9.29414 23.8676 9.24914C23.876 9.20414 23.8901 9.15984 23.9077 9.11695C23.9252 9.07476 23.947 9.03398 23.9723 8.99601C23.9977 8.95734 24.0272 8.92148 24.0595 8.88914C24.0919 8.85679 24.1277 8.82726 24.1664 8.80195C24.2044 8.77664 24.2452 8.75484 24.288 8.73726C24.3302 8.71968 24.3745 8.70562 24.4195 8.69718C24.5102 8.6789 24.6037 8.6789 24.6945 8.69718C24.7387 8.70562 24.783 8.71968 24.8259 8.73726C24.8681 8.75484 24.9089 8.77664 24.9469 8.80195C24.9855 8.82726 25.0214 8.85679 25.0538 8.88914C25.0861 8.92148 25.1156 8.95734 25.1409 8.99601C25.167 9.03398 25.188 9.07476 25.2056 9.11695C25.2239 9.15984 25.2373 9.20414 25.2464 9.24914C25.2555 9.29414 25.2598 9.34054 25.2598 9.38624C25.2598 9.43195 25.2555 9.47835 25.2464 9.52335C25.2373 9.56835 25.2239 9.61265 25.2056 9.65484C25.188 9.69773 25.167 9.73851 25.1409 9.77648C25.1156 9.81515 25.0861 9.85101 25.0538 9.88335C25.0214 9.9157 24.9855 9.94523 24.9469 9.97054C24.9089 9.99585 24.8681 10.0177 24.8259 10.0352C24.783 10.0528 24.7387 10.0662 24.6945 10.0753C24.6487 10.0844 24.6023 10.0894 24.5566 10.0894Z" fill="black"/>
<path d="M31.1163 4.39658H28.4526V11.9509H31.1163V4.39658Z" fill="#EAECF0"/>
<path d="M35.297 3.08609H31.1162V11.9511H35.297V3.08609Z" fill="#FFC94B"/>
<path d="M35.2966 2.38294H31.1161C30.7277 2.38294 30.413 2.69773 30.413 3.08607V3.69315H28.4524C28.0641 3.69315 27.7493 4.00794 27.7493 4.39627V4.59863C26.6064 4.49886 26.2306 4.28215 25.181 3.6769C24.3738 3.21144 23.1538 2.50796 20.9568 1.52014C20.9466 1.5155 20.9363 1.51121 20.9258 1.50713C20.2107 1.22574 18.3364 0.6721 16.3345 1.57934L13.5051 2.5924L11.1202 0.207545C10.8456 -0.0670251 10.4004 -0.0670251 10.1258 0.207545L2.29597 8.03733C2.0427 8.29067 1.99412 8.72991 2.29597 9.03176L15.6755 22.4113C15.8896 22.6255 16.391 22.6902 16.67 22.4113L23.8183 15.2631C24.0041 15.2791 24.197 15.2877 24.3969 15.2877C26.2339 15.2877 27.8588 14.0276 28.7884 12.6541H35.2966C35.685 12.6541 35.9998 12.3393 35.9998 11.951V3.08607C35.9998 2.69773 35.685 2.38294 35.2966 2.38294ZM12.4063 8.90387C12.5361 9.98401 13.3139 10.9468 14.5132 11.3919C14.5194 11.3941 14.5256 11.3964 14.5318 11.3985L15.9378 11.8757C15.8316 12.3549 15.5914 12.7955 15.2377 13.1492C14.2232 14.1635 12.5726 14.1637 11.5582 13.1492C10.5438 12.1348 10.5438 10.4842 11.5582 9.46974C11.8029 9.22491 12.0917 9.03359 12.4063 8.90387ZM13.8128 6.15837C13.3088 6.4392 12.9134 6.85974 12.6671 7.36852C11.874 7.5154 11.1397 7.89938 10.5637 8.47531C9.00104 10.0381 9.00104 12.5808 10.5638 14.1436C11.3451 14.9249 12.3715 15.3156 13.3979 15.3156C14.4242 15.3156 15.4507 14.9249 16.232 14.1436C16.7404 13.6352 17.0965 13.0104 17.2749 12.3295L19.649 13.1352C19.3817 14.3733 19.6554 15.6757 20.3938 16.6988L18.788 18.3045C17.2343 17.1774 15.1113 17.1774 13.5575 18.3045L6.40313 11.1501C6.9522 10.3949 7.24864 9.48781 7.24864 8.53451C7.24864 7.58115 6.95227 6.67412 6.40313 5.91896L8.00745 4.31471C8.76261 4.86378 9.66964 5.16022 10.623 5.16022C11.5764 5.16022 12.4834 4.86378 13.2386 4.31471L14.7594 5.8355C14.4312 5.88394 14.1112 5.99208 13.8128 6.15837ZM21.4069 15.6856C21.1355 15.2433 20.9819 14.7385 20.9577 14.2234C21.2945 14.4668 21.7061 14.7054 22.1977 14.8948L21.4069 15.6856ZM10.6229 1.69908L12.2255 3.30165C11.7491 3.59626 11.1984 3.7539 10.6229 3.7539C10.0474 3.7539 9.49674 3.59633 9.02037 3.30165L10.6229 1.69908ZM5.39014 6.93195C5.68475 7.40832 5.84239 7.95908 5.84239 8.53451C5.84239 9.10995 5.68482 9.66071 5.39014 10.1371L3.78758 8.53451L5.39014 6.93195ZM16.1728 20.9197L14.5705 19.3174C15.5487 18.7137 16.7967 18.7137 17.775 19.3174L16.1728 20.9197ZM24.3969 13.8814C24.1362 13.8814 23.8918 13.8628 23.6634 13.8297C23.6625 13.8296 23.6615 13.8295 23.6606 13.8293C22.1422 13.6088 21.3253 12.7457 21.0561 12.404C21.0418 12.3829 20.9807 12.303 20.9716 12.2897C20.8897 12.1433 20.7554 12.0256 20.5841 11.9675L14.9937 10.0701C14.1016 9.73524 13.63 8.9713 13.8461 8.20939C13.8463 8.2089 13.8464 8.2084 13.8466 8.20791C13.8468 8.20735 13.8469 8.20672 13.847 8.20615C13.9475 7.8553 14.1783 7.56427 14.4972 7.38659C14.8141 7.21004 15.1803 7.16623 15.5296 7.26305L21.8291 9.2593C22.1994 9.37679 22.5946 9.17162 22.7118 8.80142C22.8291 8.43122 22.6242 8.03607 22.254 7.91872L17.2438 6.33106L17.2001 6.28733C17.1997 6.2869 17.1993 6.28641 17.1988 6.28599L14.6049 3.69216L16.8344 2.89383C16.8419 2.89109 16.8512 2.88765 16.8587 2.88462C16.8606 2.88385 16.8642 2.88244 16.8661 2.88167C16.8756 2.8778 16.885 2.87372 16.8944 2.86944C18.4016 2.17672 19.8343 2.59135 20.3959 2.80974C22.5181 3.76465 23.6509 4.41779 24.4784 4.895C25.629 5.55854 26.1834 5.87825 27.7492 6.00755V11.6707C27.0828 12.7632 25.7903 13.8814 24.3969 13.8814ZM29.1556 5.0994H30.413V11.2477H29.1556V5.0994ZM34.5935 11.2477H31.8192V3.78919H34.5935V11.2477Z" fill="black"/>
</svg>
