<svg width="255" height="224" viewBox="0 0 255 224" fill="none" xmlns="http://www.w3.org/2000/svg">
<g clip-path="url(#clip0)">
<path d="M237.075 118.643H7.57227L25.3295 154.121H216.314L237.075 118.643Z" fill="#E8791A"/>
<path d="M121.898 211.736C97.5879 211.736 73.2922 208.282 48.9826 201.359C26.084 193.179 -11.4703 180.173 3.367 155.715C13.2865 139.353 26.7406 118.349 43.0169 95.988C59.2932 73.6272 77.274 49.3925 92.8517 25.0179C108.737 0.209782 135.044 0.209782 150.929 25.0179C166.521 49.3925 184.488 73.6272 200.764 95.988C217.041 118.349 230.118 139.535 240.414 155.715C257.724 182.928 217.697 193.179 194.799 201.359C170.503 208.282 146.207 211.736 121.898 211.736Z" fill="#FFC94B"/>
<path d="M130.853 214.756C106.543 214.756 82.2477 211.302 57.9381 204.38C35.0395 196.199 -2.51477 183.18 12.3225 158.721C22.242 142.36 35.6961 121.355 51.9724 98.9946C68.2487 76.6338 86.2295 52.399 101.807 28.0384C117.692 3.23035 144 3.23035 159.885 28.0384C175.477 52.413 193.443 76.6478 209.72 99.0086C225.996 121.369 239.073 142.556 249.37 158.735C266.68 185.949 226.653 196.199 203.754 204.38C179.458 211.288 155.149 214.756 130.853 214.756Z" stroke="#F98500" stroke-width="2" stroke-miterlimit="10" stroke-linecap="round" stroke-linejoin="round" stroke-dasharray="0.2 0.2"/>
<path d="M92.8657 193.291C118.22 193.291 138.775 172.717 138.775 147.338C138.775 121.959 118.22 101.386 92.8657 101.386C67.5109 101.386 46.9567 121.959 46.9567 147.338C46.9567 172.717 67.5109 193.291 92.8657 193.291Z" fill="#ECB32D"/>
<path d="M176.902 205.317L183.566 208.967C184.795 209.638 184.795 211.4 183.566 212.071L176.902 215.721C176.608 215.889 176.357 216.127 176.203 216.421L172.557 223.091C171.886 224.322 170.126 224.322 169.455 223.091L165.809 216.421C165.641 216.127 165.403 215.875 165.11 215.721L158.446 212.071C157.216 211.4 157.216 209.638 158.446 208.967L165.11 205.317C165.403 205.149 165.655 204.911 165.809 204.618L169.455 197.947C170.126 196.717 171.886 196.717 172.557 197.947L176.203 204.618C176.371 204.911 176.608 205.149 176.902 205.317Z" fill="#F38322"/>
<path d="M196 8.29267L202.664 11.9426C203.894 12.6138 203.894 14.3758 202.664 15.0471L196 18.697C195.707 18.8648 195.455 19.1025 195.302 19.3962L191.655 26.0667C190.984 27.2973 189.224 27.2973 188.554 26.0667L184.907 19.3962C184.739 19.1025 184.502 18.8508 184.208 18.697L177.544 15.0471C176.315 14.3758 176.315 12.6138 177.544 11.9426L184.208 8.29267C184.502 8.12486 184.753 7.88713 184.907 7.59346L188.554 0.922962C189.224 -0.307654 190.984 -0.307654 191.655 0.922962L195.302 7.59346C195.469 7.88713 195.707 8.12486 196 8.29267Z" fill="#F38322"/>
<path d="M34.6482 38.1911L39.3704 40.7782C40.2366 41.2536 40.2366 42.4982 39.3704 42.9737L34.6482 45.5608C34.4386 45.6726 34.271 45.8544 34.1453 46.0642L31.5746 50.7629C31.0996 51.6299 29.8561 51.6299 29.3811 50.7629L26.7965 46.0362C26.6847 45.8265 26.5031 45.6587 26.2935 45.5328L21.5713 42.9457C20.7051 42.4702 20.7051 41.2257 21.5713 40.7502L26.2935 38.1631C26.5031 38.0512 26.6707 37.8694 26.7965 37.6597L29.3811 32.933C29.8561 32.066 31.0996 32.066 31.5746 32.933L34.1592 37.6597C34.271 37.8974 34.4386 38.0652 34.6482 38.1911Z" fill="#F38322"/>
<path d="M204.788 37.3939L208.295 39.3098C208.937 39.6594 208.937 40.5824 208.295 40.932L204.788 42.8478C204.634 42.9317 204.509 43.0576 204.425 43.2114L202.511 46.7215C202.161 47.3647 201.239 47.3647 200.89 46.7215L198.976 43.2114C198.892 43.0576 198.766 42.9317 198.613 42.8478L195.106 40.932C194.463 40.5824 194.463 39.6594 195.106 39.3098L198.613 37.3939C198.766 37.31 198.892 37.1842 198.976 37.0304L200.89 33.5203C201.239 32.877 202.161 32.877 202.511 33.5203L204.425 37.0304C204.495 37.1842 204.62 37.31 204.788 37.3939Z" fill="#FFC94B"/>
<path d="M52.3216 52.9304L55.8283 54.8463C56.471 55.1959 56.471 56.1188 55.8283 56.4685L52.3216 58.3843C52.1679 58.4682 52.0422 58.5941 51.9584 58.7479L50.0443 62.2579C49.695 62.9012 48.773 62.9012 48.4237 62.2579L46.5096 58.7479C46.4258 58.5941 46.3001 58.4682 46.1464 58.3843L42.6397 56.4685C41.997 56.1188 41.997 55.1959 42.6397 54.8463L46.1464 52.9304C46.3001 52.8465 46.4258 52.7207 46.5096 52.5668L48.4237 49.0568C48.773 48.4135 49.695 48.4135 50.0443 49.0568L51.9584 52.5668C52.0422 52.7207 52.1679 52.8465 52.3216 52.9304Z" fill="#FFC94B"/>
<path d="M147.674 188.941L151.181 190.857C151.824 191.207 151.824 192.13 151.181 192.479L147.674 194.395C147.521 194.479 147.395 194.605 147.311 194.759L145.397 198.269C145.048 198.912 144.126 198.912 143.776 198.269L141.862 194.759C141.778 194.605 141.653 194.479 141.499 194.395L137.992 192.479C137.35 192.13 137.35 191.207 137.992 190.857L141.499 188.941C141.653 188.858 141.778 188.732 141.862 188.578L143.776 185.068C144.126 184.425 145.048 184.425 145.397 185.068L147.311 188.578C147.395 188.732 147.521 188.858 147.674 188.941Z" fill="white"/>
<path d="M146.543 49.6721C149.714 49.6721 152.285 47.0989 152.285 43.9246C152.285 40.7503 149.714 38.1771 146.543 38.1771C143.371 38.1771 140.801 40.7503 140.801 43.9246C140.801 47.0989 143.371 49.6721 146.543 49.6721Z" fill="white"/>
<path d="M237.075 118.643H7.57227L25.3295 71.0121H216.314L237.075 118.643Z" fill="#F38322"/>
<path d="M81.377 99.4746C81.1777 102.229 80.1582 104.396 78.3184 105.979C76.4902 107.561 74.0762 108.352 71.0762 108.352C67.7949 108.352 65.2109 107.25 63.3242 105.047C61.4492 102.832 60.5117 99.7969 60.5117 95.9414V94.377C60.5117 91.916 60.9453 89.748 61.8125 87.873C62.6797 85.998 63.916 84.5625 65.5215 83.5664C67.1387 82.5586 69.0137 82.0547 71.1465 82.0547C74.0996 82.0547 76.4785 82.8457 78.2832 84.4277C80.0879 86.0098 81.1309 88.2305 81.4121 91.0898H76.1387C76.0098 89.4375 75.5469 88.2422 74.75 87.5039C73.9648 86.7539 72.7637 86.3789 71.1465 86.3789C69.3887 86.3789 68.0703 87.0117 67.1914 88.2773C66.3242 89.5312 65.8789 91.4824 65.8555 94.1309V96.0645C65.8555 98.8301 66.2715 100.852 67.1035 102.129C67.9473 103.406 69.2715 104.045 71.0762 104.045C72.7051 104.045 73.918 103.676 74.7148 102.938C75.5234 102.188 75.9863 101.033 76.1035 99.4746H81.377ZM105.863 95.7832C105.863 98.3027 105.418 100.512 104.527 102.41C103.637 104.309 102.359 105.773 100.695 106.805C99.043 107.836 97.1445 108.352 95 108.352C92.8789 108.352 90.9863 107.842 89.3223 106.822C87.6582 105.803 86.3691 104.35 85.4551 102.463C84.541 100.564 84.0781 98.3848 84.0664 95.9238V94.6582C84.0664 92.1387 84.5176 89.9238 85.4199 88.0137C86.334 86.0918 87.6172 84.6211 89.2695 83.6016C90.9336 82.5703 92.832 82.0547 94.9648 82.0547C97.0977 82.0547 98.9902 82.5703 100.643 83.6016C102.307 84.6211 103.59 86.0918 104.492 88.0137C105.406 89.9238 105.863 92.1328 105.863 94.6406V95.7832ZM100.52 94.623C100.52 91.9395 100.039 89.9004 99.0781 88.5059C98.1172 87.1113 96.7461 86.4141 94.9648 86.4141C93.1953 86.4141 91.8301 87.1055 90.8691 88.4883C89.9082 89.8594 89.4219 91.875 89.4102 94.5352V95.7832C89.4102 98.3965 89.8906 100.424 90.8516 101.865C91.8125 103.307 93.1953 104.027 95 104.027C96.7695 104.027 98.1289 103.336 99.0781 101.953C100.027 100.559 100.508 98.5312 100.52 95.8711V94.623ZM116.586 82.4062L123.16 100.969L129.699 82.4062H136.625V108H131.334V101.004L131.861 88.9277L124.953 108H121.332L114.441 88.9453L114.969 101.004V108H109.695V82.4062H116.586ZM146.838 108H141.564V82.4062H146.838V108ZM172.555 108H167.281L157.016 91.1602V108H151.742V82.4062H157.016L167.299 99.2812V82.4062H172.555V108ZM197.41 104.766C196.461 105.902 195.119 106.787 193.385 107.42C191.65 108.041 189.729 108.352 187.619 108.352C185.404 108.352 183.459 107.871 181.783 106.91C180.119 105.938 178.83 104.531 177.916 102.691C177.014 100.852 176.551 98.6895 176.527 96.2051V94.4648C176.527 91.9102 176.955 89.7012 177.811 87.8379C178.678 85.9629 179.92 84.5332 181.537 83.5488C183.166 82.5527 185.07 82.0547 187.25 82.0547C190.285 82.0547 192.658 82.7812 194.369 84.2344C196.08 85.6758 197.094 87.7793 197.41 90.5449H192.277C192.043 89.0801 191.521 88.0078 190.713 87.3281C189.916 86.6484 188.814 86.3086 187.408 86.3086C185.615 86.3086 184.25 86.9824 183.312 88.3301C182.375 89.6777 181.9 91.6816 181.889 94.3418V95.9766C181.889 98.6602 182.398 100.688 183.418 102.059C184.438 103.43 185.932 104.115 187.9 104.115C189.881 104.115 191.293 103.693 192.137 102.85V98.4375H187.338V94.5527H197.41V104.766Z" fill="white"/>
<g filter="url(#filter0_d)">
<path d="M72.4062 165.281C72.4062 163.281 71.6979 161.74 70.2812 160.656C68.8854 159.573 66.3542 158.479 62.6875 157.375C59.0208 156.271 56.1042 155.042 53.9375 153.688C49.7917 151.083 47.7188 147.688 47.7188 143.5C47.7188 139.833 49.2083 136.812 52.1875 134.438C55.1875 132.062 59.0729 130.875 63.8438 130.875C67.0104 130.875 69.8333 131.458 72.3125 132.625C74.7917 133.792 76.7396 135.458 78.1562 137.625C79.5729 139.771 80.2812 142.156 80.2812 144.781H72.4062C72.4062 142.406 71.6562 140.552 70.1562 139.219C68.6771 137.865 66.5521 137.188 63.7812 137.188C61.1979 137.188 59.1875 137.74 57.75 138.844C56.3333 139.948 55.625 141.49 55.625 143.469C55.625 145.135 56.3958 146.531 57.9375 147.656C59.4792 148.76 62.0208 149.844 65.5625 150.906C69.1042 151.948 71.9479 153.146 74.0938 154.5C76.2396 155.833 77.8125 157.375 78.8125 159.125C79.8125 160.854 80.3125 162.885 80.3125 165.219C80.3125 169.01 78.8542 172.031 75.9375 174.281C73.0417 176.51 69.1042 177.625 64.125 177.625C60.8333 177.625 57.8021 177.021 55.0312 175.812C52.2812 174.583 50.1354 172.896 48.5938 170.75C47.0729 168.604 46.3125 166.104 46.3125 163.25H54.2188C54.2188 165.833 55.0729 167.833 56.7812 169.25C58.4896 170.667 60.9375 171.375 64.125 171.375C66.875 171.375 68.9375 170.823 70.3125 169.719C71.7083 168.594 72.4062 167.115 72.4062 165.281ZM123.562 155.438C123.562 159.896 122.792 163.812 121.25 167.188C119.708 170.542 117.5 173.125 114.625 174.938C111.771 176.729 108.479 177.625 104.75 177.625C101.062 177.625 97.7708 176.729 94.875 174.938C92 173.125 89.7708 170.552 88.1875 167.219C86.625 163.885 85.8333 160.042 85.8125 155.688V153.125C85.8125 148.688 86.5938 144.771 88.1562 141.375C89.7396 137.979 91.9583 135.385 94.8125 133.594C97.6875 131.781 100.979 130.875 104.688 130.875C108.396 130.875 111.677 131.771 114.531 133.562C117.406 135.333 119.625 137.896 121.188 141.25C122.75 144.583 123.542 148.469 123.562 152.906V155.438ZM115.656 153.062C115.656 148.021 114.698 144.156 112.781 141.469C110.885 138.781 108.188 137.438 104.688 137.438C101.271 137.438 98.5938 138.781 96.6562 141.469C94.7396 144.135 93.7604 147.917 93.7188 152.812V155.438C93.7188 160.438 94.6875 164.302 96.625 167.031C98.5833 169.76 101.292 171.125 104.75 171.125C108.25 171.125 110.938 169.792 112.812 167.125C114.708 164.458 115.656 160.562 115.656 155.438V153.062ZM167.75 155.438C167.75 159.896 166.979 163.812 165.438 167.188C163.896 170.542 161.688 173.125 158.812 174.938C155.958 176.729 152.667 177.625 148.938 177.625C145.25 177.625 141.958 176.729 139.062 174.938C136.188 173.125 133.958 170.552 132.375 167.219C130.812 163.885 130.021 160.042 130 155.688V153.125C130 148.688 130.781 144.771 132.344 141.375C133.927 137.979 136.146 135.385 139 133.594C141.875 131.781 145.167 130.875 148.875 130.875C152.583 130.875 155.865 131.771 158.719 133.562C161.594 135.333 163.812 137.896 165.375 141.25C166.938 144.583 167.729 148.469 167.75 152.906V155.438ZM159.844 153.062C159.844 148.021 158.885 144.156 156.969 141.469C155.073 138.781 152.375 137.438 148.875 137.438C145.458 137.438 142.781 138.781 140.844 141.469C138.927 144.135 137.948 147.917 137.906 152.812V155.438C137.906 160.438 138.875 164.302 140.812 167.031C142.771 169.76 145.479 171.125 148.938 171.125C152.438 171.125 155.125 169.792 157 167.125C158.896 164.458 159.844 160.562 159.844 155.438V153.062ZM211.719 177H203.812L183.531 144.719V177H175.625V131.5H183.531L203.875 163.906V131.5H211.719V177Z" fill="white"/>
</g>
</g>
<defs>
<filter id="filter0_d" x="42.3125" y="130.875" width="173.406" height="54.75" filterUnits="userSpaceOnUse" color-interpolation-filters="sRGB">
<feFlood flood-opacity="0" result="BackgroundImageFix"/>
<feColorMatrix in="SourceAlpha" type="matrix" values="0 0 0 0 0 0 0 0 0 0 0 0 0 0 0 0 0 0 127 0"/>
<feOffset dy="4"/>
<feGaussianBlur stdDeviation="2"/>
<feColorMatrix type="matrix" values="0 0 0 0 0 0 0 0 0 0 0 0 0 0 0 0 0 0 0.25 0"/>
<feBlend mode="normal" in2="BackgroundImageFix" result="effect1_dropShadow"/>
<feBlend mode="normal" in="SourceGraphic" in2="effect1_dropShadow" result="shape"/>
</filter>
<clipPath id="clip0">
<rect width="255" height="224" fill="white"/>
</clipPath>
</defs>
</svg>
