<svg width="152" height="152" viewBox="0 0 152 152" fill="none" xmlns="http://www.w3.org/2000/svg">
<path d="M106.117 33.3145C106.117 46.8701 97.1641 58.3311 84.8506 62.1104L76 78.417L75.25 77.0342L67.1494 62.1104C54.8359 58.3311 45.8828 46.8701 45.8828 33.3145C45.8828 18.2236 56.9805 5.72559 71.4619 3.53711C72.9414 3.31445 74.459 3.19727 76 3.19727C92.6348 3.19727 106.117 16.6826 106.117 33.3145Z" fill="#FEC84B"/>
<path d="M106.117 33.3145C106.117 46.8701 97.1641 58.3311 84.8506 62.1104L76 78.417L75.25 77.0342L77.1367 63.4521C77.4971 61.8965 78.5869 60.6279 80.0488 59.9863C91.4307 54.9854 100.258 46.542 100.258 33.3145C100.258 16.6533 87.6543 5.2334 71.4619 3.53711C72.9414 3.31445 74.459 3.19727 76 3.19727C92.6348 3.19727 106.117 16.6826 106.117 33.3145Z" fill="#FFC94B"/>
<path d="M96.1856 33.3145C96.1856 41.9482 90.7656 49.3164 83.1426 52.1992C80.9219 53.04 78.5137 53.5 76 53.5C73.4863 53.5 71.0781 53.04 68.8574 52.1992C61.2344 49.3164 55.8145 41.9482 55.8145 33.3145C55.8145 24.6807 61.2344 17.3154 68.8574 14.4297C71.0781 13.5889 73.4863 13.1289 76 13.1289C78.5137 13.1289 80.9219 13.5889 83.1426 14.4297C90.7656 17.3154 96.1856 24.6807 96.1856 33.3145Z" fill="white"/>
<path d="M68.8574 14.4297V52.1992C61.2344 49.3164 55.8145 41.9482 55.8145 33.3145C55.8145 24.6807 61.2344 17.3154 68.8574 14.4297Z" fill="#F38322"/>
<path d="M96.1856 33.3145C96.1856 41.9482 90.7656 49.3164 83.1426 52.1992V14.4297C90.7656 17.3154 96.1856 24.6807 96.1856 33.3145Z" fill="#FFC94B"/>
<path d="M96.1856 33.3145C96.1856 41.9482 90.7656 49.3164 83.1426 52.1992V49C87.7041 45.2998 90.6191 39.6484 90.6191 33.3145C90.6191 26.9834 87.7041 21.332 83.1426 17.6318V14.4297C90.7656 17.3154 96.1856 24.6807 96.1856 33.3145Z" fill="#F38322"/>
<path d="M20.6582 16.1436C20.6582 18.5723 18.6895 20.5381 16.2637 20.5381C15.5225 20.5381 14.8252 20.3535 14.2129 20.0313C12.8184 19.2959 11.8691 17.8311 11.8691 16.1436C11.8691 14.459 12.8184 12.9941 14.2129 12.2559C14.8252 11.9336 15.5225 11.749 16.2637 11.749C18.6895 11.749 20.6582 13.7178 20.6582 16.1436Z" fill="#F9D11F"/>
<path d="M20.6582 16.1436C20.6582 18.5723 18.6895 20.5381 16.2637 20.5381C15.5225 20.5381 14.8252 20.3535 14.2129 20.0313C15.6074 19.2959 16.5566 17.8311 16.5566 16.1436C16.5566 14.459 15.6074 12.9941 14.2129 12.2559C14.8252 11.9336 15.5225 11.749 16.2637 11.749C18.6895 11.749 20.6582 13.7178 20.6582 16.1436Z" fill="#FFA402"/>
<path d="M7.72302 112.081H44.1997V148.801H7.72302V112.081Z" fill="#FF9F32"/>
<path d="M44.1997 112.081V148.801H7.72302V143.528H35.0365C37.5062 143.528 39.5131 141.524 39.5131 139.051V112.081H44.1997Z" fill="#F98500"/>
<path d="M107.8 112.081H144.277V148.801H107.8V112.081Z" fill="#F38322"/>
<path d="M144.277 112.081V148.801H107.8V143.528H135.114C137.583 143.528 139.59 141.524 139.59 139.051V112.081H144.277Z" fill="#BE6415"/>
<path d="M44.1997 98.8967H80.6764V148.803H44.1997V98.8967Z" fill="#FFC94B"/>
<path d="M80.6764 98.8967V148.803H44.1997V143.529H71.5132C73.9829 143.529 75.9897 141.525 75.9897 139.053V98.8967H80.6764Z" fill="#F98500"/>
<path d="M80.6764 125.051H107.8V148.801H80.6764V125.051Z" fill="#F9D11F"/>
<path d="M107.8 125.051V148.801H80.6764V143.528H98.6368C101.107 143.528 103.113 141.524 103.113 139.051V125.051H107.8Z" fill="#FFA402"/>
<path d="M16.578 119.339C15.3645 119.339 14.3807 120.322 14.3807 121.536V125.93C14.3807 127.144 15.3645 128.128 16.578 128.128C17.7915 128.128 18.7753 127.144 18.7753 125.93V121.536C18.7753 120.322 17.7915 119.339 16.578 119.339Z" fill="black"/>
<path d="M25.9612 119.339C24.7477 119.339 23.7639 120.322 23.7639 121.536V125.93C23.7639 127.144 24.7477 128.128 25.9612 128.128C27.1747 128.128 28.1584 127.144 28.1584 125.93V121.536C28.1584 120.322 27.1747 119.339 25.9612 119.339Z" fill="black"/>
<path d="M35.0804 119.339C33.867 119.339 32.8832 120.322 32.8832 121.536V125.93C32.8832 127.144 33.867 128.128 35.0804 128.128C36.2939 128.128 37.2777 127.144 37.2777 125.93V121.536C37.2777 120.322 36.2939 119.339 35.0804 119.339Z" fill="black"/>
<path d="M25.9612 132.522C24.7477 132.522 23.7639 133.506 23.7639 134.72V139.114C23.7639 140.328 24.7477 141.312 25.9612 141.312C27.1747 141.312 28.1584 140.328 28.1584 139.114V134.72C28.1584 133.506 27.1747 132.522 25.9612 132.522Z" fill="black"/>
<path d="M35.0804 132.522C33.867 132.522 32.8832 133.506 32.8832 134.72V139.114C32.8832 140.328 33.867 141.312 35.0804 141.312C36.2939 141.312 37.2777 140.328 37.2777 139.114V134.72C37.2777 133.506 36.2939 132.522 35.0804 132.522Z" fill="black"/>
<path d="M148.803 114.278C150.016 114.278 151 113.294 151 112.081C151 110.867 150.016 109.883 148.803 109.883H137.619V104.756C137.619 103.543 136.635 102.559 135.422 102.559C134.208 102.559 133.225 103.543 133.225 104.756V109.883H128.236V107.686C128.236 106.473 127.252 105.489 126.039 105.489C124.825 105.489 123.842 106.473 123.842 107.686V109.883H103.275C102.061 109.883 101.078 110.867 101.078 112.081C101.078 113.294 102.061 114.278 103.275 114.278H105.603V122.854H91.9929V120.657C91.9929 119.443 91.0091 118.46 89.7956 118.46C88.5821 118.46 87.5983 119.443 87.5983 120.657V122.854H82.8736V101.094H85.2021C86.4156 101.094 87.3994 100.11 87.3994 98.897C87.3994 97.6835 86.4156 96.6997 85.2021 96.6997H73.8865V91.5728C73.8865 90.3593 72.9027 89.3755 71.6893 89.3755C70.4758 89.3755 69.492 90.3593 69.492 91.5728V96.6997H64.503V94.5024C64.503 93.289 63.5192 92.3052 62.3058 92.3052C61.0923 92.3052 60.1085 93.289 60.1085 94.5024V96.6997H39.6739C38.4604 96.6997 37.4767 97.6835 37.4767 98.897C37.4767 100.11 38.4604 101.094 39.6739 101.094H42.0024V109.883H28.1585V107.686C28.1585 106.473 27.1747 105.489 25.9612 105.489C24.7478 105.489 23.764 106.473 23.764 107.686V109.883H18.7753V104.756C18.7753 103.543 17.7915 102.559 16.578 102.559C15.3646 102.559 14.3808 103.543 14.3808 104.756V109.883H3.19727C1.98379 109.883 1 110.867 1 112.081C1 113.294 1.98379 114.278 3.19727 114.278H5.52578V146.605H3.19727C1.98379 146.605 1 147.589 1 148.803C1 150.016 1.98379 151 3.19727 151H148.803C150.016 151 151 150.016 151 148.803C151 147.589 150.016 146.605 148.803 146.605H146.474V114.278H148.803ZM78.4791 146.605H55.3838V134.72C55.3838 133.506 54.4 132.522 53.1865 132.522C51.973 132.522 50.9893 133.506 50.9893 134.72V146.605H46.3967V128.774C46.3967 127.56 45.4129 126.576 44.1994 126.576C42.9859 126.576 42.0021 127.56 42.0021 128.774V146.605H18.7753V134.72C18.7753 133.506 17.7915 132.522 16.578 132.522C15.3646 132.522 14.3808 133.506 14.3808 134.72V146.605H9.92031V114.278H42.0024V118.692C42.0024 119.906 42.9862 120.89 44.1997 120.89C45.4132 120.89 46.397 119.906 46.397 118.692V101.094H78.4791V146.605ZM105.603 146.605H91.9929V134.72C91.9929 133.506 91.0091 132.522 89.7956 132.522C88.5821 132.522 87.5983 133.506 87.5983 134.72V146.605H82.8736V127.249H105.603V146.605ZM142.08 146.605H119.117V134.72C119.117 133.506 118.133 132.522 116.92 132.522C115.706 132.522 114.722 133.506 114.722 134.72V146.605H109.998V114.278H142.08V146.605Z" fill="black" stroke="white"/>
<path d="M135.422 128.128C136.635 128.128 137.619 127.144 137.619 125.93V121.536C137.619 120.322 136.635 119.339 135.422 119.339C134.209 119.339 133.225 120.322 133.225 121.536V125.93C133.225 127.144 134.209 128.128 135.422 128.128Z" fill="black"/>
<path d="M126.039 128.128C127.252 128.128 128.236 127.144 128.236 125.93V121.536C128.236 120.322 127.252 119.339 126.039 119.339C124.825 119.339 123.841 120.322 123.841 121.536V125.93C123.841 127.144 124.825 128.128 126.039 128.128Z" fill="black"/>
<path d="M116.92 128.128C118.133 128.128 119.117 127.144 119.117 125.93V121.536C119.117 120.322 118.133 119.339 116.92 119.339C115.706 119.339 114.722 120.322 114.722 121.536V125.93C114.722 127.144 115.706 128.128 116.92 128.128Z" fill="black"/>
<path d="M135.422 141.312C136.635 141.312 137.619 140.328 137.619 139.114V134.72C137.619 133.506 136.635 132.522 135.422 132.522C134.209 132.522 133.225 133.506 133.225 134.72V139.114C133.225 140.328 134.209 141.312 135.422 141.312Z" fill="black"/>
<path d="M126.039 141.312C127.252 141.312 128.236 140.328 128.236 139.114V134.72C128.236 133.506 127.252 132.522 126.039 132.522C124.825 132.522 123.841 133.506 123.841 134.72V139.114C123.841 140.328 124.825 141.312 126.039 141.312Z" fill="black"/>
<path d="M98.9148 141.312C100.128 141.312 101.112 140.328 101.112 139.114V134.72C101.112 133.506 100.128 132.522 98.9148 132.522C97.7013 132.522 96.7175 133.506 96.7175 134.72V139.114C96.7175 140.328 97.7013 141.312 98.9148 141.312Z" fill="black"/>
<path d="M53.1869 114.944C54.4004 114.944 55.3842 113.96 55.3842 112.746V108.352C55.3842 107.138 54.4004 106.155 53.1869 106.155C51.9734 106.155 50.9896 107.138 50.9896 108.352V112.746C50.9896 113.96 51.9734 114.944 53.1869 114.944Z" fill="black"/>
<path d="M62.5703 114.944C63.7838 114.944 64.7676 113.96 64.7676 112.746V108.352C64.7676 107.138 63.7838 106.155 62.5703 106.155C61.3568 106.155 60.373 107.138 60.373 108.352V112.746C60.373 113.96 61.3568 114.944 62.5703 114.944Z" fill="black"/>
<path d="M71.6896 114.944C72.9031 114.944 73.8868 113.96 73.8868 112.746V108.352C73.8868 107.138 72.9031 106.155 71.6896 106.155C70.4761 106.155 69.4923 107.138 69.4923 108.352V112.746C69.4923 113.96 70.4761 114.944 71.6896 114.944Z" fill="black"/>
<path d="M53.1869 128.128C54.4004 128.128 55.3842 127.144 55.3842 125.93V121.536C55.3842 120.322 54.4004 119.339 53.1869 119.339C51.9734 119.339 50.9896 120.322 50.9896 121.536V125.93C50.9896 127.144 51.9734 128.128 53.1869 128.128Z" fill="black"/>
<path d="M62.5703 128.128C63.7838 128.128 64.7676 127.144 64.7676 125.93V121.536C64.7676 120.322 63.7838 119.339 62.5703 119.339C61.3568 119.339 60.373 120.322 60.373 121.536V125.93C60.373 127.144 61.3568 128.128 62.5703 128.128Z" fill="black"/>
<path d="M71.6896 128.128C72.9031 128.128 73.8868 127.144 73.8868 125.93V121.536C73.8868 120.322 72.9031 119.339 71.6896 119.339C70.4761 119.339 69.4923 120.322 69.4923 121.536V125.93C69.4923 127.144 70.4761 128.128 71.6896 128.128Z" fill="black"/>
<path d="M62.5703 141.312C63.7838 141.312 64.7676 140.328 64.7676 139.114V134.72C64.7676 133.506 63.7838 132.522 62.5703 132.522C61.3568 132.522 60.373 133.506 60.373 134.72V139.114C60.373 140.328 61.3568 141.312 62.5703 141.312Z" fill="black"/>
<path d="M71.6896 141.312C72.9031 141.312 73.8868 140.328 73.8868 139.114V134.72C73.8868 133.506 72.9031 132.522 71.6896 132.522C70.4761 132.522 69.4923 133.506 69.4923 134.72V139.114C69.4923 140.328 70.4761 141.312 71.6896 141.312Z" fill="black"/>
<path d="M76 55.6985C88.3419 55.6985 98.3828 45.6575 98.3828 33.3154C98.3828 20.9732 88.3419 10.9323 76 10.9323C63.6581 10.9323 53.6172 20.9732 53.6172 33.3154C53.6172 45.6575 63.6581 55.6985 76 55.6985ZM71.0544 16.0179C72.6262 15.5679 74.2856 15.3265 76 15.3265C77.7145 15.3265 79.3738 15.5676 80.9456 16.0179V32.1909C80.9456 33.4044 81.9294 34.3882 83.1429 34.3882C84.3564 34.3882 85.3401 33.4044 85.3401 32.1909V17.9468C90.5216 21.1076 93.9883 26.8144 93.9883 33.3154C93.9883 39.8163 90.5219 45.5231 85.3401 48.6839V42.2491C85.3401 41.0357 84.3564 40.0519 83.1429 40.0519C81.9294 40.0519 80.9456 41.0357 80.9456 42.2491V50.6128C79.3738 51.0628 77.7145 51.3042 76 51.3042C74.2856 51.3042 72.6262 51.0631 71.0544 50.6128V16.0179ZM66.6599 17.9468V48.6839C61.4784 45.5231 58.0117 39.8163 58.0117 33.3154C58.0117 26.8144 61.4781 21.1076 66.6599 17.9468Z" fill="black" stroke="white"/>
<path d="M53.1664 53.0764C54.1387 52.3501 54.3382 50.9734 53.6123 50.0011C49.9929 45.1536 48.0798 39.3839 48.0798 33.3153C48.0798 17.9198 60.6048 5.39453 76 5.39453C91.3953 5.39453 103.92 17.9198 103.92 33.3153C103.92 39.41 101.992 45.1999 98.3445 50.0591C94.8148 54.7609 89.7933 58.295 84.2049 60.0103C83.655 60.1794 83.193 60.557 82.9185 61.0627L76 73.8112L69.0813 61.063C68.8068 60.5573 68.3451 60.1794 67.7949 60.0106C64.9753 59.1452 62.3193 57.8392 59.9002 56.1288C58.9094 55.4283 57.538 55.6633 56.8375 56.6544C56.1371 57.6452 56.3723 59.0166 57.3631 59.7171C59.9143 61.5209 62.694 62.9362 65.638 63.932L74.0685 79.4658C74.4529 80.1739 75.1938 80.6148 75.9998 80.6148C76.8057 80.6148 77.5466 80.1739 77.931 79.4658L86.3618 63.9317C92.4822 61.8561 97.9589 57.8922 101.859 52.6976C106.082 47.0714 108.315 40.3691 108.315 33.3156C108.315 15.4967 93.8184 1 76 1C58.1817 1 43.6853 15.4967 43.6853 33.3153C43.6853 40.3387 45.9004 47.0178 50.0911 52.6302C50.817 53.6025 52.1937 53.8023 53.1664 53.0764Z" fill="black" stroke="white"/>
<path d="M9.28047 87.9402H31.8739C35.5284 87.9402 38.5018 84.9672 38.5018 81.3124C38.5018 77.6579 35.5287 74.6846 31.8739 74.6846C31.6519 74.6846 31.4307 74.696 31.2109 74.7183C30.2846 69.4296 25.6589 65.3978 20.1089 65.3978C15.8386 65.3978 12.0429 67.7512 10.1263 71.4227C9.8456 71.3934 9.56348 71.3787 9.28047 71.3787C4.71455 71.379 1 75.0936 1 79.6595C1 84.2254 4.71455 87.9402 9.28047 87.9402ZM9.28047 75.7735C9.74453 75.7735 10.2086 75.8606 10.6595 76.0319C11.2264 76.2479 11.8574 76.2194 12.4029 75.9537C12.9484 75.688 13.3598 75.2087 13.5394 74.6292C14.4364 71.7361 17.0764 69.7926 20.1086 69.7926C23.9002 69.7926 26.9852 72.8775 26.9852 76.6691C26.9852 76.9621 26.9649 77.2577 26.9236 77.5735C26.807 78.4636 27.2433 79.3349 28.0258 79.7746C28.8077 80.2141 29.7789 80.1341 30.4788 79.5719C30.7583 79.3472 31.2273 79.0794 31.8739 79.0794C33.1053 79.0794 34.1072 80.0811 34.1072 81.3127C34.1072 82.5443 33.1056 83.546 31.8739 83.546H9.28047C7.1377 83.546 5.39453 81.8025 5.39453 79.6598C5.39453 77.517 7.1377 75.7735 9.28047 75.7735Z" fill="black" stroke="white"/>
<path d="M121.779 74.7364H123.988C125.201 74.7364 126.185 73.7526 126.185 72.5392C126.185 71.3257 125.201 70.3419 123.988 70.3419H121.779C119.636 70.3419 117.893 68.5984 117.893 66.4557C117.893 64.3129 119.636 62.5694 121.779 62.5694C122.243 62.5694 122.707 62.6564 123.158 62.8278C123.725 63.0437 124.356 63.0153 124.901 62.7496C125.447 62.4839 125.858 62.0046 126.038 61.4251C126.935 58.532 129.575 56.5885 132.607 56.5885C136.398 56.5885 139.483 59.6734 139.483 63.465C139.483 63.7539 139.463 64.058 139.422 64.3694C139.305 65.2595 139.742 66.1308 140.524 66.5705C141.306 67.01 142.277 66.93 142.977 66.3678C143.257 66.1431 143.726 65.8753 144.372 65.8753C145.604 65.8753 146.605 66.8769 146.605 68.1086C146.605 69.3402 145.604 70.3419 144.372 70.3419H134.23C133.017 70.3419 132.033 71.3257 132.033 72.5392C132.033 73.7526 133.017 74.7364 134.23 74.7364H144.372C148.027 74.7364 151 71.7634 151 68.1086C151 64.4541 148.027 61.4808 144.372 61.4808C144.15 61.4808 143.929 61.4922 143.709 61.5144C142.783 56.2258 138.157 52.1939 132.607 52.1939C128.337 52.1939 124.541 54.5474 122.625 58.2188C122.344 58.1895 122.062 58.1749 121.779 58.1749C117.213 58.1749 113.499 61.8897 113.499 66.4557C113.499 71.0216 117.213 74.7364 121.779 74.7364Z" fill="black" stroke="white"/>
<path d="M16.2626 22.7362C19.8974 22.7362 22.8544 19.7793 22.8544 16.1444C22.8544 12.5096 19.8974 9.55264 16.2626 9.55264C12.6277 9.55264 9.67078 12.5099 9.67078 16.1444C9.67078 19.779 12.6277 22.7362 16.2626 22.7362ZM16.2626 13.9469C17.4743 13.9469 18.4598 14.9327 18.4598 16.1441C18.4598 17.3556 17.4743 18.3414 16.2626 18.3414C15.0509 18.3414 14.0653 17.3559 14.0653 16.1441C14.0653 14.9324 15.0509 13.9469 16.2626 13.9469Z" fill="black" stroke="white"/>
<path d="M3.19727 18.342C4.41078 18.342 5.39453 17.3583 5.39453 16.1447C5.39453 14.9312 4.41078 13.9475 3.19727 13.9475C1.98375 13.9475 1 14.9312 1 16.1447C1 17.3583 1.98375 18.342 3.19727 18.342Z" fill="black" stroke="white"/>
<path d="M29.3271 18.3417C30.5407 18.3417 31.5244 17.358 31.5244 16.1444C31.5244 14.9309 30.5407 13.9472 29.3271 13.9472C28.1136 13.9472 27.1299 14.9309 27.1299 16.1444C27.1299 17.358 28.1136 18.3417 29.3271 18.3417Z" fill="black" stroke="white"/>
<path d="M16.2616 5.39542C17.4751 5.39542 18.4589 4.41167 18.4589 3.19815C18.4589 1.98463 17.4751 1.00089 16.2616 1.00089C15.0481 1.00089 14.0643 1.98463 14.0643 3.19815C14.0643 4.41167 15.0481 5.39542 16.2616 5.39542Z" fill="black" stroke="white"/>
<path d="M16.2622 31.5253C17.4757 31.5253 18.4595 30.5415 18.4595 29.328C18.4595 28.1145 17.4757 27.1308 16.2622 27.1308C15.0487 27.1308 14.0649 28.1145 14.0649 29.328C14.0649 30.5415 15.0487 31.5253 16.2622 31.5253Z" fill="black" stroke="white"/>
<path d="M7.06653 9.06103C8.28005 9.06103 9.2638 8.07728 9.2638 6.86377C9.2638 5.65025 8.28005 4.6665 7.06653 4.6665C5.85301 4.6665 4.86926 5.65025 4.86926 6.86377C4.86926 8.07728 5.85301 9.06103 7.06653 9.06103Z" fill="black" stroke="white"/>
<path d="M27.097 26.8937C27.9552 26.0356 27.9552 24.6443 27.097 23.7862C26.2389 22.9281 24.8476 22.9281 23.9895 23.7862C23.1314 24.6443 23.1314 26.0356 23.9895 26.8937C24.8476 27.7518 26.2389 27.7518 27.097 26.8937Z" fill="black" stroke="white"/>
<path d="M25.459 9.14423C26.6725 9.14423 27.6562 8.16048 27.6562 6.94696C27.6562 5.73344 26.6725 4.74969 25.459 4.74969C24.2455 4.74969 23.2617 5.73344 23.2617 6.94696C23.2617 8.16048 24.2455 9.14423 25.459 9.14423Z" fill="black" stroke="white"/>
<path d="M6.98267 27.6212C8.19618 27.6212 9.17993 26.6374 9.17993 25.4239C9.17993 24.2104 8.19618 23.2267 6.98267 23.2267C5.76915 23.2267 4.7854 24.2104 4.7854 25.4239C4.7854 26.6374 5.76915 27.6212 6.98267 27.6212Z" fill="black" stroke="white"/>
</svg>
