<svg width="28" height="28" viewBox="0 0 28 28" fill="none" xmlns="http://www.w3.org/2000/svg">
<path d="M13.9996 4C8.48557 4.00011 3.99989 8.48605 4 13.9999C4 19.5138 8.48578 23.9999 13.9996 24C19.5138 23.9999 24 19.5139 24 14C23.9999 8.48594 19.5138 4 13.9996 4ZM13.9996 22C9.36516 21.9999 6 18.6345 6 13.9998C5.99989 9.36531 9.36548 6.00011 14 6C18.6348 6 22 9.3651 22 13.9998C21.9999 18.6343 18.6344 21.9999 13.9996 22Z" fill="#F98500"/>
<path d="M13.9997 8.48779C10.9605 8.48805 8.48779 10.9609 8.48779 13.9999C8.48779 17.0395 10.9605 19.5124 13.9998 19.5124C17.0393 19.5124 19.5121 17.0395 19.5121 14.0001C19.5121 10.9605 17.0393 8.48779 13.9997 8.48779ZM13.9998 17.5986C12.0158 17.5986 10.4016 15.9843 10.4016 13.9999C10.4016 12.016 12.0158 10.4017 13.9998 10.4016C15.9841 10.4016 17.5983 12.0159 17.5983 14.0001C17.5983 15.9843 15.984 17.5986 13.9998 17.5986Z" fill="#F98500"/>
<path d="M14 16.0706C15.1435 16.0706 16.0706 15.1435 16.0706 14C16.0706 12.8565 15.1435 11.9294 14 11.9294C12.8565 11.9294 11.9294 12.8565 11.9294 14C11.9294 15.1435 12.8565 16.0706 14 16.0706Z" fill="#F98500"/>
<rect x="13" y="23" width="2" height="5" fill="#F98500"/>
<rect x="13" width="2" height="5" fill="#F98500"/>
<rect x="23" y="15" width="2" height="5" transform="rotate(-90 23 15)" fill="#F98500"/>
<rect y="15" width="2" height="5" transform="rotate(-90 0 15)" fill="#F98500"/>
</svg>
