<svg width="24" height="23" viewBox="0 0 24 23" fill="none" xmlns="http://www.w3.org/2000/svg">
<path fill-rule="evenodd" clip-rule="evenodd" d="M17.7341 10.0817H23.6483V12.1362C23.6483 12.6442 23.2338 13.0591 22.7262 13.0591H20.5989L19.3299 13.7L17.7341 13.0591V10.0817Z" fill="#FFE07D"/>
<path fill-rule="evenodd" clip-rule="evenodd" d="M17.7343 13.0594H20.5991V14.3773C20.5991 14.6938 20.3399 14.9517 20.025 14.9517H10.6978C10.6978 14.1233 10.6978 13.7017 11.3316 13.7017L12.5938 13.7004C13.3884 13.6991 13.9093 13.4956 14.2003 13.0594H17.7343Z" fill="#6F6571"/>
<path fill-rule="evenodd" clip-rule="evenodd" d="M11.8225 14.9517H20.0248C20.5058 15.7895 20.8925 16.7961 20.559 18.7216C20.0009 16.8227 14.3325 17.5806 13.7505 19.7722H7.49614C7.25961 19.2363 7.03639 18.707 6.84106 18.1724H8.60431C12.1706 16.8267 11.0239 17.4264 11.8225 14.9517Z" fill="#FFE07D"/>
<path fill-rule="evenodd" clip-rule="evenodd" d="M11.3162 9.80393C11.4385 10.4476 11.6046 11.0819 11.7906 11.6218L13.5936 12.3282L15.6041 11.6217C15.5337 7.81718 14.1119 5.99267 12.9028 5.40228C12.4669 5.0704 12.0205 4.94543 12.0205 4.94543C12.0205 4.94543 11.4332 5.885 11.4026 5.885C11.1767 6.42223 11.0917 7.12306 11.1063 7.87972L11.3162 9.80393Z" fill="#ECEAEC"/>
<path fill-rule="evenodd" clip-rule="evenodd" d="M15.6043 11.6219H11.7909C10.9126 11.7177 9.83228 12.3866 9.83228 14.4584V16.63H11.8227V14.9518C11.8227 14.1233 11.8227 13.7017 12.4565 13.7017L13.7188 13.7004C14.5134 13.6991 15.0343 13.4956 15.3253 13.0595C15.5498 12.723 15.6362 12.2483 15.6043 11.6219Z" fill="#FF8086"/>
<path fill-rule="evenodd" clip-rule="evenodd" d="M15.6044 11.6216C15.534 7.817 14.1123 5.99249 12.9031 5.4021C12.7237 5.52843 12.5244 5.63216 12.3052 5.70927C13.3761 6.51913 14.4498 8.32897 14.5109 11.6216H15.6044Z" fill="#DAD8DB"/>
<path fill-rule="evenodd" clip-rule="evenodd" d="M15.6046 11.6219H14.5111C14.5429 12.2483 14.4566 12.723 14.232 13.0595C14.0486 13.3347 13.7723 13.5674 13.3936 13.7004H13.7191C14.5137 13.6991 15.0345 13.4956 15.3255 13.0595C15.5501 12.723 15.6365 12.2483 15.6046 11.6219Z" fill="#F76672"/>
<path fill-rule="evenodd" clip-rule="evenodd" d="M18.6563 7.10071H22.7262C23.2337 7.10071 23.6483 7.5156 23.6483 8.02358V9.55021H17.7341V8.02358C17.7341 7.5156 18.1487 7.10071 18.6563 7.10071Z" fill="#FFE07D"/>
<path fill-rule="evenodd" clip-rule="evenodd" d="M17.7341 9.0896H23.6483V10.5404H17.7341V9.0896Z" fill="#FF8086"/>
<path fill-rule="evenodd" clip-rule="evenodd" d="M22.4138 9.09008H23.1712H23.6482V8.02358C23.6482 7.67652 23.4542 7.37333 23.1712 7.2164C23.0383 7.14327 22.8869 7.10071 22.7261 7.10071H21.4917C21.9993 7.10071 22.4138 7.5156 22.4138 8.02358V9.09008Z" fill="#FFC269"/>
<path fill-rule="evenodd" clip-rule="evenodd" d="M22.4141 10.5404H23.1715H23.6485V10.0817V9.54972V9.0896H23.1715H22.4141V9.54972V10.0817V10.5404Z" fill="#F76672"/>
<path fill-rule="evenodd" clip-rule="evenodd" d="M22.4138 10.5403V12.136C22.4138 12.644 21.9993 13.0589 21.4917 13.0589H22.7261C22.8869 13.0589 23.0383 13.0177 23.1712 12.9445C23.4543 12.7863 23.6482 12.4831 23.6482 12.136V10.5403H23.1712H22.4138Z" fill="#FFC269"/>
<path fill-rule="evenodd" clip-rule="evenodd" d="M13.751 19.7723C13.751 17.8055 15.3096 16.239 17.2323 16.239C18.7962 16.239 20.1197 17.2763 20.5595 18.7217C20.6499 19.0183 20.703 19.3335 20.7123 19.6606C20.7163 19.7882 20.6286 19.7723 20.509 19.7723C18.2567 19.7723 16.0032 19.7709 13.751 19.7723Z" fill="#FF8086"/>
<path fill-rule="evenodd" clip-rule="evenodd" d="M14.626 19.7723H19.925C19.8493 21.2005 18.6919 22.3362 17.2755 22.3362C15.859 22.3362 14.7017 21.2005 14.626 19.7723Z" fill="#6F6571"/>
<path fill-rule="evenodd" clip-rule="evenodd" d="M1.17044 19.2068L5.72937 20.256C5.43968 21.5153 4.18404 22.3026 2.92573 22.0127C1.66605 21.7228 0.880804 20.4661 1.17044 19.2068Z" fill="#6F6571"/>
<path fill-rule="evenodd" clip-rule="evenodd" d="M0.82876 17.9285C1.4732 16.991 2.59201 16.4471 3.76131 16.5641C5.82353 17.0002 6.49454 18.233 6.62874 19.7702C6.62607 19.979 6.60348 20.1891 6.55834 20.3992C6.54507 20.4577 6.50649 20.4338 6.44274 20.4192L5.72921 20.2557L1.17029 19.2065L0.828807 19.128L0.351807 19.0176C0.443447 18.616 0.608213 18.2489 0.82876 17.9285Z" fill="#ECEAEC"/>
<path fill-rule="evenodd" clip-rule="evenodd" d="M3.75684 16.559L5.59846 10.1866L6.42759 9.81555L7.35506 10.1866C6.13659 13.5643 6.47676 15.922 7.29923 18.1721C7.49587 18.7066 7.71909 19.2359 7.95431 19.7718H6.62958L3.75684 16.559Z" fill="#FF8086"/>
<path fill-rule="evenodd" clip-rule="evenodd" d="M9.45971 3.04167L11.6202 2.58154C11.8394 2.60151 12.4666 3.12811 12.4666 3.45787L12.0069 5.79568C11.8155 5.85286 11.6122 5.88478 11.4023 5.88478C10.2516 5.88478 9.31885 4.94995 9.31885 3.79833C9.31885 3.531 9.36802 3.27567 9.45971 3.04167Z" fill="#FFECE4"/>
<path fill-rule="evenodd" clip-rule="evenodd" d="M8.76294 3.04188C8.76294 1.55515 9.94021 0.351685 11.3938 0.351685C12.8475 0.351685 14.0248 1.55515 14.0248 3.04188C14.0248 4.02326 13.6261 4.89565 12.9033 5.40227C12.6455 5.58447 12.3452 5.71877 12.0078 5.79588V3.45809C12.0078 3.12827 11.8403 3.06181 11.6211 3.04184H9.46058H8.76294V3.04188Z" fill="#FF8086"/>
<path fill-rule="evenodd" clip-rule="evenodd" d="M10.0166 0.749278C10.4165 0.496622 10.8882 0.351685 11.3932 0.351685C12.8468 0.351685 14.0241 1.55515 14.0241 3.04188C14.0241 4.02326 13.6255 4.89565 12.9026 5.40227C12.7193 5.53127 12.516 5.63632 12.2928 5.71343C12.8269 5.17221 13.1166 4.39559 13.1166 3.53918C13.1166 1.98598 11.8849 0.726637 10.3661 0.726637C10.2478 0.726684 10.1309 0.73334 10.0166 0.749278Z" fill="#F76672"/>
<path fill-rule="evenodd" clip-rule="evenodd" d="M9.83235 16.6301H11.8228V17.8841C11.8228 18.1528 11.6766 18.1727 11.4614 18.1727H8.6046C8.54746 16.9147 9.3088 16.6301 9.83235 16.6301Z" fill="#6F6571"/>
<path fill-rule="evenodd" clip-rule="evenodd" d="M7.29965 18.172C6.47718 15.922 6.13701 13.5642 7.35548 10.1865H6.67251C6.66984 10.1865 6.66721 10.1865 6.66454 10.1865H6.41873C5.20026 13.5642 5.53912 15.922 6.3629 18.172C6.55823 18.7066 6.78145 19.2358 7.01798 19.7718H7.49634H7.95477C7.71955 19.2358 7.49634 18.7066 7.29965 18.172Z" fill="#F76672"/>
<path fill-rule="evenodd" clip-rule="evenodd" d="M6.62838 19.7704L3.76094 16.5642C3.46464 16.535 3.17097 16.5469 2.88794 16.5988L5.64377 19.6799C5.6411 19.8595 5.62385 20.0416 5.5893 20.2238L5.7288 20.2558L6.44233 20.4193C6.50613 20.4339 6.54466 20.4579 6.55792 20.3993C6.60316 20.1892 6.62575 19.9791 6.62838 19.7704Z" fill="#DAD8DB"/>
<path fill-rule="evenodd" clip-rule="evenodd" d="M20.025 14.9517H11.8228V15.6737H18.5621C19.1109 15.6737 19.3713 15.9104 19.5853 16.3905C19.7699 16.8067 19.7739 16.9423 19.8576 17.445C20.1726 17.8107 20.4144 18.2443 20.5592 18.7216C20.8927 16.7961 20.5061 15.7895 20.025 14.9517Z" fill="#FFC269"/>
<path fill-rule="evenodd" clip-rule="evenodd" d="M19.8572 17.4452C19.2194 16.7044 18.28 16.239 17.2315 16.239C16.9684 16.239 16.7133 16.2683 16.4675 16.3228C18.0368 16.6779 19.1343 18.0635 19.1822 19.6606C19.1848 19.7483 19.1449 19.7683 19.0812 19.7723H19.9249H20.5083C20.6278 19.7723 20.7155 19.7882 20.7116 19.6606C20.7023 19.3335 20.6491 19.0183 20.5587 18.7217C20.5561 18.7124 20.5534 18.7044 20.5508 18.6965C20.5508 18.6965 20.5508 18.6965 20.5508 18.6952C20.4046 18.2284 20.1667 17.8042 19.8572 17.4452Z" fill="#F76672"/>
<path fill-rule="evenodd" clip-rule="evenodd" d="M5.59004 20.2241L1.17067 19.2068C1.1215 19.4156 1.10425 19.6257 1.11221 19.8305L4.62011 20.6376L4.75829 20.6696C4.62807 21.2414 4.29723 21.7161 3.8574 22.0366C4.75431 21.8783 5.51303 21.2001 5.72959 20.256L5.59004 20.2241Z" fill="#5D5360"/>
<path fill-rule="evenodd" clip-rule="evenodd" d="M19.0813 19.7723H14.626C14.6406 20.0516 14.6977 20.3202 14.7894 20.5716H17.8934H18.7371C18.7039 21.1965 18.4647 21.7644 18.0874 22.2072C19.1118 21.8708 19.8652 20.9146 19.925 19.7723H19.0813Z" fill="#5D5360"/>
<path fill-rule="evenodd" clip-rule="evenodd" d="M20.5991 14.3773V13.0594H18.7986V14.3773C18.7986 14.6938 18.5395 14.9517 18.2246 14.9517H20.025C20.3399 14.9517 20.5991 14.6938 20.5991 14.3773Z" fill="#5D5360"/>
<path fill-rule="evenodd" clip-rule="evenodd" d="M9.32983 3.57541H11.105C11.3243 3.59538 11.4917 3.66316 11.4917 3.99298V5.88265C11.6697 5.87468 11.8425 5.84543 12.0072 5.79622V3.45837C12.0072 3.12855 11.8398 3.06208 11.6206 3.04211H9.46005C9.39494 3.20969 9.34976 3.38922 9.32983 3.57541Z" fill="#FFDDCE"/>
<path fill-rule="evenodd" clip-rule="evenodd" d="M5.21467 8.18023L7.70072 9.00204C7.82297 9.11107 7.68479 10.2228 7.60238 10.1869H5.59867H4.7124V8.35709C4.7124 7.99672 4.89976 8.0765 5.21467 8.18023Z" fill="#FFE07D"/>
<path fill-rule="evenodd" clip-rule="evenodd" d="M8.8596 10.1871H8.65101H7.60265C6.92765 10.1871 6.90773 9.06743 7.70099 9.00227L8.85965 8.90918L9.17057 9.56745L8.8596 10.1871Z" fill="#FFECE4"/>
<path fill-rule="evenodd" clip-rule="evenodd" d="M11.1066 7.87962L11.5224 7.52192C12.5642 6.62431 13.8809 8.13893 12.4884 9.0432L11.3165 9.80384L10.7265 10.1868H8.85962V8.90886L10.0196 8.81445L11.1066 7.87962Z" fill="#FF8086"/>
<path fill-rule="evenodd" clip-rule="evenodd" d="M8.85976 10.1867V9.56704H8.61128H8.47707H8.26712H7.21876C7.17892 9.56704 7.1417 9.56437 7.10584 9.5564C7.06731 9.86493 7.24136 10.1867 7.60281 10.1867H8.65117H8.85976Z" fill="#FFDDCE"/>
<path fill-rule="evenodd" clip-rule="evenodd" d="M12.4884 9.04344C13.3309 8.49556 13.182 7.72559 12.7024 7.40112C12.7409 7.73356 12.5828 8.11522 12.1044 8.42506L11.1916 9.01681L10.9338 9.1857L10.3438 9.56736H8.85962V10.187H10.7265L11.3165 9.80408L12.4884 9.04344Z" fill="#F76672"/>
<path fill-rule="evenodd" clip-rule="evenodd" d="M7.70102 9.00205L6.70047 8.67224C6.36565 9.0313 6.20351 9.73077 6.4188 10.1869H7.35555H7.60268C7.24127 10.1869 7.06718 9.86507 7.10571 9.55654C7.1403 9.2893 7.33296 9.03262 7.70102 9.00205Z" fill="#FFC269"/>
<path d="M22.7263 6.74878H18.6563C17.954 6.74878 17.3826 7.32047 17.3826 8.02322V12.7076H15.8603C15.9449 12.4001 15.9763 12.0373 15.9557 11.6152V11.6151C15.9226 9.83109 15.5989 8.32753 14.9934 7.14619C14.5233 6.22898 13.9746 5.67909 13.5038 5.35036C14.0564 4.78219 14.3759 3.97392 14.3759 3.04172C14.3759 1.36448 13.038 0 11.3934 0C9.74892 0 8.41097 1.36448 8.41097 3.04172C8.41097 3.23592 8.56838 3.39328 8.76253 3.39328H9.00141C8.97942 3.52594 8.9677 3.66112 8.9677 3.79842C8.9677 4.98042 9.8123 5.96831 10.929 6.1897C10.8119 6.62433 10.7537 7.13681 10.754 7.719L9.87712 8.47317L7.74361 8.64572L5.28253 7.83216C5.05697 7.75716 4.80131 7.67241 4.5795 7.83234C4.36092 7.99008 4.36092 8.26622 4.36092 8.35692V10.1867C4.36092 10.3809 4.51833 10.5382 4.71248 10.5382H5.13103L4.48908 12.7566C4.43512 12.943 4.54256 13.138 4.72908 13.192C4.91569 13.2462 5.11055 13.1385 5.16455 12.952L5.86308 10.5382H6.86255C5.61942 14.3291 6.32873 16.8595 7.419 19.4204H6.78703L4.15486 16.4773L4.71145 14.5545C4.76545 14.3679 4.65802 14.173 4.4715 14.119C4.28498 14.0651 4.09003 14.1725 4.03603 14.359L3.50367 16.1982C1.85714 16.1707 0.384329 17.306 0.00900052 18.9392C-0.0344526 19.1284 0.0836255 19.317 0.272766 19.3605L0.771844 19.4754C0.644344 20.7997 1.51645 22.0492 2.84648 22.3553C3.04847 22.4018 3.25219 22.4248 3.4545 22.4248C3.95344 22.4248 4.44361 22.2849 4.87716 22.0132C5.38598 21.6944 5.76511 21.2256 5.97028 20.6716L6.36408 20.7622C6.48141 20.7894 6.59269 20.8031 6.70388 20.7433C6.80733 20.6876 6.87609 20.587 6.90188 20.4735C6.92663 20.3585 6.94547 20.2415 6.95855 20.1235H14.3113C14.5464 21.5854 15.7902 22.6874 17.2757 22.6874C18.7612 22.6874 20.0051 21.5854 20.2402 20.1235H20.5086L20.5396 20.1238C20.5503 20.124 20.5618 20.1241 20.5739 20.1241C20.6745 20.1241 20.8197 20.1129 20.9389 19.9916C20.9986 19.9309 21.0686 19.8223 21.0632 19.6498C21.0533 19.3196 21.0038 19.0006 20.9192 18.6975C21.1993 16.9974 20.9298 15.962 20.5304 15.1516C20.7829 14.9861 20.9504 14.7009 20.9504 14.3769V13.4107H22.7261C23.4285 13.4107 23.9999 12.839 23.9999 12.1363V8.02317C24 7.32047 23.4286 6.74878 22.7263 6.74878ZM4.5038 21.4175C4.05375 21.6996 3.52125 21.7892 3.00431 21.6702H3.00427C2.0528 21.4512 1.41802 20.5787 1.46428 19.6353L5.2777 20.513C5.11992 20.8845 4.85297 21.1987 4.5038 21.4175ZM6.26292 20.0175L0.79425 18.7591C1.21627 17.6035 2.35195 16.8385 3.59334 16.9043L6.2723 19.8997C6.26995 19.9392 6.26686 19.9785 6.26292 20.0175ZM11.5732 13.8912C11.4711 14.1604 11.4711 14.4922 11.4711 14.9515V16.2782H10.1838V14.4581C10.1838 12.4004 11.3068 12.0337 11.8108 11.9732H15.2575C15.2436 12.4402 15.1382 12.7722 14.9382 12.9829C14.705 13.2284 14.3061 13.348 13.7184 13.3486L12.4565 13.3499C12.0065 13.35 11.7093 13.532 11.5732 13.8912ZM11.4711 16.9813V17.8207C11.4679 17.8207 11.4646 17.8207 11.4613 17.8207H8.96409C8.99217 17.5604 9.07327 17.3589 9.20644 17.2195C9.40453 17.0122 9.68353 16.9813 9.83222 16.9813H11.4711ZM15.242 11.2701H12.0448C11.9164 10.8661 11.8019 10.4237 11.7078 9.969L12.6798 9.33806C13.2105 8.99348 13.4865 8.50659 13.4372 8.00217C13.3935 7.55503 13.0895 7.15561 12.6628 6.98466C12.273 6.82856 11.8536 6.87759 11.4828 7.11464C11.5134 6.77836 11.5703 6.47817 11.6526 6.22336C11.8025 6.20789 11.9513 6.17859 12.0975 6.13561C12.395 6.06652 12.6699 5.95641 12.9181 5.81039C13.5952 6.21492 15.0844 7.52705 15.242 11.2701ZM9.13983 2.6902C9.30562 1.56689 10.2531 0.703172 11.3934 0.703172C12.6502 0.703172 13.6728 1.75228 13.6728 3.04177C13.6728 4.09055 13.1699 4.93584 12.3589 5.30784V3.45802C12.3589 3.13772 12.2363 2.74481 11.6526 2.69166C11.642 2.69067 11.6313 2.6902 11.6207 2.6902H9.13983ZM9.67087 3.79847C9.67087 3.65972 9.68667 3.5242 9.71775 3.39333H11.6034C11.6251 3.39567 11.641 3.3982 11.6523 3.4005C11.6542 3.41353 11.6558 3.43228 11.6558 3.45802V5.5147C11.572 5.52703 11.4877 5.53327 11.4035 5.53331C11.4027 5.53331 11.4019 5.53331 11.4011 5.53331C10.4469 5.53242 9.67087 4.75453 9.67087 3.79847ZM9.21511 9.23222L10.0478 9.16486C10.122 9.15891 10.1924 9.12951 10.2488 9.081L11.7517 7.78842L11.7519 7.78819C11.8972 7.66298 12.0523 7.59876 12.2033 7.59876C12.2706 7.59876 12.337 7.61152 12.4013 7.6373C12.5871 7.71169 12.719 7.88175 12.7375 8.07047C12.7607 8.30798 12.6042 8.54873 12.297 8.74823L10.6224 9.83517H9.2152V9.23222H9.21511ZM7.72936 9.35241L8.51198 9.28912V9.83527H7.60256C7.48467 9.83527 7.45594 9.7373 7.45256 9.65512C7.45064 9.60853 7.45505 9.37491 7.72936 9.35241ZM6.89728 9.10969C6.79139 9.28331 6.74194 9.48642 6.75005 9.68391C6.75216 9.73505 6.75867 9.78431 6.76777 9.83231C6.76777 9.8333 6.7672 9.83428 6.76739 9.83522H5.06414V8.50055L6.89864 9.10697C6.89808 9.10791 6.8978 9.1088 6.89728 9.10969ZM7.60453 10.5383H10.7265C10.7944 10.5383 10.8609 10.5187 10.9178 10.4817L11.077 10.3784C11.1535 10.7167 11.2407 11.046 11.3357 11.3569C10.6187 11.5686 9.48061 12.2525 9.48061 14.4581V16.3134C9.23395 16.3632 8.94216 16.4782 8.69808 16.7337C8.44078 17.0029 8.29383 17.3677 8.25858 17.8207H7.54936C6.8347 15.7611 6.56292 13.5694 7.60453 10.5383ZM8.184 19.4192C8.05406 19.1204 7.92881 18.8227 7.81088 18.5238H11.4612C11.9343 18.5238 12.1742 18.3084 12.1742 17.8837V16.6297V15.303H14.9491C15.1433 15.303 15.3007 15.1457 15.3007 14.9515C15.3007 14.7573 15.1433 14.5999 14.9491 14.5999H12.1767C12.1812 14.4002 12.194 14.2369 12.2306 14.1405C12.2484 14.0935 12.2638 14.053 12.4568 14.053L13.7191 14.0517C14.5096 14.051 15.0752 13.8597 15.4481 13.467C15.4653 13.4488 15.4816 13.4297 15.498 13.4107H17.7342H20.2474V14.377C20.2474 14.4978 20.1456 14.5999 20.025 14.5999H16.5251C16.3309 14.5999 16.1735 14.7573 16.1735 14.9515C16.1735 15.1457 16.3309 15.303 16.5251 15.303H19.8184C20.0963 15.8188 20.3462 16.4606 20.3314 17.4745C19.6358 16.5084 18.5099 15.8872 17.232 15.8872C16.2057 15.8872 15.2427 16.2897 14.5203 17.0207C13.8793 17.6693 13.4943 18.5112 13.4151 19.4204L8.184 19.4192ZM17.2758 21.9843C16.1767 21.9843 15.2498 21.1925 15.0256 20.1236H19.526C19.3017 21.1924 18.3748 21.9843 17.2758 21.9843ZM19.9253 19.4205H14.6263H14.1212C14.2938 17.8308 15.623 16.5903 17.232 16.5903C18.6445 16.5903 19.8308 17.5217 20.2237 18.8257C20.2249 18.8298 20.2262 18.8339 20.2276 18.838C20.2831 19.0251 20.3224 19.2198 20.3436 19.4205H19.9253ZM23.2969 12.1363C23.2969 12.4514 23.0409 12.7076 22.7263 12.7076H18.0857V10.8921H23.2969V12.1363ZM23.2969 10.189H18.0857V9.44128H23.2969V10.189ZM23.2969 8.73816H18.0857V8.02322C18.0857 7.70817 18.3417 7.45191 18.6563 7.45191H22.7263C23.0409 7.45191 23.2969 7.70822 23.2969 8.02322V8.73816Z" fill="black"/>
</svg>
