<svg width="60" height="61" viewBox="0 0 60 61" fill="none" xmlns="http://www.w3.org/2000/svg">
<path d="M49.1852 10.8521L41.3289 22.5708H2.95703L10.8133 10.8521H49.1852Z" fill="#FFB531"/>
<path d="M57.0426 22.5708V57.5114H41.3301V22.5708L49.1863 10.8521L57.0426 22.5708Z" fill="#FFB531"/>
<path d="M49.1853 10.8508V3.42578L46.4197 6.16281L43.6831 3.42578L40.9461 6.16281L38.2095 3.42578L35.4725 6.16281L32.7359 3.42578L29.9989 6.16281L27.2619 3.42578L24.5253 6.16281L21.7883 3.42578L19.0517 6.16281L16.3147 3.42578L13.5781 6.16281L10.8125 3.42578V10.8508H49.1853Z" fill="#FFB531"/>
<path d="M2.95508 22.5703H41.3279V57.5142H2.95508V22.5703Z" fill="#FFB531"/>
<path d="M16.2801 27.2192H30.7219C32.0701 27.2192 33.4377 28.1835 34.5105 30.0629C35.5711 31.9209 36.251 34.5379 36.251 37.4692C36.251 40.4006 35.5711 43.0176 34.5105 44.8756C33.4377 46.755 32.0701 47.7192 30.7219 47.7192H16.2801C14.9319 47.7192 13.5643 46.755 12.4914 44.8756C11.4308 43.0176 10.751 40.4006 10.751 37.4692C10.751 34.5379 11.4308 31.9209 12.4914 30.0629C13.5643 28.1835 14.9319 27.2192 16.2801 27.2192Z" fill="#12C474" stroke="black" stroke-width="1.5"/>
<path d="M57.8317 22.3544C57.8275 22.3384 57.8223 22.323 57.8172 22.3075C57.7951 22.2372 57.7635 22.1701 57.7234 22.1083L50.0078 10.6014V3.42579C50.0081 3.26361 49.9603 3.10499 49.8705 2.96997C49.7806 2.83494 49.6528 2.72957 49.5031 2.66717C49.3534 2.60476 49.1886 2.58813 49.0295 2.61936C48.8703 2.6506 48.724 2.72831 48.609 2.84266L46.4237 5.00501L44.2637 2.84548C44.1098 2.69173 43.9012 2.60538 43.6836 2.60538C43.4661 2.60538 43.2575 2.69173 43.1036 2.84548L40.9473 5.00173L38.7911 2.84548C38.6372 2.69173 38.4285 2.60538 38.211 2.60538C37.9934 2.60538 37.7848 2.69173 37.6309 2.84548L35.4746 5.00173L33.3184 2.84548C33.1646 2.69176 32.956 2.60542 32.7386 2.60542C32.5211 2.60542 32.3125 2.69176 32.1587 2.84548L29.9996 5.00219L27.8434 2.84594C27.6896 2.69223 27.481 2.60589 27.2636 2.60589C27.0461 2.60589 26.8375 2.69223 26.6837 2.84594L24.5275 5.00219L22.3712 2.84594C22.2173 2.6922 22.0087 2.60584 21.7911 2.60584C21.5736 2.60584 21.365 2.6922 21.2111 2.84594L19.0548 5.00219L16.8986 2.84594C16.7447 2.6922 16.536 2.60584 16.3185 2.60584C16.1009 2.60584 15.8923 2.6922 15.7384 2.84594L13.5756 5.00501L11.3903 2.84266C11.2752 2.72879 11.129 2.6515 10.9701 2.62054C10.8112 2.58958 10.6467 2.60633 10.4973 2.66867C10.3479 2.73102 10.2203 2.83618 10.1306 2.9709C10.0408 3.10563 9.99292 3.2639 9.99293 3.42579V10.6014L2.2773 22.1083C2.23989 22.1655 2.20967 22.227 2.1873 22.2916C2.18074 22.3089 2.17605 22.3258 2.1709 22.3431C2.15732 22.3916 2.14807 22.4412 2.14324 22.4913C2.14324 22.5095 2.13855 22.5269 2.13809 22.5452V22.5691V26.0116C2.13809 26.2291 2.22451 26.4378 2.37835 26.5916C2.53219 26.7455 2.74084 26.8319 2.9584 26.8319C3.17596 26.8319 3.38461 26.7455 3.53845 26.5916C3.69229 26.4378 3.77871 26.2291 3.77871 26.0116V23.3913H40.5081V56.6945H3.77637V29.6106C3.77637 29.5029 3.75515 29.3962 3.71392 29.2967C3.6727 29.1972 3.61228 29.1068 3.5361 29.0306C3.45993 28.9544 3.3695 28.894 3.26997 28.8528C3.17045 28.8115 3.06378 28.7903 2.95605 28.7903C2.84833 28.7903 2.74166 28.8115 2.64213 28.8528C2.54261 28.894 2.45218 28.9544 2.37601 29.0306C2.29983 29.1068 2.23941 29.1972 2.19818 29.2967C2.15696 29.3962 2.13574 29.5029 2.13574 29.6106V57.513C2.13568 57.6207 2.15686 57.7274 2.19806 57.827C2.23926 57.9265 2.29968 58.017 2.37587 58.0932C2.45205 58.1693 2.54251 58.2298 2.64206 58.271C2.74161 58.3122 2.84831 58.3333 2.95605 58.3333H57.0432C57.151 58.3333 57.2577 58.3122 57.3572 58.271C57.4568 58.2298 57.5472 58.1693 57.6234 58.0932C57.6996 58.017 57.76 57.9265 57.8012 57.827C57.8424 57.7274 57.8636 57.6207 57.8636 57.513V50.0692C57.8636 49.8517 57.7771 49.643 57.6233 49.4892C57.4695 49.3353 57.2608 49.2489 57.0432 49.2489C56.8257 49.2489 56.617 49.3353 56.4632 49.4892C56.3094 49.643 56.2229 49.8517 56.2229 50.0692V56.6927H50.0064V23.3913H56.2229V40.0413C56.2229 40.2588 56.3094 40.4675 56.4632 40.6213C56.617 40.7751 56.8257 40.8616 57.0432 40.8616C57.2608 40.8616 57.4695 40.7751 57.6233 40.6213C57.7771 40.4675 57.8636 40.2588 57.8636 40.0413V22.5691C57.8626 22.4964 57.8518 22.4242 57.8317 22.3544ZM48.3657 21.7506H42.8659L48.3657 13.5475V21.7506ZM13.0018 6.74548C13.156 6.8979 13.3642 6.98311 13.581 6.98249C13.7977 6.98188 14.0054 6.89549 14.1587 6.74219L16.315 4.58594L18.4712 6.74219C18.6251 6.89594 18.8338 6.98229 19.0513 6.98229C19.2688 6.98229 19.4775 6.89594 19.6314 6.74219L21.7876 4.58594L23.9439 6.74219C24.0978 6.89594 24.3064 6.98229 24.5239 6.98229C24.7415 6.98229 24.9501 6.89594 25.104 6.74219L27.2603 4.58594L29.4165 6.74219C29.5703 6.89591 29.7789 6.98225 29.9964 6.98225C30.2138 6.98225 30.4224 6.89591 30.5762 6.74219L32.7325 4.58594L34.8887 6.74219C35.0426 6.89594 35.2513 6.98229 35.4688 6.98229C35.6863 6.98229 35.895 6.89594 36.0489 6.74219L38.2051 4.58594L40.3614 6.74219C40.5153 6.89594 40.7239 6.98229 40.9414 6.98229C41.159 6.98229 41.3676 6.89594 41.5215 6.74219L43.6778 4.58594L45.834 6.74219C45.9874 6.89526 46.1951 6.98149 46.4118 6.98211C46.6285 6.98272 46.8366 6.89767 46.9909 6.74548L48.3592 5.39126V10.0319H11.6336V5.39126L13.0018 6.74548ZM11.2496 11.6725H47.6471L40.8911 21.7506H4.49355L11.2496 11.6725ZM48.3643 56.6945H42.1487V23.3913H48.3657L48.3643 56.6945ZM50.005 13.5489L55.5043 21.752H50.0064L50.005 13.5489Z" fill="black"/>
<path d="M57.042 43.2803C56.8244 43.2803 56.6158 43.3667 56.4619 43.5205C56.3081 43.6744 56.2217 43.883 56.2217 44.1006V46.21C56.2217 46.4275 56.3081 46.6362 56.4619 46.79C56.6158 46.9438 56.8244 47.0303 57.042 47.0303C57.2596 47.0303 57.4682 46.9438 57.622 46.79C57.7759 46.6362 57.8623 46.4275 57.8623 46.21V44.1006C57.8624 43.9928 57.8412 43.8861 57.8 43.7866C57.7588 43.687 57.6984 43.5966 57.6222 43.5204C57.546 43.4442 57.4555 43.3838 57.356 43.3426C57.2564 43.3014 57.1497 43.2802 57.042 43.2803Z" fill="#422002"/>
<path d="M7.68359 52.8018C7.68359 53.0193 7.77002 53.228 7.92386 53.3818C8.0777 53.5356 8.28635 53.6221 8.50391 53.6221H17.9417C18.1593 53.6221 18.3679 53.5356 18.5218 53.3818C18.6756 53.228 18.762 53.0193 18.762 52.8018C18.762 52.5842 18.6756 52.3755 18.5218 52.2217C18.3679 52.0679 18.1593 51.9814 17.9417 51.9814H8.50391C8.39616 51.9814 8.28947 52.0026 8.18991 52.0438C8.09036 52.085 7.99991 52.1454 7.92372 52.2216C7.84753 52.2978 7.78711 52.3882 7.74591 52.4878C7.70471 52.5873 7.68353 52.694 7.68359 52.8018Z" fill="#422002"/>
<path d="M21.4033 51.9814C21.1858 51.9814 20.9771 52.0679 20.8233 52.2217C20.6694 52.3755 20.583 52.5842 20.583 52.8018C20.583 53.0193 20.6694 53.228 20.8233 53.3818C20.9771 53.5356 21.1858 53.6221 21.4033 53.6221H23.4161C23.6337 53.6221 23.8423 53.5356 23.9962 53.3818C24.15 53.228 24.2364 53.0193 24.2364 52.8018C24.2364 52.5842 24.15 52.3755 23.9962 52.2217C23.8423 52.0679 23.6337 51.9814 23.4161 51.9814H21.4033Z" fill="#422002"/>
<path d="M18 37.3516L22.1093 41.4688L30 33.5859L28.8672 32.4688L22.1093 39.2187L19.1171 36.2266L18 37.3516Z" fill="black"/>
</svg>
