<svg width="12" height="12" viewBox="0 0 12 12" fill="none" xmlns="http://www.w3.org/2000/svg">
<path d="M11.897 0.102973C11.7597 -0.0343242 11.5371 -0.0343242 11.3998 0.102973L10.3758 1.12696C10.3129 1.09696 10.2465 1.07279 10.1771 1.05547L6.99496 0.269308C6.63763 0.179988 6.25382 0.286277 5.99336 0.546738L0.308409 6.22231C-0.102803 6.63355 -0.102803 7.30269 0.308409 7.71394L4.28607 11.6916C4.6973 12.1028 5.36645 12.1028 5.77771 11.6916L11.4533 6.00662C11.7138 5.74616 11.8201 5.36234 11.7307 5.00499L10.9446 1.82289C10.9272 1.75356 10.9031 1.68711 10.8731 1.62416L11.8971 0.600175C12.0343 0.462879 12.0343 0.240269 11.897 0.102973ZM11.0485 5.17557C11.0783 5.29468 11.0429 5.4226 10.956 5.50944L5.28046 11.1944C5.14337 11.3314 4.92031 11.3314 4.78323 11.1944L0.80559 7.21672C0.668504 7.07963 0.668504 6.85658 0.80559 6.71949L6.49056 1.04394C6.55705 0.977449 6.64766 0.941097 6.73996 0.941097C6.76818 0.941097 6.79656 0.944495 6.82443 0.951456L9.81342 1.68934L8.96674 2.53602C8.57475 2.34931 8.09055 2.4178 7.7665 2.74185C7.35524 3.1531 7.35524 3.82222 7.7665 4.23348C7.9721 4.43909 8.24221 4.54191 8.51231 4.54191C8.78238 4.54191 9.0525 4.43912 9.25809 4.23348C9.58221 3.90938 9.65067 3.42521 9.46392 3.03322L10.3106 2.18654L11.0485 5.17557ZM8.76091 3.7363C8.62385 3.87336 8.40079 3.87338 8.26371 3.7363C8.12664 3.59924 8.12664 3.37616 8.26371 3.2391C8.33226 3.17054 8.42226 3.1363 8.51231 3.1363C8.60231 3.1363 8.69236 3.17056 8.76086 3.23907L8.76089 3.2391L8.76091 3.23912C8.898 3.37618 8.89797 3.59924 8.76091 3.7363Z" fill="#F27321"/>
</svg>
