<svg width="24" height="24" viewBox="0 0 24 24" fill="none" xmlns="http://www.w3.org/2000/svg">
<g clip-path="url(#clip0)">
<path d="M21.75 21.0002H2.25001C1.0093 21.0002 0 19.9909 0 18.7502V15.0001C0 14.5856 0.335439 14.2501 0.750005 14.2501C1.99072 14.2501 3.00002 13.2408 3.00002 12.0001C3.00002 10.7594 1.99072 9.75011 0.750005 9.75011C0.335439 9.75016 0 9.41473 0 9.00016V5.25014C0 4.00942 1.0093 3.00012 2.25001 3.00012H21.75C22.9908 3.00012 24 4.00942 24 5.25014V9.00016C24 9.41473 23.6646 9.75016 23.25 9.75016C22.0093 9.75016 21 10.7595 21 12.0002C21 13.2409 22.0093 14.2502 23.25 14.2502C23.6646 14.2502 24 14.5856 24 15.0002V18.7502C24 19.9909 22.9908 21.0002 21.75 21.0002ZM1.50001 15.6747V18.7502C1.50001 19.164 1.83621 19.5002 2.25001 19.5002H21.75C22.1638 19.5002 22.5 19.164 22.5 18.7502V15.6747C20.7906 15.3261 19.5 13.8114 19.5 12.0001C19.5 10.1888 20.7905 8.67421 22.5 8.32554V5.25014C22.5 4.83633 22.1638 4.50013 21.75 4.50013H2.25001C1.83621 4.50013 1.50001 4.83633 1.50001 5.25014V8.3256C3.20947 8.67421 4.50003 10.1889 4.50003 12.0002C4.50003 13.8115 3.20947 15.3261 1.50001 15.6747Z" fill="black"/>
<path d="M9.04858 17.7264L13.547 5.73069L14.9515 6.25737L10.4531 18.2531L9.04858 17.7264Z" fill="black"/>
<path d="M8.45216 12.2523C7.21145 12.2523 6.20215 11.243 6.20215 10.0023C6.20215 8.76162 7.21145 7.75232 8.45216 7.75232C9.69288 7.75232 10.7022 8.76162 10.7022 10.0023C10.7022 11.243 9.69288 12.2523 8.45216 12.2523ZM8.45216 9.25233C8.03835 9.25233 7.70216 9.58852 7.70216 10.0023C7.70216 10.4161 8.03835 10.7523 8.45216 10.7523C8.86597 10.7523 9.20217 10.4161 9.20217 10.0023C9.20217 9.58852 8.86597 9.25233 8.45216 9.25233Z" fill="black"/>
<path d="M16.2046 16.9042C14.9639 16.9042 13.9546 15.8949 13.9546 14.6542C13.9546 13.4135 14.9639 12.4042 16.2046 12.4042C17.4453 12.4042 18.4546 13.4135 18.4546 14.6542C18.4546 15.8949 17.4453 16.9042 16.2046 16.9042ZM16.2046 13.9042C15.7908 13.9042 15.4546 14.2404 15.4546 14.6542C15.4546 15.068 15.7908 15.4042 16.2046 15.4042C16.6184 15.4042 16.9546 15.068 16.9546 14.6542C16.9546 14.2404 16.6184 13.9042 16.2046 13.9042Z" fill="black"/>
</g>
<defs>
<clipPath id="clip0">
<rect width="24" height="24" fill="white"/>
</clipPath>
</defs>
</svg>
