<?xml version="1.0" encoding="UTF-8" standalone="no"?>
<svg
   xmlns:dc="http://purl.org/dc/elements/1.1/"
   xmlns:cc="http://creativecommons.org/ns#"
   xmlns:rdf="http://www.w3.org/1999/02/22-rdf-syntax-ns#"
   xmlns:svg="http://www.w3.org/2000/svg"
   xmlns="http://www.w3.org/2000/svg"
   id="svg2724"
   version="1.1"
   viewBox="0 0 6 6"
   height="6mm"
   width="6mm">
  <defs
     id="defs2718" />
  <metadata
     id="metadata2721">
    <rdf:RDF>
      <cc:Work
         rdf:about="">
        <dc:format>image/svg+xml</dc:format>
        <dc:type
           rdf:resource="http://purl.org/dc/dcmitype/StillImage" />
        <dc:title></dc:title>
      </cc:Work>
    </rdf:RDF>
  </metadata>
  <g
     transform="translate(0,-291)"
     id="layer1">
    <path
       id="path2"
       d="m 6.0067607,292.03194 c 0,-0.53905 -0.4385818,-0.97761 -0.9776132,-0.97761 -0.5390557,0 -0.9776129,0.43856 -0.9776129,0.97761 0,0.46758 0.6927612,1.41394 0.8550693,1.62932 -4.9e-5,0.0696 0,0.13789 -0.00169,0.2006 -0.00177,0.0674 0.051447,0.12365 0.1189755,0.12543 0.00108,0 0.00214,0 0.00335,0 0.065867,0 0.1202955,-0.0526 0.1220796,-0.11897 0.00169,-0.0644 0.00164,-0.13457 0.00169,-0.20613 0.1612328,-0.21392 0.8557535,-1.16212 0.8557535,-1.63025 z"
       style="fill:#303c42;stroke-width:0.24440326" />
    <path
       id="path4"
       d="m 5.0291475,291.29873 c 0.4043164,0 0.7332099,0.32889 0.7332099,0.73321 0,0.31111 -0.4645861,1.01449 -0.7332099,1.38409 -0.2686235,-0.36959 -0.7332096,-1.07297 -0.7332096,-1.38409 0,-0.40431 0.3288935,-0.73321 0.7332096,-0.73321 z"
       style="fill:#ef5350;stroke-width:0.24440326" />
    <path
       id="path6"
       d="m 5.2735508,292.03194 c 0,-0.13473 -0.1096637,-0.2444 -0.2444033,-0.2444 -0.134715,0 -0.2443787,0.10967 -0.2443787,0.2444 0,0.13473 0.1096637,0.2444 0.2443787,0.2444 0.1347396,10e-6 0.2444033,-0.10966 0.2444033,-0.2444 z"
       style="fill:#303c42;stroke-width:0.24440326" />
    <path
       id="path8"
       d="m 3.458588,295.45857 c -0.063252,-0.0246 -0.1336641,0.007 -0.158129,0.0698 -0.054771,0.14153 -0.1232525,0.30658 -0.2156371,0.45776 -0.035194,0.0577 -0.016936,0.13284 0.040571,0.16805 0.019944,0.0122 0.041891,0.0179 0.063618,0.0179 0.041182,0 0.081386,-0.0208 0.1044337,-0.0585 0.1023805,-0.1678 0.1762392,-0.34536 0.2349693,-0.49692 0.024344,-0.0629 -0.00694,-0.13369 -0.069826,-0.15813 z"
       style="fill:#303c42;stroke-width:0.24440326" />
    <path
       id="path10"
       d="m 2.7695663,296.35043 c -0.122446,0.097 -0.261575,0.17005 -0.4255501,0.22338 -0.064202,0.0209 -0.099291,0.0899 -0.078407,0.15407 0.01683,0.0516 0.064681,0.0844 0.1162358,0.0844 0.012533,0 0.025296,-0.002 0.037829,-0.006 0.189393,-0.0616 0.358129,-0.15048 0.5016913,-0.26423 0.052889,-0.042 0.061834,-0.11885 0.019944,-0.17171 -0.042257,-0.0528 -0.1190001,-0.0622 -0.1717423,-0.0199 z"
       style="fill:#303c42;stroke-width:0.24440326" />
    <path
       id="path12"
       d="m 3.8815766,294.5763 c -0.2016816,0.11446 -0.3137403,0.31316 -0.3805603,0.45254 -0.029255,0.0609 -0.00359,0.13391 0.057264,0.16302 0.017084,0.008 0.035096,0.0121 0.052742,0.0121 0.045606,0 0.089281,-0.0255 0.1102746,-0.0693 0.084857,-0.17697 0.1714979,-0.28356 0.2810394,-0.34586 0.058608,-0.0333 0.079235,-0.10788 0.045826,-0.16658 -0.033165,-0.0587 -0.1075132,-0.0794 -0.1665854,-0.0458 z"
       style="fill:#303c42;stroke-width:0.24440326" />
    <path
       id="path14"
       d="m 4.8140727,294.30653 c -0.040204,0.0594 -0.1225436,0.14119 -0.3716152,0.16351 -0.067186,0.006 -0.1168246,0.0654 -0.110739,0.13268 0.00572,0.0635 0.059048,0.11123 0.1215906,0.11123 0.00371,0 0.00741,-1.2e-4 0.01112,-5e-4 0.2645664,-0.0238 0.4451072,-0.11206 0.5520579,-0.26994 0.037809,-0.0558 0.023146,-0.13186 -0.032701,-0.16971 -0.055504,-0.0376 -0.1317577,-0.0231 -0.1697135,0.0327 z"
       style="fill:#303c42;stroke-width:0.24440326" />
    <path
       id="path16"
       d="m 1.8970638,296.67719 c 0.3855877,-0.41121 1.1768578,-1.35717 1.1768578,-2.20121 0,-0.82225 -0.6441809,-1.46642 -1.4664195,-1.46642 -0.82223849,0 -1.46641948,0.64417 -1.46641948,1.46642 0,1.09133 1.32607828,2.35726 1.38252318,2.41062 0.023509,0.0223 0.053708,0.0334 0.083896,0.0334 0.089029,0 0.1736339,-0.003 0.2538275,-0.009 0.067306,-0.005 0.1177828,-0.0637 0.1126503,-0.13103 -0.00367,-0.0482 -0.034837,-0.0857 -0.076916,-0.1026 z"
       style="fill:#303c42;stroke-width:0.24440326" />
    <path
       id="path18"
       d="m 1.607507,296.62548 c -0.2886793,-0.29451 -1.22202113,-1.31176 -1.22202113,-2.1495 0,-0.68524 0.53679021,-1.22202 1.22202113,-1.22202 0.6852285,0 1.2220113,0.53678 1.2220113,1.22202 0,0.83774 -0.9333344,1.85497 -1.2220113,2.1495 z"
       style="fill:#ef5350;stroke-width:0.24440326" />
    <path
       id="path20"
       d="m 1.6075021,295.20919 c 0.4049396,0 0.7332098,-0.32829 0.7332098,-0.73321 0,-0.40496 -0.3282702,-0.73321 -0.7332098,-0.73321 -0.4049395,0 -0.73320972,0.32825 -0.73320972,0.73321 0,0.40492 0.32827022,0.73321 0.73320972,0.73321 z"
       style="fill:#303c42;stroke-width:0.24440326" />
    <path
       id="path22"
       d="m 1.6075046,294.96478 c 0.2699629,0 0.4888089,-0.21884 0.4888089,-0.4888 0,-0.26997 -0.218846,-0.48881 -0.4888089,-0.48881 -0.2699605,0 -0.4888091,0.21884 -0.4888091,0.48881 0,0.26996 0.2188486,0.4888 0.4888091,0.4888 z"
       style="fill:#ffffff;stroke-width:0.24440326" />
    <path
       id="path24"
       d="m 1.3631062,294.72038 c 0,-0.26958 0.2192175,-0.48881 0.488809,-0.48881 0.071556,0 0.1390459,0.0163 0.2003495,0.044 -0.076769,-0.16964 -0.2467373,-0.28844 -0.4447601,-0.28844 -0.2695792,0 -0.4888091,0.21923 -0.4888091,0.48881 0,0.19801 0.1188143,0.36799 0.2884498,0.44476 -0.027725,-0.0613 -0.044039,-0.1288 -0.044039,-0.20036 z"
       style="opacity:0.1;fill:#000000;stroke-width:0.24440326" />
  </g>
</svg>
