<svg width="24" height="24" viewBox="0 0 24 24" fill="none" xmlns="http://www.w3.org/2000/svg">
<path d="M24 3.99998C24 1.79442 22.2055 0 20 0C17.7944 0 16 1.79442 16 3.99998C16 5.91314 18.8345 9.78525 19.4986 10.6665C19.4984 10.9512 19.4986 11.2307 19.4917 11.4873C19.4844 11.7631 19.7022 11.9932 19.9785 12.0005C19.9829 12.0005 19.9873 12.0005 19.9922 12.0005C20.2617 12.0005 20.4844 11.7851 20.4917 11.5137C20.4986 11.2504 20.4984 10.9631 20.4986 10.6703C21.1583 9.79505 24 5.91539 24 3.99998Z" fill="#303C42"/>
<path d="M20 1C21.6543 1 23 2.34569 23 4C23 5.27294 21.0991 8.15087 20 9.66311C18.9009 8.15092 17 5.27298 17 4C17 2.34573 18.3457 1 20 1Z" fill="#EF5350"/>
<path d="M21 3.99998C21 3.44873 20.5513 3 20 3C19.4488 3 19.0001 3.44873 19.0001 3.99998C19.0001 4.55123 19.4488 4.99997 20 4.99997C20.5513 5.00002 21 4.55128 21 3.99998Z" fill="#303C42"/>
<path d="M13.5739 18.0204C13.3151 17.9198 13.027 18.0482 12.9269 18.306C12.7028 18.8851 12.4226 19.5604 12.0446 20.179C11.9006 20.4149 11.9753 20.7225 12.2106 20.8666C12.2922 20.9164 12.382 20.9398 12.4709 20.9398C12.6394 20.9398 12.8039 20.8548 12.8982 20.7006C13.3171 20.014 13.6193 19.2875 13.8596 18.6674C13.9592 18.41 13.8312 18.1204 13.5739 18.0204Z" fill="#303C42"/>
<path d="M10.7547 21.6695C10.2537 22.0665 9.68444 22.3653 9.01352 22.5835C8.75083 22.669 8.60726 22.9512 8.69271 23.2139C8.76157 23.4248 8.95736 23.5591 9.1683 23.5591C9.21958 23.5591 9.2718 23.5513 9.32308 23.5347C10.098 23.2828 10.7884 22.919 11.3758 22.4536C11.5922 22.2817 11.6288 21.9673 11.4574 21.751C11.2845 21.5352 10.9705 21.4966 10.7547 21.6695Z" fill="#303C42"/>
<path d="M15.3046 14.4105C14.4794 14.8788 14.0209 15.6918 13.7475 16.2621C13.6278 16.5111 13.7328 16.81 13.9818 16.9291C14.0517 16.9628 14.1254 16.9784 14.1976 16.9784C14.3842 16.9784 14.5629 16.8739 14.6488 16.6947C14.996 15.9706 15.3505 15.5345 15.7987 15.2796C16.0385 15.1434 16.1229 14.8382 15.9862 14.598C15.8505 14.3578 15.5463 14.2733 15.3046 14.4105Z" fill="#303C42"/>
<path d="M19.12 13.3067C18.9555 13.5499 18.6186 13.8844 17.5995 13.9757C17.3246 14.0006 17.1215 14.2432 17.1464 14.5186C17.1698 14.7784 17.388 14.9737 17.6439 14.9737C17.6591 14.9737 17.6742 14.9732 17.6894 14.9717C18.7719 14.8745 19.5106 14.5132 19.9482 13.8672C20.1029 13.6387 20.0429 13.3277 19.8144 13.1728C19.5873 13.0191 19.2753 13.0782 19.12 13.3067Z" fill="#303C42"/>
<path d="M7.18477 23.0065C8.76244 21.324 12 17.4535 12 14C12 10.6357 9.36427 8 6 8C2.63573 8 0 10.6357 0 14C0 18.4653 5.42578 23.645 5.65673 23.8633C5.75292 23.9546 5.87648 24 6 24C6.36427 24 6.71044 23.9873 7.03856 23.9624C7.31395 23.9414 7.52048 23.7017 7.49948 23.4263C7.48448 23.2292 7.35694 23.0755 7.18477 23.0065Z" fill="#303C42"/>
<path d="M6.00002 22.7949C4.81886 21.5899 1 17.4277 1 14C1 11.1963 3.19633 9 6.00002 9C8.8037 9 11 11.1963 11 14C11 17.4277 7.18117 21.5898 6.00002 22.7949Z" fill="#EF5350"/>
<path d="M6 17C7.65685 17 9 15.6568 9 14C9 12.3431 7.65685 11 6 11C4.34315 11 3 12.3431 3 14C3 15.6568 4.34315 17 6 17Z" fill="#303C42"/>
<path d="M6.00001 16C7.10459 16 8.00002 15.1046 8.00002 14C8.00002 12.8954 7.10459 12 6.00001 12C4.89544 12 4 12.8954 4 14C4 15.1046 4.89544 16 6.00001 16Z" fill="white"/>
<path opacity="0.1" d="M5.00003 15C5.00003 13.897 5.89698 13 7.00004 13C7.29282 13 7.56896 13.0667 7.81979 13.1802C7.50568 12.4861 6.81024 12 6.00001 12C4.897 12 4 12.897 4 14C4 14.8102 4.48614 15.5057 5.18022 15.8198C5.06678 15.5689 5.00003 15.2928 5.00003 15Z" fill="black"/>
<path d="M20 0C17.7945 0 16 1.79442 16 3.99998C16 5.91314 18.8345 9.78525 19.4986 10.6665C19.4985 10.9512 19.4986 11.2307 19.4918 11.4873C19.4844 11.7631 19.7022 11.9932 19.9785 12.0005H19.9922C20.2618 12.0005 20.4844 11.7851 20.4917 11.5137C20.4986 11.2504 20.4984 10.9631 20.4986 10.6703C21.1583 9.79505 24 5.91539 24 3.99998C24 1.79442 22.2056 0 20 0ZM13.5737 18.0205C13.3149 17.9199 13.0268 18.0484 12.9268 18.3062C12.7027 18.8853 12.4224 19.5606 12.0444 20.1792C11.9004 20.415 11.9751 20.7227 12.2105 20.8667C12.292 20.9166 12.3818 20.94 12.4707 20.94C12.6392 20.94 12.8037 20.855 12.898 20.7008C13.317 20.0142 13.6192 19.2877 13.8594 18.6675C13.959 18.4102 13.8311 18.1206 13.5737 18.0205ZM10.7544 21.6694C10.2534 22.0664 9.68409 22.3652 9.01317 22.5835C8.75048 22.6689 8.60691 22.9512 8.69236 23.2139C8.76122 23.4248 8.95702 23.5591 9.16795 23.5591C9.21923 23.5591 9.27145 23.5513 9.32273 23.5347C10.0976 23.2827 10.788 22.919 11.3755 22.4536C11.5918 22.2817 11.6284 21.9673 11.457 21.7509C11.2842 21.5352 10.9702 21.4966 10.7544 21.6694ZM15.3047 14.4106C14.4795 14.8789 14.021 15.6919 13.7475 16.2622C13.6279 16.5112 13.7329 16.8101 13.9819 16.9292C14.0518 16.9629 14.1255 16.9785 14.1977 16.9785C14.3843 16.9785 14.563 16.874 14.6489 16.6948C14.9961 15.9707 15.3506 15.5347 15.7988 15.2797C16.0386 15.1435 16.123 14.8383 15.9863 14.5981C15.8506 14.3579 15.5464 14.2734 15.3047 14.4106ZM19.1201 13.3066C18.9556 13.5498 18.6187 13.8843 17.5996 13.9756C17.3247 14.0005 17.1216 14.2432 17.1465 14.5185C17.1699 14.7783 17.3881 14.9736 17.644 14.9736C17.6592 14.9736 17.6743 14.9731 17.6895 14.9716C18.772 14.8745 19.5107 14.5132 19.9483 13.8671C20.103 13.6386 20.043 13.3276 19.8145 13.1728C19.5874 13.0191 19.2754 13.0781 19.1201 13.3066ZM7.18477 23.0065C8.76244 21.324 12 17.4535 12 14C12 10.6357 9.36427 8.00002 6 8.00002C2.63573 8.00002 0 10.6357 0 14C0 18.4653 5.42578 23.645 5.65673 23.8633C5.75292 23.9546 5.87648 24 6 24C6.36427 24 6.71044 23.9873 7.03856 23.9625C7.31395 23.9415 7.52048 23.7017 7.49948 23.4263C7.48448 23.2292 7.35694 23.0755 7.18477 23.0065Z" fill="url(#paint0_linear)"/>
<defs>
<linearGradient id="paint0_linear" x1="2.6313" y1="6.98509" x2="19.4974" y2="14.8501" gradientUnits="userSpaceOnUse">
<stop stop-color="white" stop-opacity="0.2"/>
<stop offset="1" stop-color="white" stop-opacity="0"/>
</linearGradient>
</defs>
</svg>
