<?xml version="1.0" encoding="UTF-8" standalone="no"?>
<svg
   xmlns:dc="http://purl.org/dc/elements/1.1/"
   xmlns:cc="http://creativecommons.org/ns#"
   xmlns:rdf="http://www.w3.org/1999/02/22-rdf-syntax-ns#"
   xmlns:svg="http://www.w3.org/2000/svg"
   xmlns="http://www.w3.org/2000/svg"
   xmlns:sodipodi="http://sodipodi.sourceforge.net/DTD/sodipodi-0.dtd"
   xmlns:inkscape="http://www.inkscape.org/namespaces/inkscape"
   width="30"
   height="30"
   viewBox="0 0 30 30"
   fill="none"
   version="1.1"
   id="svg220"
   sodipodi:docname="Group 924.svg"
   inkscape:version="1.0.1 (3bc2e813f5, 2020-09-07)">
  <metadata
     id="metadata226">
    <rdf:RDF>
      <cc:Work
         rdf:about="">
        <dc:format>image/svg+xml</dc:format>
        <dc:type
           rdf:resource="http://purl.org/dc/dcmitype/StillImage" />
        <dc:title></dc:title>
      </cc:Work>
    </rdf:RDF>
  </metadata>
  <defs
     id="defs224" />
  <sodipodi:namedview
     pagecolor="#ffffff"
     bordercolor="#666666"
     borderopacity="1"
     objecttolerance="10"
     gridtolerance="10"
     guidetolerance="10"
     inkscape:pageopacity="0"
     inkscape:pageshadow="2"
     inkscape:window-width="1366"
     inkscape:window-height="705"
     id="namedview222"
     showgrid="false"
     inkscape:zoom="3.1834598"
     inkscape:cx="81.909754"
     inkscape:cy="24.573121"
     inkscape:window-x="-8"
     inkscape:window-y="-8"
     inkscape:window-maximized="1"
     inkscape:current-layer="svg220" />
  <g
     id="g339">
    <path
       d="m 16.875,21.0938 v 7.5 H 0.9375 c -0.257812,0 -0.46875,-0.2105 -0.46875,-0.4688 v -3.2812 c 0,-2.0719 1.67812,-3.75 3.75,-3.75 H 7.5 l 1.875,0.9374 1.4062,-0.4687 1.4063,0.4687 1.875,-0.9374 z"
       fill="#ffb531"
       id="path2" />
    <path
       d="m 20.8594,22.9688 h 0.6984 0.0047 c 0.263,-0.0047 0.4687,-0.2105 0.4687,-0.4688 V 21.5625 H 20.8547 19.6875 V 22.5 h -0.0047 c 0,0.2583 0.211,0.4688 0.4688,0.4688 z m 2.5781,0.9374 h 1.4063 v -1.875 c 0,-0.7776 -0.6282,-1.401 -1.4063,-1.4062 z m 4.2187,-5.625 V 28.5938 H 16.875 v -7.5 -2.8126 h 3.2812 1.875 3.2813 1.875 z"
       fill="#ffd2a6"
       id="path6" />
    <path
       d="M 22.0301,21.5625 V 22.5 c 0,0.2583 -0.2058,0.4641 -0.4688,0.4688 h -0.0047 -0.6984 -0.7078 c -0.2578,0 -0.4688,-0.2105 -0.4688,-0.4688 h 0.0047 v -0.9375 h 1.1672 z"
       fill="#f5f7fa"
       id="path10" />
    <path
       d="m 27.6562,18.2812 h 1.875 v 10.3126 h -1.875 z"
       fill="#f7c292"
       id="path14" />
    <path
       d="m 24.8438,22.0312 v 1.875 H 23.4375 V 20.625 c 0.7781,0.0052 1.4063,0.6286 1.4063,1.4062 z"
       fill="#f5f7fa"
       id="path18" />
    <path
       d="M 18.75,9.84375 H 17.8125 3.75 2.8125 c 0,0 0.25828,-0.28125 0.9375,-0.62813 1.06875,-0.54375 3.19687,-1.24687 7.0312,-1.24687 3.8344,0 5.963,0.70312 7.0313,1.24687 0.6797,0.34688 0.9375,0.62813 0.9375,0.62813 z"
       fill="#656d78"
       id="path22" />
    <path
       d="m 17.8125,9.84375 v 2.34375 c 0,2.6953 -1.5188,5.0391 -3.75,6.2208 -0.9797,0.5151 -2.0953,0.8105 -3.2813,0.8105 C 9.59578,19.2188 8.47969,18.9234 7.5,18.4083 5.26875,17.2266 3.75,14.8828 3.75,12.1875 V 9.84375 Z"
       fill="#eac6bb"
       id="path26" />
    <path
       d="m 16.4053,9.84375 v 2.34375 c 0,2.6953 -1.5183,5.0391 -3.75,6.2208 -0.7828,0.412 -1.6537,0.6801 -2.5772,0.7725 0.2316,0.0229 0.465,0.038 0.7031,0.038 1.186,0 2.3016,-0.2954 3.2813,-0.8105 2.2313,-1.1817 3.75,-3.5255 3.75,-6.2208 V 9.84375 Z"
       fill="#d3b1a9"
       id="path30" />
    <path
       d="M 17.8125,7.96875 V 9.21562 C 16.7442,8.67188 14.6156,7.96875 10.7812,7.96875 6.94687,7.96875 4.81875,8.67188 3.75,9.21562 V 7.96875 c 0,-3.88547 3.14531,-7.03125 7.0312,-7.03125 3.8813,0 7.0313,3.14578 7.0313,7.03125 z M 12.1875,4.6875 c 0,-0.77813 -0.6328,-1.40625 -1.4063,-1.40625 -0.7781,0 -1.4062,0.62812 -1.4062,1.40625 0,0.77344 0.6281,1.40625 1.4062,1.40625 0.7735,0 1.4063,-0.63281 1.4063,-1.40625 z"
       fill="#ffb531"
       id="path34" />
    <path
       d="m 10.7802,0.9375 c -0.2376,0 -0.4725,0.012656 -0.704,0.035625 3.5517,0.352495 6.3281,3.347815 6.3281,6.995625 v 0.69469 c 0.5958,0.1814 1.0594,0.375 1.4072,0.55218 V 7.96875 c 0,-3.88547 -3.15,-7.03125 -7.0313,-7.03125 z"
       fill="#da4453"
       id="path38" />
    <path
       d="m 14.0625,18.4082 v 2.6855 L 12.1875,22.0312 10.7812,21.5624 9.375,22.0312 7.5,21.0937 v -2.6855 c 0.97969,0.5152 2.09578,0.8105 3.2812,0.8105 1.186,0 2.3016,-0.2953 3.2813,-0.8105 z"
       fill="#ffce54"
       id="path42" />
    <path
       d="m 10.7812,3.28125 c 0.7735,0 1.4063,0.62813 1.4063,1.40625 0,0.77344 -0.6328,1.40625 -1.4063,1.40625 -0.7781,0 -1.4062,-0.63281 -1.4062,-1.40625 0,-0.77812 0.6281,-1.40625 1.4062,-1.40625 z"
       fill="#ffce54"
       id="path46" />
    <path
       d="M 0.46875,25.3134 C 0.209531,25.3134 0,25.1039 0,24.8447 0,22.5178 1.89281,20.625 4.21969,20.625 c 0.25922,0 0.46875,0.2095 0.46875,0.4687 0,0.2593 -0.20953,0.4688 -0.46875,0.4688 -1.80985,0 -3.28219,1.4723 -3.28219,3.2822 0,0.2592 -0.209531,0.4687 -0.46875,0.4687 z"
       fill="#000000"
       id="path50" />
    <path
       d="m 7.49906,21.563 -3.28031,-5e-4 c -0.25922,0 -0.46875,-0.21 -0.46875,-0.4687 0,-0.2593 0.21,-0.4688 0.46875,-0.4688 l 3.28031,5e-4 c 0.25922,0 0.46875,0.21 0.46875,0.4687 0,0.2592 -0.21,0.4688 -0.46875,0.4688 z"
       fill="#000000"
       id="path54" />
    <path
       d="m 0.469219,28.5943 c -0.25875,0 -0.46875025,-0.2095 -0.46875025,-0.4688 L 0,24.8457 C 0,24.587 0.209531,24.377 0.46875,24.377 c 0.25875,0 0.46875,0.2095 0.46875,0.4687 l 4.69e-4,3.2798 c 0,0.2588 -0.209532,0.4688 -0.46875,0.4688 z"
       fill="#000000"
       id="path58" />
    <path
       d="M 0.9375,29.0625 C 0.420469,29.0625 0,28.642 0,28.125 c 0,-0.2592 0.209531,-0.4688 0.46875,-0.4688 0.259219,0 0.46875,0.2096 0.46875,0.4688 v 9e-4 c 0.25922,0 0.46875,0.2091 0.46875,0.4683 0,0.2588 -0.20953,0.4683 -0.46875,0.4683 z"
       fill="#000000"
       id="path62" />
    <path
       d="M 16.8736,29.0625 H 0.9375 c -0.259219,0 -0.46875,-0.2095 -0.46875,-0.4687 0,-0.2593 0.209531,-0.4688 0.46875,-0.4688 h 15.9361 c 0.2592,0 0.4687,0.2095 0.4687,0.4688 0,0.2592 -0.2095,0.4687 -0.4687,0.4687 z"
       fill="#000000"
       id="path66" />
    <path
       d="m 7.5,21.5634 c -0.25922,0 -0.46875,-0.2096 -0.46875,-0.4688 v -2.6864 c 0,-0.2592 0.20953,-0.4687 0.46875,-0.4687 0.25922,0 0.46875,0.2095 0.46875,0.4687 v 2.6864 c 0,0.2592 -0.20953,0.4688 -0.46875,0.4688 z"
       fill="#000000"
       id="path70" />
    <path
       d="m 14.0625,21.5629 c -0.2592,0 -0.4687,-0.2095 -0.4687,-0.4688 v -2.6859 c 0,-0.2592 0.2095,-0.4687 0.4687,-0.4687 0.2592,0 0.4687,0.2095 0.4687,0.4687 v 2.6859 c 0,0.2593 -0.2095,0.4688 -0.4687,0.4688 z"
       fill="#000000"
       id="path74" />
    <path
       d="m 10.7812,19.6875 c -4.13526,0 -7.49995,-3.3647 -7.49995,-7.5 0,-0.2587 0.20953,-0.4687 0.46875,-0.4687 0.25922,0 0.46875,0.21 0.46875,0.4687 0,3.6188 2.94375,6.5625 6.56245,6.5625 3.6188,0 6.5626,-2.9437 6.5626,-6.5625 0,-0.2587 0.2095,-0.4687 0.4687,-0.4687 0.2592,0 0.4687,0.21 0.4687,0.4687 0,4.1353 -3.3646,7.5 -7.5,7.5 z"
       fill="#000000"
       id="path78" />
    <path
       d="m 17.8125,8.4375 c -0.2592,0 -0.4687,-0.21 -0.4687,-0.46875 0,-3.61875 -2.9438,-6.5625 -6.5626,-6.5625 -3.6187,0 -6.56245,2.94375 -6.56245,6.5625 0,0.25875 -0.20953,0.46875 -0.46875,0.46875 -0.25922,0 -0.46875,-0.21 -0.46875,-0.46875 0,-4.13531 3.36469,-7.5 7.49995,-7.5 4.1354,0 7.5,3.36469 7.5,7.5 0,0.25875 -0.2095,0.46875 -0.4687,0.46875 z"
       fill="#000000"
       id="path82" />
    <path
       d="m 3.75,12.6567 c -0.25922,0 -0.46875,-0.21 -0.46875,-0.4687 V 9.84375 C 3.28125,9.585 3.49078,9.375 3.75,9.375 c 0.25922,0 0.46875,0.21 0.46875,0.46875 V 12.188 c 0,0.2587 -0.20953,0.4687 -0.46875,0.4687 z"
       fill="#000000"
       id="path86" />
    <path
       d="m 17.8125,12.6567 c -0.2592,0 -0.4687,-0.21 -0.4687,-0.4687 V 9.84375 c 0,-0.25875 0.2095,-0.46875 0.4687,-0.46875 0.2592,0 0.4687,0.21 0.4687,0.46875 V 12.188 c 0,0.2587 -0.2095,0.4687 -0.4687,0.4687 z"
       fill="#000000"
       id="path90" />
    <path
       d="M 18.75,10.3125 H 2.8125 c -0.25922,0 -0.46875,-0.21 -0.46875,-0.46875 C 2.34375,9.585 2.55328,9.375 2.8125,9.375 H 18.75 c 0.2592,0 0.4688,0.21 0.4688,0.46875 0,0.25875 -0.2096,0.46875 -0.4688,0.46875 z"
       fill="#000000"
       id="path94" />
    <path
       d="m 18.7491,10.3125 c -0.1275,0 -0.255,-0.052 -0.3473,-0.1542 -0.0127,-0.0122 -1.7133,-1.7208 -7.6214,-1.7208 -5.90815,0 -7.60878,1.7086 -7.62565,1.7255 C 2.97709,10.3486 2.68178,10.3594 2.49428,10.1845 2.30678,10.0097 2.29178,9.71906 2.46428,9.52922 2.53928,9.44625 4.37678,7.5 10.7804,7.5 c 6.4036,0 8.2411,1.94625 8.3161,2.02922 0.1739,0.19172 0.1593,0.48848 -0.0324,0.66238 -0.09,0.0811 -0.2025,0.1209 -0.315,0.1209 z"
       fill="#000000"
       id="path98" />
    <path
       d="m 17.8125,9.68391 c -0.2592,0 -0.4687,-0.21 -0.4687,-0.46875 V 7.96875 C 17.3438,7.71 17.5533,7.5 17.8125,7.5 c 0.2592,0 0.4687,0.21 0.4687,0.46875 v 1.24641 c 0,0.25875 -0.2095,0.46875 -0.4687,0.46875 z"
       fill="#000000"
       id="path102" />
    <path
       d="m 3.75,9.68391 c -0.25922,0 -0.46875,-0.21 -0.46875,-0.46875 V 7.96875 C 3.28125,7.71 3.49078,7.5 3.75,7.5 c 0.25922,0 0.46875,0.21 0.46875,0.46875 v 1.24641 c 0,0.25875 -0.20953,0.46875 -0.46875,0.46875 z"
       fill="#000000"
       id="path106" />
    <path
       d="m 10.7812,6.5625 c -1.03401,0 -1.87495,-0.84094 -1.87495,-1.875 0,-1.03406 0.84094,-1.875 1.87495,-1.875 1.0341,0 1.875,0.84094 1.875,1.875 0,1.03406 -0.8409,1.875 -1.875,1.875 z m 0,-2.8125 c -0.517,0 -0.93745,0.42047 -0.93745,0.9375 0,0.51703 0.42045,0.9375 0.93745,0.9375 0.5171,0 0.9376,-0.42047 0.9376,-0.9375 0,-0.51703 -0.4205,-0.9375 -0.9376,-0.9375 z"
       fill="#000000"
       id="path110" />
    <path
       d="m 10.7812,1.40625 c -0.2592,0 -0.4687,-0.21 -0.4687,-0.46875 V 0.46875 C 10.3125,0.21 10.522,0 10.7812,0 11.0405,0 11.25,0.21 11.25,0.46875 V 0.9375 c 0,0.25875 -0.2095,0.46875 -0.4688,0.46875 z"
       fill="#000000"
       id="path114" />
    <path
       d="m 9.37436,22.4981 c -0.07031,0 -0.14203,-0.0159 -0.20859,-0.0492 l -1.875,-0.9361 c -0.23156,-0.1153 -0.32578,-0.397 -0.21,-0.6286 0.11531,-0.232 0.39844,-0.3249 0.62859,-0.21 l 1.875,0.9361 c 0.23157,0.1153 0.32578,0.397 0.21,0.6286 -0.08203,0.1645 -0.24797,0.2592 -0.42,0.2592 z"
       fill="#000000"
       id="path116" />
    <path
       d="m 9.37513,22.4988 c -0.19641,0 -0.37969,-0.1247 -0.44484,-0.3211 -0.08156,-0.2456 0.05109,-0.5109 0.29718,-0.593 l 1.40623,-0.4673 c 0.2452,-0.0806 0.511,0.0515 0.593,0.2972 0.0816,0.2456 -0.0511,0.5109 -0.2972,0.5929 l -1.40624,0.4674 c -0.04922,0.0159 -0.09938,0.0239 -0.14813,0.0239 z"
       fill="#000000"
       id="path120" />
    <path
       d="m 12.1883,22.4985 c -0.1721,0 -0.338,-0.0947 -0.42,-0.2597 -0.1158,-0.2316 -0.0216,-0.5133 0.21,-0.6286 l 1.875,-0.9361 c 0.2315,-0.1148 0.5133,-0.0216 0.6286,0.21 0.1157,0.2316 0.0215,0.5133 -0.21,0.6286 l -1.875,0.9361 c -0.0666,0.0337 -0.1388,0.0497 -0.2086,0.0497 z"
       fill="#000000"
       id="path124" />
    <path
       d="m 12.1876,22.4987 c -0.0488,0 -0.0989,-0.0079 -0.1477,-0.0239 l -1.4062,-0.4673 c -0.2456,-0.082 -0.3788,-0.3469 -0.2972,-0.593 0.082,-0.2451 0.3473,-0.3778 0.593,-0.2972 l 1.4062,0.4674 c 0.2456,0.082 0.3788,0.3469 0.2972,0.593 -0.0656,0.1964 -0.2489,0.321 -0.4453,0.321 z"
       fill="#000000"
       id="path128" />
    <path
       d="m 10.7953,24.375 c -0.2592,0 -0.4711,-0.2095 -0.4711,-0.4688 0,-0.2592 0.2072,-0.4687 0.466,-0.4687 h 0.0051 c 0.2588,0 0.4688,0.2095 0.4688,0.4687 0,0.2593 -0.21,0.4688 -0.4688,0.4688 z"
       fill="#000000"
       id="path132" />
    <path
       d="M 27.6543,29.0625 H 16.873 c -0.2592,0 -0.4687,-0.2095 -0.4687,-0.4687 V 18.2812 c 0,-0.2592 0.2095,-0.4687 0.4687,-0.4687 h 10.7813 c 0.2592,0 0.4687,0.2095 0.4687,0.4687 v 10.3126 c 0,0.2592 -0.2095,0.4687 -0.4687,0.4687 z M 17.3418,28.125 h 9.8437 V 18.75 h -9.8437 z"
       fill="#000000"
       id="path136" />
    <path
       d="m 20.8574,27.1914 c -0.2592,0 -0.4687,-0.2095 -0.4687,-0.4687 v -3.75 c 0,-0.2593 0.2095,-0.4688 0.4687,-0.4688 0.2592,0 0.4688,0.2095 0.4688,0.4688 v 3.75 c 0,0.2592 -0.2096,0.4687 -0.4688,0.4687 z"
       fill="#000000"
       id="path140" />
    <path
       d="m 20.1529,23.4389 c -0.5166,0 -0.9361,-0.42 -0.9361,-0.9361 0,-0.2485 0.1959,-0.428 0.4439,-0.4416 0.2414,-0.014 0.465,0.1941 0.4936,0.4406 0.2587,0 0.4678,0.2096 0.4678,0.4683 0,0.2592 -0.21,0.4688 -0.4692,0.4688 z"
       fill="#000000"
       id="path144" />
    <path
       d="m 21.5605,23.4399 c -0.2592,0 -0.4687,-0.2095 -0.4687,-0.4687 0,-0.2592 0.2095,-0.4688 0.4687,-0.4688 0,-0.2592 0.21,-0.4692 0.4693,-0.4692 0.2592,0 0.4692,0.2091 0.4692,0.4683 0,0.517 -0.421,0.9384 -0.9385,0.9384 z"
       fill="#000000"
       id="path148" />
    <path
       d="m 21.5614,23.4395 h -1.4091 c -0.2592,0 -0.4687,-0.2096 -0.4687,-0.4688 0,-0.2592 0.2095,-0.4687 0.4687,-0.4687 h 1.4091 c 0.2592,0 0.4688,0.2095 0.4688,0.4687 0,0.2592 -0.2096,0.4688 -0.4688,0.4688 z"
       fill="#000000"
       id="path152" />
    <path
       d="m 19.6855,22.9697 c -0.2592,0 -0.4687,-0.2095 -0.4687,-0.4688 V 20.625 c 0,-0.2592 0.2095,-0.4688 0.4687,-0.4688 0.2593,0 0.4688,0.2096 0.4688,0.4688 v 1.8759 c 0,0.2593 -0.2095,0.4688 -0.4688,0.4688 z"
       fill="#000000"
       id="path156" />
    <path
       d="m 22.0293,22.9697 c -0.2592,0 -0.4688,-0.2095 -0.4688,-0.4688 V 20.625 c 0,-0.2592 0.2096,-0.4688 0.4688,-0.4688 0.2592,0 0.4687,0.2096 0.4687,0.4688 v 1.8759 c 0,0.2593 -0.2095,0.4688 -0.4687,0.4688 z"
       fill="#000000"
       id="path160" />
    <path
       d="m 23.4355,27.1903 c -0.2592,0 -0.4687,-0.2095 -0.4687,-0.4687 V 20.625 c 0,-0.2592 0.2095,-0.4688 0.4687,-0.4688 0.2593,0 0.4688,0.2096 0.4688,0.4688 v 6.0966 c 0,0.2592 -0.2095,0.4687 -0.4688,0.4687 z"
       fill="#000000"
       id="path164" />
    <path
       d="m 24.8427,22.5028 c -0.2593,0 -0.4688,-0.2095 -0.4688,-0.4687 0,-0.5185 -0.4214,-0.9403 -0.9403,-0.9403 -0.2592,0 -0.4688,-0.2096 -0.4688,-0.4688 0,-0.2592 0.2096,-0.4688 0.4688,-0.4688 1.0355,0 1.8778,0.8424 1.8778,1.8779 0,0.2592 -0.2095,0.4687 -0.4687,0.4687 z"
       fill="#000000"
       id="path168" />
    <path
       d="m 24.8418,24.3761 c -0.2592,0 -0.4688,-0.2095 -0.4688,-0.4688 v -1.8721 c 0,-0.2593 0.2096,-0.4688 0.4688,-0.4688 0.2592,0 0.4687,0.2095 0.4687,0.4688 v 1.8721 c 0,0.2593 -0.2095,0.4688 -0.4687,0.4688 z"
       fill="#000000"
       id="path172" />
    <path
       d="m 24.8418,24.375 h -1.4063 c -0.2592,0 -0.4687,-0.2095 -0.4687,-0.4688 0,-0.2592 0.2095,-0.4687 0.4687,-0.4687 h 1.4063 c 0.2592,0 0.4687,0.2095 0.4687,0.4687 0,0.2593 -0.2095,0.4688 -0.4687,0.4688 z"
       fill="#000000"
       id="path176" />
    <path
       d="m 22.0298,22.0312 h -2.3443 c -0.2592,0 -0.4687,-0.2095 -0.4687,-0.4687 0,-0.2592 0.2095,-0.4687 0.4687,-0.4687 h 2.3443 c 0.2592,0 0.4687,0.2095 0.4687,0.4687 0,0.2592 -0.2095,0.4687 -0.4687,0.4687 z"
       fill="#000000"
       id="path180" />
    <path
       d="m 20.8574,22.0303 c -0.2592,0 -0.4687,-0.2095 -0.4687,-0.4687 V 20.625 c 0,-0.2592 0.2095,-0.4688 0.4687,-0.4688 0.2592,0 0.4688,0.2096 0.4688,0.4688 v 0.9366 c 0,0.2592 -0.2096,0.4687 -0.4688,0.4687 z"
       fill="#000000"
       id="path184" />
    <path
       d="m 29.5302,29.0625 h -1.8759 c -0.2592,0 -0.4688,-0.2095 -0.4688,-0.4687 0,-0.2593 0.2096,-0.4688 0.4688,-0.4688 h 1.4072 V 18.75 h -1.4072 c -0.2592,0 -0.4688,-0.2095 -0.4688,-0.4688 0,-0.2592 0.2096,-0.4687 0.4688,-0.4687 h 1.8759 c 0.2593,0 0.4688,0.2095 0.4688,0.4687 v 10.3126 c 0,0.2592 -0.2095,0.4687 -0.4688,0.4687 z"
       fill="#000000"
       id="path188" />
    <path
       d="m 25.3125,16.6416 c -0.2592,0 -0.4687,-0.2096 -0.4687,-0.4688 0,-1.1634 -0.9465,-2.1103 -2.1094,-2.1103 -1.163,0 -2.1094,0.9469 -2.1094,2.1103 0,0.2592 -0.2095,0.4688 -0.4688,0.4688 -0.2592,0 -0.4687,-0.2096 -0.4687,-0.4688 0,-1.6805 1.3669,-3.0478 3.0469,-3.0478 1.68,0 3.0468,1.3673 3.0468,3.0473 0,0.2597 -0.2095,0.4693 -0.4687,0.4693 z"
       fill="#000000"
       id="path192" />
    <path
       d="m 20.1562,18.7491 c -0.2592,0 -0.4687,-0.2096 -0.4687,-0.4688 v -2.1084 c 0,-0.2592 0.2095,-0.4688 0.4687,-0.4688 0.2593,0 0.4688,0.2096 0.4688,0.4688 v 2.1084 c 0,0.2592 -0.2095,0.4688 -0.4688,0.4688 z"
       fill="#000000"
       id="path196" />
    <path
       d="m 25.3125,18.7491 c -0.2592,0 -0.4687,-0.2096 -0.4687,-0.4688 v -2.1084 c 0,-0.2592 0.2095,-0.4688 0.4687,-0.4688 0.2592,0 0.4687,0.2096 0.4687,0.4688 v 2.1084 c 0,0.2592 -0.2095,0.4688 -0.4687,0.4688 z"
       fill="#000000"
       id="path200" />
    <path
       d="m 27.1895,16.6411 c -0.2593,0 -0.4688,-0.2095 -0.4688,-0.4688 0,-1.1634 -0.9464,-2.1098 -2.1094,-2.1098 -1.1629,0 -2.1093,0.9464 -2.1093,2.1098 0,0.2593 -0.2096,0.4688 -0.4688,0.4688 -0.2592,0 -0.4687,-0.2095 -0.4687,-0.4688 0,-1.6804 1.3668,-3.0473 3.0468,-3.0473 1.68,0 3.0469,1.3673 3.0469,3.0473 0,0.2593 -0.2095,0.4688 -0.4687,0.4688 z"
       fill="#000000"
       id="path204" />
    <path
       d="m 22.0332,18.7491 c -0.2592,0 -0.4687,-0.2096 -0.4687,-0.4688 v -2.1084 c 0,-0.2592 0.2095,-0.4688 0.4687,-0.4688 0.2592,0 0.4688,0.2096 0.4688,0.4688 v 2.1084 c 0,0.2592 -0.2096,0.4688 -0.4688,0.4688 z"
       fill="#000000"
       id="path208" />
    <path
       d="m 27.1895,18.7491 c -0.2593,0 -0.4688,-0.2096 -0.4688,-0.4688 v -2.1084 c 0,-0.2592 0.2095,-0.4688 0.4688,-0.4688 0.2592,0 0.4687,0.2096 0.4687,0.4688 v 2.1084 c 0,0.2592 -0.2095,0.4688 -0.4687,0.4688 z"
       fill="#000000"
       id="path212" />
    <path
       d="m 16.8741,21.5625 h -2.8116 c -0.2592,0 -0.4687,-0.2095 -0.4687,-0.4687 0,-0.2593 0.2095,-0.4688 0.4687,-0.4688 h 2.8116 c 0.2592,0 0.4687,0.2095 0.4687,0.4688 0,0.2592 -0.2095,0.4687 -0.4687,0.4687 z"
       fill="#000000"
       id="path216" />
  </g>
</svg>
