<svg width="9" height="7" viewBox="0 0 9 7" fill="none" xmlns="http://www.w3.org/2000/svg">
<path d="M7.75557 3.47537L7.75635 3.47553C7.83857 3.49246 7.89074 3.51789 7.91664 3.53669V4.94199C7.90884 4.9476 7.89784 4.95439 7.88301 4.96169L7.88262 4.96188L4.38297 6.69158C4.38295 6.69159 4.38293 6.6916 4.38291 6.69161C4.31206 6.72648 4.204 6.75016 4.08332 6.75016C3.9627 6.75016 3.85463 6.72649 3.78378 6.69164C3.78375 6.69162 3.78371 6.6916 3.78367 6.69158L0.284096 4.96192C0.284086 4.96191 0.284075 4.96191 0.284065 4.9619C0.28405 4.9619 0.284036 4.96189 0.284021 4.96188C0.269031 4.95446 0.257893 4.94754 0.25 4.94182V3.5367C0.275907 3.5179 0.32808 3.49246 0.410332 3.47553L0.410332 3.47553L0.410836 3.47543C0.585156 3.43917 0.776365 3.46377 0.883945 3.51756C0.883946 3.51756 0.883946 3.51756 0.883946 3.51756L3.97152 5.06136L4.08332 5.11726L4.19512 5.06136L7.28272 3.51756L7.28303 3.51741C7.39029 3.46359 7.58239 3.43916 7.75557 3.47537ZM7.93022 3.54825C7.93019 3.54826 7.92981 3.54788 7.92921 3.54709L7.93022 3.54825ZM0.236418 3.54826C0.236383 3.54826 0.236678 3.54788 0.237407 3.54713L0.236418 3.54826Z" fill="white" stroke="white" stroke-width="0.5"/>
<path d="M7.75588 0.266995L7.75632 0.267085C7.83856 0.284023 7.89073 0.309463 7.91664 0.328267V1.73356C7.90884 1.73917 7.89784 1.74596 7.88301 1.75326L7.88262 1.75345L4.38297 3.48315C4.38295 3.48317 4.38293 3.48318 4.38291 3.48319C4.31206 3.51805 4.204 3.54173 4.08332 3.54173C3.9627 3.54173 3.85463 3.51806 3.78378 3.48321C3.78375 3.48319 3.78371 3.48317 3.78367 3.48315L0.284096 1.75349C0.284078 1.75348 0.284059 1.75347 0.28404 1.75346C0.269041 1.74604 0.257897 1.73911 0.25 1.73339V0.328274C0.275907 0.309473 0.32808 0.284035 0.410332 0.267103L0.410528 0.267063C0.585297 0.23094 0.77654 0.255429 0.883946 0.309132L3.97152 1.85292L4.08332 1.90882L4.19512 1.85292L7.28272 0.309118C7.39016 0.255399 7.58252 0.230969 7.75588 0.266995ZM7.93023 0.339831C7.93019 0.339835 7.92983 0.33946 7.92924 0.338696L7.93023 0.339831ZM0.236418 0.339834C0.236383 0.33983 0.236678 0.339447 0.237407 0.338696L0.236418 0.339834Z" fill="white" stroke="white" stroke-width="0.5"/>
</svg>
