<svg width="48" height="48" viewBox="0 0 48 48" fill="none" xmlns="http://www.w3.org/2000/svg">
<g clip-path="url(#clip0)">
<path d="M45.3505 8.48268e-08H2.64734C1.18506 0.000732507 -0.000366126 1.18689 8.48268e-08 2.64954V45.3527C0.000732507 46.8149 1.18689 48.0004 2.64954 48H45.3505C46.8135 48.0004 47.9996 46.8146 48 45.3516C48 45.3512 48 45.3508 48 45.3505V2.64734C47.9993 1.18506 46.8131 -0.000366126 45.3505 8.48268e-08Z" fill="#4267B2"/>
<path d="M33.1406 47.9999V29.4374H39.3984L40.3359 22.1718H33.1406V17.5443C33.1406 15.4456 33.7233 14.0155 36.7328 14.0155H40.5469V7.53467C39.8833 7.44641 37.6066 7.24902 34.9574 7.24902C29.4261 7.24902 25.6406 10.624 25.6406 16.8247V22.1718H19.4062V29.4374H25.6406V47.9999H33.1406Z" fill="white"/>
</g>
<defs>
<clipPath id="clip0">
<rect width="48" height="48" fill="white"/>
</clipPath>
</defs>
</svg>
