<svg width="60" height="60" viewBox="0 0 60 60" fill="none" xmlns="http://www.w3.org/2000/svg">
<g clip-path="url(#clip0)">
<path fill-rule="evenodd" clip-rule="evenodd" d="M50.6238 41.4587C49.8012 37.9604 47.0624 36.3203 43.6264 35.7151C42.8368 35.576 42.0142 35.4899 41.1687 35.4505C40.5443 35.4308 40.0256 35.3018 39.5862 35.093C37.1179 39.7723 25.8359 39.4418 23.9526 35.093V35.0601C23.4967 35.2885 22.9547 35.4304 22.3006 35.4505C21.478 35.4904 20.6787 35.5695 19.912 35.7018C16.5721 36.274 13.8828 37.8149 12.9443 41.0719C14.395 42.4644 26.1696 53.0822 26.2621 53.6645H50.984V47.7122C50.984 47.0773 51.2715 46.5051 51.7242 46.1215L50.6238 41.4587Z" fill="#F98500"/>
<path fill-rule="evenodd" clip-rule="evenodd" d="M22.3007 35.4505C21.4781 35.4899 20.6789 35.5695 19.9121 35.7018V41.0719L21.7061 42.6823L23.9528 41.0719V35.0601C23.4969 35.2885 22.9549 35.4304 22.3007 35.4505Z" fill="#E6E6E6"/>
<path fill-rule="evenodd" clip-rule="evenodd" d="M19.7402 52.1994H24.5504C25.4128 52.1994 26.1329 52.8376 26.262 53.6647H46.8344L45.2587 44.541C45.11 43.6548 44.5249 42.9041 43.6263 42.9041V35.7154C42.8367 35.5762 42.0141 35.4901 41.1686 35.4508C40.5442 35.4311 40.0256 35.302 39.5861 35.0933V42.9041H27.2334C27.2595 43.1028 21.1808 51.6075 19.7402 52.1994Z" fill="#E6E6E6"/>
<path fill-rule="evenodd" clip-rule="evenodd" d="M37.654 33.01L32.0276 31.2344L25.8332 32.9771L25.8167 33.0068C25.4033 33.8835 24.8188 34.6241 23.9531 35.0604V35.0933C25.8364 39.4421 37.1189 39.7726 39.5867 35.0933C38.6812 34.6635 38.1063 33.8899 37.654 33.01Z" fill="#FCC368"/>
<path fill-rule="evenodd" clip-rule="evenodd" d="M38.499 16.0728C34.0193 15.4082 29.5126 15.3949 24.9798 16.0728C23.6715 16.2678 22.3637 16.5224 21.0518 16.8332V25.4542C21.0518 28.5061 23.2751 31.2015 25.8326 32.9771C27.9205 34.4319 30.2331 35.2687 31.7231 35.1895C33.6064 35.0833 35.767 34.2964 37.6535 33.0101C40.336 31.1781 42.4637 28.3345 42.4637 24.9942V16.83C41.1453 16.5224 39.8237 16.2678 38.499 16.0728Z" fill="#FFDDA6"/>
<path fill-rule="evenodd" clip-rule="evenodd" d="M32.0374 2.52783C29.9729 2.53424 27.799 3.59259 26.7186 5.69876H23.8178C19.6251 5.69876 17.1276 10.3089 21.0524 12.7524V19.1643C22.3639 18.8535 23.6722 18.6022 24.9805 18.4035C29.5133 17.726 34.02 17.7389 38.4996 18.4035C39.8244 18.6022 41.146 18.8535 42.4643 19.1643V12.7524C46.3892 10.3089 44.0006 5.69876 39.8079 5.69876H36.6892C36.0781 3.59259 34.139 2.53424 32.0772 2.52783H32.0374Z" fill="#E6E6E6"/>
<path fill-rule="evenodd" clip-rule="evenodd" d="M42.4644 12.7524C46.3893 10.3089 44.0007 5.69922 39.808 5.69922H37.3604C41.12 5.69922 43.4422 9.06195 41.044 11.592C40.274 12.4018 40.0296 11.982 40.0296 13.1164L40.0195 18.6553C40.8357 18.8041 41.6519 18.9725 42.4644 19.1643V12.7524Z" fill="#C2C7CC"/>
<path fill-rule="evenodd" clip-rule="evenodd" d="M42.4643 23.4537C42.3256 23.4272 41.0832 23.1891 40.0193 22.3423V24.4855C40.0193 27.8254 37.8885 30.6722 35.206 32.501C33.3195 33.791 31.1589 34.5746 29.2756 34.6804C29.2093 34.6836 29.1433 34.6868 29.0742 34.6868C30.0717 35.0475 30.9968 35.2292 31.7238 35.1894C33.6065 35.0837 35.7676 34.2968 37.6541 33.0105C40.3366 31.1785 42.4643 28.3344 42.4643 24.9946V23.4537Z" fill="#FCC368"/>
<path fill-rule="evenodd" clip-rule="evenodd" d="M39.5867 35.0931C38.6812 34.6632 38.1063 33.8896 37.654 33.0103C36.5439 33.7674 35.3345 34.3529 34.1484 34.7264C34.6936 35.7811 35.1432 36.264 36.7188 37.0111C36.9069 37.1008 37.112 37.1768 37.3299 37.2331C38.3214 36.7003 39.1143 35.9862 39.5867 35.0931Z" fill="#EDA93B"/>
<path fill-rule="evenodd" clip-rule="evenodd" d="M50.6245 41.4589C49.8018 37.9607 47.063 36.3205 43.6271 35.7154C42.8374 35.5762 42.0148 35.4901 41.1693 35.4508C40.545 35.4311 40.0263 35.302 39.5869 35.0933C39.1144 35.9864 38.3211 36.7005 37.3301 37.2328C37.6244 37.3125 37.9449 37.3587 38.3015 37.3683C38.7377 37.3917 39.1639 37.4214 39.5869 37.4677C39.9865 37.5107 40.376 37.5638 40.7596 37.6334C41.7869 37.8151 42.755 38.0893 43.6271 38.4766C45.6655 39.3889 47.1821 40.927 47.7602 43.3806C48.5924 46.9155 48.9097 50.037 48.9097 53.6647H50.9847V47.7124C50.9847 47.0775 51.2722 46.5053 51.7249 46.1217L50.6245 41.4589Z" fill="#F27321"/>
<path fill-rule="evenodd" clip-rule="evenodd" d="M43.6271 35.7154C42.8375 35.5762 42.0149 35.4901 41.1694 35.4508C40.545 35.4311 40.0264 35.302 39.5869 35.0933V37.4677C39.9865 37.5107 40.3761 37.5638 40.7597 37.6334C41.7869 37.8151 42.7551 38.0893 43.6271 38.4766V35.7154Z" fill="#C2C7CC"/>
<path fill-rule="evenodd" clip-rule="evenodd" d="M58.385 49.3322C58.385 47.2952 56.7197 45.6289 54.6845 45.6289H53.0658C52.5568 45.6289 52.088 45.8138 51.7246 46.1215C51.2719 46.5051 50.9844 47.0773 50.9844 47.7122V54.4084C50.9844 55.556 51.9228 56.4953 53.0658 56.4953H54.6845C56.7197 56.4953 58.385 54.8286 58.385 52.7915V49.3322Z" fill="#FFDDA6"/>
<path fill-rule="evenodd" clip-rule="evenodd" d="M56.5642 18.6387H52.8046C51.4001 18.6387 50.2539 19.789 50.2539 21.1912V28.9026C50.2539 30.308 51.4001 31.4556 52.8046 31.4556H56.5642C57.3534 31.4556 58.0606 31.0917 58.5298 30.5231C58.8933 30.08 59.1144 29.5179 59.1144 28.9026V21.1912C59.1144 20.5796 58.8933 20.0138 58.5298 19.5739C58.0606 19.0053 57.3538 18.6387 56.5642 18.6387Z" fill="#E6E6E6"/>
<path fill-rule="evenodd" clip-rule="evenodd" d="M45.2588 44.5408C45.1105 43.6545 44.5255 42.9038 43.6269 42.9038H41.2744L43.2007 53.6645H46.8349L45.2588 44.5408Z" fill="#C2C7CC"/>
<path fill-rule="evenodd" clip-rule="evenodd" d="M58.3847 49.3322C58.3847 47.2952 56.7194 45.6289 54.6842 45.6289H53.0655C52.8508 45.6289 52.6425 45.6619 52.4443 45.7246C54.0799 46.105 55.309 47.5831 55.309 49.3322V52.7911C55.309 54.5406 54.0799 56.0156 52.4443 56.3992C52.6425 56.4587 52.8508 56.4948 53.0655 56.4948H54.6842C56.7194 56.4948 58.3847 54.8281 58.3847 52.7911V49.3322Z" fill="#FCC368"/>
<path fill-rule="evenodd" clip-rule="evenodd" d="M33.7576 42.9037C33.6221 41.8752 32.7331 41.0718 31.6661 41.0718H28.118C26.8724 41.0718 26.6609 42.2455 26.3936 43.4526C26.2581 44.0546 28.9767 44.7325 28.762 45.2946H31.6661C32.8293 45.2946 33.7773 44.3457 33.7773 43.1848C33.7773 43.0891 33.7704 42.9962 33.7576 42.9037Z" fill="#FCC368"/>
<path fill-rule="evenodd" clip-rule="evenodd" d="M6.54187 41.0718H2.99374C1.83423 41.0718 0.885742 42.0244 0.885742 43.1848C0.885742 44.3457 1.83423 45.2946 2.99374 45.2946H5.89093L8.643 42.6822L6.54187 41.0718Z" fill="#FCC368"/>
<path fill-rule="evenodd" clip-rule="evenodd" d="M23.9522 41.0718H6.54112C5.29601 41.0718 5.1042 42.3352 5.372 43.5451C5.50704 44.1539 5.68236 44.7357 5.89064 45.2946C7.11928 48.5649 9.57747 50.9792 12.6829 52.1991L16.7035 54.7122L22.0721 52.1991C25.1414 50.9325 27.563 48.4198 28.7623 45.2946C28.977 44.7325 29.1556 44.147 29.2879 43.5451C29.5557 42.3352 29.3671 41.0718 28.1183 41.0718H23.9522Z" fill="#F78411"/>
<path fill-rule="evenodd" clip-rule="evenodd" d="M22.0728 52.1992H8.43829C7.4834 52.1992 6.70703 52.9797 6.70703 53.9323V55.7409C6.70703 56.6931 7.4834 57.4736 8.43829 57.4736H26.8834C27.8347 57.4736 28.6147 56.6931 28.6147 55.7409V53.9323C28.6147 53.8426 28.6078 53.7501 28.5913 53.6641C28.4627 52.8373 27.7422 52.1992 26.8834 52.1992H22.0728Z" fill="#808080"/>
<path fill-rule="evenodd" clip-rule="evenodd" d="M28.1192 41.0718H24.5083C25.7535 41.0718 25.9453 42.3352 25.6775 43.5451C25.542 44.147 25.3671 44.7325 25.1492 45.2946C24.9212 45.8929 24.647 46.4651 24.333 47.014C23.7681 47.9964 23.0742 48.8922 22.2717 49.6796C22.2186 49.729 22.166 49.7821 22.1129 49.8315C21.0559 50.8299 19.8204 51.637 18.459 52.1991H22.0735C22.7212 51.9313 23.3387 51.6104 23.9238 51.2369C26.1073 49.8448 27.8152 47.7615 28.7637 45.2946C28.9784 44.7325 29.1569 44.147 29.2888 43.5451C29.3387 43.3304 29.3716 43.1152 29.3849 42.9037C29.4572 41.9283 29.1464 41.0718 28.1192 41.0718Z" fill="#F74311"/>
<path fill-rule="evenodd" clip-rule="evenodd" d="M28.591 53.6645C28.4623 52.8373 27.7418 52.1992 26.8831 52.1992H23.2686C24.131 52.1992 24.8478 52.8373 24.9801 53.6645C24.9934 53.7501 24.9998 53.843 24.9998 53.9323V55.7409C24.9998 56.6935 24.2202 57.4736 23.2686 57.4736H26.8831C27.8343 57.4736 28.6143 56.6931 28.6143 55.7409V53.9323C28.6139 53.843 28.6075 53.7501 28.591 53.6645Z" fill="#666666"/>
<path fill-rule="evenodd" clip-rule="evenodd" d="M58.5304 19.5743C58.0612 19.0053 57.3544 18.6387 56.5648 18.6387H53.1055C54.5062 18.6387 55.6561 19.789 55.6561 21.1912V28.9026C55.6561 30.308 54.5062 31.4556 53.1055 31.4556H56.5648C57.3544 31.4556 58.0612 31.0917 58.5304 30.5231C58.8939 30.08 59.115 29.5179 59.115 28.9026V21.1912C59.115 20.5796 58.8939 20.0143 58.5304 19.5743Z" fill="#C2C7CC"/>
<path fill-rule="evenodd" clip-rule="evenodd" d="M42.4629 19.1642C41.1445 18.8533 39.823 18.602 38.4982 18.4038C38.0326 22.6033 42.1983 23.4067 42.4629 23.4534V19.1642Z" fill="#808080"/>
<path fill-rule="evenodd" clip-rule="evenodd" d="M24.9798 18.4038C23.6715 18.602 22.3637 18.8533 21.0518 19.1642V23.4465C21.6235 23.3339 25.4229 22.4147 24.9798 18.4038Z" fill="#808080"/>
<path fill-rule="evenodd" clip-rule="evenodd" d="M42.4644 19.1643C41.6519 18.9725 40.8357 18.804 40.0195 18.6553V22.3421C41.0834 23.1885 42.3257 23.427 42.4644 23.4531V19.1643Z" fill="#666666"/>
<path d="M8.47806 33.7711C8.12787 34.1126 8.12054 34.6734 8.46203 35.0235C8.63553 35.2016 8.86578 35.2909 9.09604 35.2909C9.31897 35.2909 9.54236 35.2076 9.71448 35.0396C11.4846 33.3143 10.7595 31.8943 10.2794 30.9545C9.82846 30.0728 9.64215 29.7075 10.592 28.8135C10.9477 28.4784 10.9651 27.9177 10.6295 27.562C10.2945 27.2054 9.7337 27.1889 9.37802 27.524C7.45953 29.3294 8.20706 30.7924 8.7019 31.7606C9.13449 32.607 9.31347 32.9572 8.47806 33.7711Z" fill="black"/>
<path d="M13.3789 29.0226C13.0287 29.3641 13.0214 29.9248 13.3629 30.275C13.5364 30.4531 13.7666 30.5423 13.9974 30.5423C14.2198 30.5423 14.4432 30.459 14.6153 30.291C16.3864 28.5648 15.6595 27.1448 15.1784 26.2055C14.727 25.3238 14.5403 24.9585 15.4897 24.065C15.8458 23.7299 15.8628 23.1691 15.5277 22.8134C15.1921 22.4568 14.6314 22.4404 14.2757 22.7755C12.3572 24.5813 13.1061 26.0443 13.6019 27.0125C14.0349 27.8585 14.2139 28.2087 13.3789 29.0226Z" fill="black"/>
<path d="M26.3934 24.0032C26.6227 24.0032 26.8516 23.9144 27.0251 23.7373C27.3135 23.4814 28.603 23.4841 28.8878 23.74C29.2329 24.087 29.7937 24.0888 30.1402 23.7441C30.4872 23.3994 30.489 22.8387 30.1443 22.4917C29.5039 21.8467 28.4094 21.7739 27.9493 21.7739C27.9434 21.7739 27.9374 21.7739 27.9315 21.7739C27.4893 21.7758 26.3929 21.8499 25.7608 22.4967C25.4188 22.8465 25.4239 23.4086 25.774 23.7505C25.9462 23.919 26.17 24.0032 26.3934 24.0032Z" fill="black"/>
<path d="M33.5653 24.0032C33.7947 24.0032 34.0236 23.9144 34.1966 23.7373C34.485 23.4814 35.775 23.4841 36.0597 23.74C36.4044 24.087 36.9652 24.0888 37.3121 23.7441C37.6591 23.3994 37.661 22.8387 37.3163 22.4917C36.6754 21.8467 35.5813 21.7739 35.1213 21.7739C35.1149 21.7739 35.1089 21.7739 35.1034 21.7739C34.6612 21.7758 33.5649 21.8499 32.9327 22.4967C32.5908 22.8465 32.5958 23.4086 32.9455 23.7501C33.1181 23.919 33.3415 24.0032 33.5653 24.0032Z" fill="black"/>
<path d="M31.627 13.142C32.1159 13.142 32.5123 12.7456 32.5123 12.2563V8.18903C32.5123 7.70013 32.1159 7.30371 31.627 7.30371C31.1376 7.30371 30.7412 7.70013 30.7412 8.18903V12.2563C30.7412 12.7456 31.1376 13.142 31.627 13.142Z" fill="black"/>
<path d="M25.6138 9.14209C25.1249 9.14209 24.7285 9.53851 24.7285 10.0279V14.0919C24.7285 14.5808 25.1249 14.9772 25.6138 14.9772C26.1032 14.9772 26.4996 14.5808 26.4996 14.0919V10.0279C26.4996 9.53851 26.1032 9.14209 25.6138 9.14209Z" fill="black"/>
<path d="M37.6397 14.9772C38.1286 14.9772 38.525 14.5808 38.525 14.0914V10.0274C38.525 9.53851 38.1286 9.14209 37.6397 9.14209C37.1503 9.14209 36.7539 9.53851 36.7539 10.0274V14.0914C36.7539 14.5808 37.1503 14.9772 37.6397 14.9772Z" fill="black"/>
<path d="M56.564 32.341C58.4587 32.341 60 30.7984 60 28.9023V21.1908C60 19.2952 58.4587 17.7526 56.564 17.7526H52.8044C50.9097 17.7526 49.3684 19.2952 49.3684 21.1908V28.9023C49.3684 30.7984 50.9097 32.341 52.8044 32.341H53.7987V44.7428H53.0653C52.8117 44.7428 52.5655 44.7748 52.3306 44.8348L51.4856 41.2551C50.5037 37.0926 47.0467 34.8418 41.2102 34.5653C41.2061 34.5648 41.2019 34.5648 41.1978 34.5648C40.7277 34.5493 40.3262 34.4646 39.9715 34.2961C39.9577 34.2897 39.9445 34.2824 39.9303 34.2765C39.5078 34.0668 39.1512 33.7335 38.8229 33.2515C39.0115 33.1064 39.1983 32.9581 39.3791 32.8034C41.9394 30.6175 43.3488 27.8444 43.3488 24.9939V19.2925C43.3621 19.205 43.3617 19.1185 43.3488 19.0348V13.2216C45.0073 12.0058 45.6917 10.2677 45.1836 8.49108C44.5642 6.3254 42.3537 4.81295 39.8071 4.81295H37.3091C36.5387 3.03545 34.8633 1.87823 32.7068 1.67178C30.092 1.42184 27.5473 2.6697 26.2033 4.81295H23.817C21.2338 4.81295 18.9908 6.34783 18.3623 8.54556C17.8601 10.3029 18.5321 12.0204 20.1663 13.2212V23.4348V23.443V25.4535C20.1663 28.4395 21.9855 30.7887 23.5117 32.233C23.8774 32.5795 24.2647 32.9091 24.6666 33.2204C24.3315 33.7212 23.9671 34.0659 23.5323 34.2801C23.5309 34.281 23.53 34.2815 23.5286 34.2819C23.166 34.46 22.755 34.5488 22.2711 34.5648C22.267 34.5648 22.2629 34.5653 22.2588 34.5653C21.3629 34.6079 20.5234 34.6971 19.7401 34.8326C19.7369 34.8331 19.7337 34.8335 19.7305 34.8345C15.8762 35.5033 13.3864 37.2968 12.3056 40.1862H2.99332C1.34262 40.1862 0 41.5311 0 43.1845C0 44.8361 1.34262 46.1801 2.99332 46.1801H5.29495C6.18027 48.2387 7.5499 49.9919 9.29901 51.3135H8.43796C6.99509 51.3135 5.82138 52.4881 5.82138 53.9319V55.7405C5.82138 57.1843 6.99509 58.3589 8.43796 58.3589H13.6249C14.1138 58.3589 14.5102 57.9625 14.5102 57.4736C14.5102 56.9843 14.1138 56.5879 13.6249 56.5879H8.43796C7.9715 56.5879 7.59247 56.2079 7.59247 55.7405V53.9319C7.59247 53.4645 7.97195 53.0846 8.43796 53.0846H26.8826C27.2896 53.0846 27.6302 53.3739 27.7107 53.7584C27.7135 53.7877 27.718 53.8166 27.724 53.8454C27.7272 53.8738 27.7286 53.9026 27.7286 53.9319V55.7405C27.7286 56.2079 27.3491 56.5879 26.8826 56.5879H17.6587C17.1698 56.5879 16.7734 56.9843 16.7734 57.4736C16.7734 57.9625 17.1698 58.3589 17.6587 58.3589H26.8826C28.326 58.3589 29.4997 57.1843 29.4997 55.7405V54.5494H50.1018C50.1759 56.1232 51.4764 57.3802 53.0649 57.3802H54.684C57.2127 57.3802 59.2699 55.3217 59.2699 52.7912V49.3318C59.2699 47.1048 57.6759 45.2436 55.5693 44.8297V32.341H56.564ZM49.7617 41.662L50.7513 45.8565C50.3435 46.3651 50.0986 47.0101 50.0986 47.7118V52.7783H47.58L46.132 44.3939C45.9531 43.3264 45.3401 42.5221 44.512 42.188V36.8042C47.4435 37.555 49.1716 39.1599 49.7617 41.662ZM42.7409 36.4737V42.0182H40.4713V36.2732C40.6805 36.3057 40.9003 36.3268 41.1324 36.3346C41.6968 36.3616 42.2319 36.4087 42.7409 36.4737ZM34.4275 42.0182C33.9716 40.9424 32.9059 40.1862 31.6667 40.1862H24.8378V37.4872C26.5269 38.72 28.9774 39.2707 31.1247 39.3531C31.3124 39.3604 31.5038 39.364 31.6978 39.364C34.0347 39.364 36.7978 38.8275 38.7003 37.4103V42.0182H34.4275ZM30.1529 43.7361C30.2985 43.0774 30.3177 42.4736 30.2151 41.9568H31.6667C32.3424 41.9568 32.8922 42.5075 32.8922 43.1845C32.8922 43.8597 32.3424 44.4086 31.6667 44.4086H29.984C30.0458 44.1866 30.1025 43.9627 30.1529 43.7361ZM41.5778 19.872V22.2588C40.6883 21.8733 39.5444 21.0663 39.3732 19.4431C40.1093 19.568 40.8444 19.7113 41.5778 19.872ZM24.1045 19.444C23.9337 21.0311 22.8287 21.8399 21.9374 22.2377V19.8702C22.6584 19.7104 23.3812 19.5685 24.1045 19.444ZM21.9374 25.4535V24.1255C22.4863 23.9466 23.2356 23.6293 23.9369 23.0878C24.8428 22.3892 25.8563 21.1643 25.8998 19.1712C27.2337 18.9954 28.5663 18.8791 29.8888 18.8251C30.3777 18.8054 30.7576 18.393 30.7379 17.9045C30.7178 17.4156 30.303 17.0375 29.8169 17.0554C28.1886 17.1218 26.5466 17.2783 24.9046 17.5218C24.8973 17.5223 24.89 17.5223 24.8827 17.5232C24.8511 17.5269 24.8204 17.5319 24.7897 17.5383C23.838 17.6821 22.8864 17.8551 21.937 18.0574V12.7519C21.937 12.4462 21.7795 12.1619 21.5195 12.0003C20.2592 11.2152 19.7424 10.1615 20.0656 9.03216C20.4131 7.81588 21.8134 6.58404 23.817 6.58404H26.7174C27.0497 6.58404 27.3541 6.39819 27.5056 6.10247C28.5681 4.02926 30.7979 3.26846 32.5378 3.43508C34.1931 3.59347 35.4268 4.53188 35.8379 5.94592C35.9477 6.32403 36.2943 6.58404 36.6884 6.58404H39.8071C41.8607 6.58404 43.1506 7.82549 43.4802 8.9786C43.8034 10.1097 43.2623 11.2111 41.9952 12.0003C41.7352 12.1619 41.5778 12.4462 41.5778 12.7519V18.0579C40.6233 17.8574 39.6661 17.6871 38.709 17.5438C38.6723 17.5351 38.6348 17.5273 38.5963 17.5232C38.5844 17.5218 38.5725 17.5218 38.5606 17.5209C37.0688 17.3026 35.5774 17.1524 34.0974 17.076C33.6113 17.0503 33.1924 17.4262 33.1673 17.9146C33.1421 18.403 33.5179 18.8196 34.0063 18.8448C35.191 18.9057 36.384 19.0178 37.5787 19.1739C37.6213 21.2531 38.714 22.5019 39.6899 23.2045C40.3656 23.6907 41.0651 23.9763 41.5778 24.1388V24.9939C41.5778 27.3175 40.3885 29.6128 38.2292 31.4566C36.3103 33.0945 33.7981 34.1858 31.674 34.3044C31.6223 34.3071 31.5688 34.309 31.5134 34.309C30.271 34.3085 28.2678 33.5861 26.3809 32.282C26.3521 32.2591 26.3214 32.2385 26.2903 32.2193C25.7524 31.8416 25.2255 31.4163 24.7293 30.9467C23.4558 29.7414 21.9374 27.8096 21.9374 25.4535ZM31.5138 36.08C31.6013 36.08 31.6878 36.0773 31.772 36.0727C33.5861 35.9715 35.5605 35.3124 37.3558 34.2467C37.6167 34.6303 37.939 35.0125 38.3446 35.343C36.899 37.018 33.8351 37.6845 31.1929 37.5833C28.4468 37.4781 26.1374 36.6014 25.1303 35.3385C25.5396 35.0034 25.8632 34.6161 26.1255 34.2279C27.99 35.3728 29.978 36.08 31.5138 36.08ZM22.3366 36.335C22.5948 36.3259 22.8374 36.3002 23.0672 36.2613V40.1862H20.7976V36.4646C21.2856 36.4046 21.7978 36.3606 22.3366 36.335ZM19.0265 36.7864V40.1862H14.2374C15.0934 38.4979 16.6777 37.3718 19.0265 36.7864ZM2.99332 44.4086C2.31949 44.4086 1.77109 43.8597 1.77109 43.1845C1.77109 42.5075 2.31949 41.9568 2.99332 41.9568H4.4458C4.3428 42.4736 4.36203 43.0774 4.5076 43.7361V43.7375C4.55795 43.9641 4.61517 44.1875 4.6756 44.4086H2.99332ZM12.8545 51.3135C9.46335 49.9251 7.05597 47.033 6.23703 43.3539C6.08688 42.676 6.15738 42.1944 6.28601 42.0337C6.30478 42.0108 6.34781 41.9573 6.54144 41.9573H12.9414H12.9446H12.9474H28.1186C28.3136 41.9573 28.3571 42.0108 28.3754 42.0337C28.5036 42.1935 28.5732 42.6746 28.4235 43.3534C27.6324 46.9268 25.1976 49.8903 21.8935 51.3135H12.8545ZM29.2314 52.7783C28.8043 51.9113 27.9121 51.3135 26.8831 51.3135H25.3555C27.09 49.9764 28.4688 48.2103 29.3559 46.1797H31.6667C33.1123 46.1797 34.3217 45.152 34.6024 43.7888H43.6263C44.2172 43.7888 44.3697 44.5949 44.3857 44.691L45.7828 52.7783H29.2314ZM57.4988 49.3318V52.7912C57.4988 54.3448 56.2363 55.6092 54.684 55.6092H53.0653C52.4057 55.6092 51.8692 55.0704 51.8692 54.408V47.7118C51.8692 47.3461 52.034 47.0188 52.2926 46.799C52.3009 46.7926 52.3087 46.7862 52.3164 46.7794C52.5215 46.6136 52.782 46.5138 53.0649 46.5138H54.684C56.2363 46.5138 57.4988 47.7782 57.4988 49.3318ZM51.1391 28.9023V21.1908C51.1391 20.2716 51.8861 19.5236 52.8044 19.5236H56.564C57.4818 19.5236 58.2289 20.2716 58.2289 21.1908V28.9023C58.2289 29.822 57.4818 30.5699 56.564 30.5699H52.8044C51.8861 30.5699 51.1391 29.822 51.1391 28.9023Z" fill="black"/>
</g>
<defs>
<clipPath id="clip0">
<rect width="60" height="60" fill="white"/>
</clipPath>
</defs>
</svg>
