<svg width="49" height="48" viewBox="0 0 49 48" fill="none" xmlns="http://www.w3.org/2000/svg">
<g clip-path="url(#clip0)">
<path d="M45.752 11.5117L42.6878 42.2813H5.88376L3.41504 12.1072L24.2858 23.7924L45.752 11.5117Z" fill="#F2F2F2"/>
<path d="M44.712 5.7168L24.2852 24.9052L3.8584 5.7168H24.2852H44.712Z" fill="#F2F2F2"/>
<path d="M5.88364 14.5786V42.284H2.54868C1.29927 42.284 0.285645 41.2705 0.285645 40.021V10.498L3.94189 10.5977L5.88364 14.5786Z" fill="#F14336"/>
<path d="M48.2859 10.498V40.021C48.2859 41.2704 47.2723 42.284 46.0217 42.284H42.688V14.5785L44.5341 10.2168L48.2859 10.498Z" fill="#D32E2A"/>
<path d="M48.2856 7.97983V10.4965L42.6876 14.5771L24.2856 27.9897L5.88364 14.5771L0.285645 10.4965V7.97983C0.285645 6.73042 1.29927 5.7168 2.54868 5.7168H3.85883L24.2856 20.6051L44.7125 5.7168H46.0214C47.272 5.7168 48.2856 6.73033 48.2856 7.97983Z" fill="#F14336"/>
<path d="M5.88364 14.5786L0.285645 13.7107V10.498L5.88364 14.5786Z" fill="#D32E2A"/>
</g>
<defs>
<clipPath id="clip0">
<rect x="0.285645" width="48" height="48" fill="white"/>
</clipPath>
</defs>
</svg>
