<svg width="52" height="52" viewBox="0 0 52 52" fill="none" xmlns="http://www.w3.org/2000/svg">
<path d="M26 42.5454C37.7486 42.5454 47.2727 33.0213 47.2727 21.2727C47.2727 9.52411 37.7486 0 26 0C14.2514 0 4.72729 9.52411 4.72729 21.2727C4.72729 33.0213 14.2514 42.5454 26 42.5454Z" fill="#EDEBDC"/>
<path d="M44.4362 10.4C43.9136 10.4 43.4907 9.97667 43.4907 9.45454V7.56362C43.4907 7.04149 43.9136 6.61816 44.4362 6.61816C44.9588 6.61816 45.3816 7.04149 45.3816 7.56362V9.45454C45.3816 9.97667 44.9588 10.4 44.4362 10.4Z" fill="black"/>
<path d="M42.5454 6.61819H40.6544C40.1318 6.61819 39.709 6.19486 39.709 5.67271C39.709 5.15057 40.1318 4.72723 40.6544 4.72723H42.5454C43.068 4.72723 43.4908 5.15057 43.4908 5.67271C43.4908 6.19486 43.068 6.61819 42.5454 6.61819Z" fill="black"/>
<path d="M48.2181 6.61819H46.3272C45.8046 6.61819 45.3817 6.19486 45.3817 5.67271C45.3817 5.15057 45.8046 4.72723 46.3272 4.72723H48.2181C48.7407 4.72723 49.1635 5.15057 49.1635 5.67271C49.1635 6.19486 48.7407 6.61819 48.2181 6.61819Z" fill="black"/>
<path d="M8.509 9.34297V6.61816H5.67263V9.34297C5.67263 10.0381 5.51072 10.7238 5.1999 11.3454C4.88908 11.9673 4.72717 12.6528 4.72717 13.3479V20.8H9.45445V13.3479C9.45445 12.6528 9.29254 11.9671 8.98172 11.3454C8.67091 10.7236 8.509 10.0381 8.509 9.34297Z" fill="#F98500"/>
<path d="M9.45446 21.7455H4.72719C4.20459 21.7455 3.78174 21.3222 3.78174 20.8V13.3482C3.78174 12.5098 3.97934 11.6709 4.35421 10.9226C4.5979 10.435 4.72719 9.88899 4.72719 9.34275V6.61819C4.72719 6.09606 5.15005 5.67273 5.67265 5.67273H8.50901C9.03161 5.67273 9.45446 6.09606 9.45446 6.61819V9.34275C9.45446 9.88899 9.58376 10.435 9.82745 10.9226C10.2023 11.6709 10.3999 12.5098 10.3999 13.3482V20.8C10.3999 21.3222 9.97706 21.7455 9.45446 21.7455ZM5.67265 19.8546H8.50901V13.3482C8.50901 12.8019 8.37972 12.2559 8.13603 11.7683C7.76115 11.02 7.56356 10.1811 7.56356 9.34275V7.56364H6.6181V9.34275C6.6181 10.1811 6.4205 11.02 6.04563 11.7683C5.80194 12.2559 5.67265 12.8019 5.67265 13.3482V19.8546Z" fill="black"/>
<path d="M23.6362 33.9248V31.2H20.7998V33.9248C20.7998 34.6199 20.6379 35.3056 20.3271 35.9272C20.0163 36.5491 19.8544 37.2346 19.8544 37.9297V45.3818H24.5816V37.9297C24.5816 37.2346 24.4197 36.5489 24.1089 35.9272C23.7981 35.3054 23.6362 34.6199 23.6362 33.9248Z" fill="#F98500"/>
<path d="M24.5817 46.3273H19.8544C19.3318 46.3273 18.9089 45.904 18.9089 45.3819V37.93C18.9089 37.0917 19.1065 36.2528 19.4814 35.5045C19.7251 35.0171 19.8544 34.4709 19.8544 33.9246V31.2001C19.8544 30.678 20.2772 30.2546 20.7998 30.2546H23.6362C24.1588 30.2546 24.5817 30.678 24.5817 31.2001V33.9246C24.5817 34.4709 24.711 35.0169 24.9546 35.5045C25.3295 36.2528 25.5271 37.0917 25.5271 37.93V45.3819C25.5271 45.904 25.1043 46.3273 24.5817 46.3273ZM20.7998 44.4364H23.6362V37.93C23.6362 37.3838 23.5069 36.8378 23.2632 36.3502C22.8884 35.6019 22.6908 34.763 22.6908 33.9246V32.1455H21.7453V33.9246C21.7453 34.763 21.5477 35.6019 21.1728 36.3502C20.9291 36.8376 20.7998 37.3838 20.7998 37.93V44.4364Z" fill="black"/>
<path d="M36.8727 33.9248V31.2H34.0363V33.9248C34.0363 34.6199 33.8744 35.3056 33.5636 35.9272C33.2528 36.5491 33.0909 37.2346 33.0909 37.9297V45.3818H37.8182V37.9297C37.8182 37.2346 37.6563 36.5489 37.3454 35.9272C37.0346 35.3054 36.8727 34.6199 36.8727 33.9248Z" fill="#F98500"/>
<path d="M37.818 46.3273H33.0907C32.5681 46.3273 32.1453 45.904 32.1453 45.3819V37.93C32.1453 37.0917 32.3429 36.2528 32.7177 35.5045C32.9614 35.0171 33.0907 34.4709 33.0907 33.9246V31.2001C33.0907 30.678 33.5136 30.2546 34.0362 30.2546H36.8725C37.3951 30.2546 37.818 30.678 37.818 31.2001V33.9246C37.818 34.4709 37.9473 35.0169 38.191 35.5045C38.5658 36.2528 38.7634 37.0917 38.7634 37.93V45.3819C38.7634 45.904 38.3406 46.3273 37.818 46.3273ZM34.0362 44.4364H36.8725V37.93C36.8725 37.3838 36.7432 36.8378 36.4996 36.3502C36.1247 35.6019 35.9271 34.763 35.9271 33.9246V32.1455H34.9816V33.9246C34.9816 34.763 34.784 35.6019 34.4092 36.3502C34.1655 36.8376 34.0362 37.3838 34.0362 37.93V44.4364Z" fill="black"/>
<path d="M28.3634 33.9248V31.2H25.5271V33.9248C25.5271 34.6199 25.3651 35.3056 25.0543 35.9272C24.7435 36.5491 24.5816 37.2346 24.5816 37.9297V45.3818H29.3089V37.9297C29.3089 37.2346 29.147 36.5489 28.8361 35.9272C28.5253 35.3054 28.3634 34.6199 28.3634 33.9248Z" fill="#FFB531"/>
<path d="M29.3091 46.3273H24.5818C24.0592 46.3273 23.6364 45.904 23.6364 45.3819V37.93C23.6364 37.0917 23.834 36.2528 24.2088 35.5045C24.4525 35.0171 24.5818 34.4709 24.5818 33.9246V31.2001C24.5818 30.678 25.0047 30.2546 25.5273 30.2546H28.3636C28.8862 30.2546 29.3091 30.678 29.3091 31.2001V33.9246C29.3091 34.4709 29.4384 35.0169 29.6821 35.5045C30.0569 36.2528 30.2545 37.0917 30.2545 37.93V45.3819C30.2545 45.904 29.8317 46.3273 29.3091 46.3273ZM25.5273 44.4364H28.3636V37.93C28.3636 37.3838 28.2343 36.8378 27.9906 36.3502C27.6158 35.6019 27.4182 34.763 27.4182 33.9246V32.1455H26.4727V33.9246C26.4727 34.763 26.2751 35.6019 25.9002 36.3502C25.6566 36.8376 25.5273 37.3838 25.5273 37.93V44.4364Z" fill="black"/>
<path d="M17.0182 9.34297V6.61816H14.1818V9.34297C14.1818 10.0381 14.0199 10.7238 13.7091 11.3454C13.3982 11.9673 13.2363 12.6528 13.2363 13.3479V20.8H17.9636V13.3479C17.9636 12.6528 17.8017 11.9671 17.4909 11.3454C17.1801 10.7236 17.0182 10.0381 17.0182 9.34297Z" fill="#FFB531"/>
<path d="M17.9637 21.7455H13.2365C12.7139 21.7455 12.291 21.3222 12.291 20.8V13.3482C12.291 12.5098 12.4886 11.6709 12.8635 10.9226C13.1072 10.435 13.2365 9.88899 13.2365 9.34275V6.61819C13.2365 6.09606 13.6593 5.67273 14.1819 5.67273H17.0183C17.5409 5.67273 17.9637 6.09606 17.9637 6.61819V9.34275C17.9637 9.88899 18.093 10.435 18.3367 10.9226C18.7116 11.6709 18.9092 12.5098 18.9092 13.3482V20.8C18.9092 21.3222 18.4863 21.7455 17.9637 21.7455ZM14.1819 19.8546H17.0183V13.3482C17.0183 12.8019 16.889 12.2559 16.6453 11.7683C16.2704 11.02 16.0728 10.1811 16.0728 9.34275V7.56364H15.1274V9.34275C15.1274 10.1811 14.9298 11.02 14.5549 11.7683C14.3112 12.2557 14.1819 12.8019 14.1819 13.3482V19.8546Z" fill="black"/>
<path d="M13.2366 13.2365H17.9638V15.1274H13.2366V13.2365Z" fill="black"/>
<path d="M13.2366 16.0728H17.9638V17.9637H13.2366V16.0728Z" fill="black"/>
<path d="M22.6909 11.3453H28.3636V20.7999H22.6909V11.3453Z" fill="#F98500"/>
<path d="M28.3637 21.7455H22.6909C22.1683 21.7455 21.7455 21.3222 21.7455 20.8001V11.3455C21.7455 10.8234 22.1683 10.4 22.6909 10.4H28.3637C28.8863 10.4 29.3091 10.8234 29.3091 11.3455V20.8001C29.3091 21.3222 28.8863 21.7455 28.3637 21.7455ZM23.6364 19.8546H27.4182V12.2909H23.6364V19.8546Z" fill="black"/>
<path d="M32.1453 11.3453H37.8181V20.7999H32.1453V11.3453Z" fill="#FFB531"/>
<path d="M37.8181 21.7455H32.1454C31.6228 21.7455 31.2 21.3222 31.2 20.8001V11.3455C31.2 10.8234 31.6228 10.4 32.1454 10.4H37.8181C38.3407 10.4 38.7636 10.8234 38.7636 11.3455V20.8001C38.7636 21.3222 38.3407 21.7455 37.8181 21.7455ZM33.0909 19.8546H36.8727V12.2909H33.0909V19.8546Z" fill="black"/>
<path d="M41.5998 35.9272H47.2725V45.3817H41.5998V35.9272Z" fill="#FFB531"/>
<path d="M47.2727 46.3273H41.6C41.0774 46.3273 40.6545 45.9039 40.6545 45.3818V35.9273C40.6545 35.4051 41.0774 34.9818 41.6 34.9818H47.2727C47.7953 34.9818 48.2182 35.4051 48.2182 35.9273V45.3818C48.2182 45.9039 47.7953 46.3273 47.2727 46.3273ZM42.5455 44.4364H46.3273V36.8727H42.5455V44.4364Z" fill="black"/>
<path d="M25.5274 17.0181C26.0495 17.0181 26.4728 16.5948 26.4728 16.0726C26.4728 15.5505 26.0495 15.1272 25.5274 15.1272C25.0052 15.1272 24.5819 15.5505 24.5819 16.0726C24.5819 16.5948 25.0052 17.0181 25.5274 17.0181Z" fill="black"/>
<path d="M1.89087 20.7999H50.109V25.5272H1.89087V20.7999Z" fill="#F98500"/>
<path d="M51.0545 21.7455H0.945455C0.422855 21.7455 0 21.3221 0 20.8C0 20.2779 0.422855 19.8546 0.945455 19.8546H51.0545C51.5771 19.8546 52 20.2779 52 20.8C52 21.3221 51.5771 21.7455 51.0545 21.7455Z" fill="black"/>
<path d="M51.0545 26.4728H0.945455C0.422855 26.4728 0 26.0495 0 25.5274C0 25.0052 0.422855 24.5819 0.945455 24.5819H51.0545C51.5771 24.5819 52 25.0052 52 25.5274C52 26.0495 51.5771 26.4728 51.0545 26.4728Z" fill="black"/>
<path d="M1.89087 45.3818H50.109V50.109H1.89087V45.3818Z" fill="#F98500"/>
<path d="M51.0545 46.3275H0.945455C0.422855 46.3275 0 45.9041 0 45.382C0 44.8599 0.422855 44.4366 0.945455 44.4366H51.0545C51.5771 44.4366 52 44.8599 52 45.382C52 45.9041 51.5771 46.3275 51.0545 46.3275Z" fill="black"/>
<path d="M51.0545 51.0545H0.945455C0.422855 51.0545 0 50.6311 0 50.109C0 49.5869 0.422855 49.1636 0.945455 49.1636H51.0545C51.5771 49.1636 52 49.5869 52 50.109C52 50.6311 51.5771 51.0545 51.0545 51.0545Z" fill="black"/>
<path d="M5.67273 34.9817H15.1273V45.3817H5.67273V34.9817Z" fill="white"/>
<path d="M15.1273 46.3273H5.67275C5.15015 46.3273 4.72729 45.9039 4.72729 45.3818V34.9818C4.72729 34.4597 5.15015 34.0364 5.67275 34.0364H15.1273C15.6499 34.0364 16.0728 34.4597 16.0728 34.9818V45.3818C16.0728 45.9039 15.6499 46.3273 15.1273 46.3273ZM6.6182 44.4364H14.1818V35.9273H6.6182V44.4364Z" fill="black"/>
<path d="M5.67273 37.8182H15.1273V39.7092H5.67273V37.8182Z" fill="black"/>
</svg>
