<?xml version="1.0" encoding="UTF-8" standalone="no"?>
<svg
   xmlns:dc="http://purl.org/dc/elements/1.1/"
   xmlns:cc="http://creativecommons.org/ns#"
   xmlns:rdf="http://www.w3.org/1999/02/22-rdf-syntax-ns#"
   xmlns:svg="http://www.w3.org/2000/svg"
   xmlns="http://www.w3.org/2000/svg"
   xmlns:sodipodi="http://sodipodi.sourceforge.net/DTD/sodipodi-0.dtd"
   xmlns:inkscape="http://www.inkscape.org/namespaces/inkscape"
   width="45"
   height="45"
   viewBox="0 0 45 45"
   version="1.1"
   id="svg66"
   sodipodi:docname="groceries.svg"
   style="fill:none"
   inkscape:version="0.92.2 (5c3e80d, 2017-08-06)">
  <metadata
     id="metadata72">
    <rdf:RDF>
      <cc:Work
         rdf:about="">
        <dc:format>image/svg+xml</dc:format>
        <dc:type
           rdf:resource="http://purl.org/dc/dcmitype/StillImage" />
        <dc:title></dc:title>
      </cc:Work>
    </rdf:RDF>
  </metadata>
  <defs
     id="defs70" />
  <sodipodi:namedview
     pagecolor="#ffffff"
     bordercolor="#666666"
     borderopacity="1"
     objecttolerance="10"
     gridtolerance="10"
     guidetolerance="10"
     inkscape:pageopacity="0"
     inkscape:pageshadow="2"
     inkscape:window-width="1366"
     inkscape:window-height="705"
     id="namedview68"
     showgrid="false"
     inkscape:zoom="4.5384615"
     inkscape:cx="-1.2118644"
     inkscape:cy="26"
     inkscape:window-x="-4"
     inkscape:window-y="-4"
     inkscape:window-maximized="1"
     inkscape:current-layer="svg66" />
  <g
     id="g911"
     transform="matrix(0.82736959,0,0,0.82736959,1.1016949,7.1644684)">
    <path
       style="fill:#edebdc"
       inkscape:connector-curvature="0"
       id="path2"
       d="m 26,35.5454 c 11.7486,0 21.2727,-9.5241 21.2727,-21.2727 C 47.2727,2.52411 37.7486,-7 26,-7 14.2514,-7 4.72729,2.52411 4.72729,14.2727 4.72729,26.0213 14.2514,35.5454 26,35.5454 Z" />
    <path
       style="fill:#000000"
       inkscape:connector-curvature="0"
       id="path4"
       d="M 44.4362,3.4 C 43.9136,3.4 43.4907,2.97667 43.4907,2.45454 V 0.56362 c 0,-0.52213 0.4229,-0.94546 0.9455,-0.94546 0.5226,0 0.9454,0.42333 0.9454,0.94546 V 2.45454 C 45.3816,2.97667 44.9588,3.4 44.4362,3.4 Z" />
    <path
       style="fill:#000000"
       inkscape:connector-curvature="0"
       id="path6"
       d="m 42.5454,-0.38181 h -1.891 c -0.5226,0 -0.9454,-0.42333 -0.9454,-0.94548 0,-0.52214 0.4228,-0.94548 0.9454,-0.94548 h 1.891 c 0.5226,0 0.9454,0.42334 0.9454,0.94548 0,0.52215 -0.4228,0.94548 -0.9454,0.94548 z" />
    <path
       style="fill:#000000"
       inkscape:connector-curvature="0"
       id="path8"
       d="m 48.2181,-0.38181 h -1.8909 c -0.5226,0 -0.9455,-0.42333 -0.9455,-0.94548 0,-0.52214 0.4229,-0.94548 0.9455,-0.94548 h 1.8909 c 0.5226,0 0.9454,0.42334 0.9454,0.94548 0,0.52215 -0.4228,0.94548 -0.9454,0.94548 z" />
    <path
       style="fill:#f98500"
       inkscape:connector-curvature="0"
       id="path10"
       d="M 8.509,2.34297 V -0.38184 H 5.67263 V 2.34297 C 5.67263,3.0381 5.51072,3.7238 5.1999,4.3454 4.88908,4.9673 4.72717,5.6528 4.72717,6.3479 V 13.8 H 9.45445 V 6.3479 C 9.45445,5.6528 9.29254,4.9671 8.98172,4.3454 8.67091,3.7236 8.509,3.0381 8.509,2.34297 Z" />
    <path
       style="fill:#000000"
       inkscape:connector-curvature="0"
       id="path12"
       d="M 9.45446,14.7455 H 4.72719 c -0.5226,0 -0.94545,-0.4233 -0.94545,-0.9455 V 6.3482 c 0,-0.8384 0.1976,-1.6773 0.57247,-2.4256 C 4.5979,3.435 4.72719,2.88899 4.72719,2.34275 v -2.72456 c 0,-0.52213 0.42286,-0.94546 0.94546,-0.94546 h 2.83636 c 0.5226,0 0.94545,0.42333 0.94545,0.94546 v 2.72456 c 0,0.54624 0.1293,1.09225 0.37299,1.57985 0.37485,0.7483 0.57245,1.5872 0.57245,2.4256 V 13.8 c 0,0.5222 -0.42284,0.9455 -0.94544,0.9455 z M 5.67265,12.8546 H 8.50901 V 6.3482 C 8.50901,5.8019 8.37972,5.2559 8.13603,4.7683 7.76115,4.02 7.56356,3.1811 7.56356,2.34275 V 0.56364 H 6.6181 V 2.34275 C 6.6181,3.1811 6.4205,4.02 6.04563,4.7683 5.80194,5.2559 5.67265,5.8019 5.67265,6.3482 Z" />
    <path
       style="fill:#f98500"
       inkscape:connector-curvature="0"
       id="path14"
       d="M 23.6362,26.9248 V 24.2 h -2.8364 v 2.7248 c 0,0.6951 -0.1619,1.3808 -0.4727,2.0024 -0.3108,0.6219 -0.4727,1.3074 -0.4727,2.0025 v 7.4521 h 4.7272 v -7.4521 c 0,-0.6951 -0.1619,-1.3808 -0.4727,-2.0025 -0.3108,-0.6218 -0.4727,-1.3073 -0.4727,-2.0024 z" />
    <path
       style="fill:#000000"
       inkscape:connector-curvature="0"
       id="path16"
       d="m 24.5817,39.3273 h -4.7273 c -0.5226,0 -0.9455,-0.4233 -0.9455,-0.9454 V 30.93 c 0,-0.8383 0.1976,-1.6772 0.5725,-2.4255 0.2437,-0.4874 0.373,-1.0336 0.373,-1.5799 v -2.7245 c 0,-0.5221 0.4228,-0.9455 0.9454,-0.9455 h 2.8364 c 0.5226,0 0.9455,0.4234 0.9455,0.9455 v 2.7245 c 0,0.5463 0.1293,1.0923 0.3729,1.5799 0.3749,0.7483 0.5725,1.5872 0.5725,2.4255 v 7.4519 c 0,0.5221 -0.4228,0.9454 -0.9454,0.9454 z m -3.7819,-1.8909 h 2.8364 V 30.93 c 0,-0.5462 -0.1293,-1.0922 -0.373,-1.5798 -0.3748,-0.7483 -0.5724,-1.5872 -0.5724,-2.4256 v -1.7791 h -0.9455 v 1.7791 c 0,0.8384 -0.1976,1.6773 -0.5725,2.4256 -0.2437,0.4874 -0.373,1.0336 -0.373,1.5798 z" />
    <path
       style="fill:#f98500"
       inkscape:connector-curvature="0"
       id="path18"
       d="M 36.8727,26.9248 V 24.2 h -2.8364 v 2.7248 c 0,0.6951 -0.1619,1.3808 -0.4727,2.0024 -0.3108,0.6219 -0.4727,1.3074 -0.4727,2.0025 v 7.4521 h 4.7273 v -7.4521 c 0,-0.6951 -0.1619,-1.3808 -0.4728,-2.0025 -0.3108,-0.6218 -0.4727,-1.3073 -0.4727,-2.0024 z" />
    <path
       style="fill:#000000"
       inkscape:connector-curvature="0"
       id="path20"
       d="m 37.818,39.3273 h -4.7273 c -0.5226,0 -0.9454,-0.4233 -0.9454,-0.9454 V 30.93 c 0,-0.8383 0.1976,-1.6772 0.5724,-2.4255 0.2437,-0.4874 0.373,-1.0336 0.373,-1.5799 v -2.7245 c 0,-0.5221 0.4229,-0.9455 0.9455,-0.9455 h 2.8363 c 0.5226,0 0.9455,0.4234 0.9455,0.9455 v 2.7245 c 0,0.5463 0.1293,1.0923 0.373,1.5799 0.3748,0.7483 0.5724,1.5872 0.5724,2.4255 v 7.4519 c 0,0.5221 -0.4228,0.9454 -0.9454,0.9454 z m -3.7818,-1.8909 h 2.8363 V 30.93 c 0,-0.5462 -0.1293,-1.0922 -0.3729,-1.5798 -0.3749,-0.7483 -0.5725,-1.5872 -0.5725,-2.4256 v -1.7791 h -0.9455 v 1.7791 c 0,0.8384 -0.1976,1.6773 -0.5724,2.4256 -0.2437,0.4874 -0.373,1.0336 -0.373,1.5798 z" />
    <path
       style="fill:#ffb531"
       inkscape:connector-curvature="0"
       id="path22"
       d="M 28.3634,26.9248 V 24.2 h -2.8363 v 2.7248 c 0,0.6951 -0.162,1.3808 -0.4728,2.0024 -0.3108,0.6219 -0.4727,1.3074 -0.4727,2.0025 v 7.4521 h 4.7273 v -7.4521 c 0,-0.6951 -0.1619,-1.3808 -0.4728,-2.0025 -0.3108,-0.6218 -0.4727,-1.3073 -0.4727,-2.0024 z" />
    <path
       style="fill:#000000"
       inkscape:connector-curvature="0"
       id="path24"
       d="m 29.3091,39.3273 h -4.7273 c -0.5226,0 -0.9454,-0.4233 -0.9454,-0.9454 V 30.93 c 0,-0.8383 0.1976,-1.6772 0.5724,-2.4255 0.2437,-0.4874 0.373,-1.0336 0.373,-1.5799 v -2.7245 c 0,-0.5221 0.4229,-0.9455 0.9455,-0.9455 h 2.8363 c 0.5226,0 0.9455,0.4234 0.9455,0.9455 v 2.7245 c 0,0.5463 0.1293,1.0923 0.373,1.5799 0.3748,0.7483 0.5724,1.5872 0.5724,2.4255 v 7.4519 c 0,0.5221 -0.4228,0.9454 -0.9454,0.9454 z m -3.7818,-1.8909 h 2.8363 V 30.93 c 0,-0.5462 -0.1293,-1.0922 -0.373,-1.5798 -0.3748,-0.7483 -0.5724,-1.5872 -0.5724,-2.4256 v -1.7791 h -0.9455 v 1.7791 c 0,0.8384 -0.1976,1.6773 -0.5725,2.4256 -0.2436,0.4874 -0.3729,1.0336 -0.3729,1.5798 z" />
    <path
       style="fill:#ffb531"
       inkscape:connector-curvature="0"
       id="path26"
       d="m 17.0182,2.34297 v -2.72481 h -2.8364 v 2.72481 c 0,0.69513 -0.1619,1.38083 -0.4727,2.00243 -0.3109,0.6219 -0.4728,1.3074 -0.4728,2.0025 V 13.8 h 4.7273 V 6.3479 c 0,-0.6951 -0.1619,-1.3808 -0.4727,-2.0025 C 17.1801,3.7236 17.0182,3.0381 17.0182,2.34297 Z" />
    <path
       style="fill:#000000"
       inkscape:connector-curvature="0"
       id="path28"
       d="m 17.9637,14.7455 h -4.7272 c -0.5226,0 -0.9455,-0.4233 -0.9455,-0.9455 V 6.3482 c 0,-0.8384 0.1976,-1.6773 0.5725,-2.4256 0.2437,-0.4876 0.373,-1.03361 0.373,-1.57985 v -2.72456 c 0,-0.52213 0.4228,-0.94546 0.9454,-0.94546 h 2.8364 c 0.5226,0 0.9454,0.42333 0.9454,0.94546 v 2.72456 c 0,0.54624 0.1293,1.09225 0.373,1.57985 0.3749,0.7483 0.5725,1.5872 0.5725,2.4256 V 13.8 c 0,0.5222 -0.4229,0.9455 -0.9455,0.9455 z m -3.7818,-1.8909 h 2.8364 V 6.3482 c 0,-0.5463 -0.1293,-1.0923 -0.373,-1.5799 C 16.2704,4.02 16.0728,3.1811 16.0728,2.34275 V 0.56364 h -0.9454 v 1.77911 c 0,0.83835 -0.1976,1.67725 -0.5725,2.42555 -0.2437,0.4874 -0.373,1.0336 -0.373,1.5799 z" />
    <path
       style="fill:#000000"
       inkscape:connector-curvature="0"
       id="path30"
       d="m 13.2366,6.2365 h 4.7272 v 1.8909 h -4.7272 z" />
    <path
       style="fill:#000000"
       inkscape:connector-curvature="0"
       id="path32"
       d="m 13.2366,9.0728 h 4.7272 v 1.8909 h -4.7272 z" />
    <path
       style="fill:#f98500"
       inkscape:connector-curvature="0"
       id="path34"
       d="m 22.6909,4.3453 h 5.6727 v 9.4546 h -5.6727 z" />
    <path
       style="fill:#000000"
       inkscape:connector-curvature="0"
       id="path36"
       d="m 28.3637,14.7455 h -5.6728 c -0.5226,0 -0.9454,-0.4233 -0.9454,-0.9454 V 4.3455 C 21.7455,3.8234 22.1683,3.4 22.6909,3.4 h 5.6728 c 0.5226,0 0.9454,0.4234 0.9454,0.9455 v 9.4546 c 0,0.5221 -0.4228,0.9454 -0.9454,0.9454 z m -4.7273,-1.8909 h 3.7818 V 5.2909 h -3.7818 z" />
    <path
       style="fill:#ffb531"
       inkscape:connector-curvature="0"
       id="path38"
       d="m 32.1453,4.3453 h 5.6728 v 9.4546 h -5.6728 z" />
    <path
       style="fill:#000000"
       inkscape:connector-curvature="0"
       id="path40"
       d="M 37.8181,14.7455 H 32.1454 C 31.6228,14.7455 31.2,14.3222 31.2,13.8001 V 4.3455 C 31.2,3.8234 31.6228,3.4 32.1454,3.4 h 5.6727 c 0.5226,0 0.9455,0.4234 0.9455,0.9455 v 9.4546 c 0,0.5221 -0.4229,0.9454 -0.9455,0.9454 z m -4.7272,-1.8909 h 3.7818 V 5.2909 h -3.7818 z" />
    <path
       style="fill:#ffb531"
       inkscape:connector-curvature="0"
       id="path42"
       d="m 41.5998,28.9272 h 5.6727 v 9.4545 h -5.6727 z" />
    <path
       style="fill:#000000"
       inkscape:connector-curvature="0"
       id="path44"
       d="M 47.2727,39.3273 H 41.6 c -0.5226,0 -0.9455,-0.4234 -0.9455,-0.9455 v -9.4545 c 0,-0.5222 0.4229,-0.9455 0.9455,-0.9455 h 5.6727 c 0.5226,0 0.9455,0.4233 0.9455,0.9455 v 9.4545 c 0,0.5221 -0.4229,0.9455 -0.9455,0.9455 z m -4.7272,-1.8909 h 3.7818 v -7.5637 h -3.7818 z" />
    <path
       style="fill:#000000"
       inkscape:connector-curvature="0"
       id="path46"
       d="m 25.5274,10.0181 c 0.5221,0 0.9454,-0.4233 0.9454,-0.9455 0,-0.5221 -0.4233,-0.9454 -0.9454,-0.9454 -0.5222,0 -0.9455,0.4233 -0.9455,0.9454 0,0.5222 0.4233,0.9455 0.9455,0.9455 z" />
    <path
       style="fill:#f98500"
       inkscape:connector-curvature="0"
       id="path48"
       d="M 1.89087,13.7999 H 50.109 v 4.7273 H 1.89087 Z" />
    <path
       style="fill:#000000"
       inkscape:connector-curvature="0"
       id="path50"
       d="M 51.0545,14.7455 H 0.945455 C 0.422855,14.7455 0,14.3221 0,13.8 0,13.2779 0.422855,12.8546 0.945455,12.8546 H 51.0545 c 0.5226,0 0.9455,0.4233 0.9455,0.9454 0,0.5221 -0.4229,0.9455 -0.9455,0.9455 z" />
    <path
       style="fill:#000000"
       inkscape:connector-curvature="0"
       id="path52"
       d="M 51.0545,19.4728 H 0.945455 C 0.422855,19.4728 0,19.0495 0,18.5274 0,18.0052 0.422855,17.5819 0.945455,17.5819 H 51.0545 c 0.5226,0 0.9455,0.4233 0.9455,0.9455 0,0.5221 -0.4229,0.9454 -0.9455,0.9454 z" />
    <path
       style="fill:#f98500"
       inkscape:connector-curvature="0"
       id="path54"
       d="M 1.89087,38.3818 H 50.109 V 43.109 H 1.89087 Z" />
    <path
       style="fill:#000000"
       inkscape:connector-curvature="0"
       id="path56"
       d="M 51.0545,39.3275 H 0.945455 C 0.422855,39.3275 0,38.9041 0,38.382 0,37.8599 0.422855,37.4366 0.945455,37.4366 H 51.0545 c 0.5226,0 0.9455,0.4233 0.9455,0.9454 0,0.5221 -0.4229,0.9455 -0.9455,0.9455 z" />
    <path
       style="fill:#000000"
       inkscape:connector-curvature="0"
       id="path58"
       d="M 51.0545,44.0545 H 0.945455 C 0.422855,44.0545 0,43.6311 0,43.109 0,42.5869 0.422855,42.1636 0.945455,42.1636 H 51.0545 c 0.5226,0 0.9455,0.4233 0.9455,0.9454 0,0.5221 -0.4229,0.9455 -0.9455,0.9455 z" />
    <path
       style="fill:#ffffff"
       inkscape:connector-curvature="0"
       id="path60"
       d="m 5.67273,27.9817 h 9.45457 v 10.4 H 5.67273 Z" />
    <path
       style="fill:#000000"
       inkscape:connector-curvature="0"
       id="path62"
       d="M 15.1273,39.3273 H 5.67275 c -0.5226,0 -0.94546,-0.4234 -0.94546,-0.9455 v -10.4 c 0,-0.5221 0.42286,-0.9454 0.94546,-0.9454 h 9.45455 c 0.5226,0 0.9455,0.4233 0.9455,0.9454 v 10.4 c 0,0.5221 -0.4229,0.9455 -0.9455,0.9455 z M 6.6182,37.4364 h 7.5636 V 28.9273 H 6.6182 Z" />
    <path
       style="fill:#000000"
       inkscape:connector-curvature="0"
       id="path64"
       d="m 5.67273,30.8182 h 9.45457 v 1.891 H 5.67273 Z" />
  </g>
</svg>
