<svg width="14" height="15" viewBox="0 0 14 15" fill="none" xmlns="http://www.w3.org/2000/svg">
<path d="M13.6239 6.08995C13.6236 6.08963 13.6233 6.08931 13.623 6.08898L7.9115 0.377724C7.66805 0.134169 7.34438 0 7.00009 0C6.6558 0 6.33213 0.134062 6.08857 0.377617L0.380089 6.08599C0.378166 6.08792 0.376243 6.08995 0.37432 6.09187C-0.125609 6.59468 -0.124754 7.41049 0.376777 7.91202C0.605911 8.14126 0.908539 8.27404 1.2321 8.28792C1.24524 8.28921 1.25849 8.28985 1.27184 8.28985H1.49948V12.493C1.49948 13.3247 2.1762 14.0014 3.00813 14.0014H5.24264C5.46911 14.0014 5.65284 13.8178 5.65284 13.5912V10.296C5.65284 9.91643 5.96156 9.60772 6.3411 9.60772H7.65907C8.03861 9.60772 8.34733 9.91643 8.34733 10.296V13.5912C8.34733 13.8178 8.53096 14.0014 8.75753 14.0014H10.992C11.824 14.0014 12.5007 13.3247 12.5007 12.493V8.28985H12.7118C13.056 8.28985 13.3796 8.15579 13.6233 7.91223C14.1254 7.40984 14.1256 6.59265 13.6239 6.08995Z" fill="black"/>
</svg>
