<svg width="15" height="15" viewBox="0 0 15 15" fill="none" xmlns="http://www.w3.org/2000/svg">
<path d="M7.5 0C3.36462 0 0 3.36433 0 7.5C0 11.6357 3.36462 15 7.5 15C11.6354 15 15 11.6357 15 7.5C15 3.36433 11.6354 0 7.5 0ZM11.6812 4.99875L7.06587 10.1911C6.95221 10.3188 6.79385 10.3846 6.63433 10.3846C6.50769 10.3846 6.38048 10.3431 6.27404 10.2583L3.38942 7.95058C3.14077 7.75183 3.10038 7.38865 3.29942 7.13971C3.49817 6.89077 3.86163 6.85038 4.11029 7.04942L6.56712 9.01471L10.8188 4.23173C11.0299 3.99346 11.3951 3.97212 11.6331 4.18385C11.8713 4.39587 11.893 4.76048 11.6812 4.99875Z" fill="#FFB531"/>
</svg>
