<svg width="24" height="24" viewBox="0 0 24 24" fill="none" xmlns="http://www.w3.org/2000/svg">
<path d="M18.3281 6.99854L17.625 8.47069V19.7492L18.3281 21.22L24 22.8666V8.6341L18.3281 6.99854Z" fill="#A2ABB8"/>
<path d="M18.3281 6.99854L14.1094 8.40408L12.7031 9.87797V21.14L14.1094 22.6101L18.3281 21.22V6.99854Z" fill="#C8D2DC"/>
<path d="M9.84375 9.80916L8.4375 10.8103V22.6814L9.84375 23.9997L14.1094 22.6096V8.40356L9.84375 9.80916Z" fill="#EBEBF0"/>
<path d="M4.21875 8.18872V22.4026L9.84375 24.0005V9.80989L4.21875 8.18872Z" fill="#C8D2DC"/>
<path d="M18.3281 8.47021L17.625 10.1072V17.9646L18.3281 19.7488L22.5938 20.9147V9.64715L18.3281 8.47021Z" fill="#288C64"/>
<path d="M4.21875 0.000421875C4.21739 0.000421875 4.21598 0 4.21463 0C1.89103 0.0020625 0 1.89516 0 4.21875C0 5.55014 0.643406 6.81769 1.72209 7.6087C2.84817 8.43473 3.60211 9.40083 3.96263 10.4816L4.21875 11.2575L4.47558 10.4796C4.83539 9.40083 5.58933 8.43473 6.71611 7.608C7.79409 6.81769 8.4375 5.55014 8.4375 4.21875C8.4375 1.89652 6.54872 0.00473438 4.21875 0.000421875ZM4.21875 6.32812C3.05559 6.32812 2.10938 5.38191 2.10938 4.21875C2.10938 3.05559 3.05559 2.10938 4.21875 2.10938C5.38191 2.10938 6.32812 3.05559 6.32812 4.21875C6.32812 5.38191 5.38191 6.32812 4.21875 6.32812Z" fill="#FF6C6C"/>
<path d="M6.71606 7.60836C7.79409 6.818 8.4375 5.55045 8.4375 4.21906C8.4375 1.89683 6.54872 0.00504492 4.21875 0.000732422V2.10969C5.38191 2.10969 6.32812 3.0559 6.32812 4.21906C6.32812 5.38222 5.38191 6.32844 4.21875 6.32844V11.2579L4.47558 10.4799C4.83534 9.40119 5.58928 8.43504 6.71606 7.60836Z" fill="#EC5569"/>
<path d="M18.3281 8.47021L14.1094 9.8775L12.7031 11.7771V19.5466L14.1094 21.1395L18.3281 19.7488V8.47021Z" fill="#5AB267"/>
<path d="M9.84375 11.2855L8.4375 12.9496V21.1293L9.84375 22.531L14.1094 21.1402V9.87817L9.84375 11.2855Z" fill="#8CD96B"/>
<path d="M5.625 10.1001V21.3793L9.84375 22.5308V11.2852L5.625 10.1001Z" fill="#5AB267"/>
</svg>
