<svg width="18" height="26" viewBox="0 0 18 26" fill="none" xmlns="http://www.w3.org/2000/svg">
<path d="M8.7985 0.119446C3.94704 0.119446 0 4.07632 0 8.93985C0 15.0528 8.80716 25.495 8.80716 25.495C8.80716 25.495 17.597 14.7522 17.597 8.93985C17.597 4.07632 13.6501 0.119446 8.7985 0.119446ZM11.4532 11.5225C10.7212 12.2561 9.75993 12.6231 8.7985 12.6231C7.83723 12.6231 6.87566 12.2561 6.14397 11.5225C4.68012 10.0551 4.68012 7.66751 6.14397 6.20003C6.85279 5.48913 7.79568 5.09759 8.7985 5.09759C9.80133 5.09759 10.7441 5.48928 11.4532 6.20003C12.917 7.66751 12.917 10.0551 11.4532 11.5225Z" fill="white"/>
</svg>
