<?xml version="1.0" encoding="UTF-8" standalone="no"?>
<svg
   xmlns:dc="http://purl.org/dc/elements/1.1/"
   xmlns:cc="http://creativecommons.org/ns#"
   xmlns:rdf="http://www.w3.org/1999/02/22-rdf-syntax-ns#"
   xmlns:svg="http://www.w3.org/2000/svg"
   xmlns="http://www.w3.org/2000/svg"
   xmlns:sodipodi="http://sodipodi.sourceforge.net/DTD/sodipodi-0.dtd"
   xmlns:inkscape="http://www.inkscape.org/namespaces/inkscape"
   width="45"
   height="45"
   viewBox="0 0 45 45"
   version="1.1"
   id="svg50"
   sodipodi:docname="meat.svg"
   style="fill:none"
   inkscape:version="0.92.2 (5c3e80d, 2017-08-06)">
  <metadata
     id="metadata56">
    <rdf:RDF>
      <cc:Work
         rdf:about="">
        <dc:format>image/svg+xml</dc:format>
        <dc:type
           rdf:resource="http://purl.org/dc/dcmitype/StillImage" />
        <dc:title></dc:title>
      </cc:Work>
    </rdf:RDF>
  </metadata>
  <defs
     id="defs54" />
  <sodipodi:namedview
     pagecolor="#ffffff"
     bordercolor="#666666"
     borderopacity="1"
     objecttolerance="10"
     gridtolerance="10"
     guidetolerance="10"
     inkscape:pageopacity="0"
     inkscape:pageshadow="2"
     inkscape:window-width="1366"
     inkscape:window-height="705"
     id="namedview52"
     showgrid="false"
     inkscape:zoom="5.3636364"
     inkscape:cx="-0.52542373"
     inkscape:cy="22"
     inkscape:window-x="-4"
     inkscape:window-y="-4"
     inkscape:window-maximized="1"
     inkscape:current-layer="svg50" />
  <g
     id="g890"
     transform="matrix(0.94916236,0,0,0.94916236,1.8644068,0.98259927)">
    <path
       style="fill:#f98500"
       inkscape:connector-curvature="0"
       id="path2"
       d="m 43.2743,31.0654 c 0,3.3149 -3.2489,6.2338 -8.1847,7.9426 -1.2321,-1.4228 -2.0828,-4.4443 -2.0828,-7.9426 0,-3.4983 0.8507,-6.5198 2.0828,-7.9426 4.9358,1.7088 8.1847,4.6277 8.1847,7.9426 z" />
    <path
       style="fill:#d77300"
       inkscape:connector-curvature="0"
       id="path4"
       d="m 35.0897,23.1228 c -0.1785,0.2115 -0.3391,0.4374 -0.4804,0.6755 3.956,1.7491 6.4649,4.3548 6.4649,7.2671 0,2.9123 -2.5089,5.518 -6.4649,7.2672 0.141,0.2382 0.3017,0.4641 0.4804,0.6754 4.9358,-1.7088 8.1847,-4.6277 8.1847,-7.9426 0,-3.3149 -3.2489,-6.2338 -8.1847,-7.9426 z" />
    <path
       style="fill:#ffb531"
       inkscape:connector-curvature="0"
       id="path6"
       d="m 33.0069,31.0653 c 0,3.4983 0.8507,6.5199 2.0829,7.9427 -2.5562,0.8551 -5.215,1.3657 -7.906,1.5181 -0.7334,0.0514 -1.4815,0.0734 -2.2442,0.0734 -1.7185,0.0028 -3.4346,-0.1247 -5.1338,-0.3814 -5.2878,-0.7994 -9.5855,-2.8016 -11.72697,-5.3978 -1.9655,-2.1175 -1.9655,-5.3924 0,-7.5099 2.14147,-2.5963 6.43917,-4.5984 11.72697,-5.3978 1.6992,-0.2567 3.4153,-0.3842 5.1338,-0.3814 0.77,0 1.5254,0.022 2.2662,0.0733 2.6839,0.1524 5.3354,0.663 7.884,1.5182 -1.2322,1.4228 -2.0829,4.4443 -2.0829,7.9426 z" />
    <path
       style="fill:#f98500"
       inkscape:connector-curvature="0"
       id="path8"
       d="m 6.60455,31.0655 c 0.03456,1.3861 0.55651,2.7156 1.47412,3.755 C 7.64512,35.7378 7.05718,36.5738 6.34053,37.292 5.49384,38.1433 4.48002,38.8101 3.36294,39.2502 2.87101,39.4434 2.31307,39.3559 1.90395,39.0213 1.49484,38.6867 1.29833,38.1572 1.39011,37.6367 c 0.13216,-0.7159 0.196,-1.4428 0.19068,-2.1708 0.0488,-1.2667 -0.18155,-2.5286 -0.674723,-3.6963 -0.227132,-0.4419 -0.227132,-0.9662 0,-1.4081 C 1.39924,29.1937 1.62959,27.9318 1.58079,26.6652 1.58611,25.9371 1.52227,25.2103 1.39011,24.4943 c -0.09178,-0.5205 0.10473,-1.05 0.51384,-1.3845 0.40912,-0.3346 0.96706,-0.4222 1.45899,-0.229 1.11708,0.4402 2.1309,1.1069 2.97759,1.9582 0.71665,0.7182 1.30459,1.5542 1.73814,2.4715 -0.91761,1.0394 -1.43956,2.369 -1.47412,3.755 z" />
    <path
       style="fill:#f98500"
       inkscape:connector-curvature="0"
       id="path10"
       d="m 27.1835,40.5263 c -0.4463,0.5547 -0.9395,1.0699 -1.4741,1.5401 -1.1839,1.0706 -2.6236,1.8183 -4.1804,2.1708 -0.4337,0.0773 -0.8792,-0.0445 -1.2133,-0.3317 -0.334,-0.2872 -0.5214,-0.7093 -0.5101,-1.1497 v -2.5376 c 1.6991,0.2567 3.4153,0.3842 5.1337,0.3814 0.7627,0 1.5108,-0.022 2.2442,-0.0733 z" />
    <path
       style="fill:#d77300"
       inkscape:connector-curvature="0"
       id="path12"
       d="m 24.9396,40.5997 h -0.0198 c -0.429,0.5269 -0.9007,1.0175 -1.4103,1.4669 -0.9196,0.8199 -1.9876,1.4564 -3.1462,1.8753 0.3226,0.2723 0.7529,0.3806 1.166,0.2933 1.5566,-0.3519 2.9963,-1.0988 4.1804,-2.1686 0.5346,-0.4702 1.0278,-0.9855 1.4741,-1.5402 -0.7334,0.0513 -1.4814,0.0733 -2.2442,0.0733 z" />
    <path
       style="fill:#f98500"
       inkscape:connector-curvature="0"
       id="path14"
       d="m 27.2055,21.6046 c -0.7407,-0.0513 -1.4961,-0.0733 -2.2662,-0.0733 -1.7184,-0.0028 -3.4346,0.1247 -5.1337,0.3813 v -2.5375 c -0.0113,-0.4404 0.1761,-0.8625 0.5101,-1.1497 0.3341,-0.2871 0.7796,-0.4089 1.2133,-0.3317 2.2572,0.56 4.258,1.8681 5.6765,3.7109 z" />
    <path
       style="fill:#d77300"
       inkscape:connector-curvature="0"
       id="path16"
       d="m 24.9396,21.5313 c 0.7686,0 1.5232,0.022 2.2632,0.0733 -1.4184,-1.8428 -3.4193,-3.1509 -5.6765,-3.7109 -0.4126,-0.0869 -0.8423,0.0213 -1.1646,0.2933 1.7979,0.6848 3.3789,1.8397 4.5779,3.3443 z" />
    <path
       style="fill:#f98500"
       inkscape:connector-curvature="0"
       id="path18"
       d="m 33.0069,9.79692 c 0,1.62078 -0.4914,2.93358 -1.1001,2.93358 v 0.0073 C 27.2745,12.8829 22.6988,13.8 18.3683,15.4514 16.4097,16.2946 14.38,16.9621 12.3032,17.4462 8.95888,18.0182 5.34324,18.4436 2.8497,15.6201 1.48864,13.9859 0.748391,11.9236 0.759523,9.79692 0.748391,7.67024 1.48864,5.60794 2.8497,3.97379 5.34324,1.150228 8.95888,1.575595 12.3032,2.14764 c 2.0768,0.48408 4.1065,1.15164 6.0651,1.99483 4.3305,1.65134 8.9062,2.56845 13.5385,2.71355 v 0.00733 c 0.6087,0 1.1001,1.31277 1.1001,2.93357 z" />
    <path
       style="fill:#ffe0b2"
       inkscape:connector-curvature="0"
       id="path20"
       d="m 43.2743,12.3639 v 0.3675 H 43.245" />
    <path
       style="fill:#ffe0b2"
       inkscape:connector-curvature="0"
       id="path22"
       d="m 43.245,6.86349 h 0.0293 V 7.2309" />
    <path
       style="fill:#ffe0b2"
       inkscape:connector-curvature="0"
       id="path24"
       d="m 42.717,10.76514 c 0.3593,0.45556 0.5556,1.01856 0.5573,1.59876 0.0015,0.1229 -0.0083,0.2457 -0.0293,0.3667 -0.1514,1.0363 -0.9172,1.8767 -1.935,2.1234 -1.0178,0.2468 -2.0835,-0.1495 -2.6927,-1.0013 -0.5546,-0.7278 -1.4248,-1.1452 -2.3396,-1.1221 h -4.0116 c -0.1174,0 -0.242,0 -0.3594,0.0074 v -0.0074 c 0.6087,0 1.1001,-1.3127 1.1001,-2.93354 0,-1.6208 -0.4914,-2.93358 -1.1001,-2.93358 V 6.85615 c 0.1174,0.00733 0.242,0.00733 0.3594,0.00733 h 4.0116 c 0.9148,0.02312 1.785,-0.39426 2.3396,-1.12209 0.6092,-0.85182 1.6749,-1.2481 2.6927,-1.00131 1.0178,0.24678 1.7836,1.08713 1.935,2.1234 0.021,0.12108 0.0308,0.24383 0.0293,0.3667 -0.0017,0.58027 -0.198,1.14321 -0.5573,1.5988 -0.4621,0.56268 -0.4621,1.37347 0,1.93616 z" />
    <path
       style="fill:#dfc49c"
       inkscape:connector-curvature="0"
       id="path26"
       d="M 42.7169,8.82898 C 43.0763,8.3734 43.2726,7.81047 43.2743,7.23019 43.2758,7.10732 43.2659,6.98458 43.245,6.8635 43.0628,5.60173 41.9823,4.66482 40.7074,4.66333 c -0.3815,0.00271 -0.7576,0.09145 -1.1001,0.25962 0.7725,0.36699 1.3115,1.09462 1.4375,1.94055 0.021,0.12108 0.0308,0.24382 0.0293,0.36669 -0.0017,0.58028 -0.198,1.14321 -0.5574,1.59879 -0.462,0.56269 -0.462,1.37347 0,1.93615 0.3594,0.45557 0.5557,1.01857 0.5574,1.59877 0.0015,0.1229 -0.0083,0.2456 -0.0293,0.3667 -0.126,0.8459 -0.665,1.5736 -1.4375,1.9406 0.3425,0.1681 0.7186,0.2569 1.1001,0.2596 1.2749,-0.0015 2.3554,-0.9384 2.5376,-2.2002 0.0209,-0.1211 0.0308,-0.2438 0.0293,-0.3667 -0.0017,-0.5802 -0.198,-1.1432 -0.5574,-1.59877 -0.462,-0.56268 -0.462,-1.37346 0,-1.93615 z" />
    <path
       style="fill:#f5f5f5"
       inkscape:connector-curvature="0"
       id="path28"
       d="M 3.69366,10.53036 H 3.67092 C 3.2661,10.51878 2.94729,10.18126 2.9588,9.77643 2.95066,8.19172 3.49529,6.65377 4.49893,5.42736 5.01907,4.83186 5.69881,4.3977 6.45782,4.17618 6.71131,4.0913 6.9909,4.15107 7.18753,4.33216 7.38416,4.51326 7.46668,4.787 7.4029,5.04661 7.33913,5.30621 7.13915,5.51055 6.88099,5.57991 6.38244,5.72328 5.93613,6.00809 5.59608,6.39985 4.82288,7.36963 4.40952,8.57732 4.42632,9.8175 4.41521,10.21422 4.09053,10.53012 3.69366,10.53036 Z" />
    <path
       style="fill:#f5f5f5"
       inkscape:connector-curvature="0"
       id="path30"
       d="m 9.53827,5.39685 c 0.40504,0 0.73343,-0.32835 0.73343,-0.7334 0,-0.40504 -0.32839,-0.7334 -0.73343,-0.7334 -0.40505,0 -0.7334,0.32836 -0.7334,0.7334 0,0.40505 0.32835,0.7334 0.7334,0.7334 z" />
    <path
       style="fill:#000000"
       inkscape:connector-curvature="0"
       id="path32"
       d="m 27.5585,20.8918 c -1.5002,-1.8475 -3.5644,-3.1525 -5.8767,-3.7154 -0.6258,-0.1318 -1.2776,0.0271 -1.7726,0.432 -0.5323,0.4317 -0.8401,1.0814 -0.8368,1.7667 v 1.901 C 14.3838,22.066 10.5312,23.7858 8.22251,26.0541 7.83593,25.4272 7.37954,24.846 6.86207,24.3219 5.94593,23.3963 4.84691,22.672 3.63513,22.195 2.88954,21.9017 2.04333,22.038 1.42761,22.5507 c -0.619691,0.4997 -0.911173,1.3019 -0.756862,2.0829 0.122329,0.6701 0.181505,1.3502 0.176748,2.0315 0.043892,1.1509 -0.158906,2.2979 -0.594784,3.364 -0.3369495,0.6526 -0.3369495,1.428 0,2.0807 0.435005,1.0635 0.637792,2.2077 0.594784,3.356 0.00468,0.6817 -0.054742,1.3623 -0.177482,2.0329 -0.150998,0.7777 0.139204,1.5753 0.754666,2.074 0.39581,0.3278 0.8935,0.5072 1.40738,0.5076 0.2742,2e-4 0.54595,-0.0516 0.80087,-0.1526 1.2119,-0.4767 2.31097,-1.2011 3.22694,-2.1268 0.51743,-0.5235 0.9736,-1.1042 1.35971,-1.7308 2.30942,2.2684 6.16052,3.9882 10.85422,4.778 v 1.9076 c -0.0032,0.6853 0.3046,1.335 0.8368,1.7667 0.3773,0.3071 0.8484,0.4756 1.3348,0.4774 0.1467,-1e-4 0.2929,-0.0156 0.4364,-0.0462 1.6803,-0.375 3.2345,-1.1798 4.5104,-2.3358 0.4801,-0.4263 0.9282,-0.8874 1.3406,-1.3795 9.4219,-0.6615 16.475,-4.8925 16.475,-10.1729 0,-5.2804 -7.0406,-9.5055 -16.4493,-10.1736 z m -7.0194,-1.5167 c -0.0014,-0.2424 0.1063,-0.4727 0.2934,-0.627 0.152,-0.126 0.353,-0.1762 0.5464,-0.1364 1.5239,0.354 2.9247,1.1111 4.0557,2.1921 -0.1651,0 -0.3286,-0.0066 -0.4944,-0.0066 -1.4708,-7e-4 -2.9403,0.0884 -4.4003,0.2669 z M 5.81991,36.7741 C 5.04551,37.5549 4.11683,38.1656 3.09315,38.5673 2.84496,38.6652 2.56298,38.6184 2.35976,38.4455 2.15899,38.2858 2.06303,38.0281 2.1104,37.7759 2.25172,37.0141 2.31999,36.2405 2.31429,35.4658 2.36699,34.0835 2.10937,32.7069 1.56036,31.4372 1.43948,31.2081 1.43784,30.9344 1.55595,30.7038 2.10804,29.4314 2.3672,28.0511 2.31429,26.6651 2.32006,25.891 2.25203,25.1182 2.11113,24.3571 2.06225,24.1039 2.15839,23.8446 2.36049,23.6845 c 0.20257,-0.1743 0.48537,-0.2212 0.73339,-0.1217 1.02329,0.401 1.95172,1.011 2.72603,1.7909 0.54922,0.5547 1.01646,1.1849 1.38759,1.8717 C 6.98694,27.527 6.78841,27.8442 6.61345,28.1744 5.96817,27.8453 5.28696,27.592 4.58341,27.4197 4.19052,27.3209 3.7919,27.5593 3.69307,27.9522 c -0.09883,0.3928 0.13955,0.7915 0.53244,0.8903 0.64321,0.1532 1.26409,0.3883 1.84742,0.6996 -0.2689,0.997 -0.2689,2.0474 0,3.0444 -0.58329,0.3115 -1.20418,0.5469 -1.84742,0.7003 -0.36082,0.0889 -0.59819,0.4335 -0.55253,0.8023 0.04565,0.3688 0.3599,0.6451 0.73148,0.6433 0.06056,-2e-4 0.12088,-0.0076 0.17968,-0.022 0.70362,-0.1725 1.38485,-0.426 2.03004,-0.7554 0.1747,0.3317 0.37324,0.6504 0.59405,0.9534 -0.37173,0.6847 -0.8392,1.313 -1.38832,1.8657 z m 1.51813,-5.7087 c 0,-4.7707 8.06076,-8.8007 17.60146,-8.8007 3.0389,-0.0152 6.0637,0.4142 8.9782,1.2746 -1.1656,2.3329 -1.7308,4.9197 -1.6442,7.5261 -0.0865,2.6064 0.4787,5.1932 1.6442,7.5261 -2.9145,0.8604 -5.9393,1.2898 -8.9782,1.2746 -9.5407,0 -17.60146,-4.0337 -17.60146,-8.8007 z M 25.2255,41.5162 c -1.0878,0.9898 -2.414,1.6802 -3.8488,2.0037 -0.1923,0.0412 -0.3928,-0.008 -0.5442,-0.1335 -0.1871,-0.1543 -0.2948,-0.3846 -0.2934,-0.6271 v -1.6868 c 1.4602,0.1763 2.9297,0.2633 4.4004,0.2604 0.1628,0 0.3227,-0.0044 0.4841,-0.0066 -0.0668,0.0609 -0.1306,0.1298 -0.1981,0.1892 z M 35.342,38.106 c -0.9806,-1.4668 -1.6017,-4.1356 -1.6017,-7.0406 0,-2.905 0.6211,-5.5738 1.6017,-7.0442 4.3343,1.6171 7.199,4.2001 7.199,7.0442 0,2.8441 -2.8647,5.4227 -7.199,7.0406 z" />
    <path
       style="fill:#000000"
       inkscape:connector-curvature="0"
       id="path34"
       d="m 39.3925,27.6126 c -0.2864,-0.2863 -0.7506,-0.2863 -1.037,0 l -0.9483,0.9483 -0.9483,-0.9483 c -0.2877,-0.2779 -0.7452,-0.2739 -1.0281,0.009 -0.2828,0.2829 -0.2868,0.7403 -0.0089,1.0281 l 0.9483,0.949 -0.9483,0.9483 c -0.1906,0.1841 -0.2671,0.4568 -0.2,0.7132 0.0671,0.2565 0.2674,0.4567 0.5238,0.5238 0.2564,0.0672 0.5291,-0.0093 0.7132,-0.2 l 0.9483,-0.949 0.9483,0.9483 c 0.2878,0.2779 0.7452,0.274 1.0281,-0.0089 0.2829,-0.2829 0.2868,-0.7404 0.0089,-1.0281 l -0.9483,-0.9476 0.9483,-0.9483 c 0.1377,-0.1376 0.2151,-0.3242 0.2151,-0.5189 0,-0.1946 -0.0774,-0.3813 -0.2151,-0.5189 z" />
    <path
       style="fill:#000000"
       inkscape:connector-curvature="0"
       id="path36"
       d="m 28.6065,29.5988 c 0.4051,0 0.7334,-0.3284 0.7334,-0.7334 0,-0.4051 -0.3283,-0.7334 -0.7334,-0.7334 -0.8101,0 -1.4668,-0.6567 -1.4668,-1.4668 0,-0.8101 0.6567,-1.4668 1.4668,-1.4668 0.4051,0 0.7334,-0.3284 0.7334,-0.7334 0,-0.4051 -0.3283,-0.7334 -0.7334,-0.7334 -1.6201,0 -2.9336,1.3134 -2.9336,2.9336 0,1.6201 1.3135,2.9336 2.9336,2.9336 z" />
    <path
       style="fill:#000000"
       inkscape:connector-curvature="0"
       id="path38"
       d="m 24.2062,32.5323 c -0.8101,0 -1.4668,-0.6567 -1.4668,-1.4668 0,-0.8101 0.6567,-1.4668 1.4668,-1.4668 0.405,0 0.7334,-0.3283 0.7334,-0.7334 0,-0.405 -0.3284,-0.7334 -0.7334,-0.7334 -1.6202,0 -2.9336,1.3134 -2.9336,2.9336 0,1.6202 1.3134,2.9336 2.9336,2.9336 0.405,0 0.7334,-0.3284 0.7334,-0.7334 0,-0.4051 -0.3284,-0.7334 -0.7334,-0.7334 z" />
    <path
       style="fill:#000000"
       inkscape:connector-curvature="0"
       id="path40"
       d="m 15.4055,29.5987 c 0.405,0 0.7334,-0.3283 0.7334,-0.7334 0,-0.405 -0.3284,-0.7334 -0.7334,-0.7334 -1.6202,0 -2.9336,1.3134 -2.9336,2.9336 0,1.6202 1.3134,2.9336 2.9336,2.9336 0.405,0 0.7334,-0.3284 0.7334,-0.7334 0,-0.4051 -0.3284,-0.7334 -0.7334,-0.7334 -0.8101,0 -1.4668,-0.6567 -1.4668,-1.4668 0,-0.8101 0.6567,-1.4668 1.4668,-1.4668 z" />
    <path
       style="fill:#000000"
       inkscape:connector-curvature="0"
       id="path42"
       d="m 28.6065,38.3994 c 0.4051,0 0.7334,-0.3283 0.7334,-0.7334 0,-0.405 -0.3283,-0.7334 -0.7334,-0.7334 -0.8101,0 -1.4668,-0.6567 -1.4668,-1.4668 0,-0.81 0.6567,-1.4668 1.4668,-1.4668 0.4051,0 0.7334,-0.3283 0.7334,-0.7333 0,-0.4051 -0.3283,-0.7334 -0.7334,-0.7334 -1.6201,0 -2.9336,1.3134 -2.9336,2.9335 0,1.6202 1.3135,2.9336 2.9336,2.9336 z" />
    <path
       style="fill:#000000"
       inkscape:connector-curvature="0"
       id="path44"
       d="m 19.8058,25.1984 c 0.4051,0 0.7334,-0.3284 0.7334,-0.7334 0,-0.4051 -0.3283,-0.7334 -0.7334,-0.7334 -1.6201,0 -2.9335,1.3134 -2.9335,2.9336 0,1.6201 1.3134,2.9336 2.9335,2.9336 0.4051,0 0.7334,-0.3284 0.7334,-0.7334 0,-0.4051 -0.3283,-0.7334 -0.7334,-0.7334 -0.8101,0 -1.4668,-0.6567 -1.4668,-1.4668 0,-0.8101 0.6567,-1.4668 1.4668,-1.4668 z" />
    <path
       style="fill:#000000"
       inkscape:connector-curvature="0"
       id="path46"
       d="m 19.8058,33.999 c 0.4051,0 0.7334,-0.3283 0.7334,-0.7333 0,-0.4051 -0.3283,-0.7334 -0.7334,-0.7334 -1.6201,0 -2.9335,1.3134 -2.9335,2.9335 0,1.6202 1.3134,2.9336 2.9335,2.9336 0.4051,0 0.7334,-0.3283 0.7334,-0.7334 0,-0.405 -0.3283,-0.7334 -0.7334,-0.7334 -0.8101,0 -1.4668,-0.6567 -1.4668,-1.4668 0,-0.81 0.6567,-1.4668 1.4668,-1.4668 z" />
    <path
       style="fill:#000000"
       inkscape:connector-curvature="0"
       id="path48"
       d="M 44.0083,7.23015 C 44.0102,7.07267 43.9979,6.91533 43.9716,6.76005 43.7813,5.42532 42.7971,4.34117 41.4869,4.02308 40.1767,3.70499 38.8049,4.21713 38.0238,5.31599 37.6057,5.85141 36.9564,6.1541 36.2776,6.13006 h -4.011 C 27.5963,6.04113 22.9777,5.13438 18.6204,3.45097 18.129,3.27276 17.6427,3.08427 17.1572,2.89726 15.6331,2.25208 14.0488,1.759278 12.4276,1.426067 8.77746,0.799014 4.99168,0.444051 2.30158,3.48471 0.818417,5.25822 0.0127651,7.50053 0.0280612,9.81244 0.0181833,12.1136 0.823643,14.344 2.30158,16.1079 c 1.5486,1.7067 3.78661,2.6205 6.08718,2.4855 1.35579,-0.0287 2.70684,-0.1709 4.03884,-0.4254 1.6204,-0.3335 3.2039,-0.8263 4.7274,-1.4712 0.4855,-0.1877 0.9718,-0.3755 1.4632,-0.5537 4.358,-1.6837 8.9773,-2.5904 13.6484,-2.6791 h 4.011 c 0.6787,-0.0242 1.3278,0.2786 1.7454,0.8141 0.7782,1.0921 2.1405,1.6038 3.4452,1.2939 1.3047,-0.3099 2.2915,-1.3796 2.4953,-2.705 0.0306,-0.1659 0.0456,-0.3344 0.0448,-0.5031 -0.002,-0.7461 -0.2558,-1.46961 -0.7202,-2.05349 -0.2474,-0.29476 -0.2474,-0.72465 0,-1.01942 0.4657,-0.58598 0.7196,-1.3123 0.7202,-2.06084 z M 18.1194,14.7636 c -0.5016,0.1826 -0.9974,0.3733 -1.4931,0.5647 -1.4334,0.6099 -2.9236,1.0767 -4.4488,1.3934 -3.37364,0.578 -6.58884,0.8926 -8.78169,-1.587 C 2.15392,13.6399 1.47875,11.7551 1.48898,9.8117 1.47369,7.85814 2.14903,5.96198 3.39581,4.45792 4.67658,3.06999 6.51689,2.33656 8.40123,2.46309 c 1.26786,0.03008 2.53097,0.16599 3.77627,0.4063 1.526,0.31643 3.0169,0.78319 4.451,1.39345 0.4957,0.19141 0.9915,0.3821 1.4931,0.56471 4.3685,1.67503 8.9869,2.6059 13.6632,2.7539 h 0.0117 c 0.3676,0.67772 0.5333,1.44661 0.4775,2.21559 0.0546,0.76678 -0.1111,1.53316 -0.4775,2.20896 h -0.0117 c -4.6772,0.149 -9.2964,1.0811 -13.6654,2.7576 z M 42.1389,11.222 c 0.2613,0.3231 0.4034,0.7264 0.4026,1.1419 10e-4,0.0883 -0.0064,0.1764 -0.022,0.2633 -0.1064,0.7402 -0.6529,1.341 -1.3797,1.5169 -0.7268,0.1759 -1.4875,-0.1086 -1.9206,-0.7182 -0.6936,-0.9218 -1.7883,-1.4535 -2.9416,-1.4287 h -2.8603 c 0.2235,-0.7117 0.3327,-1.45428 0.3234,-2.20016 0.01,-0.74577 -0.0984,-1.48839 -0.3212,-2.20019 h 2.8603 c 1.1527,0.02398 2.2466,-0.50759 2.9401,-1.42865 0.4364,-0.616 1.2064,-0.9006 1.9386,-0.71652 0.7321,0.18409 1.2759,0.79905 1.3691,1.54819 0.0113,0.07621 0.016,0.15326 0.0139,0.23028 0.0014,0.41516 -0.1397,0.81823 -0.3997,1.1419 -0.6695,0.83192 -0.6699,2.0177 -7e-4,2.84995 z" />
  </g>
</svg>
