<svg width="45" height="44" viewBox="0 0 45 44" fill="none" xmlns="http://www.w3.org/2000/svg">
<path d="M43.2743 30.0654C43.2743 33.3803 40.0254 36.2992 35.0896 38.008C33.8575 36.5852 33.0068 33.5637 33.0068 30.0654C33.0068 26.5671 33.8575 23.5456 35.0896 22.1228C40.0254 23.8316 43.2743 26.7505 43.2743 30.0654Z" fill="#F98500"/>
<path d="M35.0897 22.1228C34.9112 22.3343 34.7506 22.5602 34.6093 22.7983C38.5653 24.5474 41.0742 27.1531 41.0742 30.0654C41.0742 32.9777 38.5653 35.5834 34.6093 37.3326C34.7503 37.5708 34.911 37.7967 35.0897 38.008C40.0255 36.2992 43.2744 33.3803 43.2744 30.0654C43.2744 26.7505 40.0255 23.8316 35.0897 22.1228Z" fill="#D77300"/>
<path d="M33.0069 30.0653C33.0069 33.5636 33.8576 36.5852 35.0898 38.008C32.5336 38.8631 29.8748 39.3737 27.1838 39.5261C26.4504 39.5775 25.7023 39.5995 24.9396 39.5995C23.2211 39.6023 21.505 39.4748 19.8058 39.2181C14.518 38.4187 10.2203 36.4165 8.07883 33.8203C6.11333 31.7028 6.11333 28.4279 8.07883 26.3104C10.2203 23.7141 14.518 21.712 19.8058 20.9126C21.505 20.6559 23.2211 20.5284 24.9396 20.5312C25.7096 20.5312 26.465 20.5532 27.2058 20.6045C29.8897 20.7569 32.5412 21.2675 35.0898 22.1227C33.8576 23.5455 33.0069 26.567 33.0069 30.0653Z" fill="#FFB531"/>
<path d="M6.60455 30.0655C6.63911 31.4516 7.16106 32.7811 8.07867 33.8205C7.64512 34.7378 7.05718 35.5738 6.34053 36.292C5.49384 37.1433 4.48002 37.8101 3.36294 38.2502C2.87101 38.4434 2.31307 38.3559 1.90395 38.0213C1.49484 37.6867 1.29833 37.1572 1.39011 36.6367C1.52227 35.9208 1.58611 35.1939 1.58079 34.4659C1.62959 33.1992 1.39924 31.9373 0.906067 30.7696C0.678935 30.3277 0.678935 29.8034 0.906067 29.3615C1.39924 28.1937 1.62959 26.9318 1.58079 25.6652C1.58611 24.9371 1.52227 24.2103 1.39011 23.4943C1.29833 22.9738 1.49484 22.4443 1.90395 22.1098C2.31307 21.7752 2.87101 21.6876 3.36294 21.8808C4.48002 22.321 5.49384 22.9877 6.34053 23.839C7.05718 24.5572 7.64512 25.3932 8.07867 26.3105C7.16106 27.3499 6.63911 28.6795 6.60455 30.0655Z" fill="#F98500"/>
<path d="M27.1835 39.5263C26.7372 40.081 26.244 40.5962 25.7094 41.0664C24.5255 42.137 23.0858 42.8847 21.529 43.2372C21.0953 43.3145 20.6498 43.1927 20.3157 42.9055C19.9817 42.6183 19.7943 42.1962 19.8056 41.7558V39.2182C21.5047 39.4749 23.2209 39.6024 24.9393 39.5996C25.702 39.5996 26.4501 39.5776 27.1835 39.5263Z" fill="#F98500"/>
<path d="M24.9396 39.5997H24.9198C24.4908 40.1266 24.0191 40.6172 23.5095 41.0666C22.5899 41.8865 21.5219 42.523 20.3633 42.9419C20.6859 43.2142 21.1162 43.3225 21.5293 43.2352C23.0859 42.8833 24.5256 42.1364 25.7097 41.0666C26.2443 40.5964 26.7375 40.0811 27.1838 39.5264C26.4504 39.5777 25.7024 39.5997 24.9396 39.5997Z" fill="#D77300"/>
<path d="M27.2055 20.6046C26.4648 20.5533 25.7094 20.5313 24.9393 20.5313C23.2209 20.5285 21.5047 20.656 19.8056 20.9126V18.3751C19.7943 17.9347 19.9817 17.5126 20.3157 17.2254C20.6498 16.9383 21.0953 16.8165 21.529 16.8937C23.7862 17.4537 25.787 18.7618 27.2055 20.6046Z" fill="#F98500"/>
<path d="M24.9396 20.5313C25.7082 20.5313 26.4628 20.5533 27.2028 20.6046C25.7844 18.7618 23.7835 17.4537 21.5263 16.8937C21.1137 16.8068 20.684 16.915 20.3617 17.187C22.1596 17.8718 23.7406 19.0267 24.9396 20.5313Z" fill="#D77300"/>
<path d="M33.0069 8.79692C33.0069 10.4177 32.5155 11.7305 31.9068 11.7305V11.7378C27.2745 11.8829 22.6988 12.8 18.3683 14.4514C16.4097 15.2946 14.38 15.9621 12.3032 16.4462C8.95888 17.0182 5.34324 17.4436 2.8497 14.6201C1.48864 12.9859 0.748391 10.9236 0.759523 8.79692C0.748391 6.67024 1.48864 4.60794 2.8497 2.97379C5.34324 0.150228 8.95888 0.575595 12.3032 1.14764C14.38 1.63172 16.4097 2.29928 18.3683 3.14247C22.6988 4.79381 27.2745 5.71092 31.9068 5.85602V5.86335C32.5155 5.86335 33.0069 7.17612 33.0069 8.79692Z" fill="#F98500"/>
<path d="M43.2743 11.3639V11.7314H43.245" fill="#FFE0B2"/>
<path d="M43.245 5.86349H43.2743V6.2309" fill="#FFE0B2"/>
<path d="M42.717 9.76514C43.0763 10.2207 43.2726 10.7837 43.2743 11.3639C43.2758 11.4868 43.266 11.6096 43.245 11.7306C43.0936 12.7669 42.3278 13.6073 41.31 13.854C40.2922 14.1008 39.2265 13.7045 38.6173 12.8527C38.0627 12.1249 37.1925 11.7075 36.2777 11.7306H32.2661C32.1487 11.7306 32.0241 11.7306 31.9067 11.738V11.7306C32.5154 11.7306 33.0068 10.4179 33.0068 8.79706C33.0068 7.17626 32.5154 5.86348 31.9067 5.86348V5.85615C32.0241 5.86348 32.1487 5.86348 32.2661 5.86348H36.2777C37.1925 5.8866 38.0627 5.46922 38.6173 4.74139C39.2265 3.88957 40.2922 3.49329 41.31 3.74008C42.3278 3.98686 43.0936 4.82721 43.245 5.86348C43.266 5.98456 43.2758 6.10731 43.2743 6.23018C43.2726 6.81045 43.0763 7.37339 42.717 7.82898C42.2549 8.39166 42.2549 9.20245 42.717 9.76514Z" fill="#FFE0B2"/>
<path d="M42.7169 7.82898C43.0763 7.3734 43.2726 6.81047 43.2743 6.23019C43.2758 6.10732 43.2659 5.98458 43.245 5.8635C43.0628 4.60173 41.9823 3.66482 40.7074 3.66333C40.3259 3.66604 39.9498 3.75478 39.6073 3.92295C40.3798 4.28994 40.9188 5.01757 41.0448 5.8635C41.0658 5.98458 41.0756 6.10732 41.0741 6.23019C41.0724 6.81047 40.8761 7.3734 40.5167 7.82898C40.0547 8.39167 40.0547 9.20245 40.5167 9.76513C40.8761 10.2207 41.0724 10.7837 41.0741 11.3639C41.0756 11.4868 41.0658 11.6095 41.0448 11.7306C40.9188 12.5765 40.3798 13.3042 39.6073 13.6712C39.9498 13.8393 40.3259 13.9281 40.7074 13.9308C41.9823 13.9293 43.0628 12.9924 43.245 11.7306C43.2659 11.6095 43.2758 11.4868 43.2743 11.3639C43.2726 10.7837 43.0763 10.2207 42.7169 9.76513C42.2549 9.20245 42.2549 8.39167 42.7169 7.82898Z" fill="#DFC49C"/>
<path d="M3.69366 9.53036H3.67092C3.2661 9.51878 2.94729 9.18126 2.9588 8.77643C2.95066 7.19172 3.49529 5.65377 4.49893 4.42736C5.01907 3.83186 5.69881 3.3977 6.45782 3.17618C6.71131 3.0913 6.9909 3.15107 7.18753 3.33216C7.38416 3.51326 7.46668 3.787 7.4029 4.04661C7.33913 4.30621 7.13915 4.51055 6.88099 4.57991C6.38244 4.72328 5.93613 5.00809 5.59608 5.39985C4.82288 6.36963 4.40952 7.57732 4.42632 8.8175C4.41521 9.21422 4.09053 9.53012 3.69366 9.53036Z" fill="#F5F5F5"/>
<path d="M9.53827 4.39685C9.94331 4.39685 10.2717 4.0685 10.2717 3.66345C10.2717 3.25841 9.94331 2.93005 9.53827 2.93005C9.13322 2.93005 8.80487 3.25841 8.80487 3.66345C8.80487 4.0685 9.13322 4.39685 9.53827 4.39685Z" fill="#F5F5F5"/>
<path d="M27.5585 19.8918C26.0583 18.0443 23.9941 16.7393 21.6818 16.1764C21.056 16.0446 20.4042 16.2035 19.9092 16.6084C19.3769 17.0401 19.0691 17.6898 19.0724 18.3751V20.2761C14.3838 21.066 10.5312 22.7858 8.22251 25.0541C7.83593 24.4272 7.37954 23.846 6.86207 23.3219C5.94593 22.3963 4.84691 21.672 3.63513 21.195C2.88954 20.9017 2.04333 21.038 1.42761 21.5507C0.807919 22.0504 0.516437 22.8526 0.670748 23.6336C0.793077 24.3037 0.852253 24.9838 0.847496 25.6651C0.891388 26.816 0.68859 27.963 0.252712 29.0291C-0.0842375 29.6817 -0.0842375 30.4571 0.252712 31.1098C0.687717 32.1733 0.890504 33.3175 0.847496 34.4658C0.852176 35.1475 0.792754 35.8281 0.670014 36.4987C0.519016 37.2764 0.809218 38.074 1.42468 38.5727C1.82049 38.9005 2.31818 39.0799 2.83206 39.0803C3.10626 39.0805 3.37801 39.0287 3.63293 38.9277C4.84483 38.451 5.9439 37.7266 6.85987 36.8009C7.3773 36.2774 7.83347 35.6967 8.21958 35.0701C10.529 37.3385 14.3801 39.0583 19.0738 39.8481V41.7557C19.0706 42.441 19.3784 43.0907 19.9106 43.5224C20.2879 43.8295 20.759 43.998 21.2454 43.9998C21.3921 43.9997 21.5383 43.9842 21.6818 43.9536C23.3621 43.5786 24.9163 42.7738 26.1922 41.6178C26.6723 41.1915 27.1204 40.7304 27.5328 40.2383C36.9547 39.5768 44.0078 35.3458 44.0078 30.0654C44.0078 24.785 36.9672 20.5599 27.5585 19.8918ZM20.5391 18.3751C20.5377 18.1327 20.6454 17.9024 20.8325 17.7481C20.9845 17.6221 21.1855 17.5719 21.3789 17.6117C22.9028 17.9657 24.3036 18.7228 25.4346 19.8038C25.2695 19.8038 25.106 19.7972 24.9402 19.7972C23.4694 19.7965 21.9999 19.8856 20.5399 20.0641L20.5391 18.3751ZM5.81991 35.7741C5.04551 36.5549 4.11683 37.1656 3.09315 37.5673C2.84496 37.6652 2.56298 37.6184 2.35976 37.4455C2.15899 37.2858 2.06303 37.0281 2.1104 36.7759C2.25172 36.0141 2.31999 35.2405 2.31429 34.4658C2.36699 33.0835 2.10937 31.7069 1.56036 30.4372C1.43948 30.2081 1.43784 29.9344 1.55595 29.7038C2.10804 28.4314 2.3672 27.0511 2.31429 25.6651C2.32006 24.891 2.25203 24.1182 2.11113 23.3571C2.06225 23.1039 2.15839 22.8446 2.36049 22.6845C2.56306 22.5102 2.84586 22.4633 3.09388 22.5628C4.11717 22.9638 5.0456 23.5738 5.81991 24.3537C6.36913 24.9084 6.83637 25.5386 7.2075 26.2254C6.98694 26.527 6.78841 26.8442 6.61345 27.1744C5.96817 26.8453 5.28696 26.592 4.58341 26.4197C4.19052 26.3209 3.7919 26.5593 3.69307 26.9522C3.59424 27.345 3.83262 27.7437 4.22551 27.8425C4.86872 27.9957 5.4896 28.2308 6.07293 28.5421C5.80403 29.5391 5.80403 30.5895 6.07293 31.5865C5.48964 31.898 4.86875 32.1334 4.22551 32.2868C3.86469 32.3757 3.62732 32.7203 3.67298 33.0891C3.71863 33.4579 4.03288 33.7342 4.40446 33.7324C4.46502 33.7322 4.52534 33.7248 4.58414 33.7104C5.28776 33.5379 5.96899 33.2844 6.61418 32.955C6.78888 33.2867 6.98742 33.6054 7.20823 33.9084C6.8365 34.5931 6.36903 35.2214 5.81991 35.7741ZM7.33804 30.0654C7.33804 25.2947 15.3988 21.2647 24.9395 21.2647C27.9784 21.2495 31.0032 21.6789 33.9177 22.5393C32.7521 24.8722 32.1869 27.459 32.2735 30.0654C32.187 32.6718 32.7522 35.2586 33.9177 37.5915C31.0032 38.4519 27.9784 38.8813 24.9395 38.8661C15.3988 38.8661 7.33804 34.8324 7.33804 30.0654ZM25.2255 40.5162C24.1377 41.506 22.8115 42.1964 21.3767 42.5199C21.1844 42.5611 20.9839 42.5119 20.8325 42.3864C20.6454 42.2321 20.5377 42.0018 20.5391 41.7593L20.5391 40.0725C21.9993 40.2488 23.4688 40.3358 24.9395 40.3329C25.1023 40.3329 25.2622 40.3285 25.4236 40.3263C25.3568 40.3872 25.293 40.4561 25.2255 40.5155V40.5162ZM35.342 37.106C34.3614 35.6392 33.7403 32.9704 33.7403 30.0654C33.7403 27.1604 34.3614 24.4916 35.342 23.0212C39.6763 24.6383 42.541 27.2213 42.541 30.0654C42.541 32.9095 39.6763 35.4881 35.342 37.106Z" fill="black"/>
<path d="M39.3925 26.6126C39.1061 26.3263 38.6419 26.3263 38.3555 26.6126L37.4072 27.5609L36.4589 26.6126C36.1712 26.3347 35.7137 26.3387 35.4308 26.6216C35.148 26.9045 35.144 27.3619 35.4219 27.6497L36.3702 28.5987L35.4219 29.547C35.2313 29.7311 35.1548 30.0038 35.2219 30.2602C35.289 30.5167 35.4893 30.7169 35.7457 30.784C36.0021 30.8512 36.2748 30.7747 36.4589 30.584L37.4072 29.635L38.3555 30.5833C38.6433 30.8612 39.1007 30.8573 39.3836 30.5744C39.6665 30.2915 39.6704 29.834 39.3925 29.5463L38.4442 28.5987L39.3925 27.6504C39.5302 27.5128 39.6076 27.3262 39.6076 27.1315C39.6076 26.9369 39.5302 26.7502 39.3925 26.6126Z" fill="black"/>
<path d="M28.6065 28.5988C29.0116 28.5988 29.3399 28.2704 29.3399 27.8654C29.3399 27.4603 29.0116 27.132 28.6065 27.132C27.7964 27.132 27.1397 26.4753 27.1397 25.6652C27.1397 24.8551 27.7964 24.1984 28.6065 24.1984C29.0116 24.1984 29.3399 23.87 29.3399 23.465C29.3399 23.0599 29.0116 22.7316 28.6065 22.7316C26.9864 22.7316 25.6729 24.045 25.6729 25.6652C25.6729 27.2853 26.9864 28.5988 28.6065 28.5988Z" fill="black"/>
<path d="M24.2062 31.5323C23.3961 31.5323 22.7394 30.8756 22.7394 30.0655C22.7394 29.2554 23.3961 28.5987 24.2062 28.5987C24.6112 28.5987 24.9396 28.2704 24.9396 27.8653C24.9396 27.4603 24.6112 27.1319 24.2062 27.1319C22.586 27.1319 21.2726 28.4453 21.2726 30.0655C21.2726 31.6857 22.586 32.9991 24.2062 32.9991C24.6112 32.9991 24.9396 32.6707 24.9396 32.2657C24.9396 31.8606 24.6112 31.5323 24.2062 31.5323Z" fill="black"/>
<path d="M15.4055 28.5987C15.8105 28.5987 16.1389 28.2704 16.1389 27.8653C16.1389 27.4603 15.8105 27.1319 15.4055 27.1319C13.7853 27.1319 12.4719 28.4453 12.4719 30.0655C12.4719 31.6857 13.7853 32.9991 15.4055 32.9991C15.8105 32.9991 16.1389 32.6707 16.1389 32.2657C16.1389 31.8606 15.8105 31.5323 15.4055 31.5323C14.5954 31.5323 13.9387 30.8756 13.9387 30.0655C13.9387 29.2554 14.5954 28.5987 15.4055 28.5987Z" fill="black"/>
<path d="M28.6065 37.3994C29.0116 37.3994 29.3399 37.0711 29.3399 36.666C29.3399 36.261 29.0116 35.9326 28.6065 35.9326C27.7964 35.9326 27.1397 35.2759 27.1397 34.4658C27.1397 33.6558 27.7964 32.999 28.6065 32.999C29.0116 32.999 29.3399 32.6707 29.3399 32.2657C29.3399 31.8606 29.0116 31.5323 28.6065 31.5323C26.9864 31.5323 25.6729 32.8457 25.6729 34.4658C25.6729 36.086 26.9864 37.3994 28.6065 37.3994Z" fill="black"/>
<path d="M19.8058 24.1984C20.2109 24.1984 20.5392 23.87 20.5392 23.465C20.5392 23.0599 20.2109 22.7316 19.8058 22.7316C18.1857 22.7316 16.8723 24.045 16.8723 25.6652C16.8723 27.2853 18.1857 28.5988 19.8058 28.5988C20.2109 28.5988 20.5392 28.2704 20.5392 27.8654C20.5392 27.4603 20.2109 27.132 19.8058 27.132C18.9957 27.132 18.339 26.4753 18.339 25.6652C18.339 24.8551 18.9957 24.1984 19.8058 24.1984Z" fill="black"/>
<path d="M19.8058 32.999C20.2109 32.999 20.5392 32.6707 20.5392 32.2657C20.5392 31.8606 20.2109 31.5323 19.8058 31.5323C18.1857 31.5323 16.8723 32.8457 16.8723 34.4658C16.8723 36.086 18.1857 37.3994 19.8058 37.3994C20.2109 37.3994 20.5392 37.0711 20.5392 36.666C20.5392 36.261 20.2109 35.9326 19.8058 35.9326C18.9957 35.9326 18.339 35.2759 18.339 34.4658C18.339 33.6558 18.9957 32.999 19.8058 32.999Z" fill="black"/>
<path d="M44.0083 6.23015C44.0102 6.07267 43.9979 5.91533 43.9716 5.76005C43.7813 4.42532 42.7971 3.34117 41.4869 3.02308C40.1767 2.70499 38.8049 3.21713 38.0238 4.31599C37.6057 4.85141 36.9564 5.1541 36.2776 5.13006H32.2666C27.5963 5.04113 22.9777 4.13438 18.6204 2.45097C18.129 2.27276 17.6427 2.08427 17.1572 1.89726C15.6331 1.25208 14.0488 0.759278 12.4276 0.426067C8.77746 -0.200986 4.99168 -0.555949 2.30158 2.48471C0.818417 4.25822 0.0127651 6.50053 0.0280612 8.81244C0.0181833 11.1136 0.823643 13.344 2.30158 15.1079C3.85018 16.8146 6.08819 17.7284 8.38876 17.5934C9.74455 17.5647 11.0956 17.4225 12.4276 17.168C14.048 16.8345 15.6315 16.3417 17.155 15.6968C17.6405 15.5091 18.1268 15.3213 18.6182 15.1431C22.9762 13.4594 27.5955 12.5527 32.2666 12.464H36.2776C36.9563 12.4398 37.6054 12.7426 38.023 13.2781C38.8012 14.3702 40.1635 14.8819 41.4682 14.572C42.7729 14.2621 43.7597 13.1924 43.9635 11.867C43.9941 11.7011 44.0091 11.5326 44.0083 11.3639C44.0063 10.6178 43.7525 9.89429 43.2881 9.31041C43.0407 9.01565 43.0407 8.58576 43.2881 8.29099C43.7538 7.70501 44.0077 6.97869 44.0083 6.23015ZM18.1194 13.7636C17.6178 13.9462 17.122 14.1369 16.6263 14.3283C15.1929 14.9382 13.7027 15.405 12.1775 15.7217C8.80386 16.2997 5.58866 16.6143 3.39581 14.1347C2.15392 12.6399 1.47875 10.7551 1.48898 8.8117C1.47369 6.85814 2.14903 4.96198 3.39581 3.45792C4.67658 2.06999 6.51689 1.33656 8.40123 1.46309C9.66909 1.49317 10.9322 1.62908 12.1775 1.86939C13.7035 2.18582 15.1944 2.65258 16.6285 3.26284C17.1242 3.45425 17.62 3.64494 18.1216 3.82755C22.4901 5.50258 27.1085 6.43345 31.7848 6.58145H31.7965C32.1641 7.25917 32.3298 8.02806 32.274 8.79704C32.3286 9.56382 32.1629 10.3302 31.7965 11.006H31.7848C27.1076 11.155 22.4884 12.0871 18.1194 13.7636ZM42.1389 10.222C42.4002 10.5451 42.5423 10.9484 42.5415 11.3639C42.5425 11.4522 42.5351 11.5403 42.5195 11.6272C42.4131 12.3674 41.8666 12.9682 41.1398 13.1441C40.413 13.32 39.6523 13.0355 39.2192 12.4259C38.5256 11.5041 37.4309 10.9724 36.2776 10.9972H33.4173C33.6408 10.2855 33.75 9.54292 33.7407 8.79704C33.7507 8.05127 33.6423 7.30865 33.4195 6.59685H36.2798C37.4325 6.62083 38.5264 6.08926 39.2199 5.1682C39.6563 4.5522 40.4263 4.2676 41.1585 4.45168C41.8906 4.63577 42.4344 5.25073 42.5276 5.99987C42.5389 6.07608 42.5436 6.15313 42.5415 6.23015C42.5429 6.64531 42.4018 7.04838 42.1418 7.37205C41.4723 8.20397 41.4719 9.38975 42.1411 10.222H42.1389Z" fill="black"/>
</svg>
