<?xml version="1.0" encoding="UTF-8" standalone="no"?>
<svg
   xmlns:dc="http://purl.org/dc/elements/1.1/"
   xmlns:cc="http://creativecommons.org/ns#"
   xmlns:rdf="http://www.w3.org/1999/02/22-rdf-syntax-ns#"
   xmlns:svg="http://www.w3.org/2000/svg"
   xmlns="http://www.w3.org/2000/svg"
   xmlns:sodipodi="http://sodipodi.sourceforge.net/DTD/sodipodi-0.dtd"
   xmlns:inkscape="http://www.inkscape.org/namespaces/inkscape"
   id="svg28"
   version="1.1"
   fill="none"
   viewBox="0 0 348 274"
   height="274"
   width="348"
   sodipodi:docname="no available items cart.svg"
   inkscape:version="0.92.2 (5c3e80d, 2017-08-06)">
  <sodipodi:namedview
     pagecolor="#ffffff"
     bordercolor="#666666"
     borderopacity="1"
     objecttolerance="10"
     gridtolerance="10"
     guidetolerance="10"
     inkscape:pageopacity="0"
     inkscape:pageshadow="2"
     inkscape:window-width="1366"
     inkscape:window-height="705"
     id="namedview24"
     showgrid="false"
     inkscape:zoom="0.83333333"
     inkscape:cx="27.996749"
     inkscape:cy="97.104241"
     inkscape:window-x="-4"
     inkscape:window-y="-4"
     inkscape:window-maximized="1"
     inkscape:current-layer="svg28" />
  <metadata
     id="metadata34">
    <rdf:RDF>
      <cc:Work
         rdf:about="">
        <dc:format>image/svg+xml</dc:format>
        <dc:type
           rdf:resource="http://purl.org/dc/dcmitype/StillImage" />
        <dc:title></dc:title>
      </cc:Work>
    </rdf:RDF>
  </metadata>
  <defs
     id="defs32">
    <clipPath
       clipPathUnits="userSpaceOnUse"
       id="clipPath2970">
      <rect
         style="opacity:1;vector-effect:none;fill:#000000;fill-opacity:1;stroke:#ffffff;stroke-width:2.52850389;stroke-linecap:butt;stroke-linejoin:miter;stroke-miterlimit:4;stroke-dasharray:5.0570078, 5.0570078;stroke-dashoffset:0;stroke-opacity:1"
         id="rect2972"
         width="1108.5714"
         height="531.42859"
         x="-340"
         y="236.8054" />
    </clipPath>
  </defs>
  <g
     id="g2898">
    <path
       d="m 227.11275,12.473821 7.594,4.163641 c 1.399,0.767886 1.399,2.764497 0,3.532384 l -7.594,4.163603 c -0.34099,0.187843 -0.614,0.4608 -0.802,0.802092 l -4.163,7.593486 c -0.768,1.399333 -2.765,1.399333 -3.533,0 l -4.163,-7.593486 c -0.188,-0.341292 -0.461,-0.6144 -0.802,-0.802092 l -7.594,-4.163603 c -1.399,-0.767887 -1.399,-2.764498 0,-3.532384 l 7.594,-4.163641 c 0.34099,-0.187843 0.614,-0.460762 0.802,-0.802016 l 4.163,-7.5936001 c 0.768,-1.3992945 2.765,-1.3992945 3.533,0 l 4.163,7.5936001 c 0.18799,0.341291 0.461,0.614287 0.802,0.802016 z"
       id="path2"
       inkscape:connector-curvature="0"
       style="fill:#edb950;stroke-width:0.99999994" />
    <path
       d="m 186.70475,31.279049 4.692,2.55961 c 0.854,0.47777 0.854,1.706494 0,2.184302 l -4.692,2.559572 c -0.205,0.119433 -0.37599,0.290268 -0.495,0.494929 l -2.56,4.692586 c -0.478,0.85319 -1.706,0.85319 -2.184,0 l -2.56,-4.692586 c -0.11898,-0.20485 -0.29,-0.375685 -0.495,-0.494929 l -4.692,-2.559572 c -0.853,-0.477808 -0.853,-1.706532 0,-2.184302 l 4.692,-2.55961 c 0.205,-0.119433 0.37599,-0.290267 0.495,-0.494891 l 2.56,-4.692624 c 0.478,-0.853304 1.706,-0.853304 2.184,0 l 2.56,4.692624 c 0.11898,0.221858 0.29,0.392504 0.495,0.494891 z"
       id="path4"
       inkscape:connector-curvature="0"
       style="fill:#f6991e;stroke-width:0.99999994" />
    <path
       d="m 343.86775,148.42475 4.692,2.55999 c 0.854,0.478 0.854,1.706 0,2.184 l -4.692,2.55999 c -0.205,0.11905 -0.37599,0.28989 -0.495,0.495 l -2.56,4.69202 c -0.477,0.85398 -1.706,0.85398 -2.184,0 l -2.56,-4.69202 c -0.11898,-0.20485 -0.29,-0.37606 -0.494,-0.495 l -4.693,-2.55999 c -0.853,-0.478 -0.853,-1.706 0,-2.184 l 4.693,-2.55999 c 0.20402,-0.11905 0.375,-0.28989 0.494,-0.495 l 2.56,-4.69202 c 0.478,-0.853 1.707,-0.853 2.184,0 l 2.56,4.69202 c 0.10201,0.22185 0.273,0.39299 0.495,0.495 z"
       id="path6"
       inkscape:connector-curvature="0"
       style="fill:#edb950;stroke-width:0.99999994" />
    <path
       d="M 326.73475,51.738426 77.61405,48.837525 c -6.6038,-0.08542 -12.3716,4.504932 -13.7708,10.972309 L 28.810348,220.75973 c -1.7577,8.05501 3.8223,15.853 11.996103,16.79101 l 248.916299,28.959 c 7.269,0.853 13.942,-4.07902 15.29,-11.26299 l 35.237,-187.024217 c 1.622,-8.498003 -4.863,-16.381682 -13.515,-16.484107 z"
       id="path8"
       inkscape:connector-curvature="0"
       style="fill:#ffb531;stroke-width:0.99999994" />
    <path
       d="M 313.40675,60.304839 64.28595,57.403938 C 57.68215,57.31852 51.914351,61.908946 50.515151,68.376247 L 15.48215,229.32675 c -1.757601,8.05398 3.822399,15.85198 11.996198,16.791 l 248.916402,28.95799 c 7.269,0.853 13.941,-4.078 15.29,-11.26299 l 35.237,-187.023804 c 1.604,-8.48092 -4.863,-16.38172 -13.515,-16.484107 z"
       stroke-miterlimit="10"
       id="path10"
       inkscape:connector-curvature="0"
       style="fill:none;stroke:#f6991e;stroke-width:1.99999988;stroke-linecap:round;stroke-linejoin:round;stroke-miterlimit:10;stroke-dasharray:0.20000001, 0.20000001" />
    <path
       d="M 289.32375,224.02876 H 10.076122 c -4.8990733,0 -8.8763722,-6.99901 -8.8763722,-15.61901 v -74.76201 c 0,-8.62 3.9772989,-15.61901 8.8763722,-15.61901 H 289.32375 c 4.899,0 8.876,6.99901 8.876,15.61901 v 74.76201 c 0,8.62 -3.977,15.61901 -8.876,15.61901 z"
       id="path12"
       inkscape:connector-curvature="0"
       style="fill:#f98500;stroke-width:0.99999994" />
    <path
       d="m 129.82575,85.856146 4.692,2.559685 c 0.854,0.477808 0.854,1.706419 0,2.184227 l -4.692,2.559571 c -0.205,0.119434 -0.376,0.290268 -0.495,0.49493 l -2.56,4.692699 c -0.477,0.85319 -1.706,0.85319 -2.184,0 l -2.56,-4.692699 c -0.119,-0.204851 -0.29,-0.375307 -0.494,-0.49493 l -4.693,-2.559571 c -0.853,-0.477808 -0.853,-1.706419 0,-2.184227 l 4.693,-2.559685 c 0.204,-0.119433 0.375,-0.28989 0.494,-0.494816 l 2.56,-4.692699 c 0.478,-0.853191 1.707,-0.853191 2.184,0 l 2.56,4.692699 c 0.119,0.221858 0.29,0.392504 0.495,0.494816 z"
       id="path14"
       inkscape:connector-curvature="0"
       style="opacity:0.4;fill:#ffffff;stroke-width:0.99999994" />
    <path
       d="m 257.82875,83.802426 -13.395,37.746334 c -0.7,1.979 -3.481,2.031 -4.249,0.068 l -14.999,-38.189709 c -0.598,-1.501606 0.529,-3.122797 2.15,-3.105713 l 28.377,0.443716 c 1.57,0.03402 2.628,1.569903 2.116,3.03738 z"
       id="path16"
       inkscape:connector-curvature="0"
       style="opacity:0.4;fill:#ffffff;stroke-width:0.99999994" />
    <path
       d="m 58.04175,206.35875 8.1396,4.453 c 1.5017,0.81899 1.5017,2.96999 0,3.78898 l -8.1396,4.453 c -0.358402,0.20485 -0.665502,0.495 -0.853299,0.85402 l -4.453701,8.13899 c -0.819099,1.50202 -2.969201,1.50202 -3.7883,0 l -4.453799,-8.13899 c -0.204699,-0.35905 -0.494801,-0.66599 -0.853202,-0.85402 l -8.139598,-4.453 c -1.501701,-0.81899 -1.501701,-2.96999 0,-3.78898 l 8.139598,-4.453 c 0.358413,-0.20485 0.665499,-0.49501 0.853202,-0.85402 l 4.453799,-8.13899 c 0.819099,-1.50198 2.969201,-1.50198 3.7883,0 l 4.453701,8.13899 c 0.187805,0.35905 0.494899,0.66603 0.853299,0.85402 z"
       id="path18"
       inkscape:connector-curvature="0"
       style="opacity:0.4;fill:#ffffff;stroke-width:0.99999994" />
    <path
       d="m 260.99675,228.26175 4.495,7.403 c 0.828,1.364 -0.17099,3.09298 -1.766,3.059 l -8.658,-0.19087 c -0.39,-0.008 -0.763,0.0918 -1.096,0.29292 l -7.403,4.49499 c -1.364,0.82798 -3.093,-0.17121 -3.059,-1.76602 l 0.19102,-8.65799 c 0.008,-0.39001 -0.092,-0.76301 -0.29299,-1.09599 l -4.495,-7.403 c -0.828,-1.36399 0.17098,-3.09301 1.766,-3.059 l 8.659,0.19087 c 0.389,0.008 0.762,-0.0918 1.095,-0.29291 l 7.403,-4.495 c 1.364,-0.82802 3.093,0.17084 3.059,1.76599 l -0.19102,8.65799 c -0.008,0.39001 0.092,0.76301 0.29299,1.09602 z"
       id="path20"
       inkscape:connector-curvature="0"
       style="opacity:0.4;fill:#ffffff;stroke-width:0.99999994" />
    <path
       d="m 286.56575,92.419636 c 0,3.873524 -3.14,7.013405 -7.014,7.013405 -3.873,0 -7.013,-3.139881 -7.013,-7.013405 0,-3.8736 3.14,-7.013481 7.013,-7.013481 3.874,0 7.014,3.139881 7.014,7.013481 z"
       id="path22"
       inkscape:connector-curvature="0"
       style="opacity:0.4;fill:#ffffff;stroke-width:0.99999994" />
    <path
       d="m 171.22675,213.04175 c 0,3.87398 -3.14,7.01401 -7.014,7.01401 -3.873,0 -7.013,-3.14003 -7.013,-7.01401 0,-3.873 3.14,-7.01299 7.013,-7.01299 3.874,0 7.014,3.13999 7.014,7.01299 z"
       id="path24"
       inkscape:connector-curvature="0"
       style="opacity:0.4;fill:#ffffff;stroke-width:0.99999994" />
    <path
       d="m 73.33055,251.47573 c 0,2.884 -2.3378,5.22202 -5.2216,5.22202 -2.8839,0 -5.2217,-2.33802 -5.2217,-5.22202 0,-2.88397 2.3378,-5.22097 5.2217,-5.22097 2.8838,0 5.2216,2.337 5.2216,5.22097 z"
       id="path26"
       inkscape:connector-curvature="0"
       style="fill:#ffffff;stroke-width:0.99999994" />
  </g>
  <g
     aria-label="NO ITEM AVAILABLE"
     transform="matrix(0.78698255,0,0,0.78698255,198.10921,-132.77619)"
     style="font-style:normal;font-weight:normal;font-size:40px;line-height:125%;font-family:sans-serif;letter-spacing:0px;word-spacing:0px;fill:#ffffff;fill-opacity:1;stroke:none;stroke-width:1px;stroke-linecap:butt;stroke-linejoin:miter;stroke-opacity:1"
     id="flowRoot2900"
     clip-path="url(#clipPath2970)">
    <path
       d="m -138.02175,374.41589 v -35.57334 h -4.42667 v 27.78667 l -20.48,-27.78667 h -4.53333 v 35.57334 h 4.42667 v -28.37334 l 20.74666,28.37334 z"
       style="font-style:normal;font-variant:normal;font-weight:normal;font-stretch:normal;font-size:53.33333588px;font-family:'Proxima Nova';-inkscape-font-specification:'Proxima Nova';text-align:center;text-anchor:middle;opacity:1;fill:#ffffff;fill-opacity:1"
       id="path2937"
       inkscape:connector-curvature="0" />
    <path
       d="m -113.43592,375.05589 c 10.50667,0 17.653339,-7.89334 17.653339,-18.40001 0,-10.50666 -7.146669,-18.4 -17.653339,-18.4 -10.56,0 -17.65333,7.89334 -17.65333,18.4 0,10.50667 7.09333,18.40001 17.65333,18.40001 z m 0,-3.94667 c -8,0 -13.06666,-6.18667 -13.06666,-14.45334 0,-8.32 5.06666,-14.45333 13.06666,-14.45333 7.94667,0 13.06667,6.13333 13.06667,14.45333 0,8.26667 -5.12,14.45334 -13.06667,14.45334 z"
       style="font-style:normal;font-variant:normal;font-weight:normal;font-stretch:normal;font-size:53.33333588px;font-family:'Proxima Nova';-inkscape-font-specification:'Proxima Nova';text-align:center;text-anchor:middle;opacity:1;fill:#ffffff;fill-opacity:1"
       id="path2939"
       inkscape:connector-curvature="0" />
    <path
       d="m -70.639247,374.41589 v -35.57334 h -4.426667 v 35.57334 z"
       style="font-style:normal;font-variant:normal;font-weight:normal;font-stretch:normal;font-size:53.33333588px;font-family:'Proxima Nova';-inkscape-font-specification:'Proxima Nova';text-align:center;text-anchor:middle;opacity:1;fill:#ffffff;fill-opacity:1"
       id="path2941"
       inkscape:connector-curvature="0" />
    <path
       d="m -49.130911,374.41589 v -31.62667 h 11.306668 v -3.94667 h -26.986668 v 3.94667 h 11.253334 v 31.62667 z"
       style="font-style:normal;font-variant:normal;font-weight:normal;font-stretch:normal;font-size:53.33333588px;font-family:'Proxima Nova';-inkscape-font-specification:'Proxima Nova';text-align:center;text-anchor:middle;opacity:1;fill:#ffffff;fill-opacity:1"
       id="path2943"
       inkscape:connector-curvature="0" />
    <path
       d="m -8.6342383,374.41589 v -3.94667 H -27.514239 v -12.26667 h 18.5066674 v -3.94667 H -27.514239 v -11.46666 h 18.8800007 v -3.94667 H -31.940906 v 35.57334 z"
       style="font-style:normal;font-variant:normal;font-weight:normal;font-stretch:normal;font-size:53.33333588px;font-family:'Proxima Nova';-inkscape-font-specification:'Proxima Nova';text-align:center;text-anchor:middle;opacity:1;fill:#ffffff;fill-opacity:1"
       id="path2945"
       inkscape:connector-curvature="0" />
    <path
       d="M 33.198262,374.41589 V 338.84255 H 26.851595 L 15.758261,365.61589 4.7182609,338.84255 h -6.346667 v 35.57334 h 4.4266669 v -29.28001 l 12.0533342,29.28001 h 1.813333 l 12.106667,-29.28001 v 29.28001 z"
       style="font-style:normal;font-variant:normal;font-weight:normal;font-stretch:normal;font-size:53.33333588px;font-family:'Proxima Nova';-inkscape-font-specification:'Proxima Nova';text-align:center;text-anchor:middle;opacity:1;fill:#ffffff;fill-opacity:1"
       id="path2947"
       inkscape:connector-curvature="0" />
    <path
       d="M -165.28967,428.38934 -179.63633,392.816 h -5.49334 l -14.29333,35.57334 h 5.06667 l 3.14666,-7.89334 h 17.70667 l 3.14667,7.89334 z m -9.54666,-11.84001 h -15.09334 l 7.57334,-19.14666 z"
       style="font-style:normal;font-variant:normal;font-weight:normal;font-stretch:normal;font-size:53.33333588px;font-family:'Proxima Nova';-inkscape-font-specification:'Proxima Nova';text-align:center;text-anchor:middle;opacity:1;fill:#ffffff;fill-opacity:1"
       id="path2949"
       inkscape:connector-curvature="0" />
    <path
       d="m -147.44883,428.38934 14.34666,-35.57334 h -5.06666 l -12,30.72 -12,-30.72 h -5.06667 l 14.29333,35.57334 z"
       style="font-style:normal;font-variant:normal;font-weight:normal;font-stretch:normal;font-size:53.33333588px;font-family:'Proxima Nova';-inkscape-font-specification:'Proxima Nova';text-align:center;text-anchor:middle;opacity:1;fill:#ffffff;fill-opacity:1"
       id="path2951"
       inkscape:connector-curvature="0" />
    <path
       d="M -100.91467,428.38934 -115.26133,392.816 h -5.49334 l -14.29333,35.57334 h 5.06667 l 3.14666,-7.89334 h 17.70667 l 3.14667,7.89334 z m -9.54666,-11.84001 h -15.09334 l 7.57334,-19.14666 z"
       style="font-style:normal;font-variant:normal;font-weight:normal;font-stretch:normal;font-size:53.33333588px;font-family:'Proxima Nova';-inkscape-font-specification:'Proxima Nova';text-align:center;text-anchor:middle;opacity:1;fill:#ffffff;fill-opacity:1"
       id="path2953"
       inkscape:connector-curvature="0" />
    <path
       d="M -91.837162,428.38934 V 392.816 h -4.426667 v 35.57334 z"
       style="font-style:normal;font-variant:normal;font-weight:normal;font-stretch:normal;font-size:53.33333588px;font-family:'Proxima Nova';-inkscape-font-specification:'Proxima Nova';text-align:center;text-anchor:middle;opacity:1;fill:#ffffff;fill-opacity:1"
       id="path2955"
       inkscape:connector-curvature="0" />
    <path
       d="m -62.5955,428.38934 v -3.94667 H -79.128834 V 392.816 h -4.426667 v 35.57334 z"
       style="font-style:normal;font-variant:normal;font-weight:normal;font-stretch:normal;font-size:53.33333588px;font-family:'Proxima Nova';-inkscape-font-specification:'Proxima Nova';text-align:center;text-anchor:middle;opacity:1;fill:#ffffff;fill-opacity:1"
       id="path2957"
       inkscape:connector-curvature="0" />
    <path
       d="M -25.914666,428.38934 -40.261333,392.816 h -5.493334 l -14.293334,35.57334 h 5.066667 l 3.146667,-7.89334 H -34.128 l 3.146667,7.89334 z m -9.546667,-11.84001 h -15.093334 l 7.573333,-19.14666 z"
       style="font-style:normal;font-variant:normal;font-weight:normal;font-stretch:normal;font-size:53.33333588px;font-family:'Proxima Nova';-inkscape-font-specification:'Proxima Nova';text-align:center;text-anchor:middle;opacity:1;fill:#ffffff;fill-opacity:1"
       id="path2959"
       inkscape:connector-curvature="0" />
    <path
       d="m -5.0504951,428.38934 c 6.506667,0 10.2933339,-3.89334 10.2933339,-9.6 0,-4.26667 -3.1466669,-8.16001 -6.9333337,-8.74667 3.2533335,-0.69334 6.2400003,-3.68 6.2400003,-8.16 0,-5.33334 -3.78666685,-9.06667 -9.9733338,-9.06667 H -21.263829 v 35.57334 z m -1.12,-20.16001 H -16.837162 v -11.46666 h 10.6666669 c 4.0000002,0 6.13333361,2.56 6.13333361,5.76 0,3.25333 -2.13333341,5.70666 -6.13333361,5.70666 z m 0.2133333,16.21334 H -16.837162 V 412.176 h 10.8800002 c 4.3733336,0 6.61333367,2.88 6.61333367,6.13333 0,3.78667 -2.45333347,6.13334 -6.61333367,6.13334 z"
       style="font-style:normal;font-variant:normal;font-weight:normal;font-stretch:normal;font-size:53.33333588px;font-family:'Proxima Nova';-inkscape-font-specification:'Proxima Nova';text-align:center;text-anchor:middle;opacity:1;fill:#ffffff;fill-opacity:1"
       id="path2961"
       inkscape:connector-curvature="0" />
    <path
       d="m 33.237844,428.38934 v -3.94667 H 16.704509 V 392.816 h -4.426666 v 35.57334 z"
       style="font-style:normal;font-variant:normal;font-weight:normal;font-stretch:normal;font-size:53.33333588px;font-family:'Proxima Nova';-inkscape-font-specification:'Proxima Nova';text-align:center;text-anchor:middle;opacity:1;fill:#ffffff;fill-opacity:1"
       id="path2963"
       inkscape:connector-curvature="0" />
    <path
       d="m 62.77201,428.38934 v -3.94667 H 43.892009 V 412.176 h 18.506668 v -3.94667 H 43.892009 V 396.76267 H 62.77201 V 392.816 H 39.465343 v 35.57334 z"
       style="font-style:normal;font-variant:normal;font-weight:normal;font-stretch:normal;font-size:53.33333588px;font-family:'Proxima Nova';-inkscape-font-specification:'Proxima Nova';text-align:center;text-anchor:middle;opacity:1;fill:#ffffff;fill-opacity:1"
       id="path2965"
       inkscape:connector-curvature="0" />
  </g>
</svg>
