<svg width="182" height="182" viewBox="0 0 182 182" fill="none" xmlns="http://www.w3.org/2000/svg">
<path d="M178.906 121.313C178.906 126.94 176.671 132.337 172.691 136.317C168.712 140.296 163.315 142.531 157.688 142.531H24.3125C18.6849 142.531 13.2879 140.296 9.30858 136.317C5.32929 132.337 3.09375 126.94 3.09375 121.313C3.09375 115.685 5.32929 110.288 9.30858 106.309C13.2879 102.329 18.6849 100.094 24.3125 100.094H26.8588C23.8509 93.2263 23.4965 85.4873 25.8641 78.3736C28.2317 71.2598 33.1531 65.2767 39.6766 61.5813C46.2 57.886 53.8621 56.7409 61.1809 58.3675C68.4997 59.9942 74.9554 64.277 79.2994 70.3877C80.1291 64.3982 82.3269 58.6802 85.7226 53.677C89.1182 48.6738 93.6204 44.5198 98.8802 41.537C104.14 38.5541 110.016 36.8226 116.053 36.4766C122.09 36.1307 128.125 37.1795 133.691 39.5419C139.257 41.9043 144.204 45.5168 148.149 50.0993C152.094 54.6818 154.931 60.1112 156.44 65.9667C157.948 71.8222 158.088 77.9464 156.848 83.8647C155.609 89.7829 153.023 95.3361 149.291 100.094H157.688C163.315 100.094 168.712 102.329 172.691 106.309C176.671 110.288 178.906 115.685 178.906 121.313Z" fill="#F98500"/>
<path d="M178.907 121.313C178.907 126.94 176.671 132.337 172.692 136.317C168.713 140.296 163.315 142.532 157.688 142.532H145.563C151.19 142.532 156.588 140.296 160.567 136.317C164.546 132.337 166.782 126.94 166.782 121.313C166.782 115.685 164.546 110.288 160.567 106.309C156.588 102.33 151.19 100.094 145.563 100.094H137.166C141.405 94.6949 144.157 88.2808 145.15 81.4888C146.143 74.6969 145.341 67.7634 142.825 61.377C140.309 54.9906 136.166 49.3735 130.808 45.0837C125.449 40.7938 119.062 37.9803 112.28 36.9228C114.263 36.5921 116.271 36.4299 118.282 36.4378C125.668 36.4287 132.908 38.4985 139.174 42.4104C145.439 46.3224 150.478 51.9185 153.713 58.5591C156.947 65.1996 158.248 72.6164 157.467 79.9614C156.685 87.3065 153.852 94.2833 149.291 100.094H157.688C160.474 100.094 163.234 100.643 165.808 101.709C168.382 102.776 170.721 104.339 172.692 106.309C174.662 108.279 176.225 110.618 177.291 113.193C178.358 115.767 178.907 118.526 178.907 121.313Z" fill="#F27321"/>
<path d="M139.5 154.656L142.531 166.781H124.344L127.375 154.656H139.5Z" fill="#F27321"/>
<path d="M142.531 166.781H136.469L133.438 154.656H139.5L142.531 166.781Z" fill="#F27321"/>
<path d="M178.906 142.531V148.594C178.901 150.2 178.261 151.739 177.125 152.875C175.989 154.011 174.45 154.651 172.844 154.656H94.0313C92.4249 154.651 90.8856 154.011 89.7497 152.875C88.6138 151.739 87.9735 150.2 87.9688 148.594V142.531H178.906Z" fill="#C6C5CA"/>
<path d="M178.906 100.094V142.531H87.9688V100.094C87.9735 98.4874 88.6138 96.9481 89.7497 95.8122C90.8856 94.6763 92.4249 94.036 94.0313 94.0312H172.844C174.45 94.036 175.989 94.6763 177.125 95.8122C178.261 96.9481 178.901 98.4874 178.906 100.094Z" fill="#FFB531"/>
<path d="M152.837 166.781L157.293 178.906H109.582L114.037 166.781H124.344H142.531H152.837Z" fill="#C6C5CA"/>
<path d="M178.906 142.531V148.594C178.901 150.2 178.261 151.739 177.125 152.875C175.989 154.011 174.45 154.651 172.844 154.656H160.719C162.325 154.651 163.864 154.011 165 152.875C166.136 151.739 166.776 150.2 166.781 148.594V142.531H178.906Z" fill="#ACABB1"/>
<path d="M178.906 100.094V142.531H166.781V100.094C166.776 98.4874 166.136 96.9481 165 95.8122C163.864 94.6763 162.325 94.036 160.719 94.0312H172.844C174.45 94.036 175.989 94.6763 177.125 95.8122C178.261 96.9481 178.901 98.4874 178.906 100.094Z" fill="#F98500"/>
<path d="M157.293 178.906H145.168L140.712 166.781H152.837L157.293 178.906Z" fill="#ACABB1"/>
<path d="M142.531 94.0313C142.531 92.2327 141.998 90.4745 140.999 88.979C139.999 87.4836 138.579 86.318 136.918 85.6297C135.256 84.9414 133.427 84.7614 131.663 85.1122C129.899 85.4631 128.279 86.3292 127.007 87.601C125.735 88.8728 124.869 90.4931 124.518 92.2572C124.168 94.0212 124.348 95.8496 125.036 97.5113C125.724 99.173 126.89 100.593 128.385 101.592C129.881 102.592 131.639 103.125 133.438 103.125C135.849 103.125 138.162 102.167 139.868 100.462C141.573 98.7561 142.531 96.4431 142.531 94.0313Z" fill="#C0AB91"/>
<path d="M157.688 87.9688V100.094L151.686 101.579L154.868 106.884L146.29 115.462L140.985 112.279L139.5 118.281H127.375L125.89 112.279L120.585 115.462L112.007 106.884L115.189 101.579L109.188 100.094V87.9688L115.189 86.4834L112.007 81.1788L120.585 72.6003L125.89 75.7831L127.375 69.7812H139.5L140.985 75.7831L145.411 73.1156L146.29 72.6003L154.868 81.1788L151.686 86.4834L155.899 87.5141L157.688 87.9688Z" fill="#C0AB91"/>
<path d="M157.688 100.094L151.686 101.579L154.869 106.884L146.29 115.462L140.986 112.279L139.5 118.281H127.375L125.89 112.279L120.585 115.462L116.917 111.794C121.957 111.182 126.821 109.563 131.222 107.032C135.622 104.501 139.468 101.111 142.532 97.0626C147.011 90.8588 149.428 83.4048 149.443 75.7529L154.869 81.1789L151.686 86.4836L157.688 87.9689V100.094Z" fill="#B39A7C"/>
<path d="M133.438 103.125C138.46 103.125 142.531 99.0536 142.531 94.0312C142.531 89.0089 138.46 84.9375 133.438 84.9375C128.415 84.9375 124.344 89.0089 124.344 94.0312C124.344 99.0536 128.415 103.125 133.438 103.125Z" fill="#FFDE55"/>
<path d="M33.4062 33.4062V45.5312C33.4062 48.8656 26.6162 51.5938 18.25 51.5938C9.88375 51.5938 3.09375 48.8656 3.09375 45.5312V33.4062C3.09375 36.7406 9.88375 39.4688 18.25 39.4688C26.6162 39.4688 33.4062 36.7406 33.4062 33.4062Z" fill="#FFEB99"/>
<path d="M33.4062 21.2812V33.4062C33.4062 36.7406 26.6162 39.4688 18.25 39.4688C9.88375 39.4688 3.09375 36.7406 3.09375 33.4062V21.2812C3.09375 24.6156 9.88375 27.3438 18.25 27.3438C26.6162 27.3438 33.4062 24.6156 33.4062 21.2812Z" fill="#FFEB99"/>
<path d="M33.4062 9.15625V21.2812C33.4062 24.6156 26.6162 27.3438 18.25 27.3438C9.88375 27.3438 3.09375 24.6156 3.09375 21.2812V9.15625C3.09375 12.4906 9.88375 15.2188 18.25 15.2188C26.6162 15.2188 33.4062 12.4906 33.4062 9.15625Z" fill="#FFEB99"/>
<path d="M18.25 15.2188C26.6206 15.2188 33.4062 12.5045 33.4062 9.15625C33.4062 5.80802 26.6206 3.09375 18.25 3.09375C9.87943 3.09375 3.09375 5.80802 3.09375 9.15625C3.09375 12.5045 9.87943 15.2188 18.25 15.2188Z" fill="#FFCD00"/>
<path d="M33.4062 33.4062V45.5312C33.4062 48.8656 26.6163 51.5938 18.25 51.5938C16.2179 51.6008 14.1892 51.4284 12.1875 51.0784C17.5225 50.1388 21.2812 48.0169 21.2812 45.5312V39.3475C28.1925 38.7716 33.4062 36.3162 33.4062 33.4062Z" fill="#FFCD00"/>
<path d="M33.4062 21.2812V33.4062C33.4062 36.3162 28.1925 38.7716 21.2812 39.3475V27.2225C28.1925 26.6466 33.4062 24.1912 33.4062 21.2812Z" fill="#FFCD00"/>
<path d="M33.4062 9.15625V21.2812C33.4062 24.1912 28.1925 26.6466 21.2812 27.2225V15.0975C28.1925 14.5216 33.4062 12.0662 33.4062 9.15625Z" fill="#FFCD00"/>
<path d="M33.4062 9.15646C33.4062 12.4908 26.6163 15.219 18.25 15.219C16.2179 15.226 14.1892 15.0536 12.1875 14.7036C17.5225 13.764 21.2812 11.6421 21.2812 9.15646C21.2812 6.67083 17.5225 4.54896 12.1875 3.60927C14.1892 3.25932 16.2179 3.08688 18.25 3.09396C26.6163 3.09396 33.4062 5.82208 33.4062 9.15646Z" fill="#EBBF00"/>
<path d="M33.4062 87.9688H39.4687C39.4736 83.9505 41.0719 80.0983 43.9132 77.257C46.7545 74.4157 50.6068 72.8173 54.625 72.8125V66.75C48.9994 66.7564 43.6061 68.994 39.6282 72.9719C35.6503 76.9498 33.4127 82.3432 33.4062 87.9688Z" fill="black"/>
<path d="M172.844 91.0002H160.719V87.969C160.716 87.5181 160.611 87.0736 160.412 86.6692C160.212 86.2649 159.923 85.9112 159.567 85.6349C162.12 74.8838 160.376 63.5608 154.706 54.0764C149.036 44.592 139.887 37.6954 129.209 34.8549C118.53 32.0143 107.164 33.4542 97.5309 38.8679C87.8979 44.2816 80.7583 53.2415 77.6323 63.8402C72.3361 58.7877 65.5245 55.6182 58.2483 54.8209C50.9721 54.0236 43.6357 55.6427 37.371 59.4284C31.1063 63.2141 26.2614 68.9561 23.5837 75.7685C20.906 82.5809 20.5443 90.0851 22.5545 97.1234C16.2832 97.5675 10.4295 100.43 6.228 105.107C2.02646 109.784 -0.194488 115.909 0.0335512 122.192C0.26159 128.475 2.92079 134.424 7.45033 138.784C11.9799 143.144 18.0257 145.574 24.3127 145.563H84.9377V148.594C84.9448 151.004 85.9053 153.312 87.6091 155.016C89.313 156.72 91.6218 157.681 94.0314 157.688H123.495L121.98 163.75H114.038C113.414 163.747 112.805 163.938 112.294 164.296C111.783 164.655 111.397 165.163 111.188 165.751L106.732 177.876C106.567 178.334 106.514 178.824 106.578 179.307C106.643 179.789 106.822 180.249 107.101 180.647C107.381 181.046 107.752 181.371 108.184 181.596C108.616 181.82 109.095 181.938 109.582 181.938H157.294C157.78 181.938 158.26 181.82 158.691 181.596C159.123 181.371 159.494 181.046 159.774 180.647C160.053 180.249 160.233 179.789 160.297 179.307C160.361 178.824 160.308 178.334 160.143 177.876L155.687 165.751C155.478 165.163 155.092 164.655 154.581 164.296C154.071 163.938 153.461 163.747 152.838 163.75H144.896L143.38 157.688H172.844C175.254 157.681 177.562 156.72 179.266 155.016C180.97 153.312 181.93 151.004 181.938 148.594V100.094C181.93 97.6844 180.97 95.3755 179.266 93.6717C177.562 91.9678 175.254 91.0074 172.844 91.0002ZM84.9377 100.094V139.5H24.3127C19.489 139.5 14.863 137.584 11.4521 134.173C8.04133 130.762 6.12515 126.136 6.12515 121.313C6.12515 116.489 8.04133 111.863 11.4521 108.452C14.863 105.041 19.489 103.125 24.3127 103.125H26.8589C27.3626 103.124 27.8584 102.999 28.3024 102.761C28.7465 102.523 29.1252 102.18 29.4052 101.761C29.6737 101.336 29.8359 100.852 29.8781 100.351C29.9203 99.8497 29.8413 99.3457 29.6477 98.8815C28.1147 95.4485 27.3294 91.7287 27.3439 87.969C27.3453 82.1866 29.1839 76.5543 32.5944 71.8848C36.0049 67.2153 40.8108 63.7503 46.3186 61.9897C51.8264 60.2291 57.7511 60.264 63.2377 62.0895C68.7243 63.9149 73.4891 67.4365 76.8442 72.1459C77.1936 72.6409 77.6846 73.0188 78.2526 73.2297C78.8206 73.4407 79.4392 73.475 80.027 73.328C80.6136 73.183 81.1434 72.866 81.5485 72.4177C81.9535 71.9694 82.2154 71.4103 82.3005 70.8121C83.5673 61.6899 88.2495 53.3887 95.4009 47.5856C102.552 41.7825 111.64 38.9103 120.828 39.5492C130.015 40.1881 138.618 44.2906 144.897 51.0277C151.176 57.7648 154.664 66.6343 154.656 75.844C154.656 76.1168 154.626 76.3593 154.626 76.6321L148.442 70.4483C148.318 70.3473 148.187 70.2561 148.048 70.1755C146.718 63.2515 143.02 57.0059 137.589 52.5096C132.158 48.0132 125.332 45.5462 118.281 45.5315V51.594C123.18 51.5986 127.963 53.0867 131.999 55.8625C136.036 58.6383 139.137 62.5715 140.895 67.1443C140.473 66.891 139.992 66.755 139.5 66.7502H127.375C126.698 66.7508 126.041 66.9779 125.508 67.3954C124.975 67.8129 124.597 68.3968 124.435 69.054L123.92 71.0849L122.131 69.9937C121.55 69.6541 120.873 69.5146 120.205 69.5968C119.537 69.6789 118.915 69.9781 118.433 70.4483L109.855 79.0268C109.378 79.5046 109.074 80.1278 108.992 80.7977C108.91 81.4676 109.053 82.1459 109.4 82.7249L110.491 84.5134L108.46 85.0287C107.803 85.1911 107.219 85.5689 106.802 86.1018C106.384 86.6347 106.157 87.292 106.156 87.969V91.0002H94.0314C91.6218 91.0074 89.313 91.9678 87.6091 93.6717C85.9053 95.3755 84.9448 97.6844 84.9377 100.094ZM149.079 103.156L151.049 106.429L145.835 111.643L142.562 109.673C142.151 109.435 141.692 109.295 141.219 109.263C140.746 109.232 140.272 109.31 139.834 109.491C139.396 109.672 139.007 109.953 138.696 110.31C138.386 110.668 138.163 111.093 138.045 111.552L137.136 115.25H129.74L128.83 111.552C128.712 111.093 128.49 110.668 128.179 110.31C127.869 109.953 127.479 109.672 127.042 109.491C126.604 109.31 126.13 109.232 125.656 109.263C125.183 109.295 124.724 109.435 124.314 109.673L121.04 111.643L115.826 106.429L117.796 103.156C118.034 102.745 118.174 102.286 118.206 101.813C118.237 101.34 118.159 100.866 117.978 100.427C117.797 99.9898 117.516 99.6004 117.159 99.29C116.801 98.9796 116.376 98.7567 115.917 98.639L112.219 97.7296V90.3334L115.917 89.424C116.376 89.3062 116.801 89.0833 117.159 88.7729C117.516 88.4625 117.797 88.0731 117.978 87.6355C118.159 87.1973 118.237 86.7234 118.206 86.2503C118.174 85.7772 118.034 85.3177 117.796 84.9074L115.826 81.6337L121.04 76.4199L124.314 78.3599C124.719 78.6092 125.178 78.7585 125.652 78.7954C126.126 78.8323 126.603 78.7558 127.042 78.5721C127.479 78.3908 127.869 78.1102 128.179 77.7525C128.49 77.3947 128.712 76.9696 128.83 76.5108L129.74 72.8127H137.136L138.045 76.5108C138.163 76.9696 138.386 77.3947 138.696 77.7525C139.007 78.1102 139.396 78.3908 139.834 78.5721C140.273 78.7558 140.749 78.8323 141.223 78.7954C141.698 78.7585 142.156 78.6092 142.562 78.3599L145.835 76.4199L151.049 81.6337L149.079 84.9074C148.841 85.3177 148.701 85.7772 148.67 86.2503C148.638 86.7234 148.716 87.1973 148.897 87.6355C149.078 88.0731 149.359 88.4625 149.717 88.7729C150.074 89.0833 150.5 89.3062 150.958 89.424L154.656 90.3334V97.7296L150.958 98.639C150.5 98.7567 150.074 98.9796 149.717 99.29C149.359 99.6004 149.078 99.9898 148.897 100.427C148.716 100.866 148.638 101.34 148.67 101.813C148.701 102.286 148.841 102.745 149.079 103.156ZM150.716 169.813L152.959 175.875H113.916L116.16 169.813H150.716ZM128.224 163.75L129.74 157.688H137.136L138.651 163.75H128.224ZM175.875 148.594C175.875 149.398 175.556 150.169 174.987 150.737C174.419 151.306 173.648 151.625 172.844 151.625H94.0314C93.2275 151.625 92.4565 151.306 91.888 150.737C91.3195 150.169 91.0002 149.398 91.0002 148.594V145.563H175.875V148.594ZM175.875 139.5H91.0002V100.094C91.0002 99.29 91.3195 98.519 91.888 97.9506C92.4565 97.3821 93.2275 97.0627 94.0314 97.0627H106.156V100.094C106.157 100.771 106.384 101.428 106.802 101.961C107.219 102.494 107.803 102.872 108.46 103.034L110.491 103.55L109.4 105.338C109.053 105.917 108.91 106.595 108.992 107.265C109.074 107.935 109.378 108.558 109.855 109.036L118.433 117.615C118.911 118.091 119.534 118.395 120.204 118.477C120.874 118.56 121.552 118.416 122.131 118.069L123.92 116.978L124.435 119.009C124.597 119.666 124.975 120.25 125.508 120.668C126.041 121.085 126.698 121.312 127.375 121.313H139.5C140.177 121.312 140.834 121.085 141.367 120.668C141.9 120.25 142.278 119.666 142.44 119.009L142.956 116.978L144.744 118.069C145.323 118.416 146.002 118.56 146.671 118.477C147.341 118.395 147.965 118.091 148.442 117.615L157.021 109.036C157.497 108.558 157.801 107.935 157.883 107.265C157.966 106.595 157.822 105.917 157.475 105.338L156.384 103.55L158.415 103.034C159.072 102.872 159.656 102.494 160.074 101.961C160.491 101.428 160.718 100.771 160.719 100.094V97.0627H172.844C173.648 97.0627 174.419 97.3821 174.987 97.9506C175.556 98.519 175.875 99.29 175.875 100.094V139.5Z" fill="black"/>
<path d="M133.438 106.156C135.836 106.156 138.18 105.445 140.174 104.113C142.168 102.781 143.722 100.887 144.64 98.6713C145.557 96.4557 145.797 94.0178 145.33 91.6658C144.862 89.3138 143.707 87.1533 142.011 85.4576C140.315 83.7619 138.155 82.6071 135.803 82.1392C133.451 81.6714 131.013 81.9115 128.797 82.8292C126.582 83.7469 124.688 85.301 123.356 87.295C122.024 89.2889 121.312 91.6332 121.312 94.0313C121.312 97.247 122.59 100.331 124.864 102.605C127.138 104.879 130.222 106.156 133.438 106.156ZM133.438 87.9688C134.637 87.9688 135.809 88.3243 136.806 88.9905C137.803 89.6566 138.58 90.6035 139.039 91.7112C139.497 92.819 139.617 94.038 139.384 95.214C139.15 96.39 138.572 97.4702 137.724 98.3181C136.876 99.166 135.796 99.7434 134.62 99.9773C133.444 100.211 132.225 100.091 131.117 99.6323C130.01 99.1734 129.063 98.3964 128.397 97.3994C127.731 96.4024 127.375 95.2303 127.375 94.0313C127.375 92.4234 128.014 90.8814 129.151 89.7444C130.288 88.6075 131.83 87.9688 133.438 87.9688Z" fill="black"/>
<path d="M18.25 0.0625C9.48969 0.0625 0.0625 2.91188 0.0625 9.15625V45.5312C0.0625 51.7756 9.48969 54.625 18.25 54.625C27.0103 54.625 36.4375 51.7756 36.4375 45.5312V9.15625C36.4375 2.91188 27.0103 0.0625 18.25 0.0625ZM18.25 6.125C25.3734 6.125 29.5262 8.15594 30.3144 9.15625C29.5262 10.1566 25.3734 12.1875 18.25 12.1875C11.1266 12.1875 6.97375 10.1566 6.18563 9.15625C6.97375 8.15594 11.1266 6.125 18.25 6.125ZM6.125 16.1584C10.0027 17.5987 14.1138 18.3079 18.25 18.25C22.3893 18.3132 26.5032 17.5933 30.375 16.1281V21.1297C29.9203 22.0694 25.7372 24.3125 18.25 24.3125C10.7628 24.3125 6.51906 22.0391 6.125 21.2812V16.1584ZM30.4053 45.3797C29.9809 46.2891 25.7675 48.5625 18.25 48.5625C10.7325 48.5625 6.51906 46.2891 6.125 45.5312V40.4084C10.0027 41.8487 14.1138 42.5579 18.25 42.5C22.3991 42.5631 26.523 41.8433 30.4053 40.3781V45.3797ZM18.25 36.4375C10.7325 36.4375 6.51906 34.1641 6.125 33.4062V28.2834C10.0027 29.7237 14.1138 30.4329 18.25 30.375C22.3895 30.4407 26.5039 29.7207 30.375 28.2531L30.4053 33.2547C29.9506 34.1641 25.7675 36.4375 18.25 36.4375Z" fill="black"/>
<path d="M42.5 27.3438H48.5625V33.4062H42.5V27.3438Z" fill="black"/>
<path d="M42.5 15.2188H48.5625V21.2812H42.5V15.2188Z" fill="black"/>
<path d="M72.8125 48.5625H78.875V30.375C78.875 29.5711 78.5556 28.8001 77.9872 28.2316C77.4187 27.6631 76.6477 27.3438 75.8437 27.3438H54.625V33.4062H72.8125V48.5625Z" fill="black"/>
<path d="M166.781 18.25V54.625H160.719V21.2812H54.625V15.2188H163.75C164.554 15.2188 165.325 15.5381 165.893 16.1066C166.462 16.6751 166.781 17.4461 166.781 18.25Z" fill="black"/>
</svg>
