<svg width="206" height="206" viewBox="0 0 206 206" fill="none" xmlns="http://www.w3.org/2000/svg">
<g clip-path="url(#clip0)">
<path d="M102.998 202.956C158.201 202.956 202.952 158.205 202.952 103.003C202.952 47.8003 158.201 3.0498 102.998 3.0498C47.7959 3.0498 3.04541 47.8003 3.04541 103.003C3.04541 158.205 47.7959 202.956 102.998 202.956Z" fill="#FFE4CC"/>
<path d="M173.676 32.3253C164.363 23.0122 153.668 15.9274 142.253 11.0586C157.792 47.4884 150.707 91.2674 120.986 120.988C91.2655 150.709 47.486 157.794 11.0566 142.255C15.9258 153.67 23.0111 164.365 32.3233 173.677C71.3571 212.711 134.643 212.711 173.676 173.677C212.708 134.644 212.709 71.3583 173.676 32.3253Z" fill="#FFE0B2"/>
<path d="M102.999 176.141C143.391 176.141 176.136 143.396 176.136 103.003C176.136 62.6109 143.391 29.8662 102.999 29.8662C62.606 29.8662 29.8613 62.6109 29.8613 103.003C29.8613 143.396 62.606 176.141 102.999 176.141Z" fill="#FFF0E3"/>
<path d="M154.714 51.2867C153.255 49.827 151.746 48.4462 150.199 47.1357C151.043 73.7633 141.309 100.663 120.985 120.988C100.661 141.312 73.763 151.046 47.1367 150.202C48.4468 151.749 49.8268 153.257 51.2861 154.716C79.8473 183.277 126.153 183.277 154.715 154.716C183.276 126.154 183.275 79.8479 154.714 51.2867Z" fill="#FFE8DE"/>
<path d="M63.0544 143.74C87.4615 143.74 107.247 123.954 107.247 99.5466C107.247 75.1394 87.4615 55.3535 63.0544 55.3535C38.6472 55.3535 18.8613 75.1394 18.8613 99.5466C18.8613 123.954 38.6472 143.74 63.0544 143.74Z" fill="#FF5331"/>
<path d="M57.2932 109.887C54.5497 107.444 52.756 103.416 52.756 98.8567C52.756 94.2969 54.5497 90.2691 57.2932 87.8268V66.3525C41.9623 69.2369 30.3604 82.6877 30.3604 98.8571C30.3604 115.026 41.9623 128.477 57.2932 131.361V109.887Z" fill="#F27321"/>
<path d="M77.8843 84.1328C79.6619 84.1328 81.103 82.6917 81.103 80.9141C81.103 79.1364 79.6619 77.6953 77.8843 77.6953C76.1066 77.6953 74.6655 79.1364 74.6655 80.9141C74.6655 82.6917 76.1066 84.1328 77.8843 84.1328Z" fill="black"/>
<path d="M84.3257 95.0039C86.1034 95.0039 87.5444 93.5628 87.5444 91.7852C87.5444 90.0075 86.1034 88.5664 84.3257 88.5664C82.548 88.5664 81.1069 90.0075 81.1069 91.7852C81.1069 93.5628 82.548 95.0039 84.3257 95.0039Z" fill="black"/>
<path d="M84.3257 107.884C86.1034 107.884 87.5444 106.443 87.5444 104.665C87.5444 102.887 86.1034 101.446 84.3257 101.446C82.548 101.446 81.1069 102.887 81.1069 104.665C81.1069 106.443 82.548 107.884 84.3257 107.884Z" fill="black"/>
<path d="M77.8843 118.188C79.6619 118.188 81.103 116.746 81.103 114.969C81.103 113.191 79.6619 111.75 77.8843 111.75C76.1066 111.75 74.6655 113.191 74.6655 114.969C74.6655 116.746 76.1066 118.188 77.8843 118.188Z" fill="black"/>
<path d="M47.0449 117.455C48.8226 117.455 50.2637 116.014 50.2637 114.236C50.2637 112.459 48.8226 111.018 47.0449 111.018C45.2673 111.018 43.8262 112.459 43.8262 114.236C43.8262 116.014 45.2673 117.455 47.0449 117.455Z" fill="#E3B361"/>
<path d="M107.19 99.4279C107.19 84.1179 99.4034 70.6269 87.5761 62.6963L29.1904 127.892C37.2977 137.51 49.4315 143.622 62.9953 143.622C87.4031 143.623 107.19 123.836 107.19 99.4279Z" fill="#EF4B30"/>
<path d="M57.2933 131.361V109.886C55.1002 107.934 53.5169 104.966 52.9689 101.525L37.2578 119.069C42.1153 125.349 49.1817 129.835 57.2933 131.361Z" fill="#F27321"/>
<path d="M63.0551 55.3525C57.8488 55.3525 52.8541 56.2554 48.2159 57.909C46.5425 62.5726 45.6284 67.5979 45.6284 72.8368C45.6284 97.2446 65.4149 117.031 89.8227 117.031C95.029 117.031 100.024 116.128 104.662 114.475C106.335 109.811 107.249 104.786 107.249 99.5468C107.25 75.139 87.4629 55.3525 63.0551 55.3525Z" fill="#EF4B30"/>
<path d="M52.8532 97.0566C53.2564 93.2476 54.9176 89.9419 57.2935 87.8268V66.3525C53.0826 67.1448 49.1553 68.7384 45.6702 70.9626C45.644 71.5846 45.6279 72.2087 45.6279 72.8371C45.6279 81.7796 48.287 90.1005 52.8532 97.0566Z" fill="#F27321"/>
<path d="M96.5285 110.322C120.936 110.322 140.722 90.5357 140.722 66.1286C140.722 41.7214 120.936 21.9355 96.5285 21.9355C72.1214 21.9355 52.3354 41.7214 52.3354 66.1286C52.3354 90.5357 72.1214 110.322 96.5285 110.322Z" fill="#FF5331"/>
<path d="M90.7678 76.4695C88.0243 74.0273 86.2306 69.999 86.2306 65.4397C86.2306 60.8799 88.0243 56.8521 90.7678 54.4098V32.9355C75.4369 35.8199 63.835 49.2707 63.835 65.4401C63.835 81.6087 75.4369 95.0602 90.7678 97.9442V76.4695Z" fill="#F27321"/>
<path d="M101.77 32.7129V53.4191C105.234 55.6509 107.608 60.1942 107.608 65.4399C107.608 70.6857 105.234 75.229 101.77 77.4608V98.167C117.741 95.8197 130.004 82.064 130.004 65.4399C130.003 48.8167 117.741 35.0606 101.77 32.7129Z" fill="#F27321"/>
<path d="M111.359 50.7148C113.137 50.7148 114.578 49.2738 114.578 47.4961C114.578 45.7184 113.137 44.2773 111.359 44.2773C109.581 44.2773 108.14 45.7184 108.14 47.4961C108.14 49.2738 109.581 50.7148 111.359 50.7148Z" fill="#E3B361"/>
<path d="M117.8 61.5908C119.578 61.5908 121.019 60.1497 121.019 58.3721C121.019 56.5944 119.578 55.1533 117.8 55.1533C116.023 55.1533 114.582 56.5944 114.582 58.3721C114.582 60.1497 116.023 61.5908 117.8 61.5908Z" fill="black"/>
<path d="M117.8 74.4648C119.578 74.4648 121.019 73.0238 121.019 71.2461C121.019 69.4684 119.578 68.0273 117.8 68.0273C116.023 68.0273 114.582 69.4684 114.582 71.2461C114.582 73.0238 116.023 74.4648 117.8 74.4648Z" fill="black"/>
<path d="M111.359 84.7686C113.137 84.7686 114.578 83.3275 114.578 81.5498C114.578 79.7721 113.137 78.3311 111.359 78.3311C109.581 78.3311 108.14 79.7721 108.14 81.5498C108.14 83.3275 109.581 84.7686 111.359 84.7686Z" fill="black"/>
<path d="M80.52 84.0361C82.2977 84.0361 83.7388 82.595 83.7388 80.8174C83.7388 79.0397 82.2977 77.5986 80.52 77.5986C78.7424 77.5986 77.3013 79.0397 77.3013 80.8174C77.3013 82.595 78.7424 84.0361 80.52 84.0361Z" fill="black"/>
<path d="M164.587 156.763C135.049 189.747 84.3642 192.54 51.38 163.001L33.8568 147.308C31.1727 144.905 30.9454 140.78 33.349 138.096L131.613 28.3699C134.017 25.6859 138.142 25.4586 140.826 27.8622L158.349 43.5548C191.333 73.0937 194.126 123.778 164.587 156.763Z" fill="#FFB531"/>
<path d="M118.837 27.9736L61.0571 92.4927C69.1129 103.314 82.0019 110.323 96.529 110.323C120.937 110.323 140.723 90.5369 140.723 66.1291C140.723 49.8591 131.93 35.6447 118.837 27.9736Z" fill="#EF4B30"/>
<path d="M130.004 65.4395C130.004 52.5062 122.581 41.3118 111.764 35.8721L101.771 47.0319V53.4191C105.235 55.6509 107.608 60.1942 107.608 65.4399C107.608 70.6857 105.234 75.2289 101.771 77.4607V98.167C117.742 95.8189 130.004 82.0631 130.004 65.4395Z" fill="#F27321"/>
<path d="M69.1641 83.4415C73.9974 90.8736 81.7337 96.2449 90.7679 97.9444V76.4697C88.0243 74.0275 86.2307 69.9992 86.2307 65.4398C86.2307 65.0689 86.2468 64.7032 86.2701 64.3398L69.1641 83.4415Z" fill="#D31E1A"/>
<path d="M152.021 144.279L150.093 146.431C121.087 178.821 71.3151 181.564 38.9252 152.558C36.559 150.438 36.3587 146.802 38.4778 144.436L137.773 33.558C139.893 31.1918 143.529 30.9915 145.895 33.1106C178.285 62.1172 181.027 111.889 152.021 144.279Z" fill="#EFBB60"/>
<path d="M146.256 138.515L144.329 140.667C115.322 173.057 65.5508 175.8 33.1606 146.794C30.7944 144.674 30.594 141.038 32.7132 138.672L132.009 27.7943C134.128 25.4282 137.764 25.2278 140.13 27.3469C172.52 56.3535 175.263 106.125 146.256 138.515Z" fill="#FFB531"/>
<path d="M133.365 87.7566H126.343C125.477 87.7566 124.775 87.0545 124.775 86.1883V79.167C124.775 78.3007 125.477 77.5986 126.343 77.5986H133.365C134.231 77.5986 134.933 78.3007 134.933 79.167V86.1883C134.933 87.0541 134.231 87.7566 133.365 87.7566Z" fill="#F8ACCC"/>
<path d="M96.6025 106.96L93.0917 100.88C92.6588 100.13 92.9155 99.1707 93.6658 98.7378L99.7465 95.2269C100.496 94.794 101.456 95.0507 101.889 95.8011L105.399 101.882C105.832 102.632 105.576 103.591 104.825 104.024L98.7446 107.535C97.9947 107.968 97.0355 107.71 96.6025 106.96Z" fill="#F8ACCC"/>
<path d="M115.892 171.604L116.427 164.603C116.493 163.74 117.246 163.093 118.11 163.159L125.111 163.694C125.974 163.76 126.621 164.513 126.555 165.377L126.02 172.378C125.954 173.241 125.201 173.888 124.337 173.822L117.336 173.287C116.472 173.221 115.826 172.468 115.892 171.604Z" fill="#F8ACCC"/>
<path d="M126.358 164.492C126.11 164.05 125.654 163.736 125.11 163.695L118.109 163.16C117.246 163.094 116.492 163.74 116.426 164.604L116.114 168.687C119.607 167.538 123.03 166.137 126.358 164.492Z" fill="#EFA8C9"/>
<path d="M150.441 139.907L150.976 132.906C151.042 132.043 151.795 131.396 152.659 131.462L159.66 131.996C160.523 132.062 161.17 132.816 161.104 133.679L160.57 140.681C160.504 141.544 159.75 142.191 158.887 142.125L151.886 141.59C151.022 141.525 150.375 140.771 150.441 139.907Z" fill="#F8ACCC"/>
<path d="M160.727 132.536C160.466 132.233 160.09 132.029 159.66 131.996L152.658 131.462C151.795 131.396 151.041 132.042 150.975 132.906L150.441 139.907C150.375 140.771 151.021 141.524 151.885 141.59L154.172 141.765C156.607 138.809 158.792 135.724 160.727 132.536Z" fill="#EFA8C9"/>
<path d="M164.962 104.495L165.496 97.4939C165.562 96.6305 166.316 95.9839 167.179 96.0495L174.181 96.5842C175.044 96.6502 175.691 97.4038 175.625 98.2672L175.09 105.268C175.024 106.132 174.271 106.778 173.407 106.713L166.406 106.178C165.542 106.112 164.896 105.359 164.962 104.495Z" fill="#F8ACCC"/>
<path d="M167.179 96.0496C166.316 95.9836 165.562 96.6301 165.496 97.494L164.962 104.495C164.896 105.359 165.542 106.112 166.406 106.178L170.717 106.507C171.35 103.166 171.764 99.7946 171.962 96.4149L167.179 96.0496Z" fill="#EFA8C9"/>
<path d="M101.918 141.296L102.453 134.295C102.519 133.431 103.272 132.785 104.136 132.85L111.137 133.385C112.001 133.451 112.648 134.205 112.582 135.068L112.047 142.069C111.981 142.933 111.227 143.579 110.364 143.514L103.363 142.979C102.499 142.913 101.852 142.159 101.918 141.296Z" fill="#F8ACCC"/>
<path d="M128.996 109.714L134.423 105.259C135.093 104.709 136.081 104.806 136.631 105.475L141.086 110.902C141.636 111.572 141.539 112.56 140.869 113.11L135.442 117.565C134.773 118.115 133.785 118.018 133.235 117.348L128.78 111.921C128.23 111.252 128.327 110.264 128.996 109.714Z" fill="#F8ACCC"/>
<path d="M108.658 77.1111C107.678 74.6451 105.839 72.777 103.621 71.712C105.025 69.1499 105.319 66.0044 104.155 63.0777L102.023 57.7125C101.887 57.3697 101.498 57.2023 101.155 57.3383L94.4834 59.9901C91.566 61.1497 89.4851 63.5106 88.581 66.2788C86.5524 65.742 84.3403 65.8257 82.2405 66.6606L75.5684 69.3124C75.2256 69.4488 75.0583 69.8371 75.1942 70.1799L77.3267 75.5452C79.3979 80.7563 85.3015 83.3015 90.5127 81.2303L90.9021 81.0754C93.2249 85.7643 98.7953 87.9627 103.744 85.9956L111.037 83.0967L108.658 77.1111Z" fill="#F98500"/>
<path d="M96.9231 69.7607L87.1929 70.1031C83.1839 70.2444 79.5902 71.9121 76.9464 74.5261C76.9323 74.5104 76.9174 74.4959 76.9033 74.4802L77.3266 75.5448C79.3978 80.756 85.3014 83.3012 90.5126 81.23L90.9021 81.0751C92.1417 83.5772 94.3063 85.3697 96.8077 86.1989C97.2052 84.7424 97.3963 83.2035 97.3404 81.615L96.9231 69.7607Z" fill="#F27321"/>
<path d="M83.8042 76.1887C79.7956 76.3299 76.2015 77.9976 73.5577 80.6116C70.6246 77.3104 66.297 75.2935 61.5389 75.4608L52.8177 75.7678C52.2604 75.7875 51.8247 76.2551 51.8444 76.8123L52.2262 87.6579C52.3932 92.4003 54.6954 96.563 58.1757 99.2575C56.38 101.872 55.3746 105.063 55.4945 108.476L55.8763 119.322C55.896 119.879 56.3635 120.315 56.9208 120.296L65.642 119.989C74.1129 119.69 80.7379 112.582 80.4394 104.111L80.4172 103.478C88.2726 102.557 94.2349 95.7454 93.9517 87.7017L93.5344 75.8471L83.8042 76.1887Z" fill="#F98500"/>
<path d="M175.831 30.1707C163.085 17.4236 147.198 8.22083 129.891 3.55767C128.268 3.11992 126.594 4.08192 126.156 5.70739C125.718 7.33246 126.68 9.0046 128.305 9.44275C144.585 13.8291 159.529 22.4871 171.522 34.4802C189.825 52.7828 199.904 77.1178 199.904 103.002C199.904 128.886 189.825 153.22 171.522 171.523C153.219 189.826 128.884 199.906 103 199.906C77.1164 199.906 52.7814 189.826 34.4788 171.523C16.1762 153.221 6.09625 128.885 6.09625 103.002C6.09625 77.1182 16.1762 52.7828 34.4792 34.4798C54.8812 14.0777 83.0815 3.87753 111.844 6.4992C113.516 6.65008 115.003 5.4169 115.155 3.74073C115.308 2.06457 114.073 0.582336 112.397 0.429446C81.8238 -2.35357 51.8552 8.48517 30.1693 30.1707C10.7156 49.6244 0.00195312 75.4895 0.00195312 103.001C0.00195312 130.513 10.7156 156.378 30.1693 175.832C49.6238 195.286 75.4889 206 103.001 206C130.513 206 156.378 195.286 175.832 175.832C195.286 156.379 206 130.514 206 103.001C206 75.4891 195.286 49.6244 175.831 30.1707Z" fill="black"/>
<path d="M42.7925 101.446C44.5701 101.446 46.0112 100.005 46.0112 98.2275C46.0112 96.4499 44.5701 95.0088 42.7925 95.0088C41.0148 95.0088 39.5737 96.4499 39.5737 98.2275C39.5737 100.005 41.0148 101.446 42.7925 101.446Z" fill="black"/>
<path d="M80.4834 53.3301C82.2611 53.3301 83.7021 51.889 83.7021 50.1113C83.7021 48.3337 82.2611 46.8926 80.4834 46.8926C78.7057 46.8926 77.2646 48.3337 77.2646 50.1113C77.2646 51.889 78.7057 53.3301 80.4834 53.3301Z" fill="black"/>
<path d="M117.76 61.5908C119.537 61.5908 120.979 60.1497 120.979 58.3721C120.979 56.5944 119.537 55.1533 117.76 55.1533C115.982 55.1533 114.541 56.5944 114.541 58.3721C114.541 60.1497 115.982 61.5908 117.76 61.5908Z" fill="black"/>
<path d="M117.76 74.4648C119.537 74.4648 120.979 73.0238 120.979 71.2461C120.979 69.4684 119.537 68.0273 117.76 68.0273C115.982 68.0273 114.541 69.4684 114.541 71.2461C114.541 73.0238 115.982 74.4648 117.76 74.4648Z" fill="black"/>
<path d="M31.0896 149.063C31.9852 149.865 32.897 150.644 33.8211 151.402L49.3086 165.272C64.7002 179.056 84.2211 186.502 104.721 186.5C106.276 186.5 107.84 186.457 109.405 186.371C131.6 185.148 151.99 175.355 166.819 158.796C181.649 142.237 189.142 120.895 187.918 98.6998C186.696 76.5049 176.902 56.1145 160.344 41.2857L142.821 25.5931C142.456 25.2664 142.071 24.9715 141.669 24.7079C139.991 23.3915 137.922 22.7268 135.771 22.8467C133.425 22.9759 131.269 24.0115 129.7 25.7625L126.34 29.5147C117.924 22.6431 107.441 18.8896 96.491 18.8896C74.6743 18.8896 56.2671 33.7566 50.8612 53.8907C38.743 57.1123 28.3042 65.1085 22.0152 76.0675C21.1775 77.5272 21.682 79.3897 23.1417 80.2274C23.6197 80.5018 24.1407 80.6321 24.6553 80.6321C25.7111 80.6321 26.7383 80.0825 27.3012 79.1008C32.2798 70.4246 40.2409 63.8813 49.5689 60.6529C49.3794 62.2852 49.274 63.9425 49.2558 65.6203C36.0264 71.2547 27.2754 84.3486 27.2754 98.8583C27.2754 109.378 31.8927 119.352 39.7746 126.178L35.9041 130.5C26.9543 122.674 21.8695 111.535 21.8695 99.5479C21.8695 96.3577 22.2352 93.1816 22.9571 90.1077C23.3417 88.4694 22.3254 86.8294 20.6866 86.4444C19.0507 86.0589 17.4083 87.076 17.0233 88.7144C16.1949 92.2441 15.7744 95.8886 15.7744 99.5475C15.7744 113.289 21.5931 126.059 31.8372 135.039L30.404 136.64C27.1684 140.253 27.4758 145.827 31.0896 149.063ZM61.609 78.5065C65.2888 78.3798 68.7957 79.8825 71.2427 82.6362C71.7984 83.2614 72.5862 83.6308 73.4222 83.6577C74.2724 83.6831 75.0694 83.3668 75.6637 82.7786C76.6772 81.776 77.8432 80.9644 79.1291 80.3662C80.6185 79.6737 82.215 79.2923 83.8739 79.234L90.5589 78.9986L90.7604 84.73C90.7608 84.7461 90.7612 84.7626 90.762 84.7787L90.8687 87.8079C91.0919 94.1581 86.329 99.7113 80.0247 100.451C78.4491 100.636 77.2791 101.999 77.3346 103.585L77.3567 104.218C77.5953 110.996 72.2747 116.705 65.4969 116.943L58.8123 117.178L58.6916 113.75C58.8087 113.236 58.7878 112.7 58.6369 112.196L58.5021 108.369C58.4092 105.718 59.1515 103.164 60.6494 100.983C61.5644 99.6513 61.2807 97.8371 60.0033 96.8482C57.1012 94.6007 55.3622 91.2121 55.2339 87.5508L54.9241 78.7415L61.609 78.5065ZM66.8443 65.44C66.8443 52.2641 75.4134 40.7739 87.6825 36.8438V53.1396C85.2861 55.7443 83.7262 59.3172 83.2808 63.1688C82.5353 63.3241 81.7982 63.5426 81.0768 63.829L79.4694 64.4679C79.2985 62.8505 77.9313 61.5904 76.2688 61.5904C74.4909 61.5904 73.0497 63.0316 73.0497 64.8095C73.0497 65.5696 73.3148 66.2668 73.755 66.8176C72.3005 67.7611 71.6608 69.6332 72.3246 71.3062L74.2426 76.1311C74.0438 76.2615 73.8463 76.3934 73.6528 76.531C71.9323 75.1285 69.9854 74.0578 67.9045 73.3589C67.204 70.79 66.8443 68.1345 66.8443 65.44ZM104.78 51.8935V36.4536C108.629 37.4956 112.213 39.2945 115.367 41.7665L112.796 44.6372C112.355 44.4091 111.854 44.2779 111.323 44.2779C109.545 44.2779 108.103 45.7191 108.103 47.4971C108.103 48.1553 108.302 48.7669 108.641 49.2771L105.613 52.6592C105.343 52.392 105.066 52.1353 104.78 51.8935ZM100.032 61.0496L101.286 64.2036C102.071 66.1783 101.934 68.382 100.912 70.2484C100.51 70.9819 100.427 71.8481 100.683 72.6448C100.938 73.441 101.51 74.0972 102.264 74.4594C103.876 75.2343 105.128 76.5761 105.788 78.2378L107.042 81.3921L102.58 83.1653C100.669 83.9249 98.5868 83.8235 96.7944 82.9263L96.5417 75.7404C96.5135 74.9329 96.1651 74.1693 95.5741 73.6185C94.983 73.0672 94.1928 72.7731 93.3893 72.8021L83.659 73.1445C83.659 73.1445 83.659 73.1445 83.6586 73.1445C82.3538 73.1904 81.0744 73.3742 79.8287 73.6861L78.8667 71.2664L83.3279 69.4932C84.7518 68.9271 86.2852 68.8346 87.763 69.2257C89.3228 69.6381 90.9379 68.7618 91.4392 67.226C92.0982 65.2099 93.6042 63.6049 95.5708 62.8232L100.032 61.0496ZM181.834 99.0345C182.968 119.604 176.023 139.384 162.279 154.73C148.536 170.076 129.64 179.152 109.07 180.285C91.1085 181.274 73.7413 176.101 59.407 165.618C67.7838 168.456 76.6088 169.927 85.5662 169.927C89.6962 169.927 93.8573 169.615 98.0111 168.982C99.6748 168.728 100.818 167.173 100.564 165.51C100.311 163.846 98.7542 162.703 97.0929 162.956C75.7437 166.212 54.2912 160.293 37.7025 146.696L35.8514 145.038C34.4234 143.759 34.3019 141.557 35.5806 140.129L46.2745 128.188C46.4652 128.026 46.6394 127.838 46.7907 127.625C46.8011 127.61 46.8092 127.594 46.8197 127.579L53.027 120.648C53.2419 121.253 53.5987 121.803 54.0824 122.254C54.8392 122.959 55.8153 123.343 56.8445 123.343C56.8931 123.343 56.9422 123.342 56.9909 123.341L65.7121 123.034C70.2803 122.873 74.4023 121.048 77.5237 118.167C78.8136 118.298 80.1088 117.64 80.726 116.412C81.1211 115.626 81.1625 114.756 80.9127 113.98C82.0392 112.074 82.8306 109.951 83.2088 107.695C84.7176 108.235 86.4268 107.579 87.1647 106.111C87.4552 105.532 87.5529 104.909 87.4861 104.31C88.5129 103.736 89.4777 103.066 90.3701 102.314C90.3866 102.343 90.3995 102.374 90.4164 102.404L93.9269 108.484C93.9269 108.484 93.9269 108.485 93.9273 108.485C94.7814 109.964 96.3357 110.791 97.9322 110.791C98.7148 110.791 99.507 110.592 100.232 110.173L106.313 106.663C108.516 105.39 109.274 102.562 108.002 100.358L104.492 94.278C103.875 93.2098 102.88 92.4461 101.689 92.1267C100.497 91.808 99.2543 91.971 98.1865 92.5878L96.0995 93.7928C96.5522 92.3854 96.835 90.9096 96.932 89.3927C97.9318 89.6273 98.9562 89.7508 99.9833 89.7508C101.626 89.7508 103.274 89.4471 104.834 88.827L112.127 85.9282C113.261 85.4771 113.972 84.4202 114.04 83.2771C114.098 83.1866 114.152 83.092 114.201 82.9943C114.999 81.4058 114.359 79.4705 112.77 78.6723C112.671 78.6224 112.571 78.5785 112.469 78.5395L111.454 75.9846C110.588 73.8064 109.174 71.9234 107.366 70.4983C108.177 67.7076 108.047 64.7098 106.951 61.9513L106.534 60.9012L133.847 30.4019C134.467 29.7103 135.319 29.3007 136.246 29.25C136.92 29.211 137.574 29.3691 138.147 29.695C153.153 43.1743 162.028 61.6837 163.138 81.8287C163.412 86.8161 163.202 91.7557 162.527 96.5943C162.478 96.8116 162.438 97.0328 162.421 97.2614L162.413 97.3628C160.678 108.944 156.273 119.924 149.46 129.562C148.951 130.008 148.543 130.566 148.269 131.199C146.914 133.011 145.477 134.776 143.949 136.481L142.022 138.634C133.423 148.236 122.479 155.516 110.371 159.687C108.78 160.236 107.934 161.97 108.483 163.561C108.918 164.824 110.099 165.616 111.364 165.616C111.693 165.616 112.028 165.562 112.357 165.449C112.783 165.303 113.204 165.142 113.627 164.988L113.14 171.373V171.373C112.946 173.911 114.853 176.133 117.39 176.326L124.391 176.861C124.511 176.87 124.631 176.875 124.75 176.875C125.851 176.875 126.904 176.486 127.749 175.762C128.684 174.959 129.251 173.839 129.345 172.611L129.587 169.439C130.145 170.058 130.95 170.449 131.849 170.449C133.532 170.449 134.896 169.085 134.896 167.402C134.896 165.719 133.532 164.354 131.849 164.354C131.101 164.354 130.417 164.625 129.887 165.072C129.795 162.765 127.984 160.836 125.629 160.657L123.738 160.512C132.297 155.998 140.054 149.967 146.561 142.7L147.607 141.534C148.191 143.218 149.728 144.486 151.616 144.63L158.616 145.165C158.737 145.174 158.857 145.179 158.976 145.179C160.077 145.179 161.13 144.79 161.974 144.066C162.91 143.263 163.477 142.144 163.571 140.914L164.104 133.914C164.199 132.685 163.809 131.492 163.006 130.556C162.203 129.621 161.083 129.053 159.855 128.96L157.277 128.763C161.085 122.564 163.979 115.979 165.975 109.197C166.029 109.203 166.081 109.214 166.136 109.218L173.136 109.752C173.257 109.761 173.376 109.766 173.496 109.766C174.596 109.766 175.649 109.378 176.494 108.653C177.429 107.85 177.997 106.731 178.09 105.502L178.625 98.5006C178.718 97.2714 178.328 96.0793 177.525 95.1438C176.722 94.208 175.603 93.6411 174.374 93.5473L169 93.137C170.245 78.7371 167.688 64.1075 161.418 50.878C173.642 64.0318 180.833 80.8808 181.834 99.0345ZM98.4637 104.156L96.4327 100.637L99.9516 98.606L101.983 102.125L98.4637 104.156ZM168.384 99.2007L172.435 99.5101L172.126 103.561L168.074 103.252L168.384 99.2007ZM153.864 134.614L157.915 134.923L157.605 138.974L153.554 138.665L153.864 134.614ZM123.689 166.621L123.379 170.672L119.328 170.362L119.637 166.311L123.689 166.621ZM96.4914 24.9831C105.933 24.9831 114.971 28.1951 122.264 34.0661L119.438 37.2208C114.449 33.2203 108.541 30.6341 102.176 29.6982C101.297 29.5699 100.41 29.8282 99.7407 30.4071C99.0704 30.9861 98.6854 31.8278 98.6854 32.7134V53.4196C98.6854 53.9378 98.8169 54.4379 99.0575 54.8789L93.3201 57.1594C92.6941 57.408 92.0982 57.709 91.5261 58.0433C91.8979 57.5436 92.3078 57.0866 92.7568 56.687C93.4062 56.1089 93.7776 55.2804 93.7776 54.411V32.9355C93.7776 32.0286 93.3736 31.1688 92.6756 30.5898C91.9771 30.0108 91.0586 29.7726 90.1666 29.9408C73.1217 33.1475 60.75 48.0769 60.75 65.44C60.75 67.7961 60.9793 70.1285 61.4272 72.4154C61.4163 72.4158 61.4058 72.4154 61.395 72.4158L55.8551 72.611C55.5179 70.4757 55.3449 68.3055 55.3449 66.13C55.3449 63.1704 55.6616 60.2836 56.2582 57.4994C56.3661 57.2213 56.4333 56.9264 56.4558 56.6222C60.7576 38.5027 77.0747 24.9831 96.4914 24.9831ZM33.3701 98.8571C33.3701 87.5444 39.7698 77.2669 49.6369 72.1688C49.7133 72.7687 49.7986 73.367 49.8976 73.9629C49.8815 73.9798 49.8638 73.9942 49.8477 74.0115C49.1086 74.8046 48.7227 75.8378 48.7614 76.9201L48.9026 80.9294C48.3707 80.5408 47.7173 80.309 47.008 80.309C45.23 80.309 43.7888 81.7502 43.7888 83.5282C43.7888 85.3061 45.23 86.7473 47.008 86.7473C47.7978 86.7473 48.5204 86.4617 49.0804 85.9897L49.1428 87.7657C49.3029 92.3347 51.1384 96.6184 54.2618 99.8637C52.9389 102.559 52.3032 105.529 52.4106 108.585L52.5285 111.935L50.2122 114.522C50.2203 114.428 50.2267 114.333 50.2267 114.237C50.2267 112.459 48.7855 111.018 47.0076 111.018C45.2296 111.018 43.7884 112.459 43.7884 114.237C43.7884 116.015 45.2296 117.456 47.0076 117.456C47.224 117.456 47.4356 117.434 47.6404 117.393L43.8391 121.638C37.239 115.959 33.3701 107.636 33.3701 98.8571Z" fill="black"/>
<path d="M126.305 90.804H133.326C135.871 90.804 137.942 88.7336 137.942 86.1887V79.1674C137.942 76.6226 135.871 74.5518 133.326 74.5518H126.305C123.76 74.5518 121.689 76.6222 121.689 79.1674V86.1887C121.689 88.7336 123.76 90.804 126.305 90.804ZM127.784 80.6465H131.847V84.7097H127.784V80.6465Z" fill="black"/>
<path d="M110.448 146.566C112.834 146.566 114.861 144.72 115.047 142.301L115.582 135.3C115.775 132.763 113.868 130.541 111.331 130.347L104.33 129.813C101.792 129.617 99.5715 131.525 99.376 134.063L98.8416 141.065C98.6481 143.602 100.555 145.823 103.092 146.018L110.094 146.552C110.212 146.561 110.331 146.566 110.448 146.566ZM109.083 140.362L105.031 140.053L105.341 136.002L109.392 136.311L109.083 140.362Z" fill="black"/>
<path d="M132.452 102.903L127.025 107.358C125.058 108.973 124.771 111.887 126.386 113.854L130.842 119.281C131.624 120.234 132.731 120.825 133.958 120.945C134.112 120.96 134.265 120.968 134.417 120.968C135.482 120.968 136.504 120.603 137.338 119.919L142.765 115.464C144.731 113.848 145.018 110.935 143.403 108.968L138.947 103.542C138.165 102.589 137.059 101.997 135.832 101.877C134.605 101.754 133.404 102.121 132.452 102.903ZM130.892 112.069L130.895 112.067C130.894 112.067 130.893 112.068 130.892 112.069ZM134.614 114.271L132.036 111.13L135.176 108.552L137.754 111.692L134.614 114.271Z" fill="black"/>
<path d="M79.3008 126.936C80.9838 126.936 82.3481 125.571 82.3481 123.888C82.3481 122.205 80.9838 120.841 79.3008 120.841C77.6178 120.841 76.2534 122.205 76.2534 123.888C76.2534 125.571 77.6178 126.936 79.3008 126.936Z" fill="black"/>
<path d="M114.368 120.503C116.051 120.503 117.416 119.139 117.416 117.456C117.416 115.773 116.051 114.408 114.368 114.408C112.685 114.408 111.321 115.773 111.321 117.456C111.321 119.139 112.685 120.503 114.368 120.503Z" fill="black"/>
<path d="M144.701 165.777C146.384 165.777 147.748 164.413 147.748 162.73C147.748 161.047 146.384 159.683 144.701 159.683C143.018 159.683 141.653 161.047 141.653 162.73C141.653 164.413 143.018 165.777 144.701 165.777Z" fill="black"/>
<path d="M156.537 155.389C158.22 155.389 159.584 154.024 159.584 152.341C159.584 150.658 158.22 149.294 156.537 149.294C154.854 149.294 153.49 150.658 153.49 152.341C153.49 154.024 154.854 155.389 156.537 155.389Z" fill="black"/>
<path d="M97.5146 176.544C99.1976 176.544 100.562 175.18 100.562 173.497C100.562 171.814 99.1976 170.449 97.5146 170.449C95.8316 170.449 94.4673 171.814 94.4673 173.497C94.4673 175.18 95.8316 176.544 97.5146 176.544Z" fill="black"/>
<path d="M144.701 155.389C146.384 155.389 147.748 154.024 147.748 152.341C147.748 150.658 146.384 149.294 144.701 149.294C143.018 149.294 141.653 150.658 141.653 152.341C141.653 154.024 143.018 155.389 144.701 155.389Z" fill="black"/>
<path d="M169.215 118.016C170.898 118.016 172.262 116.651 172.262 114.968C172.262 113.285 170.898 111.921 169.215 111.921C167.532 111.921 166.167 113.285 166.167 114.968C166.167 116.651 167.532 118.016 169.215 118.016Z" fill="black"/>
<path d="M175.311 88.5683C176.994 88.5683 178.358 87.204 178.358 85.521C178.358 83.838 176.994 82.4736 175.311 82.4736C173.628 82.4736 172.263 83.838 172.263 85.521C172.263 87.204 173.628 88.5683 175.311 88.5683Z" fill="black"/>
<path d="M169.215 133.026C170.898 133.026 172.262 131.662 172.262 129.979C172.262 128.296 170.898 126.932 169.215 126.932C167.532 126.932 166.167 128.296 166.167 129.979C166.167 131.662 167.532 133.026 169.215 133.026Z" fill="black"/>
<path d="M149.718 97.8828C151.401 97.8828 152.765 96.5184 152.765 94.8354C152.765 93.1524 151.401 91.7881 149.718 91.7881C148.035 91.7881 146.67 93.1524 146.67 94.8354C146.67 96.5184 148.035 97.8828 149.718 97.8828Z" fill="black"/>
<path d="M129.814 69.4014C131.497 69.4014 132.862 68.037 132.862 66.354C132.862 64.671 131.497 63.3066 129.814 63.3066C128.131 63.3066 126.767 64.671 126.767 66.354C126.767 68.037 128.131 69.4014 129.814 69.4014Z" fill="black"/>
</g>
<defs>
<clipPath id="clip0">
<rect width="206" height="206" fill="white"/>
</clipPath>
</defs>
</svg>
