<svg width="217" height="217" viewBox="0 0 217 217" fill="none" xmlns="http://www.w3.org/2000/svg">
<path fill-rule="evenodd" clip-rule="evenodd" d="M174.032 136V101.087C174.032 99.7442 172.932 98.6436 171.589 98.6436H144.477C143.134 98.6436 142.034 99.7442 142.034 101.087V136H174.032Z" fill="#FFB531"/>
<path fill-rule="evenodd" clip-rule="evenodd" d="M174.032 136V101.087C174.032 99.7442 172.931 98.6436 171.589 98.6436H162.592C163.946 98.6436 165.047 99.7442 165.047 101.087V136H174.032Z" fill="#F27321"/>
<path fill-rule="evenodd" clip-rule="evenodd" d="M202.451 73.5986C202.451 52.4352 181.349 3.17871 107.895 3.17871C34.4422 3.17871 13.3398 52.4352 13.3398 73.5986V78.4845H29.0969L44.854 70.8293L60.6234 80.8185L76.3805 70.8293L92.1376 80.8185L107.895 70.8293L123.652 80.8185L139.409 70.8293L155.166 80.8185L170.923 70.8293L186.692 78.4845H202.449V73.5986H202.451Z" fill="#FFB531"/>
<path d="M80.481 44.5244C78.725 44.5244 77.3022 43.1016 77.3022 41.3457V38.0322C77.3022 36.2763 78.725 34.8535 80.481 34.8535C82.2369 34.8535 83.6597 36.2763 83.6597 38.0322V41.3457C83.6597 43.1012 82.2365 44.5244 80.481 44.5244Z" fill="black"/>
<path d="M107.895 53.6904C106.139 53.6904 104.716 52.2677 104.716 50.5117V47.1982C104.716 45.4423 106.139 44.0195 107.895 44.0195C109.651 44.0195 111.074 45.4423 111.074 47.1982V50.5117C111.074 52.2672 109.651 53.6904 107.895 53.6904Z" fill="black"/>
<path d="M53.7427 49.6397C51.9868 49.6397 50.564 48.2169 50.564 46.461V43.1475C50.564 41.3915 51.9868 39.9688 53.7427 39.9688C55.4986 39.9688 56.9214 41.3915 56.9214 43.1475V46.461C56.9214 48.2169 55.4982 49.6397 53.7427 49.6397Z" fill="black"/>
<path d="M135.311 44.5244C133.555 44.5244 132.132 43.1016 132.132 41.3457V38.0322C132.132 36.2763 133.555 34.8535 135.311 34.8535C137.066 34.8535 138.489 36.2763 138.489 38.0322V41.3457C138.489 43.1012 137.066 44.5244 135.311 44.5244Z" fill="black"/>
<path d="M156.824 50.0264C155.068 50.0264 153.646 48.6036 153.646 46.8477V43.5342C153.646 41.7783 155.068 40.3555 156.824 40.3555C158.58 40.3555 160.003 41.7783 160.003 43.5342V46.8477C160.003 48.6036 158.58 50.0264 156.824 50.0264Z" fill="black"/>
<path fill-rule="evenodd" clip-rule="evenodd" d="M199.391 57.3329C187.262 22.2018 151.745 3.17871 107.895 3.17871C91.2188 3.17871 77.2393 5.71829 65.5938 9.89045C73.7927 8.23371 82.8868 7.30256 92.9845 7.30256C140.087 7.30256 165.664 27.559 177.95 47.6824C183.344 56.5226 187.528 68.5194 187.528 78.4841H202.451C202.451 70.6721 202.064 65.0606 199.391 57.3329Z" fill="#F98500"/>
<path fill-rule="evenodd" clip-rule="evenodd" d="M193.551 201.946V146.244H23.4497V201.946H193.551Z" fill="#FFC94B"/>
<path fill-rule="evenodd" clip-rule="evenodd" d="M17.1489 137.463V149.049C17.1489 149.859 17.802 150.512 18.612 150.512H23.4491H193.55H198.387C199.198 150.512 199.85 149.859 199.85 149.049V137.463C199.85 136.665 199.197 136 198.387 136H190.926H24.8643H18.6124C17.802 136 17.1489 136.665 17.1489 137.463Z" fill="#FDE588"/>
<path fill-rule="evenodd" clip-rule="evenodd" d="M88.4874 170.201V176.648C88.4874 178.835 86.6945 180.636 84.4949 180.636H42.2307C40.0311 180.636 38.2383 178.835 38.2383 176.648V170.201C38.2383 168.002 40.0311 166.196 42.2307 166.196H84.4949C86.6945 166.196 88.4874 168.002 88.4874 170.201Z" fill="#F98500"/>
<path fill-rule="evenodd" clip-rule="evenodd" d="M88.4867 170.201V176.648C88.4867 178.835 86.6982 180.636 84.4943 180.636H74.6572C76.8569 180.636 78.6497 178.835 78.6497 176.648V170.201C78.6497 168.002 76.8569 166.196 74.6572 166.196H84.4943C86.6982 166.196 88.4867 168.002 88.4867 170.201Z" fill="#6A5C6B"/>
<path fill-rule="evenodd" clip-rule="evenodd" d="M53.5249 180.637V206.214V211.644C53.5249 212.842 54.5044 213.821 55.7017 213.821H71.0235C72.2208 213.821 73.2003 212.842 73.2003 211.644V206.214V180.637H53.5249Z" fill="#FDE588"/>
<path fill-rule="evenodd" clip-rule="evenodd" d="M47.0068 205.235V210.532C47.0068 212.346 48.18 213.821 49.607 213.821H56.9596H69.766H77.1185C78.5456 213.821 79.7187 212.346 79.7187 210.532V205.235C79.7187 203.421 78.5456 201.945 77.1185 201.945H49.607C48.18 201.945 47.0068 203.421 47.0068 205.235Z" fill="#7E707D"/>
<path fill-rule="evenodd" clip-rule="evenodd" d="M47.0068 205.236V210.533C47.0068 212.347 48.18 213.822 49.607 213.822H56.9596H69.766H77.1185C78.5456 213.822 79.7187 212.347 79.7187 210.533V205.236C79.7187 203.422 78.5456 201.946 77.1185 201.946H49.607C48.18 201.946 47.0068 203.422 47.0068 205.236Z" fill="#F6991E"/>
<path fill-rule="evenodd" clip-rule="evenodd" d="M79.7189 205.235V210.533C79.7189 212.347 78.5449 213.822 77.1166 213.822H70.9033C72.3274 213.822 73.5014 212.347 73.5014 210.533V205.235C73.5014 203.421 72.3274 201.946 70.9033 201.946H77.1166C78.5449 201.946 79.7189 203.421 79.7189 205.235Z" fill="#F98500"/>
<path fill-rule="evenodd" clip-rule="evenodd" d="M128.515 170.201V176.647C128.515 178.836 130.316 180.638 132.517 180.638H143.8H163.488H174.783C176.971 180.638 178.773 178.836 178.773 176.647V170.201C178.773 168 176.972 166.198 174.783 166.198H132.517C130.316 166.198 128.515 168 128.515 170.201Z" fill="#F98500"/>
<path fill-rule="evenodd" clip-rule="evenodd" d="M88.4872 170.201V176.648C88.4872 178.835 86.6987 180.636 84.4948 180.636H74.6577C76.8574 180.636 78.6502 178.835 78.6502 176.648V170.201C78.6502 168.002 76.8574 166.196 74.6577 166.196H84.4948C86.6987 166.196 88.4872 168.002 88.4872 170.201Z" fill="#F27321"/>
<path fill-rule="evenodd" clip-rule="evenodd" d="M178.773 170.201V176.648C178.773 178.835 176.985 180.636 174.781 180.636H164.944C167.144 180.636 168.936 178.835 168.936 176.648V170.201C168.936 168.002 167.144 166.196 164.944 166.196H174.781C176.985 166.196 178.773 168.002 178.773 170.201Z" fill="#F27321"/>
<path fill-rule="evenodd" clip-rule="evenodd" d="M143.8 180.637V206.214V211.644C143.8 212.842 144.792 213.821 145.988 213.821H161.31C162.508 213.821 163.487 212.842 163.487 211.644V206.214V180.637H143.8Z" fill="#FDE588"/>
<path fill-rule="evenodd" clip-rule="evenodd" d="M137.294 205.235V210.532C137.294 212.346 138.467 213.821 139.894 213.821H147.247H160.053H167.406C168.833 213.821 170.006 212.346 170.006 210.532V205.235C170.006 203.421 168.833 201.945 167.406 201.945H139.894C138.467 201.945 137.294 203.421 137.294 205.235Z" fill="#F6991E"/>
<path fill-rule="evenodd" clip-rule="evenodd" d="M170.006 205.234V210.532C170.006 212.346 168.832 213.821 167.404 213.821H161.19C162.614 213.821 163.789 212.346 163.789 210.532V205.234C163.789 203.42 162.614 201.945 161.19 201.945H167.404C168.832 201.945 170.006 203.42 170.006 205.234Z" fill="#F98500"/>
<path fill-rule="evenodd" clip-rule="evenodd" d="M43.9956 9.86629V21.0528H150.487H171.783V9.86629C171.783 6.19001 168.771 3.17871 165.095 3.17871H107.895H50.6955C47.0069 3.17871 43.9956 6.19001 43.9956 9.86629Z" fill="#EFF6FF"/>
<path fill-rule="evenodd" clip-rule="evenodd" d="M78.9204 116.022V109.068C78.9204 108.137 78.1583 107.363 77.2153 107.363H64.5903C63.6469 107.363 62.8853 108.137 62.8853 109.068V116.022C62.8853 120.424 66.4891 124.04 70.9028 124.04C75.317 124.04 78.9204 120.424 78.9204 116.022Z" fill="#EFF6FF"/>
<path fill-rule="evenodd" clip-rule="evenodd" d="M98.8861 124.04C103.3 124.04 106.916 120.424 106.916 116.022V109.068C106.916 108.137 106.142 107.363 105.223 107.363H92.5736C91.6301 107.363 90.8804 108.137 90.8804 109.068V116.022C90.8808 120.424 94.4842 124.04 98.8861 124.04Z" fill="#EFF6FF"/>
<path fill-rule="evenodd" clip-rule="evenodd" d="M73.3697 116.022C73.3697 119.457 71.181 122.407 68.1333 123.544C68.992 123.871 69.935 124.04 70.9026 124.04C75.3168 124.04 78.9201 120.424 78.9201 116.022V109.068C78.9201 108.137 78.1581 107.363 77.2151 107.363H71.6642C72.6077 107.363 73.3693 108.137 73.3693 109.068V116.022H73.3697Z" fill="#D9EEFF"/>
<path fill-rule="evenodd" clip-rule="evenodd" d="M101.365 116.022C101.365 119.457 99.1768 122.407 96.1172 123.544C96.9877 123.871 97.9189 124.04 98.8865 124.04C103.301 124.04 106.916 120.424 106.916 116.022V109.068C106.916 108.137 106.142 107.363 105.223 107.363H99.6604C100.592 107.363 101.365 108.137 101.365 109.068V116.022Z" fill="#D9EEFF"/>
<path fill-rule="evenodd" clip-rule="evenodd" d="M193.551 201.946V150.513H178.12H173.283V166.198H174.782H175.399C177.249 166.198 178.773 167.721 178.773 169.584V170.2V176.646V177.263C178.773 179.113 177.249 180.637 175.399 180.637H174.782H173.283V201.945H193.551V201.946Z" fill="#F27321"/>
<path fill-rule="evenodd" clip-rule="evenodd" d="M199.851 149.049V137.463C199.851 136.665 199.198 136 198.388 136H190.926H178.12C178.93 136 179.583 136.665 179.583 137.463V146.243V149.049C179.583 149.859 178.93 150.512 178.12 150.512H193.55H198.388C199.198 150.512 199.851 149.859 199.851 149.049Z" fill="#FDD76F"/>
<path fill-rule="evenodd" clip-rule="evenodd" d="M171.783 21.0528V9.86629C171.783 6.19001 168.772 3.17871 165.095 3.17871H143.812C147.488 3.191 150.487 6.19001 150.487 9.86629V9.98709V10.132V21.0524H171.783V21.0528Z" fill="#D9EEFF"/>
<path fill-rule="evenodd" clip-rule="evenodd" d="M53.5249 180.637H73.2003V190.722H53.5249V180.637Z" fill="#FDD76F"/>
<path fill-rule="evenodd" clip-rule="evenodd" d="M143.806 181.205H163.481V191.29H143.806V181.205Z" fill="#FDD76F"/>
<path d="M153.692 113.771H163.366C165.122 113.771 166.545 112.349 166.545 110.593C166.545 108.837 165.122 107.414 163.366 107.414H153.692C151.936 107.414 150.513 108.837 150.513 110.593C150.513 112.349 151.936 113.771 153.692 113.771Z" fill="black"/>
<path d="M153.692 126.82H163.366C165.122 126.82 166.545 125.398 166.545 123.642C166.545 121.886 165.122 120.463 163.366 120.463H153.692C151.936 120.463 150.513 121.886 150.513 123.642C150.513 125.398 151.936 126.82 153.692 126.82Z" fill="black"/>
<path d="M205.861 198.766H196.728V153.689L198.385 153.693C200.945 153.693 203.031 151.608 203.031 149.048V137.464C203.031 134.904 200.945 132.823 198.385 132.823H194.105V81.7225C194.105 81.7013 194.101 81.6844 194.101 81.6632H202.45C204.205 81.6632 205.629 80.2391 205.629 78.4845V73.5977C205.629 61.8111 199.127 37.3732 174.961 19.4368V9.86672C174.961 4.42477 170.536 0 165.094 0H50.6941C45.2479 0 40.8189 4.42477 40.8189 9.86672V19.4452C16.6607 37.3816 10.1592 61.8153 10.1592 73.5977V78.4845C10.1592 80.2391 11.5833 81.6632 13.3379 81.6632H21.6873V132.823H18.6146C16.0547 132.823 13.9694 134.904 13.9694 137.464V149.048C13.9694 151.608 16.0547 153.693 18.6146 153.693H20.2717V198.766H11.1387C9.38275 198.766 7.95996 200.189 7.95996 201.945C7.95996 203.701 9.38275 205.124 11.1387 205.124H43.8332C43.8328 205.161 43.8281 205.197 43.8281 205.235V210.532C43.8281 214.098 46.4202 217 49.607 217H77.1185C80.3053 217 82.8974 214.098 82.8974 210.532V205.235C82.8974 205.197 82.8932 205.161 82.8923 205.124H134.12C134.119 205.161 134.115 205.197 134.115 205.235V210.532C134.115 214.098 136.707 217 139.893 217H167.405C170.592 217 173.184 214.098 173.184 210.532V205.235C173.184 205.197 173.18 205.161 173.179 205.124H205.861C207.617 205.124 209.04 203.701 209.04 201.945C209.04 200.189 207.617 198.766 205.861 198.766ZM76.54 210.532C76.54 210.573 76.5375 210.61 76.5337 210.643H50.1919C50.1881 210.61 50.1855 210.573 50.1855 210.532V205.235C50.1855 205.195 50.1881 205.158 50.1919 205.124H50.3466H56.704H70.0207H76.3781H76.5337C76.5375 205.158 76.54 205.195 76.54 205.235V210.532ZM166.826 210.532C166.826 210.573 166.824 210.609 166.82 210.643H140.478C140.474 210.609 140.472 210.573 140.472 210.532V205.235C140.472 205.195 140.474 205.158 140.478 205.124H140.622H146.979H160.309H166.666H166.82C166.824 205.158 166.827 205.195 166.827 205.235V210.532H166.826ZM16.5166 75.3058V73.5977C16.5166 63.6759 22.5053 40.7384 45.036 24.2303H100.676C102.431 24.2303 103.855 22.8104 103.855 21.0515C103.855 19.2969 102.431 17.8728 100.676 17.8728H47.1764V9.86672C47.1764 7.92982 48.753 6.35742 50.6941 6.35742H165.094C167.031 6.35742 168.603 7.92982 168.603 9.86672V17.8728H115.442C113.688 17.8728 112.264 19.2969 112.264 21.0515C112.264 22.8104 113.688 24.2303 115.442 24.2303H170.756C193.287 40.7384 199.271 63.6759 199.271 73.5977V75.3058H187.425L172.312 67.9693C171.324 67.4904 170.154 67.554 169.222 68.1431L155.168 77.0562L141.114 68.1431C140.071 67.4861 138.749 67.4861 137.706 68.1431L123.652 77.0562L109.598 68.1431C108.559 67.4861 107.233 67.4861 106.194 68.1431L92.136 77.0562L78.0819 68.1431C77.0435 67.4861 75.7169 67.4861 74.6786 68.1431L60.6244 77.0562L46.5533 68.1431C45.6251 67.554 44.4554 67.4904 43.4636 67.9693L28.3669 75.3058H16.5166ZM171.591 95.4673H144.479C141.376 95.4673 138.855 97.9891 138.855 101.087V132.823H102.066V126.758C106.703 125.385 110.094 121.092 110.094 116.023V109.068C110.094 106.377 107.911 104.185 105.224 104.185H92.5726C89.8855 104.185 87.7028 106.377 87.7028 109.068V116.023C87.7028 121.092 91.0849 125.381 95.7089 126.754V132.823H74.081V126.758C78.7092 125.381 82.0998 121.092 82.0998 116.023V109.068C82.0998 106.377 79.9086 104.185 77.2173 104.185H64.5914C61.8959 104.185 59.7047 106.377 59.7047 109.068V116.023C59.7047 121.092 63.0953 125.381 67.7235 126.758V132.823H28.0448V81.6632H29.0958C29.579 81.6632 30.0537 81.553 30.486 81.3453L44.6503 74.4624L58.9206 83.5026C59.9632 84.1638 61.2856 84.1638 62.324 83.5026L76.3823 74.5937L90.4365 83.5026C91.4749 84.1638 92.8015 84.1638 93.8398 83.5026L107.894 74.5937L121.952 83.5026C122.991 84.1638 124.317 84.1638 125.356 83.5026L139.41 74.5937L153.464 83.5026C153.985 83.8332 154.574 83.9985 155.168 83.9985C155.757 83.9985 156.35 83.8332 156.867 83.5026L171.129 74.4624L185.306 81.3453C185.738 81.553 186.213 81.6632 186.692 81.6632H187.752C187.752 81.6844 187.747 81.7013 187.747 81.7225V132.823H177.211V101.087C177.211 97.9891 174.689 95.4673 171.591 95.4673ZM170.854 101.825V132.823H145.212V101.825H170.854ZM98.8876 120.863C96.226 120.863 94.0602 118.689 94.0602 116.023V110.543H103.736V116.023C103.736 118.689 101.562 120.863 98.8876 120.863ZM70.9022 120.863C68.2364 120.863 66.0621 118.689 66.0621 116.023V110.543H75.7424V116.023C75.7424 118.689 73.5724 120.863 70.9022 120.863ZM100.88 147.335H20.3268V139.181H196.673V147.331L115.798 147.2C115.794 147.2 115.803 147.335 115.803 147.335C114.048 147.335 112.628 148.755 112.624 150.506C112.62 152.264 114.039 153.689 115.798 153.693L190.371 153.68V198.767H167.405H166.666V183.814H175.397C179.012 183.814 181.949 180.877 181.949 177.262V169.582C181.949 165.963 179.012 163.017 175.397 163.017H131.9C128.28 163.017 125.334 165.963 125.334 169.582V177.262C125.334 180.877 128.28 183.814 131.9 183.814H140.622V198.767H139.893H77.1185H76.3781V183.816H84.4953C88.4483 183.816 91.6647 180.6 91.6647 176.646V170.201C91.6647 166.241 88.4483 163.02 84.4953 163.02H42.2303C38.2772 163.02 35.0608 166.241 35.0608 170.201V176.646C35.0608 180.6 38.2772 183.816 42.2303 183.816H50.3466V198.767H49.607H26.6292V153.693H100.88C102.639 153.693 104.058 152.269 104.058 150.514C104.058 148.755 102.639 147.335 100.88 147.335ZM146.979 183.814H160.309V198.767H146.979V183.814ZM131.9 177.457C131.789 177.457 131.692 177.351 131.692 177.262V169.582C131.692 169.476 131.794 169.374 131.9 169.374H175.397C175.486 169.374 175.592 169.468 175.592 169.582V177.262C175.592 177.359 175.495 177.457 175.397 177.457H131.9ZM56.704 183.816H70.0207V198.766H56.704V183.816ZM42.2303 177.458C41.7903 177.458 41.4182 177.086 41.4182 176.646V170.2C41.4182 169.754 41.7903 169.377 42.2303 169.377H84.4957C84.9356 169.377 85.3077 169.754 85.3077 170.2V176.646C85.3077 177.086 84.9356 177.458 84.4957 177.458H42.2303Z" fill="black"/>
</svg>
