<svg width="176" height="194" viewBox="0 0 176 194" fill="none" xmlns="http://www.w3.org/2000/svg">
<path d="M172.905 78.0663L160.929 60.7171L158.388 39.7898L139.722 29.993L127.747 12.6438H106.666L88.0001 2.84741L69.334 12.6442H48.2533L36.278 29.9934L17.6119 39.7902L15.0709 60.7175L3.0957 78.0666L10.571 97.7772L8.02998 118.704L23.8093 132.683L31.2845 152.394L51.7529 157.439L67.5322 171.418L88.0001 166.373L108.468 171.418L124.248 157.439L144.716 152.394L152.191 132.683L167.971 118.704L165.43 97.7772L172.905 78.0663ZM60.8025 45.368C55.7703 45.368 51.691 41.2886 51.691 36.2564C51.691 31.2242 55.7703 27.1449 60.8025 27.1449C65.8348 27.1449 69.9141 31.2242 69.9141 36.2564C69.9141 41.2886 65.8348 45.368 60.8025 45.368Z" fill="#FFB531"/>
<path d="M106.36 160.781C59.3929 160.781 21.3188 122.707 21.3188 75.7398C21.3188 59.4317 25.9129 44.1979 33.8722 31.2561L17.6119 39.7902L15.0709 60.7175L3.0957 78.0667L10.571 97.7772L8.02999 118.704L23.8089 132.683L31.2842 152.394L51.7525 157.439L67.5318 171.418L87.9997 166.373L108.468 171.418L122.129 159.316C117.018 160.274 111.748 160.781 106.36 160.781Z" fill="#F98500"/>
<path d="M128.878 50.1845C126.506 47.8125 122.66 47.8125 120.288 50.1845L47.3955 123.077C45.0231 125.449 45.0231 129.295 47.3955 131.667C48.5815 132.853 50.1362 133.447 51.6905 133.447C53.2448 133.447 54.7994 132.853 55.9854 131.667L128.878 58.7748C131.251 56.4028 131.251 52.5566 128.878 50.1845Z" fill="#FEE26A"/>
<path d="M63.8391 75.7402C68.8713 75.7402 72.9506 71.6608 72.9506 66.6286C72.9506 61.5965 68.8713 57.5171 63.8391 57.5171C58.8069 57.5171 54.7275 61.5965 54.7275 66.6286C54.7275 71.6608 58.8069 75.7402 63.8391 75.7402Z" fill="#FEE26A"/>
<path d="M112.435 124.335C117.467 124.335 121.546 120.255 121.546 115.223C121.546 110.191 117.467 106.112 112.435 106.112C107.403 106.112 103.323 110.191 103.323 115.223C103.323 120.255 107.403 124.335 112.435 124.335Z" fill="#FEE26A"/>
<path d="M94.2114 172.93H82.0626C78.7077 172.93 75.9883 170.21 75.9883 166.855V160.781C75.9883 157.426 78.7077 154.707 82.0626 154.707H94.2114V172.93Z" fill="#FFB531"/>
<path d="M82.0626 163.818H94.2114V172.93H82.0626C78.7077 172.93 75.9883 170.21 75.9883 166.855V160.781C75.9883 160.255 76.0619 159.749 76.1872 159.262C76.8626 161.881 79.2331 163.818 82.0626 163.818Z" fill="#F98500"/>
<path d="M94.2109 154.706L136.731 136.483V191.153L94.2109 172.93V154.706Z" fill="#F0ECED"/>
<path d="M136.731 191.153L94.2109 172.93V163.818L136.731 182.041V191.153Z" fill="#D2C5C9"/>
<path d="M94.2112 172.929H85.0996V191.153H94.2112V172.929Z" fill="#876470"/>
<path d="M175.247 76.4486L163.671 59.6773L161.214 39.4466C161.102 38.518 160.54 37.7036 159.711 37.2689L141.666 27.7982L130.09 11.0269C129.558 10.257 128.682 9.79724 127.746 9.79724H107.368L89.3231 0.326551C88.4943 -0.108525 87.5053 -0.108525 86.6766 0.326551L68.6319 9.79686H48.2532C47.3173 9.79686 46.4415 10.2566 45.91 11.0265L44.7297 12.7365C35.5843 3.88765 28.1083 -0.0196874 21.9174 0.797314C18.105 1.30263 15.0279 3.56077 12.772 7.50949C10.7409 11.0634 10.5352 14.7505 12.1771 18.1719C14.3787 22.7599 20.0146 26.9266 28.9754 30.6103L16.2883 37.2689C15.4596 37.704 14.8977 38.518 14.7849 39.4466L12.3286 59.6773L0.752009 76.4486C0.220502 77.2185 0.101292 78.2006 0.433105 79.0757L7.6597 98.1303L5.203 118.361C5.09024 119.29 5.44104 120.215 6.14149 120.835L21.3954 134.349L28.622 153.404C28.9538 154.279 29.6945 154.935 30.603 155.159L50.3898 160.036L65.6437 173.55C66.3377 174.164 67.313 174.405 68.2135 174.183L75.1398 172.476C76.7769 174.488 79.2715 175.777 82.0627 175.777H82.2525V191.153C82.2525 192.726 83.5274 194 85.0999 194H94.2114C95.7839 194 97.0588 192.726 97.0588 191.153V177.248L135.61 193.77C137.459 194.563 139.579 193.159 139.579 191.153V156.593L145.397 155.159C146.306 154.935 147.046 154.279 147.378 153.404L154.604 134.349L169.858 120.835C170.559 120.215 170.909 119.29 170.797 118.361L168.34 98.1303L175.567 79.0757C175.898 78.2006 175.779 77.2185 175.247 76.4486ZM17.3107 15.7076C16.4812 13.9779 16.6099 12.2706 17.7162 10.3348C19.0624 7.97911 20.6812 6.70615 22.6657 6.44306C26.9823 5.87282 33.6299 9.78889 41.448 17.4908L35.0069 26.8222C25.3334 23.3704 19.1285 19.4969 17.3107 15.7076ZM78.8353 166.855V160.781C78.8353 159.001 80.2829 157.554 82.0623 157.554H91.3637V170.082H82.0623C80.2829 170.082 78.8353 168.635 78.8353 166.855ZM91.3637 188.305H87.9469V175.777H91.3637V188.305ZM133.884 186.835L97.0584 171.052V156.584L133.884 140.802V186.835ZM162.766 96.7673C162.603 97.1982 162.547 97.6622 162.602 98.12L164.963 117.563L150.302 130.551C149.957 130.857 149.692 131.242 149.528 131.673L142.583 149.987L139.579 150.727V136.483C139.579 134.477 137.457 133.074 135.609 133.866L93.6264 151.859H82.0623C77.1428 151.859 73.1406 155.861 73.1406 160.781V166.855C73.1406 166.938 73.1448 167.019 73.1467 167.101L68.3012 168.295L53.6407 155.307C53.2956 155.001 52.8815 154.784 52.4338 154.673L33.4165 149.986L26.4713 131.673C26.3076 131.242 26.0422 130.857 25.6971 130.551L11.0367 117.563L13.3977 98.1196C13.4531 97.6618 13.3969 97.1975 13.2333 96.7669L6.28803 78.4531L17.4144 62.3344C17.6763 61.9551 17.8419 61.5178 17.8977 61.0603L20.2583 41.6163L36.2088 33.2447C37.2115 33.57 38.24 33.892 39.3018 34.2086C42.6636 35.2112 45.9335 36.0544 48.8557 36.7424C49.1119 43.1117 54.3712 48.2153 60.8024 48.2153C67.3965 48.2153 72.7613 42.8505 72.7613 36.2564C72.7613 29.6623 67.3961 24.2975 60.802 24.2975C56.0322 24.2975 51.9069 27.1054 49.9889 31.1547C47.1776 30.4915 44.0543 29.6855 40.874 28.7352C40.7995 28.7128 40.727 28.6904 40.6526 28.668L49.7475 15.4916H69.3339C69.7948 15.4916 70.2488 15.3796 70.6569 15.1655L87.9996 6.06341L105.342 15.1655C105.75 15.3796 106.204 15.4916 106.665 15.4916H126.252L137.378 31.6107C137.64 31.9899 137.99 32.3001 138.398 32.5142L155.741 41.6167L158.102 61.0607C158.157 61.5182 158.323 61.9555 158.585 62.3348L169.712 78.4539L162.766 96.7673ZM61.2474 33.444C61.2022 33.4368 59.1058 33.1008 55.8465 32.4394C56.993 30.9542 58.7854 29.9922 60.802 29.9922C64.2561 29.9922 67.0662 32.8024 67.0662 36.2564C67.0662 39.7104 64.2561 42.5206 60.802 42.5206C57.9687 42.5206 55.572 40.6284 54.801 38.0427C58.0545 38.7002 60.1703 39.0392 60.3575 39.0688C60.5082 39.0928 60.6582 39.1041 60.8058 39.1041C62.1821 39.1041 63.3924 38.1038 63.6145 36.7017C63.8601 35.149 62.8001 33.6904 61.2474 33.444Z" fill="black"/>
<path d="M124.583 45.5581C122.2 45.5581 119.96 46.4856 118.275 48.1708L101.83 64.6149C100.718 65.7273 100.718 67.5298 101.83 68.6418C102.942 69.7534 104.745 69.7534 105.857 68.6418L122.301 52.1978C123.546 50.9529 125.619 50.9563 126.865 52.1978C128.11 53.4396 128.107 55.5185 126.865 56.7611L53.9724 129.653C52.7276 130.899 50.6539 130.895 49.4087 129.653C48.1635 128.412 48.1661 126.333 49.4087 125.09L94.9778 79.5214C96.0898 78.409 96.0898 76.6065 94.9778 75.4945C93.8658 74.3829 92.0629 74.3829 90.9513 75.4945L45.3822 121.063C41.9429 124.502 41.9429 130.241 45.3822 133.68C48.821 137.119 54.5601 137.119 57.999 133.68L130.891 60.7881C134.331 57.3488 134.331 51.6101 130.891 48.1708C129.206 46.486 126.966 45.5581 124.583 45.5581Z" fill="black"/>
<path d="M63.8388 78.5872C70.4329 78.5872 75.7977 73.2224 75.7977 66.6283C75.7977 60.0342 70.4329 54.6694 63.8388 54.6694C57.2447 54.6694 51.8799 60.0342 51.8799 66.6283C51.8799 73.2224 57.2447 78.5872 63.8388 78.5872ZM63.8388 60.3641C67.2928 60.3641 70.103 63.1743 70.103 66.6283C70.103 70.0824 67.2928 72.8925 63.8388 72.8925C60.3848 72.8925 57.5746 70.0824 57.5746 66.6283C57.5746 63.1743 60.3848 60.3641 63.8388 60.3641Z" fill="black"/>
<path d="M112.434 103.264C105.84 103.264 100.476 108.629 100.476 115.223C100.476 121.817 105.84 127.182 112.434 127.182C119.029 127.182 124.393 121.817 124.393 115.223C124.393 108.629 119.029 103.264 112.434 103.264ZM112.434 121.487C108.98 121.487 106.17 118.677 106.17 115.223C106.17 111.769 108.98 108.959 112.434 108.959C115.889 108.959 118.699 111.769 118.699 115.223C118.699 118.677 115.889 121.487 112.434 121.487Z" fill="black"/>
<path d="M167.103 160.971H161.029C159.456 160.971 158.182 162.245 158.182 163.818C158.182 165.391 159.456 166.665 161.029 166.665H167.103C168.676 166.665 169.951 165.391 169.951 163.818C169.951 162.245 168.676 160.971 167.103 160.971Z" fill="black"/>
<path d="M157.776 154.517C158.259 154.517 158.749 154.394 159.197 154.135L164.458 151.098C165.819 150.312 166.286 148.57 165.5 147.208C164.713 145.846 162.972 145.38 161.61 146.166L156.35 149.203C154.988 149.99 154.521 151.731 155.308 153.093C155.835 154.007 156.793 154.517 157.776 154.517Z" fill="black"/>
<path d="M164.459 176.538L159.198 173.501C157.836 172.715 156.095 173.181 155.309 174.543C154.522 175.905 154.989 177.646 156.351 178.433L161.611 181.47C162.957 182.246 164.725 181.771 165.501 180.428C166.287 179.066 165.82 177.325 164.459 176.538Z" fill="black"/>
</svg>
