<svg width="16" height="16" viewBox="0 0 16 16" fill="none" xmlns="http://www.w3.org/2000/svg">
<path d="M15.5312 11.5312H14.9688V10.5C14.9688 10.2411 14.7589 10.0312 14.5 10.0312C14.2411 10.0312 14.0312 10.2411 14.0312 10.5V11.5312H13.4062V16H15.5312C15.7901 16 16 15.7901 16 15.5312V12C16 11.7411 15.7901 11.5312 15.5312 11.5312Z" fill="black"/>
<path d="M2.59375 11.5312H1.96875V10.5C1.96875 10.2411 1.75888 10.0312 1.5 10.0312C1.24112 10.0312 1.03125 10.2411 1.03125 10.5V11.5312H0.46875C0.209875 11.5312 0 11.7411 0 12V15.5312C0 15.7901 0.209875 16 0.46875 16H2.59375V11.5312Z" fill="black"/>
<path d="M3.53125 16H5.78125V13.5C5.78125 13.2411 5.99113 13.0312 6.25 13.0312H9.75C10.0089 13.0312 10.2188 13.2411 10.2188 13.5V16H12.4688C12.4688 15.2251 12.4688 1.18416 12.4688 0.46875C12.4688 0.209875 12.2589 0 12 0H4C3.74112 0 3.53125 0.209875 3.53125 0.46875V16ZM6.75 10.9688H6.25C5.99113 10.9688 5.78125 10.7589 5.78125 10.5C5.78125 10.2411 5.99113 10.0312 6.25 10.0312H6.75C7.00887 10.0312 7.21875 10.2411 7.21875 10.5C7.21875 10.7589 7.00887 10.9688 6.75 10.9688ZM6.75 8.96875H6.25C5.99113 8.96875 5.78125 8.75887 5.78125 8.5C5.78125 8.24113 5.99113 8.03125 6.25 8.03125H6.75C7.00887 8.03125 7.21875 8.24113 7.21875 8.5C7.21875 8.75887 7.00887 8.96875 6.75 8.96875ZM6.75 6.96875H6.25C5.99113 6.96875 5.78125 6.75887 5.78125 6.5C5.78125 6.24113 5.99113 6.03125 6.25 6.03125H6.75C7.00887 6.03125 7.21875 6.24113 7.21875 6.5C7.21875 6.75887 7.00887 6.96875 6.75 6.96875ZM6.75 4.96875H6.25C5.99113 4.96875 5.78125 4.75887 5.78125 4.5C5.78125 4.24113 5.99113 4.03125 6.25 4.03125H6.75C7.00887 4.03125 7.21875 4.24113 7.21875 4.5C7.21875 4.75887 7.00887 4.96875 6.75 4.96875ZM9.75 10.9688H9.25C8.99113 10.9688 8.78125 10.7589 8.78125 10.5C8.78125 10.2411 8.99113 10.0312 9.25 10.0312H9.75C10.0089 10.0312 10.2188 10.2411 10.2188 10.5C10.2188 10.7589 10.0089 10.9688 9.75 10.9688ZM9.75 8.96875H9.25C8.99113 8.96875 8.78125 8.75887 8.78125 8.5C8.78125 8.24113 8.99113 8.03125 9.25 8.03125H9.75C10.0089 8.03125 10.2188 8.24113 10.2188 8.5C10.2188 8.75887 10.0089 8.96875 9.75 8.96875ZM9.75 6.96875H9.25C8.99113 6.96875 8.78125 6.75887 8.78125 6.5C8.78125 6.24113 8.99113 6.03125 9.25 6.03125H9.75C10.0089 6.03125 10.2188 6.24113 10.2188 6.5C10.2188 6.75887 10.0089 6.96875 9.75 6.96875ZM9.75 4.96875H9.25C8.99113 4.96875 8.78125 4.75887 8.78125 4.5C8.78125 4.24113 8.99113 4.03125 9.25 4.03125H9.75C10.0089 4.03125 10.2188 4.24113 10.2188 4.5C10.2188 4.75887 10.0089 4.96875 9.75 4.96875ZM6 2.03125H10C10.2589 2.03125 10.4688 2.24113 10.4688 2.5C10.4688 2.75887 10.2589 2.96875 10 2.96875H6C5.74113 2.96875 5.53125 2.75887 5.53125 2.5C5.53125 2.24113 5.74113 2.03125 6 2.03125Z" fill="black"/>
<path d="M6.71875 16H9.28125V13.9688H6.71875V16Z" fill="black"/>
</svg>
