<svg width="60" height="60" viewBox="0 0 60 60" fill="none" xmlns="http://www.w3.org/2000/svg">
<path d="M59.0105 37.3798C59.0105 37.3798 59.9464 48.6096 45.9091 58.9035C31.872 48.6095 32.8079 37.3798 32.8079 37.3798C32.8079 30.1459 38.6755 24.2783 45.9093 24.2783C53.1432 24.2783 59.0105 30.1459 59.0105 37.3798Z" fill="#FFD311"/>
<path d="M27.1931 13.9857C27.1931 13.9857 28.129 25.2156 14.0917 35.5094C0.0546348 25.2156 0.990493 13.9857 0.990493 13.9857C0.990493 6.75186 6.85795 0.884277 14.0918 0.884277C21.3257 0.884277 27.1931 6.75197 27.1931 13.9857Z" fill="#FFB531"/>
<path d="M10.3476 13.9851C10.3476 8.40195 13.8491 3.64566 18.7699 1.75988C17.3149 1.20219 15.7417 0.883789 14.0908 0.883789C6.85709 0.883789 0.989517 6.75137 0.989517 13.9852C0.989517 13.9852 0.0536574 25.2151 14.091 35.5089C15.8853 34.1931 17.4319 32.8622 18.77 31.5413C9.63889 22.5276 10.3476 13.9851 10.3476 13.9851Z" fill="#F98500"/>
<path d="M42.1651 37.3806C42.1651 31.7975 45.6666 27.0412 50.5874 25.1554C49.1324 24.5977 47.5592 24.2793 45.9083 24.2793C38.6745 24.2793 32.8069 30.1469 32.8069 37.3807C32.8069 37.3807 31.8712 48.6106 45.9083 58.9045C47.7027 57.5886 49.2492 56.2577 50.5874 54.9367C41.4564 45.923 42.1651 37.3806 42.1651 37.3806Z" fill="#FDB51E"/>
<path d="M40.2936 44.918H38.4219V46.6853H40.2936V44.918Z" fill="white"/>
<path d="M42.1665 46.7896H40.2949V48.5569H42.1665V46.7896Z" fill="white"/>
<path d="M44.0368 48.6616H42.165V50.4289H44.0368V48.6616Z" fill="white"/>
<path d="M45.9086 30.8296C48.4914 30.8296 50.5876 32.9257 50.5876 35.5087C50.5876 38.0915 48.4915 40.1877 45.9086 40.1877C43.3257 40.1877 41.2295 38.0916 41.2295 35.5087C41.2296 32.9258 43.3257 30.8296 45.9086 30.8296Z" fill="#E7ECED"/>
<path d="M14.0912 7.43506C16.6741 7.43506 18.7702 9.53119 18.7702 12.1141C18.7702 14.6969 16.6741 16.7932 14.0912 16.7932C11.5084 16.7932 9.41211 14.6971 9.41211 12.1141C9.41223 9.53119 11.5084 7.43506 14.0912 7.43506Z" fill="#E7ECED"/>
<path d="M8.47707 21.5239H6.60547V23.2912H8.47707V21.5239Z" fill="white"/>
<path d="M10.3482 23.394H8.47656V25.1613H10.3482V23.394Z" fill="white"/>
<path d="M12.2212 25.2676H10.3496V27.0349H12.2212V25.2676Z" fill="white"/>
<path d="M28.0761 13.9532C28.0706 11.4891 27.4151 9.0682 26.1796 6.95016L24.653 7.84066C25.7362 9.69785 26.3088 11.8226 26.3088 13.9852L26.3119 14.0585C26.3207 14.1645 27.0308 24.6299 14.0912 34.4072C7.43414 29.3755 4.46461 24.1871 3.14367 20.6828C1.67871 16.7958 1.86844 14.0829 1.87031 14.0585L1.87336 13.9852C1.87324 7.24816 7.3541 1.7673 14.091 1.7673C17.8066 1.7673 21.2767 3.42961 23.6113 6.32836L24.9877 5.21977C22.3159 1.90254 18.3442 0 14.091 0C6.39047 0 0.123631 6.25664 0.106053 13.9532C0.0806234 14.3415 -0.0418375 17.1834 1.44808 21.1944C2.87765 25.0432 6.14086 30.7745 13.5686 36.2214L14.0911 36.6047L14.6136 36.2214C22.0414 30.7744 25.3046 25.0432 26.7342 21.1944C28.2237 17.1836 28.1014 14.3419 28.0761 13.9532Z" fill="#231F20"/>
<path d="M59.8938 37.3477C59.8762 29.6512 53.6094 23.3945 45.9089 23.3945C43.286 23.3945 40.7288 24.1257 38.5137 25.5086L39.4495 27.0078C41.3838 25.8002 43.6174 25.1618 45.9088 25.1618C52.6456 25.1618 58.1264 30.6427 58.1264 37.3796L58.1294 37.4529C58.1381 37.5589 58.8484 48.0243 45.9087 57.8016C39.2516 52.7699 36.2819 47.5816 34.9611 44.0772C33.496 40.1902 33.6859 37.4773 33.6876 37.4529L33.6907 37.3796C33.6907 33.8325 35.2309 30.4647 37.9162 28.1395L36.7595 26.8034C33.6941 29.4575 31.9326 33.2991 31.9234 37.3477C31.8981 37.7359 31.7756 40.578 33.2655 44.5889C34.6951 48.4376 37.9583 54.169 45.386 59.6159L45.9087 59.9992L46.4313 59.6159C53.859 54.1689 57.1222 48.4376 58.5518 44.5889C60.0416 40.5782 59.9192 37.7364 59.8938 37.3477Z" fill="#231F20"/>
<path d="M50.5577 38.5621C51.1547 37.6544 51.4703 36.5989 51.4703 35.5096C51.4703 32.4423 48.9748 29.9468 45.9075 29.9468C42.8402 29.9468 40.3447 32.4423 40.3447 35.5096C40.3447 38.5768 42.8402 41.0723 45.9075 41.0723C46.9372 41.0723 47.9436 40.7882 48.8176 40.2505L47.8916 38.7452C47.2963 39.1116 46.6102 39.3052 45.9075 39.3052C43.8146 39.3052 42.112 37.6025 42.112 35.5097C42.112 33.4168 43.8145 31.7142 45.9075 31.7142C48.0004 31.7142 49.703 33.4168 49.703 35.5097C49.703 36.2529 49.488 36.9726 49.0813 37.5909L50.5577 38.5621Z" fill="#231F20"/>
<path d="M14.0911 15.9085C13.0198 15.9085 11.9927 15.4516 11.2734 14.6549L9.96164 15.8393C11.0154 17.0065 12.5207 17.6757 14.0911 17.6757C17.1584 17.6757 19.6539 15.1803 19.6539 12.1131C19.6539 9.0458 17.1584 6.55029 14.0911 6.55029C11.0238 6.55029 8.52832 9.0458 8.52832 12.1131C8.52832 12.7707 8.64234 13.4151 8.86746 14.0283L10.5266 13.4194C10.3733 13.0018 10.2956 12.5624 10.2956 12.1131C10.2956 10.0203 11.9982 8.3176 14.0911 8.3176C16.184 8.3176 17.8866 10.0202 17.8866 12.1131C17.8866 14.2059 16.184 15.9085 14.0911 15.9085Z" fill="#231F20"/>
<path d="M30.8984 58.0192C30.8916 57.9987 30.8856 57.9721 30.8836 57.9512V46.7389C30.8836 45.5572 29.9461 44.9194 29.0641 44.9194H23.4493C22.2675 44.9194 21.6298 45.8568 21.6298 46.7389V51.418C21.6298 51.4333 21.6291 51.4456 21.6282 51.4555C21.6077 51.4622 21.5811 51.4682 21.5601 51.4701H19.7061V53.2374H21.5894C22.4679 53.2319 23.3972 52.5945 23.3972 51.418V46.7389C23.3972 46.7387 23.4041 46.7113 23.412 46.6884C23.4217 46.6876 23.4341 46.6869 23.4494 46.6869H29.0467C29.0677 46.6888 29.0942 46.6947 29.1148 46.7016C29.1156 46.7113 29.1163 46.7238 29.1163 46.7391V57.969C29.1163 58.851 29.7539 59.7885 30.9358 59.7885H36.5506V58.0212H30.9358C30.9206 58.0209 30.9081 58.0202 30.8984 58.0192ZM21.5638 51.4702C21.5727 51.4699 21.5778 51.4702 21.5778 51.4702H21.5638ZM29.0502 46.6869H29.0642C29.0642 46.6869 29.0594 46.6871 29.0502 46.6869ZM30.8838 57.9687V57.9548C30.8841 57.9637 30.8838 57.9687 30.8838 57.9687Z" fill="#231F20"/>
<path d="M13.2074 42.0597C13.2074 42.06 13.2005 42.0873 13.1927 42.1102C13.1829 42.1111 13.1705 42.1118 13.1553 42.1118H6.60461C5.72254 42.1118 4.78516 42.7495 4.78516 43.9313V51.4177C4.78516 52.2998 5.42277 53.2372 6.60461 53.2372H10.3482V51.4699H6.60461C6.58926 51.4699 6.57695 51.4692 6.56711 51.4682C6.56031 51.4477 6.55434 51.4213 6.55234 51.4003V43.9312C6.55234 43.9159 6.55305 43.9036 6.55398 43.8937C6.57449 43.8869 6.60109 43.8809 6.62207 43.8791H13.1553C14.337 43.8791 14.9747 42.9416 14.9747 42.0596V38.3164H13.2074V42.0597ZM6.55234 51.4177V51.4038C6.5527 51.4129 6.55234 51.4177 6.55234 51.4177ZM6.60461 43.8791H6.61855C6.60941 43.8793 6.60449 43.8789 6.60461 43.8791Z" fill="#231F20"/>
<path d="M14.0913 51.4707H12.2197V53.238H14.0913V51.4707Z" fill="#231F20"/>
<path d="M17.8335 51.4707H15.9619V53.238H17.8335V51.4707Z" fill="#231F20"/>
<path d="M40.2936 58.0205H38.4219V59.7878H40.2936V58.0205Z" fill="#231F20"/>
</svg>
