<svg width="36" height="36" viewBox="0 0 36 36" fill="none" xmlns="http://www.w3.org/2000/svg">
<path d="M24 26.25V30.75H3V5.25003H24V9.75003H31.5C32.3274 9.75249 32.9975 10.4226 33 11.25V24.75C32.9975 25.5774 32.3273 26.2475 31.5 26.25H24Z" fill="#F98500"/>
<path d="M24 30.75V32.2499C24 33.9068 22.6568 35.25 21 35.25H6.00002C4.34318 35.25 3 33.9068 3 32.2499V30.75H24Z" fill="white"/>
<path d="M24.0009 3.74996V5.24994H3.00098V3.74996C3.00098 2.09312 4.34416 0.749939 6.001 0.749939H21.001C22.6578 0.750009 24.0009 2.09312 24.0009 3.74996Z" fill="white"/>
<path d="M33 11.25V24.75C32.9975 25.5774 32.3273 26.2475 31.5 26.25H7.5V9.75003H31.5C32.3274 9.75249 32.9975 10.4226 33 11.25Z" fill="#FFC94B"/>
<path d="M12 19.5H28.5V22.5H12V19.5Z" fill="#F2F2F2"/>
<path d="M28.5 15.75C29.3284 15.75 30 15.0784 30 14.25C30 13.4216 29.3284 12.75 28.5 12.75C27.6716 12.75 27 13.4216 27 14.25C27 15.0784 27.6716 15.75 28.5 15.75Z" fill="#D9EEF7"/>
<path d="M15 13.5V15C15 15.4142 14.6642 15.75 14.25 15.75H10.5V13.5C10.5 13.0858 10.8358 12.75 11.25 12.75H14.25C14.6643 12.75 15 13.0858 15 13.5Z" fill="#D9EEF7"/>
<path d="M23.25 30H3.74998V5.99998H23.25V7.49995H24.75V3.74998C24.7475 1.67998 23.07 0.00246094 21 0H5.99998C3.92998 0.00246094 2.25246 1.67998 2.25 3.74998V32.25C2.25246 34.32 3.92998 35.9975 5.99998 35.9999H21C23.07 35.9975 24.7475 34.32 24.7499 32.25V28.5H23.25V30H23.25ZM5.99998 1.49998H21C22.2426 1.49998 23.25 2.50734 23.25 3.74998V4.5H3.74998V3.74998C3.74998 2.50734 4.75734 1.49998 5.99998 1.49998ZM21 34.5H5.99998C4.75734 34.5 3.74998 33.4927 3.74998 32.25V31.5H23.25V32.25C23.25 33.4927 22.2427 34.5 21 34.5Z" fill="black"/>
<path d="M31.5 9H9.75V10.5H31.5C31.9142 10.5 32.25 10.8358 32.25 11.25V24.75C32.25 25.1642 31.9142 25.5 31.5 25.5H9.75V27H31.5C32.7426 27 33.75 25.9926 33.75 24.75V11.25C33.75 10.0074 32.7426 9 31.5 9Z" fill="black"/>
<path d="M6.75 7.50003H8.24998V28.5001H6.75V7.50003Z" fill="black"/>
<path d="M14.25 12H11.25C10.4216 12 9.75 12.6716 9.75 13.5V15.75C9.75 16.1642 10.0858 16.5 10.5 16.5H14.25C15.0784 16.5 15.75 15.8285 15.75 15.0001V13.5C15.75 12.6716 15.0784 12 14.25 12ZM14.25 15H11.25V13.5H14.25V15Z" fill="black"/>
<path d="M30.75 14.25C30.75 13.0074 29.7426 12 28.5 12C27.2574 12 26.25 13.0074 26.25 14.25C26.25 15.4927 27.2574 16.5 28.5 16.5C29.7426 16.5 30.75 15.4927 30.75 14.25ZM27.75 14.25C27.75 13.8358 28.0859 13.5 28.5001 13.5C28.9143 13.5 29.25 13.8358 29.25 14.25C29.25 14.6642 28.9142 15.0001 28.5 15.0001C28.0858 15.0001 27.75 14.6642 27.75 14.25Z" fill="black"/>
<path d="M18 20.25V18.75H12C11.5858 18.75 11.25 19.0858 11.25 19.5001V21.7501H9.75V23.25H30.75V21.7501H29.25V19.5001C29.25 19.0858 28.9142 18.75 28.5 18.75H25.4999V20.25H27.7499V21.75H12.75V20.25H18Z" fill="black"/>
<path d="M19.5 18.75H21V20.25H19.5V18.75Z" fill="black"/>
<path d="M22.5 18.75H24V20.25H22.5V18.75Z" fill="black"/>
</svg>
