<svg width="61" height="61" viewBox="0 0 61 61" fill="none" xmlns="http://www.w3.org/2000/svg">
<g clip-path="url(#clip0)">
<path d="M52.0031 54.6428H3.77252C2.24883 54.6428 1.01367 53.4076 1.01367 51.8835V3.65338C1.01367 2.12968 2.24883 0.894531 3.77252 0.894531H52.0026C53.5268 0.894531 54.7619 2.12968 54.7619 3.65338V51.8835C54.7619 53.4076 53.5268 54.6428 52.0031 54.6428Z" fill="#F9EFEF"/>
<path d="M54.7624 3.65292V51.8839C54.7624 53.4072 53.5272 54.6423 52.0026 54.6423H48.6602C50.1848 54.6423 51.4199 53.4072 51.4199 51.8839V3.65292C51.4199 2.12922 50.1848 0.894531 48.6602 0.894531H52.0026C53.5272 0.894531 54.7624 2.12922 54.7624 3.65292Z" fill="#EFE2DD"/>
<path d="M54.7619 10.3071H1.01367V3.65338C1.01367 2.12968 2.24883 0.894531 3.77252 0.894531H52.0026C53.5268 0.894531 54.7619 2.12968 54.7619 3.65338V10.3071Z" fill="#FFB531"/>
<path d="M54.7624 3.65292V10.3066H51.4199V3.65292C51.4199 2.12922 50.1848 0.894531 48.6602 0.894531H52.0026C53.5272 0.894531 54.7624 2.12922 54.7624 3.65292Z" fill="#FCA70C"/>
<path d="M7.23563 5.60096C7.23563 6.55595 6.46122 7.33036 5.50623 7.33036C4.55078 7.33036 3.77637 6.55595 3.77637 5.60096C3.77637 4.64551 4.55078 3.87109 5.50623 3.87109C6.46122 3.87109 7.23563 4.64551 7.23563 5.60096Z" fill="#FF5757"/>
<path d="M13.9163 5.60096C13.9163 6.55595 13.1419 7.33036 12.1869 7.33036C11.2314 7.33036 10.457 6.55595 10.457 5.60096C10.457 4.64551 11.2314 3.87109 12.1869 3.87109C13.1419 3.87109 13.9163 4.64551 13.9163 5.60096Z" fill="#FFC143"/>
<path d="M20.596 5.60096C20.596 6.55595 19.8216 7.33036 18.8666 7.33036C17.9111 7.33036 17.1367 6.55595 17.1367 5.60096C17.1367 4.64551 17.9111 3.87109 18.8666 3.87109C19.8216 3.87109 20.596 4.64551 20.596 5.60096Z" fill="#80CF00"/>
<path d="M7.23522 5.60096C7.23522 6.55548 6.46127 7.32943 5.50675 7.32943C5.04414 7.32943 4.62343 7.14793 4.31348 6.85147C5.24938 6.83099 6.00239 6.06589 6.00239 5.12393C6.00239 4.63062 5.79622 4.1871 5.46626 3.87249C5.47929 3.87109 5.49371 3.87109 5.50675 3.87109C6.46127 3.87109 7.23522 4.64504 7.23522 5.60096Z" fill="#FF4343"/>
<path d="M13.9163 5.60096C13.9163 6.55548 13.1423 7.32943 12.1864 7.32943C11.7238 7.32943 11.3045 7.14793 10.9932 6.85147C11.93 6.83099 12.6835 6.06589 12.6835 5.12393C12.6835 4.63062 12.4773 4.1871 12.1473 3.87249C12.1604 3.87109 12.1734 3.87109 12.1864 3.87109C13.1423 3.87109 13.9163 4.64504 13.9163 5.60096Z" fill="#FFB509"/>
<path d="M20.5955 5.60096C20.5955 6.55548 19.8211 7.32943 18.8661 7.32943C18.4035 7.32943 17.9842 7.14793 17.6729 6.85147C18.6097 6.83099 19.3618 6.06589 19.3618 5.12393C19.3618 4.63062 19.1556 4.1871 18.8256 3.87249C18.8387 3.87109 18.8531 3.87109 18.8661 3.87109C19.8211 3.87109 20.5955 4.64504 20.5955 5.60096Z" fill="#6DB000"/>
<path d="M2.88184 5.59996C2.88184 7.0464 4.05881 8.22338 5.50572 8.22338C6.95216 8.22338 8.12914 7.0464 8.12914 5.59996C8.12914 4.15305 6.95216 2.97607 5.50572 2.97607C4.05881 2.97607 2.88184 4.15305 2.88184 5.59996ZM6.3411 5.59996C6.3411 6.06023 5.966 6.43534 5.50572 6.43534C5.04498 6.43534 4.66988 6.06023 4.66988 5.59996C4.66988 5.13922 5.04498 4.76411 5.50572 4.76411C5.966 4.76411 6.3411 5.13922 6.3411 5.59996Z" fill="black"/>
<path d="M9.5625 5.59996C9.5625 7.0464 10.7395 8.22338 12.1864 8.22338C13.6328 8.22338 14.8098 7.0464 14.8098 5.59996C14.8098 4.15305 13.6328 2.97607 12.1864 2.97607C10.7395 2.97607 9.5625 4.15305 9.5625 5.59996ZM13.0218 5.59996C13.0218 6.06023 12.6471 6.43534 12.1864 6.43534C11.7256 6.43534 11.3505 6.06023 11.3505 5.59996C11.3505 5.13922 11.7256 4.76411 12.1864 4.76411C12.6471 4.76411 13.0218 5.13922 13.0218 5.59996Z" fill="black"/>
<path d="M16.2432 5.59996C16.2432 7.0464 17.4201 8.22338 18.8671 8.22338C20.3135 8.22338 21.4905 7.0464 21.4905 5.59996C21.4905 4.15305 20.3135 2.97607 18.8671 2.97607C17.4201 2.97607 16.2432 4.15305 16.2432 5.59996ZM19.7024 5.59996C19.7024 6.06023 19.3278 6.43534 18.8671 6.43534C18.4063 6.43534 18.0312 6.06023 18.0312 5.59996C18.0312 5.13922 18.4063 4.76411 18.8671 4.76411C19.3278 4.76411 19.7024 5.13922 19.7024 5.59996Z" fill="black"/>
<path d="M25.4717 24.4229H43.9487V29.0866H25.4717V24.4229Z" fill="#F98500"/>
<path d="M41.9424 24.4229H43.9487V29.0866H41.9424V24.4229Z" fill="#F98500"/>
<path d="M44.7668 29.934C44.9297 29.168 44.4094 28.4331 43.7006 28.4331H25.7183C25.0095 28.4331 24.4892 29.168 24.6521 29.934C24.9015 31.1049 25.5107 32.6686 26.9986 33.5031C27.6036 33.8424 28.2775 34.0039 28.9556 34.0039H40.4638C41.1419 34.0039 41.8153 33.8424 42.4203 33.5031C43.9082 32.6686 44.5174 31.1049 44.7668 29.934Z" fill="#FFB531"/>
<path d="M44.7684 29.9325C44.5195 31.1044 43.9098 32.6677 42.4215 33.5021C41.8169 33.8414 41.1435 34.0029 40.4649 34.0029H38.1338C38.8789 34.0029 39.6198 33.8256 40.2853 33.4523C41.9212 32.5345 42.5913 30.8154 42.865 29.5276C42.9501 29.1265 42.8659 28.7332 42.6691 28.4316H43.7022C44.4106 28.4316 44.9309 29.167 44.7684 29.9325Z" fill="#E8782D"/>
<path d="M39.2002 16.4246C38.4919 16.1579 37.7547 16.0016 37.0087 15.9425C35.4957 15.8219 33.9268 15.8219 32.4134 15.9425C31.6678 16.0016 30.9302 16.1579 30.2218 16.4246C26.2139 17.9334 24.84 21.0097 24.3691 22.9657C24.155 23.8555 24.7511 24.7305 25.5777 24.7305H43.8444C44.6709 24.7305 45.2675 23.8555 45.0534 22.9657C44.5825 21.0097 43.2082 17.9334 39.2002 16.4246Z" fill="#FFB531"/>
<path d="M43.8432 24.7308H42.9566C43.2219 24.3743 43.3392 23.8819 43.2191 23.3853C42.717 21.2967 41.2501 18.0124 36.9708 16.4017C36.214 16.1173 35.4271 15.9502 34.6308 15.8869C34.4916 15.8758 34.352 15.8655 34.2119 15.8576C35.1474 15.8409 36.0879 15.8702 37.0075 15.9428C37.7526 16.0014 38.4903 16.1583 39.1981 16.4249C43.2066 17.9333 44.5804 21.01 45.0518 22.966C45.2659 23.8559 44.6698 24.7308 43.8432 24.7308Z" fill="#E8782D"/>
<path d="M24.5772 25.3624V27.9225C24.4432 28.0221 24.3189 28.1375 24.21 28.272C23.7949 28.7849 23.6376 29.4583 23.7781 30.1196C24.0648 31.4669 24.7806 33.2834 26.5616 34.2821C27.2788 34.6847 28.1067 34.8974 28.9556 34.8974H40.4638C41.3132 34.8974 42.1406 34.6847 42.8583 34.2821C44.6389 33.2834 45.3547 31.4669 45.6418 30.1196C45.7823 29.4583 45.6246 28.7849 45.2094 28.272C45.101 28.1375 44.9763 28.0221 44.8423 27.9225V25.3624C45.0852 25.2265 45.3035 25.0403 45.4845 24.8109C45.9313 24.244 46.0942 23.4757 45.921 22.7562C45.451 20.8029 43.9929 17.2743 39.514 15.5882C38.747 15.2992 37.9274 15.1186 37.0781 15.0511C35.5288 14.9283 33.8911 14.9283 32.3413 15.0511C31.4925 15.1186 30.6729 15.2992 29.9055 15.5882C25.427 17.2743 23.9689 20.8029 23.4984 22.7562C23.3253 23.4757 23.4886 24.244 23.9354 24.8109C24.116 25.0403 24.3347 25.226 24.5772 25.3624ZM43.8929 29.7473C43.6825 30.7339 43.1808 32.051 41.9833 32.723C41.5328 32.9757 41.0074 33.1093 40.4638 33.1093H28.9556C28.4125 33.1093 27.8871 32.9757 27.4361 32.723C26.2386 32.051 25.7369 30.7339 25.5271 29.7473C25.4996 29.6179 25.5266 29.4872 25.5997 29.3969C25.6378 29.3503 25.6778 29.3266 25.7183 29.3266H43.7011C43.7421 29.3266 43.7816 29.3503 43.8198 29.3969C43.8929 29.4872 43.9203 29.6179 43.8929 29.7473ZM26.3652 27.5386V25.6249H43.0542V27.5386H26.3652ZM25.2371 23.175C25.7104 21.2087 27.014 18.5872 30.5356 17.2613C31.1457 17.0318 31.801 16.8876 32.4828 16.8336C33.2116 16.7754 33.9604 16.7466 34.7097 16.7466C35.459 16.7466 36.2083 16.7754 36.9366 16.8336C37.6184 16.8876 38.2737 17.0318 38.8838 17.2613C42.4059 18.5872 43.7095 21.2087 44.1828 23.1746C44.2289 23.3658 44.1902 23.5641 44.0799 23.7042C44.0325 23.7647 43.9529 23.8364 43.8435 23.8364H25.5764C25.467 23.8364 25.3874 23.7647 25.34 23.7042C25.2292 23.5641 25.1906 23.3663 25.2371 23.175Z" fill="black"/>
<path d="M8.46433 31.0771H18.1701C18.6639 31.0771 19.0641 30.6769 19.0641 30.1831C19.0641 29.6893 18.6639 29.2891 18.1701 29.2891H8.46433C7.97055 29.2891 7.57031 29.6893 7.57031 30.1831C7.57031 30.6769 7.97055 31.0771 8.46433 31.0771Z" fill="black"/>
<path d="M8.89402 20.788H18.5998C19.0936 20.788 19.4938 20.3878 19.4938 19.894C19.4938 19.4002 19.0936 19 18.5998 19H8.89402C8.40024 19 8 19.4002 8 19.894C8 20.3878 8.40024 20.788 8.89402 20.788Z" fill="black"/>
<path d="M19 37C19 36.4477 18.6333 36 18.1809 36H7.81907C7.36669 36 7 36.4477 7 37C7 37.5523 7.36669 38 7.81907 38H18.1809C18.6333 38 19 37.5523 19 37Z" fill="black"/>
<path d="M26.4594 37.8926C25.9657 37.8926 25.5654 38.2928 25.5654 38.7866C25.5654 39.2804 25.9657 39.6806 26.4594 39.6806H30.8383C31.3321 39.6806 31.7323 39.2804 31.7323 38.7866C31.7323 38.2928 31.3321 37.8926 30.8383 37.8926H26.4594Z" fill="black"/>
<path d="M47.5575 37.8926H37.2309C36.7372 37.8926 36.3369 38.2928 36.3369 38.7866C36.3369 39.2804 36.7372 39.6806 37.2309 39.6806H47.5575C48.0518 39.6806 48.4516 39.2804 48.4516 38.7866C48.4516 38.2928 48.0518 37.8926 47.5575 37.8926Z" fill="black"/>
<path d="M8.21726 44.2314H15.4281C15.9218 44.2314 16.3225 43.8312 16.3225 43.3374C16.3225 42.8436 15.9218 42.4434 15.4281 42.4434H8.21726C7.72348 42.4434 7.32324 42.8436 7.32324 43.3374C7.32324 43.8312 7.72301 44.2314 8.21726 44.2314Z" fill="black"/>
<path d="M34.4366 43.3374C34.4366 42.8436 34.0368 42.4434 33.5426 42.4434H20.4692C19.9754 42.4434 19.5752 42.8436 19.5752 43.3374C19.5752 43.8312 19.9754 44.2314 20.4692 44.2314H33.5426C34.0368 44.2314 34.4366 43.8312 34.4366 43.3374Z" fill="black"/>
<path d="M41.465 42.4434H39.6011C39.1073 42.4434 38.707 42.8436 38.707 43.3374C38.707 43.8312 39.1073 44.2314 39.6011 44.2314H41.465C41.9587 44.2314 42.359 43.8312 42.359 43.3374C42.359 42.8436 41.9587 42.4434 41.465 42.4434Z" fill="black"/>
<path d="M17.3539 46.6304H8.21726C7.72348 46.6304 7.32324 47.0306 7.32324 47.5244C7.32324 48.0182 7.72348 48.4184 8.21726 48.4184H17.3543C17.8481 48.4184 18.2483 48.0182 18.2483 47.5244C18.2483 47.0306 17.8481 46.6304 17.3539 46.6304Z" fill="black"/>
<path d="M37.2314 46.6304H23.1928C22.6991 46.6304 22.2988 47.0306 22.2988 47.5244C22.2988 48.0182 22.6991 48.4184 23.1928 48.4184H37.2314C37.7252 48.4184 38.1255 48.0182 38.1255 47.5244C38.1255 47.0306 37.7252 46.6304 37.2314 46.6304Z" fill="black"/>
<path d="M60.1222 51.3162C60.1222 56.1708 56.1869 60.1061 51.3319 60.1061C46.4774 60.1061 42.542 56.1708 42.542 51.3162C42.542 46.4612 46.4774 42.5259 51.3319 42.5259C56.1869 42.5259 60.1222 46.4612 60.1222 51.3162Z" fill="#FFC143"/>
<path d="M60.124 51.3169C60.124 56.1718 56.1886 60.1072 51.3337 60.1072C49.4707 60.1072 47.7446 59.5273 46.3232 58.5393C47.0725 58.7483 47.8637 58.859 48.68 58.859C53.535 58.859 57.4703 54.9237 57.4703 50.0687C57.4703 47.0762 55.975 44.4332 53.6913 42.8472C57.4019 43.8766 60.124 47.2786 60.124 51.3169Z" fill="#FFB509"/>
<path d="M55.6554 42.6537V3.65287C55.6554 1.63865 54.0168 0 52.0026 0H38.2567C37.7629 0 37.3627 0.400238 37.3627 0.89402C37.3627 1.3878 37.7629 1.78804 38.2567 1.78804H52.0026C53.0306 1.78804 53.8674 2.62482 53.8674 3.65287V9.41257H1.90718V3.65287C1.90718 2.62482 2.74396 1.78804 3.77201 1.78804H34.2124C34.7067 1.78804 35.1065 1.3878 35.1065 0.89402C35.1065 0.400238 34.7067 0 34.2124 0H3.77201C1.75779 0 0.119141 1.63865 0.119141 3.65287V51.8829C0.119141 53.8976 1.75779 55.5363 3.77248 55.5363H42.6179C44.1891 58.7675 47.5055 61 51.3329 61C56.6728 61 61.0168 56.6556 61.0168 51.3161C61.0172 47.5287 58.8308 44.2449 55.6554 42.6537ZM51.3329 59.212C46.9791 59.212 43.437 55.6699 43.437 51.3161C43.437 51.2728 43.4375 51.257 43.4319 51.2174C43.4291 51.1756 43.4216 50.9694 43.4691 50.5933C43.4714 50.5752 43.4733 50.5566 43.4742 50.5384C43.4747 50.5352 43.4975 50.2006 43.571 49.858C43.6743 49.3754 43.3667 48.8998 42.8841 48.7965C42.4015 48.6931 41.9263 49.0003 41.8225 49.4834C41.7351 49.8934 41.7006 50.282 41.6922 50.3928C41.6294 50.8996 41.6383 51.2142 41.649 51.3566C41.6527 52.1817 41.7602 52.9831 41.9589 53.7482H3.77201C2.74396 53.7482 1.90718 52.9115 1.90718 51.8829V11.2006H53.8674V41.9705C53.059 41.7509 52.2097 41.6317 51.3329 41.6317C48.2571 41.6317 45.4331 43.0442 43.5845 45.5061C43.2881 45.9013 43.3677 46.4616 43.7623 46.758C44.1574 47.0545 44.7178 46.9744 45.0142 46.5798C46.5221 44.5716 48.8253 43.4198 51.3329 43.4198C55.6866 43.4198 59.2287 46.9619 59.2287 51.3161C59.2287 55.6699 55.6871 59.212 51.3329 59.212Z" fill="black"/>
<path d="M54.762 50.9903H52.2275V45.7602C52.2275 45.2664 51.8273 44.8662 51.3335 44.8662C50.8397 44.8662 50.4395 45.2664 50.4395 45.7602V51.8843C50.4395 52.3777 50.8397 52.7784 51.3335 52.7784H54.762C55.2558 52.7784 55.656 52.3777 55.656 51.8843C55.656 51.3906 55.2558 50.9903 54.762 50.9903Z" fill="black"/>
</g>
<defs>
<clipPath id="clip0">
<rect width="61" height="61" fill="white"/>
</clipPath>
</defs>
</svg>
