<svg width="66" height="64" viewBox="0 0 66 64" fill="none" xmlns="http://www.w3.org/2000/svg">
<path d="M64.559 48.7278C64.5593 52.1819 63.3092 55.5194 61.0398 58.1234C58.7704 60.7274 55.6351 62.4219 52.2133 62.8938C48.7916 63.3656 45.3147 62.5829 42.4252 60.6904C39.5358 58.7978 37.429 55.9232 36.4944 52.5979C35.5597 49.2727 35.8603 45.7215 37.3407 42.6006C38.821 39.4798 41.381 37.0003 44.5475 35.6204C47.714 34.2404 51.2729 34.0533 54.5667 35.0937C57.8604 36.134 60.6662 38.3314 62.4656 41.2799C63.8345 43.523 64.5589 46.1 64.559 48.7278Z" fill="#F6991E"/>
<path d="M58.5008 49.0601C58.5009 49.3249 58.4487 49.5871 58.3474 49.8317C58.2461 50.0763 58.0976 50.2986 57.9104 50.4858C57.7232 50.673 57.5009 50.8215 57.2563 50.9228C57.0117 51.0241 56.7495 51.0763 56.4847 51.0762H56.0284C55.906 52.5223 55.2451 53.8696 54.1766 54.8515C53.1081 55.8335 51.7098 56.3784 50.2586 56.3784C48.8074 56.3784 47.4091 55.8335 46.3405 54.8515C45.272 53.8696 44.6111 52.5223 44.4887 51.0762H44.035C43.4999 51.0762 42.9868 50.8637 42.6085 50.4854C42.2301 50.107 42.0176 49.5939 42.0176 49.0589C42.0176 48.5238 42.2301 48.0107 42.6085 47.6324C42.9868 47.254 43.4999 47.0415 44.035 47.0415H44.4681V48.676C44.4633 48.0916 44.6408 47.5203 44.976 47.0415C45.5561 46.0283 47.5361 45.1827 49.0468 46.317C49.3993 46.5734 49.824 46.7114 50.2598 46.7114C50.6957 46.7114 51.1203 46.5734 51.4729 46.317C51.7874 46.0957 52.1426 45.9389 52.5181 45.8555C52.8935 45.7721 53.2817 45.7639 53.6604 45.8312C54.039 45.8986 54.4006 46.0402 54.7243 46.2479C55.048 46.4556 55.3273 46.7253 55.5463 47.0415C55.8781 47.5216 56.0536 48.0924 56.049 48.676V47.0415H56.4847C56.7497 47.0415 57.0121 47.0938 57.2568 47.1953C57.5016 47.2967 57.7239 47.4455 57.9112 47.633C58.0984 47.8204 58.2468 48.043 58.348 48.2879C58.4492 48.5328 58.5011 48.7952 58.5008 49.0601Z" fill="#FFB69F"/>
<path d="M64.557 15.2706C64.5558 18.7499 63.2853 22.1093 60.9836 24.7185C58.682 27.3277 55.5074 29.0075 52.0554 29.4428C48.6034 29.8781 45.1112 29.0389 42.2339 27.0828C39.3566 25.1266 37.2919 22.1878 36.427 18.8177C35.5622 15.4476 35.9566 11.8777 37.5364 8.77772C39.1162 5.67774 41.7728 3.26066 45.0078 1.9799C48.2428 0.699144 51.834 0.642704 55.1076 1.82117C58.3813 2.99964 61.1125 5.33204 62.7889 8.38084C63.9492 10.4918 64.5574 12.8618 64.557 15.2706Z" fill="#F6991E"/>
<path d="M16.7543 46.2388C24.6282 45.6781 30.5567 38.8405 29.996 30.9666C29.4352 23.0927 22.5976 17.1642 14.7237 17.7249C6.84984 18.2857 0.921357 25.1233 1.48209 32.9972C2.04281 40.8711 8.88042 46.7995 16.7543 46.2388Z" fill="#F98500"/>
<path d="M22.4418 28.8263L21.6967 29.5843H9.7832V27.8595C9.78348 27.1423 10.0685 26.4546 10.5756 25.9475C11.0827 25.4404 11.7705 25.1553 12.4877 25.1551H18.9149C19.3908 25.1546 19.8517 24.9884 20.2182 24.6849C20.5848 24.3814 20.8341 23.9596 20.9233 23.4922L22.0009 24.2295C22.364 24.4786 22.6681 24.8042 22.8917 25.1836C23.1153 25.5629 23.253 25.9867 23.295 26.425C23.337 26.8633 23.2824 27.3055 23.135 27.7204C22.9876 28.1353 22.751 28.5128 22.4418 28.8263Z" fill="#AFAFAF"/>
<path d="M22.3001 32.1602H21.6983V29.582H9.78483V32.1602H9.18516C8.73045 32.1602 8.29438 32.3408 7.97285 32.6623C7.65133 32.9838 7.4707 33.4199 7.4707 33.8746C7.4707 34.3293 7.65133 34.7654 7.97285 35.0869C8.29438 35.4084 8.73045 35.5891 9.18516 35.5891H9.87738C10.1217 36.9667 10.8433 38.2143 11.9155 39.1131C12.9878 40.0119 14.3422 40.5045 15.7413 40.5045C17.1404 40.5045 18.4949 40.0119 19.5671 39.1131C20.6394 38.2143 21.3609 36.9667 21.6053 35.5891H22.2996C22.7543 35.5891 23.1903 35.4084 23.5119 35.0869C23.8334 34.7654 24.014 34.3293 24.014 33.8746C24.014 33.4199 23.8334 32.9838 23.5119 32.6623C23.1903 32.3408 22.7543 32.1602 22.2996 32.1602H22.3001Z" fill="#FFB69F"/>
<path d="M51.4728 41.6138C51.1194 41.8702 50.6939 42.0083 50.2573 42.0083C49.8206 42.0083 49.3951 41.8702 49.0417 41.6138C48.6007 41.3037 48.082 41.1225 47.5438 41.0904C47.0056 41.0583 46.4691 41.1767 45.9944 41.4322C45.5197 41.6878 45.1255 42.0705 44.8559 42.5374C44.5863 43.0043 44.452 43.537 44.4681 44.0759V48.6753C44.4633 48.0909 44.6408 47.5196 44.976 47.0408C45.5561 46.0276 47.536 45.182 49.0468 46.3163C49.3993 46.5727 49.824 46.7107 50.2598 46.7107C50.6957 46.7107 51.1203 46.5727 51.4728 46.3163C51.7874 46.095 52.1426 45.9382 52.5181 45.8548C52.8935 45.7714 53.2817 45.7632 53.6604 45.8305C54.039 45.8979 54.4006 46.0395 54.7243 46.2472C55.0479 46.4549 55.3273 46.7246 55.5463 47.0408C55.878 47.5209 56.0536 48.0917 56.049 48.6753V44.0759C56.049 41.6963 53.4606 40.2165 51.4728 41.6138Z" fill="#AFAFAF"/>
<path d="M57.9785 15.0942V19.6861H54.8118C54.9209 19.286 54.9759 18.8731 54.9752 18.4584V14.7078L47.3494 13.684C47.1237 13.6547 46.8943 13.6739 46.6765 13.7403C46.4588 13.8067 46.2577 13.9187 46.0866 14.0689C45.9156 14.2192 45.7786 14.4042 45.6847 14.6115C45.5908 14.8189 45.5422 15.044 45.5422 15.2716V18.4584C45.5429 18.873 45.5977 19.2857 45.7054 19.6861H42.5371V15.2682C42.5371 11.0161 45.9003 7.43512 50.1454 7.37196C51.169 7.35664 52.1853 7.5451 53.1353 7.92637C54.0854 8.30765 54.95 8.87411 55.679 9.59278C56.408 10.3115 56.9867 11.168 57.3815 12.1125C57.7763 13.057 57.9792 14.0705 57.9785 15.0942Z" fill="#AFAFAF"/>
<path d="M47.3483 13.6832C47.1225 13.6539 46.8931 13.6731 46.6754 13.7395C46.4576 13.8059 46.2565 13.9179 46.0855 14.0682C45.9145 14.2184 45.7774 14.4034 45.6835 14.6108C45.5897 14.8182 45.5411 15.0432 45.541 15.2708V18.4577C45.5416 19.6009 45.9573 20.705 46.711 21.5646C47.4646 22.4243 48.5049 22.9809 49.6382 23.131C50.7715 23.2811 51.9208 23.0145 52.8722 22.3807C53.8237 21.7468 54.5126 20.789 54.8107 19.6854C54.9198 19.2853 54.9747 18.8724 54.9741 18.4577V14.707L47.3483 13.6832Z" fill="#FFB69F"/>
<path d="M50.2737 60.5459C47.9351 60.5491 45.6481 59.8585 43.7021 58.5615C41.7562 57.2645 40.2386 55.4194 39.3416 53.2596C38.4446 51.0999 38.2084 48.7226 38.6629 46.4286C39.1174 44.1346 40.2421 42.0269 41.8948 40.3724C41.9546 40.3121 42.0257 40.2642 42.104 40.2315C42.1823 40.1988 42.2663 40.1818 42.3512 40.1816C42.4361 40.1815 42.5201 40.1981 42.5986 40.2305C42.677 40.2629 42.7483 40.3105 42.8083 40.3705C42.8683 40.4305 42.9159 40.5018 42.9483 40.5803C42.9807 40.6587 42.9972 40.7428 42.997 40.8277C42.9968 40.9126 42.9799 40.9966 42.9471 41.0749C42.9144 41.1532 42.8665 41.2242 42.8062 41.284C41.0431 43.053 39.9658 45.3907 39.7664 47.8803C39.5671 50.3699 40.2586 52.8493 41.7177 54.8763C43.1768 56.9033 45.3086 58.346 47.7327 58.9471C50.1568 59.5482 52.7157 59.2686 54.9527 58.1581C55.1055 58.0834 55.2817 58.0721 55.4428 58.1268C55.6038 58.1814 55.7368 58.2974 55.8126 58.4497C55.8885 58.6019 55.9011 58.7779 55.8477 58.9394C55.7943 59.1009 55.6793 59.2348 55.5277 59.3118C53.8947 60.1222 52.0967 60.5446 50.2737 60.5459ZM56.8995 57.7412C56.79 57.6099 56.7373 57.4405 56.7527 57.2702C56.7682 57.1 56.8507 56.9429 56.982 56.8334C57.2305 56.6272 57.4718 56.4057 57.7002 56.1776C57.7597 56.116 57.8308 56.0669 57.9095 56.0331C57.9881 55.9993 58.0727 55.9816 58.1582 55.9808C58.2438 55.9801 58.3287 55.9964 58.4079 56.0288C58.4871 56.0612 58.5591 56.1091 58.6196 56.1696C58.6801 56.2301 58.728 56.3021 58.7604 56.3813C58.7928 56.4605 58.8091 56.5453 58.8084 56.6309C58.8076 56.7165 58.7898 56.8011 58.7561 56.8797C58.7223 56.9584 58.6732 57.0295 58.6116 57.0889C58.3561 57.3444 58.0854 57.5917 57.8072 57.8237C57.6759 57.9331 57.5065 57.9859 57.3363 57.9704C57.166 57.955 57.0089 57.8725 56.8995 57.7412Z" fill="#FFC476"/>
<path d="M15.7351 43.8176C13.3983 43.8166 11.1142 43.1229 9.17148 41.8243C7.22872 40.5257 5.71446 38.6804 4.82004 36.5215C3.92562 34.3626 3.69116 31.9871 4.14629 29.695C4.60142 27.4029 5.72572 25.2972 7.37713 23.6438C7.43689 23.5836 7.50797 23.5357 7.58628 23.503C7.6646 23.4702 7.74861 23.4533 7.83348 23.4531C7.91836 23.453 8.00244 23.4695 8.08089 23.502C8.15934 23.5344 8.23061 23.5819 8.29062 23.642C8.35063 23.702 8.39819 23.7733 8.43058 23.8517C8.46296 23.9302 8.47953 24.0143 8.47933 24.0992C8.47914 24.184 8.46217 24.268 8.42942 24.3463C8.39668 24.4246 8.34878 24.4957 8.28849 24.5555C6.81739 26.0286 5.8159 27.9046 5.41054 29.9466C5.00517 31.9886 5.21413 34.105 6.011 36.0283C6.80787 37.9516 8.1569 39.5956 9.88767 40.7525C11.6184 41.9095 13.6533 42.5275 15.7351 42.5286C17.3651 42.5279 18.973 42.1514 20.4338 41.4282C20.5097 41.389 20.5927 41.3652 20.6779 41.3584C20.7631 41.3515 20.8488 41.3616 20.93 41.3882C21.0113 41.4148 21.0864 41.4572 21.1511 41.5131C21.2158 41.569 21.2687 41.6372 21.3068 41.7137C21.3448 41.7902 21.3673 41.8736 21.3729 41.9588C21.3784 42.0441 21.367 42.1297 21.3392 42.2105C21.3114 42.2913 21.2678 42.3658 21.2109 42.4296C21.154 42.4934 21.085 42.5453 21.0079 42.5822C19.3687 43.394 17.5644 43.8167 15.7351 43.8176ZM22.38 41.0121C22.3259 40.947 22.2851 40.872 22.26 40.7911C22.2348 40.7103 22.2259 40.6253 22.2336 40.541C22.2414 40.4567 22.2656 40.3748 22.305 40.2998C22.3444 40.2249 22.3982 40.1585 22.4633 40.1044C22.7108 39.8981 22.9531 39.6779 23.1815 39.449C23.3031 39.3316 23.4659 39.2666 23.6349 39.2681C23.8039 39.2696 23.9656 39.3374 24.0851 39.4569C24.2046 39.5764 24.2723 39.738 24.2738 39.907C24.2753 40.076 24.2103 40.2388 24.0929 40.3604C23.8351 40.6182 23.5652 40.8644 23.2875 41.0954C23.1561 41.2047 22.9867 41.2573 22.8165 41.2416C22.6463 41.226 22.4893 41.1435 22.38 41.0121Z" fill="#FFB867"/>
<path d="M50.2505 27.0891C47.9137 27.088 45.6297 26.3943 43.687 25.0957C41.7443 23.7971 40.2301 21.9518 39.3357 19.793C38.4413 17.6342 38.2068 15.2587 38.6619 12.9666C39.117 10.6746 40.2412 8.56889 41.8925 6.91552C41.9519 6.85396 42.0231 6.80486 42.1017 6.77108C42.1803 6.7373 42.2649 6.71952 42.3505 6.71877C42.4361 6.71803 42.5209 6.73434 42.6002 6.76675C42.6794 6.79915 42.7513 6.84701 42.8119 6.90753C42.8724 6.96805 42.9202 7.04001 42.9526 7.11922C42.985 7.19843 43.0013 7.2833 43.0006 7.36888C42.9999 7.45446 42.9821 7.53904 42.9483 7.61767C42.9145 7.69631 42.8654 7.76743 42.8039 7.82688C41.3329 9.30003 40.3315 11.1761 39.9262 13.218C39.5209 15.26 39.7299 17.3763 40.5267 19.2996C41.3236 21.2228 42.6726 22.8668 44.4033 24.0238C46.1339 25.1808 48.1687 25.7989 50.2505 25.8C51.8808 25.7994 53.489 25.4229 54.9502 24.6997C55.1031 24.6251 55.2792 24.614 55.4403 24.6687C55.6013 24.7235 55.7342 24.8397 55.8099 24.992C55.8857 25.1443 55.8981 25.3204 55.8446 25.4818C55.791 25.6433 55.6758 25.777 55.5241 25.8539C53.8845 26.6655 52.0799 27.0882 50.2505 27.0891ZM56.8964 24.2836C56.7871 24.1522 56.7345 23.9828 56.7502 23.8126C56.7658 23.6424 56.8483 23.4854 56.9797 23.3761C57.2274 23.1698 57.4695 22.9496 57.6974 22.7207C57.8183 22.5998 57.9822 22.5318 58.1532 22.5318C58.3242 22.5317 58.4881 22.5996 58.6091 22.7205C58.73 22.8413 58.7979 23.0052 58.798 23.1762C58.798 23.3472 58.7302 23.5112 58.6093 23.6321C58.3515 23.8886 58.0818 24.1358 57.8039 24.3671C57.6725 24.4763 57.503 24.5289 57.3329 24.5132C57.1627 24.4976 57.0057 24.415 56.8964 24.2836Z" fill="#FFC476"/>
<path d="M60.3752 41.3356C60.5462 41.3356 60.7101 41.2677 60.831 41.1468C60.9518 41.0259 61.0197 40.862 61.0197 40.6911V39.2558H62.455C62.6259 39.2558 62.7899 39.1879 62.9107 39.067C63.0316 38.9462 63.0995 38.7822 63.0995 38.6113C63.0995 38.4403 63.0316 38.2764 62.9107 38.1555C62.7899 38.0347 62.6259 37.9667 62.455 37.9667H61.0197V36.5312C61.0197 36.3603 60.9518 36.1964 60.831 36.0755C60.7101 35.9546 60.5462 35.8867 60.3752 35.8867C60.2043 35.8867 60.0403 35.9546 59.9195 36.0755C59.7986 36.1964 59.7307 36.3603 59.7307 36.5312V37.9667H58.2949C58.124 37.9667 57.96 38.0347 57.8392 38.1555C57.7183 38.2764 57.6504 38.4403 57.6504 38.6113C57.6504 38.7822 57.7183 38.9462 57.8392 39.067C57.96 39.1879 58.124 39.2558 58.2949 39.2558H59.7307V40.6911C59.7307 40.862 59.7986 41.0259 59.9195 41.1468C60.0403 41.2677 60.2043 41.3356 60.3752 41.3356Z" fill="black"/>
<path d="M0.843281 33.1624C0.845823 33.2495 0.866021 33.3353 0.902653 33.4144C0.939286 33.4935 0.991591 33.5644 1.0564 33.6227C1.12122 33.681 1.19719 33.7256 1.27972 33.7537C1.36226 33.7818 1.44964 33.7929 1.53658 33.7863C1.62352 33.7796 1.7082 33.7554 1.78552 33.7151C1.86283 33.6748 1.93116 33.6192 1.98638 33.5518C2.04159 33.4843 2.08254 33.4063 2.10674 33.3225C2.13094 33.2388 2.1379 33.151 2.12719 33.0644C2.10141 32.7086 2.08594 32.3503 2.08594 31.9997C2.08729 28.6385 3.32891 25.396 5.57286 22.8935C7.81682 20.391 10.9053 18.8046 14.2465 18.4382C17.5876 18.0718 20.9465 18.9512 23.6795 20.9078C26.4125 22.8645 28.3273 25.7609 29.057 29.0419C29.7868 32.3229 29.2802 35.7579 27.6343 38.6885C25.9883 41.6192 23.3189 43.8394 20.1374 44.9237C16.9559 46.0081 13.4862 45.8804 10.393 44.565C7.29991 43.2496 4.80094 40.839 3.375 37.7953C3.29893 37.6434 3.16722 37.5268 3.00729 37.4697C2.84737 37.4125 2.67156 37.4192 2.51648 37.4885C2.43987 37.5243 2.37107 37.5748 2.31404 37.6372C2.257 37.6996 2.21284 37.7727 2.1841 37.8522C2.15536 37.9317 2.14259 38.0162 2.14654 38.1006C2.15049 38.1851 2.17107 38.2679 2.20711 38.3444C3.3494 40.7803 5.12796 42.8626 7.35515 44.3718C9.58234 45.881 12.1756 46.7611 14.8613 46.9193C17.547 47.0774 20.2256 46.5077 22.6146 45.2703C25.0035 44.0329 27.0141 42.1737 28.4344 39.8887L36.3234 43.3375C35.4071 45.707 35.11 48.2711 35.4603 50.7874C35.8106 53.3037 36.7967 55.6891 38.3254 57.7183C39.8541 59.7474 41.875 61.3533 44.197 62.3841C46.519 63.415 49.0656 63.8367 51.5959 63.6096C54.1263 63.3824 56.557 62.5138 58.6583 61.0858C60.7596 59.6579 62.4621 57.7178 63.605 55.4488C64.7478 53.1798 65.2933 50.6569 65.1898 48.1184C65.0863 45.5799 64.3372 43.1098 63.0135 40.9414C62.9241 40.7957 62.7804 40.6914 62.6142 40.6516C62.4479 40.6118 62.2727 40.6397 62.127 40.7291C61.9813 40.8185 61.877 40.9621 61.8372 41.1283C61.7974 41.2946 61.8253 41.4698 61.9147 41.6156C63.6548 44.4678 64.2888 47.859 63.6966 51.1473C63.1044 54.4355 61.3271 57.3925 58.7012 59.4584C56.0752 61.5243 52.783 62.5556 49.4477 62.3572C46.1125 62.1588 42.9657 60.7444 40.6033 58.3818C38.2408 56.0192 36.8265 52.8724 36.6283 49.5371C36.4301 46.2018 37.4617 42.9096 39.5277 40.2838C41.5937 37.658 44.5508 35.8809 47.8391 35.2889C51.1274 34.6968 54.5186 35.331 57.3707 37.0714C57.4429 37.1169 57.5234 37.1476 57.6076 37.1618C57.6918 37.176 57.7779 37.1733 57.861 37.1539C57.9441 37.1345 58.0226 37.0988 58.0918 37.0489C58.161 36.9989 58.2196 36.9357 58.2642 36.863C58.3088 36.7902 58.3385 36.7093 58.3516 36.6249C58.3646 36.5406 58.3608 36.4545 58.3403 36.3716C58.3199 36.2888 58.2831 36.2108 58.2323 36.1423C58.1814 36.0737 58.1175 36.0159 58.0441 35.9723C56.2698 34.8894 54.2889 34.1886 52.2283 33.9149C50.1676 33.6412 48.0725 33.8005 46.077 34.3826C44.0814 34.9648 42.2293 35.9569 40.639 37.2957C39.0488 38.6345 37.7554 40.2903 36.8416 42.1575L29.0694 38.7595C29.9944 36.9356 30.5357 34.9415 30.6599 32.9002C30.784 30.859 30.4884 28.8139 29.7912 26.8914L37.3784 22.8535C39.3738 26.2294 42.6161 28.6858 46.4061 29.6929C50.196 30.7001 54.23 30.1773 57.638 28.2374C61.0461 26.2974 63.5552 23.0957 64.6242 19.3228C65.6932 15.5498 65.2364 11.5078 63.3525 8.06848C63.3122 7.99329 63.2573 7.92686 63.1911 7.87304C63.1249 7.81921 63.0487 7.77907 62.9669 7.75493C62.885 7.73079 62.7992 7.72314 62.7144 7.73242C62.6296 7.7417 62.5475 7.76773 62.4728 7.80899C62.3981 7.85025 62.3324 7.90593 62.2794 7.9728C62.2264 8.03966 62.1872 8.11638 62.1641 8.19851C62.141 8.28064 62.1344 8.36654 62.1447 8.45123C62.1551 8.53592 62.1821 8.61771 62.2243 8.69187C63.8227 11.5974 64.3095 14.9851 63.5941 18.2232C62.8786 21.4612 61.0097 24.3284 58.336 26.29C55.6622 28.2516 52.3662 29.1736 49.0627 28.884C45.7593 28.5944 42.6739 27.1131 40.3822 24.7162C38.0905 22.3194 36.749 19.1707 36.6078 15.8576C36.4666 12.5444 37.5354 9.29309 39.6149 6.70996C41.6944 4.12684 44.6425 2.38836 47.9094 1.8188C51.1763 1.24924 54.5388 1.8875 57.3697 3.61451C57.4419 3.66005 57.5224 3.6908 57.6066 3.70497C57.6907 3.71915 57.7769 3.71646 57.86 3.69708C57.9431 3.67769 58.0216 3.64199 58.0908 3.59204C58.16 3.5421 58.2186 3.4789 58.2632 3.40612C58.3078 3.33335 58.3375 3.25244 58.3505 3.16809C58.3636 3.08375 58.3598 2.99765 58.3393 2.91479C58.3188 2.83193 58.2821 2.75396 58.2313 2.68541C58.1804 2.61686 58.1165 2.55909 58.0431 2.51546C55.293 0.838614 52.0748 0.0949363 48.8678 0.395174C45.6608 0.695412 42.6366 2.02351 40.2455 4.18167C37.8544 6.33983 36.2244 9.2126 35.5981 12.3722C34.9719 15.5317 35.383 18.809 36.7702 21.716L29.2921 25.6961C27.857 22.6107 25.4119 20.1073 22.361 18.6C19.3101 17.0928 15.8362 16.6718 12.5136 17.4068C9.191 18.1418 6.21875 19.9888 4.08826 22.6422C1.95778 25.2957 0.796655 28.5968 0.796875 31.9997C0.796875 32.3812 0.812344 32.7731 0.843281 33.1624Z" fill="black"/>
<path d="M2.26785 45.4787C2.22232 45.3143 2.1143 45.1743 1.96687 45.0886C1.81945 45.0028 1.64433 44.9781 1.47895 45.0198C1.35582 45.0525 1.24515 45.121 1.16092 45.2166C1.0767 45.3122 1.0227 45.4306 1.00574 45.5569C0.988777 45.6832 1.00962 45.8116 1.06564 45.9261C1.12165 46.0405 1.21032 46.1358 1.32045 46.1998C1.43058 46.2639 1.55723 46.2939 1.68439 46.286C1.81155 46.2781 1.93353 46.2327 2.0349 46.1556C2.13628 46.0784 2.21252 45.9729 2.25398 45.8524C2.29544 45.732 2.30027 45.6019 2.26785 45.4787Z" fill="black"/>
<path d="M13.4034 36.6894C13.5816 37.1654 13.9009 37.5758 14.3186 37.8656C14.7363 38.1553 15.2325 38.3108 15.7408 38.311C16.2492 38.3113 16.7455 38.1565 17.1635 37.8671C17.5815 37.5778 17.9013 37.1678 18.0801 36.6919C18.1403 36.5319 18.1344 36.3546 18.0638 36.1989C17.9932 36.0432 17.8637 35.922 17.7037 35.8618C17.5435 35.8052 17.3676 35.8128 17.2129 35.8829C17.0581 35.9531 16.9365 36.0804 16.8735 36.2382C16.787 36.4679 16.6325 36.6658 16.4307 36.8056C16.2289 36.9453 15.9894 37.0204 15.7439 37.0206C15.4984 37.0209 15.2587 36.9465 15.0566 36.8071C14.8545 36.6678 14.6996 36.4703 14.6125 36.2408C14.5502 36.0824 14.4288 35.9544 14.2739 35.8837C14.1191 35.813 13.9429 35.8051 13.7824 35.8618C13.6225 35.9215 13.4928 36.0421 13.4218 36.1972C13.3508 36.3524 13.3441 36.5293 13.4034 36.6894Z" fill="black"/>
<path d="M22.9009 29.2815C23.2765 28.9007 23.564 28.4421 23.7431 27.938C23.9222 27.4339 23.9885 26.8967 23.9374 26.3643C23.8862 25.8318 23.7188 25.317 23.447 24.8563C23.1752 24.3956 22.8057 24.0001 22.3644 23.6978L21.2867 22.9602C21.1983 22.8997 21.0962 22.8622 20.9896 22.8511C20.8831 22.84 20.7755 22.8557 20.6765 22.8966C20.5775 22.9375 20.4903 23.0025 20.4227 23.0856C20.3551 23.1688 20.3093 23.2674 20.2895 23.3727C20.2286 23.6927 20.0581 23.9815 19.8072 24.1894C19.5563 24.3972 19.2409 24.5111 18.9151 24.5114H12.4894C11.6016 24.5123 10.7504 24.8654 10.1227 25.4932C9.49498 26.121 9.14197 26.9721 9.14115 27.8599V31.5208C8.5178 31.5296 7.92329 31.7849 7.48766 32.2308C7.05202 32.6768 6.81071 33.2771 6.81651 33.9005C6.8223 34.5238 7.07473 35.1196 7.51858 35.5573C7.96242 35.9951 8.56157 36.2393 9.18497 36.2365H9.36544C9.7369 37.6449 10.5641 38.8908 11.7179 39.7798C12.8718 40.6687 14.2874 41.1508 15.744 41.1508C17.2006 41.1508 18.6162 40.6687 19.7701 39.7798C20.9239 38.8908 21.7511 37.6449 22.1225 36.2365H22.3004C22.9238 36.2393 23.523 35.9951 23.9668 35.5573C24.4107 35.1196 24.6631 34.5238 24.6689 33.9005C24.6747 33.2771 24.4334 32.6768 23.9977 32.2308C23.5621 31.7849 22.9676 31.5296 22.3442 31.5208V29.8476L22.9009 29.2815ZM8.11428 33.8765C8.11463 33.6004 8.22153 33.3351 8.4127 33.1359C8.60387 32.9367 8.86454 32.819 9.14037 32.8073V34.5545C9.14037 34.686 9.14424 34.8167 9.15172 34.9459C8.8738 34.9372 8.61016 34.8207 8.41655 34.6211C8.22294 34.4216 8.11455 34.1545 8.11428 33.8765ZM21.0539 34.5545C21.0539 35.9634 20.4942 37.3146 19.498 38.3108C18.5017 39.307 17.1506 39.8667 15.7417 39.8667C14.3328 39.8667 12.9816 39.307 11.9854 38.3108C10.9891 37.3146 10.4294 35.9634 10.4294 34.5545V30.2284H21.0539V34.5545ZM23.369 33.8765C23.3687 34.1546 23.2602 34.4217 23.0665 34.6212C22.8728 34.8208 22.6091 34.9372 22.3311 34.9459C22.3388 34.817 22.343 34.6855 22.343 34.5545V32.8073C22.6188 32.819 22.8795 32.9367 23.0706 33.1359C23.2618 33.3351 23.3687 33.6004 23.369 33.8765ZM21.9838 28.3753L21.428 28.9386H10.4302V27.8594C10.431 27.3135 10.6482 26.7902 11.0342 26.4042C11.4202 26.0181 11.9435 25.8009 12.4894 25.8H18.9151C19.3817 25.7997 19.8403 25.678 20.2457 25.4469C20.6511 25.2158 20.9894 24.8832 21.2274 24.4818L21.6371 24.762C21.9225 24.9578 22.1615 25.2138 22.3372 25.5119C22.513 25.8101 22.6212 26.1432 22.6543 26.4877C22.6873 26.8322 22.6444 27.1798 22.5286 27.5059C22.4127 27.832 22.2268 28.1288 21.9838 28.3753Z" fill="black"/>
<path d="M12.9707 43.6241C13.1416 43.6241 13.3056 43.5562 13.4265 43.4353C13.5473 43.3144 13.6152 43.1505 13.6152 42.9795V42.6289C13.6152 42.458 13.5473 42.294 13.4265 42.1732C13.3056 42.0523 13.1416 41.9844 12.9707 41.9844C12.7998 41.9844 12.6358 42.0523 12.515 42.1732C12.3941 42.294 12.3262 42.458 12.3262 42.6289V42.9795C12.3262 43.1505 12.3941 43.3144 12.515 43.4353C12.6358 43.5562 12.7998 43.6241 12.9707 43.6241Z" fill="black"/>
<path d="M18.5137 33.6241C18.6846 33.6241 18.8486 33.5562 18.9694 33.4353C19.0903 33.3144 19.1582 33.1505 19.1582 32.9795V32.6289C19.1582 32.458 19.0903 32.294 18.9694 32.1732C18.8486 32.0523 18.6846 31.9844 18.5137 31.9844C18.3427 31.9844 18.1788 32.0523 18.0579 32.1732C17.937 32.294 17.8691 32.458 17.8691 32.6289V32.9795C17.8691 33.1505 17.937 33.3144 18.0579 33.4353C18.1788 33.5562 18.3427 33.6241 18.5137 33.6241Z" fill="black"/>
<path d="M15.7422 45.2234C15.9131 45.2234 16.0771 45.1555 16.1979 45.0347C16.3188 44.9138 16.3867 44.7499 16.3867 44.5789V42.9805C16.3867 42.8095 16.3188 42.6456 16.1979 42.5247C16.0771 42.4038 15.9131 42.3359 15.7422 42.3359C15.5712 42.3359 15.4073 42.4038 15.2864 42.5247C15.1656 42.6456 15.0977 42.8095 15.0977 42.9805V44.5789C15.0977 44.7499 15.1656 44.9138 15.2864 45.0347C15.4073 45.1555 15.5712 45.2234 15.7422 45.2234Z" fill="black"/>
<path d="M52.221 51.896C52.0604 51.8402 51.8845 51.8484 51.7299 51.919C51.5752 51.9896 51.4538 52.1171 51.3908 52.275C51.3037 52.5042 51.1491 52.7015 50.9475 52.841C50.7459 52.9804 50.5067 53.0555 50.2616 53.0562C50.0155 53.0581 49.7748 52.9842 49.5723 52.8444C49.3698 52.7046 49.2152 52.5058 49.1298 52.275C49.0673 52.1173 48.9464 51.9898 48.7921 51.9192C48.6379 51.8486 48.4624 51.8403 48.3022 51.896C48.1419 51.9552 48.0116 52.0756 47.9401 52.2308C47.8685 52.386 47.8615 52.5633 47.9206 52.7236C48.0989 53.1997 48.4182 53.61 48.8359 53.8998C49.2536 54.1896 49.7498 54.345 50.2581 54.3453C50.7665 54.3455 51.2628 54.1907 51.6808 53.9014C52.0988 53.612 52.4186 53.2021 52.5974 52.7262C52.6275 52.647 52.6416 52.5626 52.639 52.4779C52.6363 52.3932 52.617 52.3099 52.582 52.2327C52.547 52.1556 52.4971 52.0861 52.4351 52.0283C52.3732 51.9705 52.3004 51.9256 52.221 51.896Z" fill="black"/>
<path d="M48.1309 49.4092V49.0586C48.1309 48.8877 48.063 48.7237 47.9421 48.6028C47.8212 48.482 47.6573 48.4141 47.4863 48.4141C47.3154 48.4141 47.1515 48.482 47.0306 48.6028C46.9097 48.7237 46.8418 48.8877 46.8418 49.0586V49.4092C46.8418 49.5802 46.9097 49.7441 47.0306 49.865C47.1515 49.9858 47.3154 50.0537 47.4863 50.0537C47.6573 50.0537 47.8212 49.9858 47.9421 49.865C48.063 49.7441 48.1309 49.5802 48.1309 49.4092Z" fill="black"/>
<path d="M53.0293 48.4141C52.8584 48.4141 52.6944 48.482 52.5735 48.6028C52.4527 48.7237 52.3848 48.8877 52.3848 49.0586V49.4092C52.3848 49.5802 52.4527 49.7441 52.5735 49.865C52.6944 49.9858 52.8584 50.0537 53.0293 50.0537C53.2002 50.0537 53.3642 49.9858 53.485 49.865C53.6059 49.7441 53.6738 49.5802 53.6738 49.4092V49.0586C53.6738 48.8877 53.6059 48.7237 53.485 48.6028C53.3642 48.482 53.2002 48.4141 53.0293 48.4141Z" fill="black"/>
<path d="M50.2578 51.6527C50.4288 51.6527 50.5927 51.5848 50.7136 51.4639C50.8344 51.3431 50.9023 51.1791 50.9023 51.0082V49.4082C50.9023 49.2373 50.8344 49.0733 50.7136 48.9525C50.5927 48.8316 50.4288 48.7637 50.2578 48.7637C50.0869 48.7637 49.9229 48.8316 49.8021 48.9525C49.6812 49.0733 49.6133 49.2373 49.6133 49.4082V51.0082C49.6133 51.1791 49.6812 51.3431 49.8021 51.4639C49.9229 51.5848 50.0869 51.6527 50.2578 51.6527Z" fill="black"/>
<path d="M51.097 41.0907C50.8527 41.2686 50.5581 41.3644 50.2559 41.364C49.9536 41.3636 49.6592 41.2672 49.4153 41.0886C48.8781 40.7097 48.2462 40.4875 47.59 40.4469C46.9338 40.4063 46.2793 40.5488 45.6995 40.8586C45.1196 41.1683 44.6372 41.6331 44.3062 42.2011C43.9751 42.7691 43.8084 43.4179 43.8247 44.0751V46.4068C43.1485 46.4591 42.5179 46.7679 42.0619 47.2699C41.6059 47.7719 41.3589 48.4291 41.3716 49.1072C41.3842 49.7853 41.6555 50.4329 42.1299 50.9176C42.6043 51.4022 43.246 51.6872 43.9237 51.7143C44.1881 53.2023 44.9678 54.5497 46.1262 55.5204C47.2846 56.491 48.7476 57.023 50.2589 57.023C51.7702 57.023 53.2332 56.491 54.3916 55.5204C55.55 54.5497 56.3297 53.2023 56.5941 51.7143C57.2718 51.6875 57.9136 51.4026 58.3882 50.9181C58.8628 50.4335 59.1343 49.786 59.1471 49.1078C59.1599 48.4297 58.9131 47.7723 58.4571 47.2702C58.0012 46.7681 57.3706 46.4592 56.6944 46.4068V44.0751C56.6934 41.193 53.5457 39.3674 51.097 41.0907ZM43.8237 48.6752V50.415C43.4999 50.3647 43.2047 50.2003 42.9915 49.9515C42.7783 49.7026 42.6611 49.3858 42.6611 49.0581C42.6611 48.7304 42.7783 48.4135 42.9915 48.1647C43.2047 47.9159 43.4999 47.7515 43.8237 47.7012V48.6752ZM55.4043 50.588C55.3947 51.9465 54.8483 53.2461 53.8843 54.2033C52.9202 55.1605 51.6168 55.6977 50.2583 55.6977C48.8997 55.6977 47.5963 55.1605 46.6323 54.2033C45.6682 53.2461 45.1218 51.9465 45.1122 50.588V48.6853C45.1122 48.6819 45.1122 48.6786 45.1122 48.6752C45.1122 46.7971 47.2876 45.8045 48.67 46.8427C49.1333 47.1732 49.6881 47.3509 50.2572 47.3509C50.8263 47.3509 51.3812 47.1732 51.8444 46.8427C52.1815 46.6046 52.5773 46.4635 52.9889 46.4348C53.4005 46.406 53.8122 46.4907 54.179 46.6796C54.5458 46.8685 54.8539 47.1544 55.0695 47.5062C55.2852 47.8579 55.4003 48.2621 55.4022 48.6747L55.4043 50.588ZM55.4043 45.9422C54.8021 45.4492 54.0548 45.1675 53.2771 45.1402C52.4994 45.1128 51.7342 45.3414 51.0989 45.7908L51.0958 45.7929C50.8545 45.9686 50.564 46.0638 50.2656 46.0653C49.9672 46.0667 49.6758 45.9742 49.4329 45.8009C48.7987 45.3412 48.0292 45.1065 47.2464 45.1341C46.4637 45.1618 45.7126 45.4502 45.1125 45.9535V44.0743C45.1125 42.1554 47.1569 41.0685 48.6669 42.1384C49.1299 42.4698 49.6849 42.6482 50.2543 42.6486C50.8236 42.649 51.3789 42.4714 51.8424 42.1407C53.4101 41.037 55.4041 42.2181 55.4041 44.0743L55.4043 45.9422ZM57.8561 49.0573C57.8557 49.385 57.7383 49.7018 57.525 49.9505C57.3117 50.1993 57.0166 50.3637 56.6929 50.4142V48.6801V48.675V47.7005C57.0169 47.7507 57.3124 47.9152 57.5258 48.1641C57.7393 48.4131 57.8568 48.7301 57.8571 49.0581L57.8561 49.0573Z" fill="black"/>
<path d="M50.1342 6.72757C45.5887 6.79512 41.8906 10.6267 41.8906 15.2684V19.6865C41.8906 19.8575 41.9585 20.0214 42.0794 20.1423C42.2003 20.2631 42.3642 20.331 42.5352 20.331H45.2342C45.6162 21.3548 46.302 22.2374 47.1996 22.8606C48.0972 23.4837 49.1639 23.8177 50.2566 23.8177C51.3493 23.8177 52.416 23.4837 53.3136 22.8606C54.2113 22.2374 54.897 21.3548 55.279 20.331H57.9768C58.1477 20.331 58.3117 20.2631 58.4325 20.1423C58.5534 20.0214 58.6213 19.8575 58.6213 19.6865V15.0944C58.6227 13.9851 58.4032 12.8866 57.9757 11.863C57.5481 10.8394 56.9211 9.91113 56.1311 9.13235C55.3411 8.35358 54.404 7.73987 53.3744 7.327C52.3448 6.91413 51.2433 6.71036 50.1342 6.72757ZM54.329 18.458C54.3205 19.5324 53.8877 20.5598 53.125 21.3165C52.3622 22.0732 51.3314 22.4978 50.257 22.4978C49.1826 22.4978 48.1518 22.0732 47.389 21.3165C46.6263 20.5598 46.1935 19.5324 46.185 18.458V15.272C46.185 15.1366 46.2138 15.0027 46.2695 14.8793C46.3251 14.7558 46.4064 14.6456 46.5078 14.5559C46.6092 14.4662 46.7286 14.399 46.8579 14.3589C46.9872 14.3187 47.1236 14.3065 47.258 14.323H47.2632L54.329 15.2715V18.458ZM57.3323 19.0412H55.5866C55.6085 18.8476 55.619 18.6529 55.6181 18.458V14.7082C55.618 14.5521 55.5614 14.4014 55.4586 14.284C55.3559 14.1665 55.214 14.0903 55.0594 14.0696L47.431 13.0453C47.1144 13.0043 46.7926 13.0313 46.4873 13.1244C46.1819 13.2176 45.8999 13.3747 45.66 13.5854C45.4201 13.7961 45.2279 14.0555 45.0962 14.3464C44.9644 14.6372 44.8962 14.9527 44.8959 15.272V18.4588C44.8966 18.6536 44.9074 18.8483 44.9282 19.042H43.1797V15.2686C43.1797 11.3272 46.308 8.07387 50.1522 8.01689C51.0905 8.00224 52.0224 8.17455 52.8934 8.52378C53.7645 8.873 54.5573 9.39215 55.2256 10.0509C55.8939 10.7097 56.4244 11.495 56.7861 12.3609C57.1478 13.2269 57.3334 14.1562 57.3323 15.0946V19.0412Z" fill="black"/>
<path d="M48.0417 20.1712C48.2108 20.6223 48.5135 21.0111 48.9094 21.2856C49.3053 21.5602 49.7756 21.7074 50.2574 21.7075C50.7391 21.7077 51.2095 21.5608 51.6056 21.2866C52.0017 21.0123 52.3047 20.6237 52.4741 20.1727C52.5053 20.0931 52.5203 20.0082 52.5183 19.9227C52.5164 19.8373 52.4974 19.7531 52.4626 19.675C52.4278 19.5969 52.3778 19.5266 52.3156 19.468C52.2533 19.4095 52.18 19.3639 52.1 19.3339C52.0199 19.3039 51.9347 19.2902 51.8493 19.2934C51.7639 19.2967 51.68 19.3169 51.6025 19.3529C51.525 19.3889 51.4554 19.44 51.3978 19.5032C51.3402 19.5663 51.2957 19.6403 51.267 19.7208C51.1891 19.9251 51.0511 20.1009 50.8711 20.2251C50.6911 20.3492 50.4777 20.4157 50.2591 20.4159C50.0404 20.4161 49.8269 20.3499 49.6467 20.226C49.4666 20.1022 49.3283 19.9265 49.2501 19.7223C49.221 19.6425 49.1764 19.5692 49.1189 19.5066C49.0613 19.4441 48.992 19.3936 48.9149 19.3579C48.8377 19.3223 48.7543 19.3022 48.6694 19.299C48.5845 19.2957 48.4998 19.3092 48.4201 19.3388C48.3404 19.3684 48.2674 19.4135 48.2052 19.4714C48.1431 19.5293 48.0929 19.5989 48.0578 19.6763C48.0226 19.7537 48.0031 19.8372 48.0003 19.9221C47.9976 20.0071 48.0117 20.0917 48.0417 20.1712Z" fill="black"/>
<path d="M47.0371 16.3809V16.7067C47.0371 16.8777 47.105 17.0416 47.2259 17.1625C47.3468 17.2834 47.5107 17.3513 47.6816 17.3513C47.8526 17.3513 48.0165 17.2834 48.1374 17.1625C48.2583 17.0416 48.3262 16.8777 48.3262 16.7067V16.3809C48.3262 16.2099 48.2583 16.046 48.1374 15.9251C48.0165 15.8042 47.8526 15.7363 47.6816 15.7363C47.5107 15.7363 47.3468 15.8042 47.2259 15.9251C47.105 16.046 47.0371 16.2099 47.0371 16.3809Z" fill="black"/>
<path d="M52.834 17.3513C53.0049 17.3513 53.1689 17.2834 53.2897 17.1625C53.4106 17.0416 53.4785 16.8777 53.4785 16.7067V16.3809C53.4785 16.2099 53.4106 16.046 53.2897 15.9251C53.1689 15.8042 53.0049 15.7363 52.834 15.7363C52.663 15.7363 52.4991 15.8042 52.3782 15.9251C52.2574 16.046 52.1895 16.2099 52.1895 16.3809V16.7067C52.1895 16.8777 52.2574 17.0416 52.3782 17.1625C52.4991 17.2834 52.663 17.3513 52.834 17.3513Z" fill="black"/>
<path d="M50.2578 18.8389C50.4288 18.8389 50.5927 18.771 50.7136 18.6501C50.8344 18.5292 50.9023 18.3653 50.9023 18.1943V16.707C50.9023 16.5361 50.8344 16.3722 50.7136 16.2513C50.5927 16.1304 50.4288 16.0625 50.2578 16.0625C50.0869 16.0625 49.9229 16.1304 49.8021 16.2513C49.6812 16.3722 49.6133 16.5361 49.6133 16.707V18.1943C49.6133 18.3653 49.6812 18.5292 49.8021 18.6501C49.9229 18.771 50.0869 18.8389 50.2578 18.8389Z" fill="black"/>
<path d="M60.373 7.87959C60.5439 7.87959 60.7079 7.81168 60.8288 7.69081C60.9496 7.56993 61.0175 7.40599 61.0175 7.23505V5.79981H62.4528C62.6237 5.79981 62.7877 5.73191 62.9085 5.61103C63.0294 5.49016 63.0973 5.32622 63.0973 5.15528C63.0973 4.98434 63.0294 4.8204 62.9085 4.69953C62.7877 4.57866 62.6237 4.51075 62.4528 4.51075H61.0175V3.07422C61.0175 2.90328 60.9496 2.73934 60.8288 2.61847C60.7079 2.49759 60.5439 2.42969 60.373 2.42969C60.2021 2.42969 60.0381 2.49759 59.9172 2.61847C59.7964 2.73934 59.7285 2.90328 59.7285 3.07422V4.50972H58.293C58.122 4.50972 57.9581 4.57762 57.8372 4.6985C57.7163 4.81937 57.6484 4.98331 57.6484 5.15425C57.6484 5.32519 57.7163 5.48913 57.8372 5.61C57.9581 5.73088 58.122 5.79878 58.293 5.79878H59.7285V7.23402C59.7283 7.31875 59.7449 7.40267 59.7772 7.48099C59.8096 7.55931 59.857 7.63048 59.9169 7.69044C59.9767 7.7504 60.0478 7.79797 60.1261 7.83043C60.2044 7.86288 60.2883 7.87959 60.373 7.87959Z" fill="black"/>
</svg>
