<svg width="11" height="14" viewBox="0 0 11 14" fill="none" xmlns="http://www.w3.org/2000/svg">
<path d="M5.5 0C4.04181 0.00156352 2.64382 0.55528 1.61272 1.53967C0.581626 2.52406 0.0016377 3.85873 0 5.25086C0 8.95053 4.86093 13.6339 5.06787 13.8314C5.18323 13.9395 5.33839 14 5.5 14C5.66161 14 5.81677 13.9395 5.93213 13.8314C6.13907 13.6339 11 8.95053 11 5.25086C10.9984 3.85873 10.4184 2.52406 9.38728 1.53967C8.35618 0.55528 6.95819 0.00156352 5.5 0V0ZM5.5 8.75144C4.7748 8.75144 4.06589 8.54613 3.46291 8.16148C2.85993 7.77683 2.38996 7.23012 2.11244 6.59047C1.83492 5.95083 1.76231 5.24698 1.90379 4.56793C2.04527 3.88889 2.39448 3.26515 2.90728 2.77558C3.42007 2.28602 4.07341 1.95262 4.78467 1.81755C5.49593 1.68248 6.23318 1.7518 6.90317 2.01675C7.57317 2.2817 8.14582 2.73038 8.54872 3.30605C8.95162 3.88171 9.16667 4.55851 9.16667 5.25086C9.16667 6.17927 8.78036 7.06966 8.09272 7.72614C7.40509 8.38263 6.47246 8.75144 5.5 8.75144Z" fill="black"/>
</svg>
