<svg width="18" height="24" viewBox="0 0 18 24" fill="none" xmlns="http://www.w3.org/2000/svg">
<path d="M8.99999 0C6.61387 0.00267987 4.32624 0.951752 2.63899 2.639C0.951745 4.32625 0.00267224 6.61387 -7.62939e-06 9C-7.62939e-06 15.3412 7.95424 23.3685 8.29287 23.7071C8.48165 23.8923 8.73554 23.9961 8.99999 23.9961C9.26444 23.9961 9.51834 23.8923 9.70712 23.7071C10.0457 23.3685 18 15.3412 18 9C17.9973 6.61387 17.0482 4.32625 15.361 2.639C13.6737 0.951752 11.3861 0.00267987 8.99999 0V0ZM8.99999 15C7.8133 15 6.65327 14.6481 5.66657 13.9888C4.67988 13.3295 3.91084 12.3925 3.45672 11.2961C3.00259 10.1997 2.88377 8.99334 3.11528 7.82946C3.34679 6.66557 3.91824 5.59647 4.75735 4.75736C5.59647 3.91824 6.66556 3.3468 7.82945 3.11529C8.99334 2.88378 10.1997 3.0026 11.2961 3.45672C12.3924 3.91085 13.3295 4.67988 13.9888 5.66658C14.6481 6.65327 15 7.81331 15 9C15 10.5913 14.3679 12.1174 13.2426 13.2426C12.1174 14.3679 10.5913 15 8.99999 15Z" fill="black"/>
</svg>
