<svg width="60" height="60" viewBox="0 0 60 60" fill="none" xmlns="http://www.w3.org/2000/svg">
<g clip-path="url(#clip0)">
<path d="M56.25 43.125V54.375C56.25 55.4062 55.4062 56.25 54.375 56.25H43.125C42.0938 56.25 41.25 55.4062 41.25 54.375V43.125C41.25 42.0938 42.0938 41.25 43.125 41.25H45H46.875V45H50.625V41.25H54.375C55.4062 41.25 56.25 42.0938 56.25 43.125Z" fill="#FCC368"/>
<path d="M58.125 39.375C58.125 40.4062 57.2812 41.25 56.25 41.25H54.375H50.625H46.875H45C43.9688 41.25 43.125 40.4062 43.125 39.375V28.125C43.125 27.0938 43.9688 26.25 45 26.25H48.75V30H52.5V26.25H54.375H56.25C57.2812 26.25 58.125 27.0938 58.125 28.125V39.375Z" fill="#FCC368"/>
<path d="M43.125 28.125V39.375C43.125 40.4062 42.2812 41.25 41.25 41.25H37.5V35.625C37.5 34.5938 36.6562 33.75 35.625 33.75H28.125V28.125C28.125 27.0938 28.9688 26.25 30 26.25H31.875H33.75V30H37.5V26.25H41.25C42.2812 26.25 43.125 27.0938 43.125 28.125Z" fill="#FCC368"/>
<path d="M56.25 3.75V24.375C56.25 25.4062 55.4062 26.25 54.375 26.25H52.5H48.75H45H41.25H37.5H33.75H31.875C30.8438 26.25 30 25.4062 30 24.375V3.75C30 2.71875 30.8438 1.875 31.875 1.875H39.375V7.5H46.875V1.875H54.375C55.4062 1.875 56.25 2.71875 56.25 3.75Z" fill="#FCC368"/>
<path d="M39.375 1.875H46.875V7.5H39.375V1.875Z" fill="#B27946"/>
<path d="M33.75 26.25H37.5V30H33.75V26.25Z" fill="#B27946"/>
<path d="M48.75 26.25H52.5V30H48.75V26.25Z" fill="#B27946"/>
<path d="M46.875 41.25H50.625V45H46.875V41.25Z" fill="#B27946"/>
<path d="M18.2812 9.375C20.6156 9.375 22.5 11.2594 22.5 13.5938C22.5 14.7562 22.0312 15.8156 21.2625 16.575C20.5031 17.3438 19.4438 17.8125 18.2812 17.8125H17.0812H16.875H12.1875C11.4094 17.8125 10.7063 18.1312 10.2 18.6375C9.69375 19.1437 9.375 19.8469 9.375 20.625V22.5C8.85938 22.5 8.39062 22.7063 8.05313 23.0531C7.70625 23.3906 7.5 23.8594 7.5 24.375V24.5344C7.5 25.0312 7.69688 25.5094 8.05313 25.8656L9.375 27.1875V31.875L8.27812 31.3312C4.35938 29.3625 1.875 25.35 1.875 20.9625C1.875 17.7563 3.16875 14.8688 5.26875 12.7687C7.36875 10.6687 10.2562 9.375 13.4625 9.375H18.2812Z" fill="#FFB531"/>
<path d="M18.75 53.0343V58.1249H1.875V44.2593C1.875 45.6843 2.18438 47.0718 2.76563 48.3374C3.34688 49.603 4.2 50.7468 5.27813 51.6749L5.7 52.0218C6.1125 52.378 6.55312 52.6968 7.02187 52.978C8.53125 53.8874 10.2656 54.3749 12.0469 54.3749H13.3031C14.4281 54.3749 15.5438 54.178 16.5938 53.803L18.75 53.0343Z" fill="#F78411"/>
<path d="M11.25 48.75L7.02187 52.9781C6.55312 52.6969 6.1125 52.3781 5.7 52.0219L5.27813 51.675C4.2 50.7469 3.34688 49.6031 2.76563 48.3375C2.18438 47.0719 1.875 45.6844 1.875 44.2594C1.875 40.1906 4.39688 36.5531 8.20312 35.1281L9.375 34.6875C11.6062 36.0281 13.5 37.7812 15 39.8062C15.6281 40.6594 16.1813 41.5687 16.6594 42.5156C17.3438 43.8562 17.8688 45.2812 18.225 46.7531V46.7625L11.25 48.75Z" fill="#F78411"/>
<path d="M26.5688 41.7656C25.7813 42.0281 25.1531 42.6562 24.8906 43.4438L24.375 45V40.3125V37.5H26.25H35.625C36.1406 37.5 36.6094 37.2937 36.9469 36.9469C37.2937 36.6094 37.5 36.1406 37.5 35.625V41.25V56.25C37.5 57.2812 36.6562 58.125 35.625 58.125H24.375V51.0187L31.8 48.3563C32.9531 48.0375 33.75 46.9875 33.75 45.7875C33.75 45.0563 33.45 44.3813 32.9719 43.9031C32.4937 43.425 31.8187 43.125 31.0875 43.125H30L29.2875 42.4125C28.575 41.7 27.525 41.4469 26.5688 41.7656Z" fill="#FFC94B"/>
<path d="M35.625 33.75C36.6562 33.75 37.5 34.5938 37.5 35.625C37.5 36.1406 37.2937 36.6094 36.9469 36.9469C36.6094 37.2937 36.1406 37.5 35.625 37.5H26.25V33.75H28.125H35.625Z" fill="#E6E9ED"/>
<path d="M24.3748 40.3125V45L18.2248 46.7531C17.8686 45.2812 17.3436 43.8562 16.6592 42.5156L24.3748 40.3125Z" fill="#F0D0B4"/>
<path d="M32.9715 43.9032C33.4496 44.3813 33.7496 45.0563 33.7496 45.7875C33.7496 46.9875 32.9527 48.0376 31.7996 48.3563L24.3746 51.0188L18.7496 53.0344L16.5934 53.8032C15.5434 54.1782 14.4277 54.3751 13.3027 54.3751H12.0465C10.2652 54.3751 8.53086 53.8876 7.02148 52.9782L11.2496 48.7501L18.2246 46.7626V46.7532L24.3746 45L24.8902 43.4438C25.1527 42.6563 25.7808 42.0282 26.5683 41.7657C27.5246 41.4469 28.5746 41.7 29.2871 42.4125L29.9996 43.125H31.0871C31.8183 43.125 32.4933 43.425 32.9715 43.9032Z" fill="#F0D0B4"/>
<path d="M15 31.875V39.8062C13.5 37.7812 11.6063 36.0281 9.375 34.6875V31.875V27.1875L8.05313 25.8656C7.69688 25.5094 7.5 25.0312 7.5 24.5344V24.375C7.5 23.8594 7.70625 23.3906 8.05313 23.0531C8.39063 22.7062 8.85938 22.5 9.375 22.5V20.625C9.375 19.8469 9.69375 19.1437 10.2 18.6375C10.7063 18.1312 11.4094 17.8125 12.1875 17.8125H16.875H17.0812C18.1406 17.8125 19.1062 18.4031 19.5938 19.35C20.4187 20.9625 21.5625 23.5219 21.5625 25.3125L18.75 26.25V28.6781C18.75 29.5219 18.4125 30.3375 17.8125 30.9375C17.2125 31.5375 16.3969 31.875 15.5531 31.875H15Z" fill="#F0D0B4"/>
<path d="M56.9812 25.4212C57.1116 25.0969 57.1875 24.7453 57.1875 24.375V3.75C57.1875 2.19937 55.9256 0.9375 54.375 0.9375H31.875C30.3244 0.9375 29.0625 2.19937 29.0625 3.75V24.375C29.0625 24.7453 29.1384 25.0969 29.2687 25.4212C28.0734 25.7447 27.1875 26.8284 27.1875 28.125V32.8125H25.3125V36.5625H23.4375V39.6047L17.1094 41.4131C16.7503 40.7709 16.3631 40.1456 15.9375 39.5466V32.7759C16.8947 32.6869 17.7872 32.2903 18.4762 31.6012C19.2572 30.8194 19.6875 29.7797 19.6875 28.6744V26.9259L22.5 25.9884V25.3125C22.5 23.3738 21.3713 20.7656 20.4253 18.9197C20.3325 18.7388 20.2238 18.5709 20.1066 18.4106C22.05 17.6709 23.4375 15.7941 23.4375 13.5938C23.4375 10.7503 21.1247 8.4375 18.2812 8.4375H13.4634C6.55687 8.4375 0.9375 14.0569 0.9375 20.9634C0.9375 25.7391 3.59063 30.0319 7.86094 32.1675L8.4375 32.4553V34.0378L7.87688 34.2478C3.78938 35.7816 1.02844 39.7088 0.945 44.0625H0.9375V59.0625H19.6875V53.6916L23.4375 52.3481V59.0625H35.625C37.1756 59.0625 38.4375 57.8006 38.4375 56.25V42.1875H40.485C40.38 42.4819 40.3125 42.795 40.3125 43.125V54.375C40.3125 55.9256 41.5744 57.1875 43.125 57.1875H54.375C55.9256 57.1875 57.1875 55.9256 57.1875 54.375V43.125C57.1875 42.7547 57.1116 42.4031 56.9812 42.0788C58.1766 41.7544 59.0625 40.6716 59.0625 39.375V28.125C59.0625 26.8284 58.1766 25.7447 56.9812 25.4212ZM40.3125 2.8125H45.9375V6.5625H40.3125V2.8125ZM30.9375 3.75C30.9375 3.23344 31.3584 2.8125 31.875 2.8125H38.4375V8.4375H47.8125V2.8125H54.375C54.8916 2.8125 55.3125 3.23344 55.3125 3.75V24.375C55.3125 24.8916 54.8916 25.3125 54.375 25.3125H45H41.25H31.875C31.3584 25.3125 30.9375 24.8916 30.9375 24.375V3.75ZM49.6875 27.1875H51.5625V29.0625H49.6875V27.1875ZM34.6875 27.1875H36.5625V29.0625H34.6875V27.1875ZM27.1875 34.6875H35.625C36.1416 34.6875 36.5625 35.1075 36.5625 35.625C36.5625 36.1425 36.1416 36.5625 35.625 36.5625H27.1875V34.6875ZM11.7413 49.5844L25.1081 45.765L25.7831 43.7419C25.9528 43.2319 26.3578 42.8269 26.8678 42.6572C27.4866 42.4519 28.1588 42.6094 28.6219 43.0716L29.6119 44.0625H31.0847C32.0372 44.0625 32.8125 44.8378 32.8125 45.7913C32.8125 46.5628 32.2931 47.2472 31.4869 47.475L16.2788 52.9219C15.3225 53.2631 14.3222 53.4375 13.305 53.4375H12.0469C10.8525 53.4375 9.6825 53.1863 8.59875 52.7259L11.7413 49.5844ZM23.4375 41.5556V44.2931L18.8578 45.6009C18.6103 44.7534 18.3169 43.9237 17.9625 43.1203L23.4375 41.5556ZM20.5725 24.6544L17.8125 25.575V28.6753C17.8125 29.28 17.5772 29.8481 17.1488 30.2766C16.7222 30.7041 16.1541 30.9394 15.5494 30.9394L12.1875 30.9375V32.8125L14.0625 32.8134V37.2825C12.945 36.1088 11.6897 35.0681 10.3125 34.1897V26.7994L8.71219 25.1991C8.535 25.0219 8.4375 24.7856 8.4375 24.5353V24.375C8.4375 23.8584 8.85844 23.4375 9.375 23.4375H10.3125V20.625C10.3125 19.5909 11.1534 18.75 12.1875 18.75H16.875H17.0841C17.7919 18.75 18.4322 19.1428 18.7566 19.7747C19.7644 21.7406 20.3925 23.4375 20.5725 24.6544ZM2.8125 20.9634C2.8125 15.0909 7.59094 10.3125 13.4634 10.3125H18.2812C20.0906 10.3125 21.5625 11.7844 21.5625 13.5938C21.5625 15.4031 20.0906 16.875 18.2812 16.875H17.0841H16.875H12.1875C10.1194 16.875 8.4375 18.5569 8.4375 20.625V21.7228C7.34625 22.11 6.5625 23.1525 6.5625 24.375V24.5353C6.5625 25.2862 6.855 25.9931 7.38656 26.5247L8.4375 27.5756V30.3347C4.96594 28.4747 2.8125 24.9206 2.8125 20.9634ZM8.53594 36.0037L9.25406 35.7337C13.0191 38.1188 15.8091 41.8434 17.0578 46.1156L11.8556 47.6016L11.4862 46.4944C10.6191 43.8938 8.5125 41.9428 5.85188 41.2781L5.39719 43.0969C7.4325 43.6059 9.04406 45.0984 9.70781 47.0887L10.1775 48.4978L6.89812 51.7772C6.69562 51.6319 6.49781 51.4781 6.3075 51.315L5.89312 50.9597C3.93562 49.2806 2.8125 46.8403 2.8125 44.2622C2.8125 40.6059 5.11219 37.2872 8.53594 36.0037ZM17.8125 57.1875H2.8125V50.2856C3.33656 51.0525 3.95156 51.7641 4.6725 52.3819L5.08687 52.7372C7.02375 54.3975 9.495 55.3125 12.0469 55.3125H13.305C14.5378 55.3125 15.7509 55.1016 16.9116 54.6862L17.8125 54.3638V57.1875ZM35.625 57.1875H25.3125V51.6759L32.0559 49.26C33.6056 48.8259 34.6875 47.4 34.6875 45.7913C34.6875 43.8047 33.0713 42.1875 31.0847 42.1875H30.3881L29.9466 41.7459C28.9791 40.7775 27.5719 40.4447 26.2744 40.8778C25.9228 40.995 25.6069 41.1825 25.3125 41.3972V38.4375H35.625C35.955 38.4375 36.2681 38.37 36.5625 38.265V56.25C36.5625 56.7675 36.1416 57.1875 35.625 57.1875ZM38.4375 35.625C38.4375 34.0744 37.1756 32.8125 35.625 32.8125H29.0625V28.125C29.0625 27.6084 29.4834 27.1875 30 27.1875H31.875H32.8125V30.9375H38.4375V27.1875H41.25C41.7666 27.1875 42.1875 27.6084 42.1875 28.125V39.375C42.1875 39.8925 41.7666 40.3125 41.25 40.3125H38.4375V35.625ZM55.3125 54.375C55.3125 54.8925 54.8916 55.3125 54.375 55.3125H43.125C42.6084 55.3125 42.1875 54.8925 42.1875 54.375V43.125C42.1875 42.6075 42.6084 42.1875 43.125 42.1875H45H45.9375V45.9375H51.5625V42.1875H54.375C54.8916 42.1875 55.3125 42.6075 55.3125 43.125V54.375ZM47.8125 42.1875H49.6875V44.0625H47.8125V42.1875ZM57.1875 39.375C57.1875 39.8925 56.7666 40.3125 56.25 40.3125H54.375H45C44.4834 40.3125 44.0625 39.8925 44.0625 39.375V28.125C44.0625 27.6084 44.4834 27.1875 45 27.1875H47.8125V30.9375H53.4375V27.1875H54.375H56.25C56.7666 27.1875 57.1875 27.6084 57.1875 28.125V39.375Z" fill="black"/>
<path d="M47.8125 21.5625H49.6875V23.4375H47.8125V21.5625Z" fill="black"/>
<path d="M44.0625 21.5625H45.9375V23.4375H44.0625V21.5625Z" fill="black"/>
<path d="M51.5625 21.5625H53.4375V23.4375H51.5625V21.5625Z" fill="black"/>
<path d="M44.0625 17.8125H53.4375V19.6875H44.0625V17.8125Z" fill="black"/>
</g>
<defs>
<clipPath id="clip0">
<rect width="60" height="60" fill="white"/>
</clipPath>
</defs>
</svg>
