<svg width="24" height="24" viewBox="0 0 24 24" fill="none" xmlns="http://www.w3.org/2000/svg">
<g style="mix-blend-mode:luminosity">
<path d="M18.9501 14.8666C18.4588 14.355 17.8661 14.0815 17.238 14.0815C16.615 14.0815 16.0173 14.35 15.5057 14.8616L13.905 16.4572C13.7733 16.3863 13.6416 16.3204 13.515 16.2546C13.3326 16.1634 13.1604 16.0773 13.0135 15.9861C11.5142 15.0338 10.1516 13.7928 8.84471 12.1871C8.21154 11.3867 7.78605 10.713 7.47706 10.0292C7.89242 9.64931 8.27739 9.25422 8.65222 8.87431C8.79405 8.73248 8.93588 8.58559 9.07771 8.44376C10.1414 7.38003 10.1414 6.00225 9.07771 4.93852L7.69487 3.55567C7.53784 3.39865 7.37575 3.23656 7.22379 3.07446C6.91987 2.76041 6.60075 2.43623 6.2715 2.1323C5.78016 1.64603 5.19258 1.3877 4.57461 1.3877C3.95663 1.3877 3.35892 1.64603 2.85238 2.1323C2.84732 2.13737 2.84732 2.13737 2.84225 2.14244L1.12003 3.87986C0.471661 4.52823 0.101889 5.31842 0.0208432 6.23526C-0.100726 7.71434 0.334896 9.09212 0.66921 9.99376C1.4898 12.2073 2.71562 14.2588 4.54421 16.4572C6.76284 19.1064 9.43229 21.1984 12.4816 22.6724C13.6467 23.2245 15.2017 23.8779 16.9392 23.9894C17.0455 23.9944 17.157 23.9995 17.2583 23.9995C18.4284 23.9995 19.4111 23.5791 20.181 22.7433C20.1861 22.7332 20.1962 22.7281 20.2013 22.718C20.4647 22.3989 20.7686 22.1101 21.0877 21.8011C21.3055 21.5935 21.5284 21.3756 21.7462 21.1477C22.2477 20.626 22.5111 20.0181 22.5111 19.3951C22.5111 18.767 22.2426 18.1642 21.731 17.6577L18.9501 14.8666ZM20.7635 20.2005C20.7584 20.2005 20.7584 20.2055 20.7635 20.2005C20.566 20.4132 20.3633 20.6057 20.1455 20.8185C19.8163 21.1325 19.482 21.4618 19.1679 21.8315C18.6563 22.3786 18.0535 22.6369 17.2633 22.6369C17.1874 22.6369 17.1063 22.6369 17.0303 22.6319C15.5259 22.5356 14.1279 21.948 13.0794 21.4466C10.2124 20.0587 7.69487 18.0882 5.60287 15.591C3.87559 13.5091 2.72068 11.5843 1.95581 9.51762C1.48473 8.25634 1.31251 7.27366 1.38849 6.34669C1.43915 5.75405 1.66709 5.2627 2.08751 4.84228L3.8148 3.11499C4.063 2.88198 4.3264 2.75535 4.58474 2.75535C4.90385 2.75535 5.16219 2.94783 5.32428 3.10992C5.32934 3.11499 5.33441 3.12005 5.33948 3.12512C5.64846 3.41384 5.94225 3.7127 6.25124 4.03182C6.40827 4.19391 6.57036 4.356 6.73245 4.52316L8.1153 5.90601C8.65222 6.44294 8.65222 6.93934 8.1153 7.47627C7.9684 7.62317 7.82657 7.77006 7.67967 7.91189C7.25418 8.34751 6.84895 8.75274 6.40827 9.14784C6.39814 9.15797 6.38801 9.16304 6.38294 9.17317C5.94732 9.60879 6.02837 10.0343 6.11954 10.323C6.12461 10.3382 6.12967 10.3534 6.13474 10.3686C6.49438 11.2398 7.00091 12.0604 7.77085 13.038L7.77592 13.0431C9.17396 14.7653 10.648 16.1077 12.274 17.1359C12.4816 17.2676 12.6944 17.374 12.897 17.4753C13.0794 17.5665 13.2516 17.6526 13.3985 17.7438C13.4187 17.7539 13.439 17.7691 13.4593 17.7792C13.6315 17.8653 13.7936 17.9059 13.9607 17.9059C14.3812 17.9059 14.6445 17.6425 14.7307 17.5564L16.463 15.824C16.6352 15.6518 16.9088 15.4441 17.2279 15.4441C17.5419 15.4441 17.8003 15.6416 17.9573 15.8139C17.9624 15.8189 17.9624 15.8189 17.9674 15.824L20.7584 18.615C21.2802 19.1317 21.2802 19.6636 20.7635 20.2005Z" fill="black"/>
<path d="M12.9525 5.7081C14.2796 5.93098 15.4852 6.55909 16.4476 7.5215C17.41 8.48392 18.0331 9.68948 18.261 11.0166C18.3167 11.3509 18.6054 11.5839 18.9347 11.5839C18.9752 11.5839 19.0107 11.5789 19.0512 11.5738C19.426 11.513 19.6742 11.1584 19.6134 10.7836C19.3399 9.17788 18.5801 7.71399 17.4202 6.55402C16.2602 5.39405 14.7963 4.63425 13.1906 4.36072C12.8158 4.29993 12.4662 4.54814 12.4004 4.91791C12.3345 5.28768 12.5777 5.64732 12.9525 5.7081Z" fill="black"/>
<path d="M23.9547 10.5869C23.5039 7.94279 22.2578 5.53674 20.3431 3.62203C18.4284 1.70732 16.0224 0.461243 13.3783 0.0104253C13.0085 -0.0554245 12.659 0.197844 12.5931 0.567615C12.5323 0.942452 12.7806 1.29196 13.1554 1.35781C15.5158 1.75798 17.6686 2.87742 19.3807 4.58445C21.0928 6.29654 22.2072 8.44932 22.6074 10.8098C22.6631 11.1441 22.9518 11.3771 23.2811 11.3771C23.3216 11.3771 23.357 11.372 23.3976 11.367C23.7673 11.3113 24.0206 10.9567 23.9547 10.5869Z" fill="black"/>
</g>
</svg>
