<?xml version="1.0" encoding="UTF-8" standalone="no"?>
<svg
   xmlns:dc="http://purl.org/dc/elements/1.1/"
   xmlns:cc="http://creativecommons.org/ns#"
   xmlns:rdf="http://www.w3.org/1999/02/22-rdf-syntax-ns#"
   xmlns:svg="http://www.w3.org/2000/svg"
   xmlns="http://www.w3.org/2000/svg"
   xmlns:sodipodi="http://sodipodi.sourceforge.net/DTD/sodipodi-0.dtd"
   xmlns:inkscape="http://www.inkscape.org/namespaces/inkscape"
   width="45"
   height="45"
   viewBox="0 0 45 45"
   version="1.1"
   id="svg97"
   sodipodi:docname="restaurants.svg"
   style="fill:none"
   inkscape:version="0.92.2 (5c3e80d, 2017-08-06)">
  <metadata
     id="metadata103">
    <rdf:RDF>
      <cc:Work
         rdf:about="">
        <dc:format>image/svg+xml</dc:format>
        <dc:type
           rdf:resource="http://purl.org/dc/dcmitype/StillImage" />
        <dc:title></dc:title>
      </cc:Work>
    </rdf:RDF>
  </metadata>
  <defs
     id="defs101" />
  <sodipodi:namedview
     pagecolor="#ffffff"
     bordercolor="#666666"
     borderopacity="1"
     objecttolerance="10"
     gridtolerance="10"
     guidetolerance="10"
     inkscape:pageopacity="0"
     inkscape:pageshadow="2"
     inkscape:window-width="1366"
     inkscape:window-height="705"
     id="namedview99"
     showgrid="false"
     showguides="false"
     inkscape:zoom="5.1304348"
     inkscape:cx="2.4279661"
     inkscape:cy="23"
     inkscape:window-x="-4"
     inkscape:window-y="-4"
     inkscape:window-maximized="1"
     inkscape:current-layer="svg97" />
  <mask
     id="path-19-inside-1"
     fill="white">
    <path
       d="M 33.7778,15.0727 H 33.7251 L 35.263,7.62972 C 35.3764,7.08153 35.2641,6.51755 34.9549,6.08272 34.6654,5.67491 34.2344,5.41451 33.742,5.34923 L 31.147,5.00565 C 30.9519,4.97968 30.7575,4.9874 30.5694,5.02284 L 30.5922,4.82947 C 30.6582,4.2683 30.4967,3.70853 30.1489,3.2944 29.8233,2.90625 29.3684,2.67673 28.868,2.6483 L 26.9465,2.53845 C 27.0097,1.99272 26.863,1.44383 26.5387,1.02409 26.2267,0.620498 25.782,0.367462 25.2868,0.312011 L 22.6094,0.0115961 C 22.1146,-0.0442053 21.6229,0.103195 21.2249,0.426071 20.796,0.773864 20.5188,1.29889 20.4637,1.86638 L 20.2201,4.39113 C 20.1555,4.29532 20.0829,4.20512 20.0018,4.1223 19.646,3.75836 19.1757,3.55797 18.6773,3.55797 h -2.6577 c -0.3534,0 -0.6914,0.10248 -0.9855,0.29094 L 14.8428,1.86638 C 14.7881,1.29889 14.5105,0.773864 14.0816,0.426071 13.684,0.103195 13.1926,-0.0438543 12.6971,0.0115961 L 10.0197,0.312011 C 9.52447,0.367462 9.07981,0.620498 8.76782,1.02409 8.44354,1.44383 8.29684,1.99272 8.36001,2.53845 L 6.43854,2.6483 C 5.93843,2.67673 5.48325,2.90625 5.15756,3.2944 4.80977,3.70853 4.64833,4.2683 4.71431,4.82947 L 4.73712,5.02319 C 4.54901,4.98775 4.35493,4.97968 4.15945,5.00565 L 1.5645,5.34923 C 1.07212,5.41451 0.641496,5.67491 0.351608,6.08272 0.0424185,6.51755 -0.0698865,7.08153 0.0434714,7.62972 L 1.58135,15.0727 H 1.52871 c -0.45168,0 -0.877739,0.1979 -1.16903,0.5436 -0.291291,0.3457 -0.4141246,0.7995 -0.3372658,1.2445 L 4.82696,44.7313 C 4.95401,45.4666 5.58748,46 6.33361,46 H 28.9732 c 0.7462,0 1.3796,-0.5334 1.5063,-1.2687 l 4.8049,-27.8705 c 0.0769,-0.445 -0.0463,-0.8988 -0.3372,-1.2445 -0.2913,-0.3457 -0.7174,-0.5436 -1.1694,-0.5436 z m -3.405,-8.37616 c 0.1281,-0.23865 0.3689,-0.38605 0.5977,-0.35482 l 2.595,0.34323 c 0.1502,0.02001 0.2411,0.10775 0.2909,0.17829 0.093,0.1309 0.1249,0.31094 0.087,0.49379 l -1.594,7.71537 H 31.3643 L 32.0202,9.8916 C 32.0865,9.36974 31.937,8.84647 31.6103,8.45621 31.2923,8.07578 30.8424,7.85222 30.3441,7.8266 L 30.2402,7.82134 Z m -0.9191,2.43385 0.8216,0.04211 c 0.1533,0.00808 0.2488,0.08528 0.3018,0.14846 0.0881,0.10528 0.1256,0.24777 0.1063,0.40113 l -0.6777,5.35061 h -3.148 l 0.3643,-2.1275 c 0.0754,-0.4404 -0.013,-0.8819 -0.2453,-1.2581 l 0.1604,-2.07731 c 0.0154,-0.2018 0.1267,-0.37938 0.2807,-0.48045 0.0923,-0.06037 0.2001,-0.09336 0.3117,-0.08704 l 1.7231,0.08809 z m -3.3456,-5.2885 c 0.0087,3.5e-4 0.0175,-3.5e-4 0.0266,3.5e-4 h 4e-4 l 2.6563,0.15126 c 0.1608,0.00948 0.2661,0.09616 0.3257,0.16705 0.1099,0.13126 0.1597,0.31762 0.1369,0.51134 l -0.2067,1.75968 c 0,0 -4e-4,3.5e-4 -4e-4,7e-4 L 28.8918,7.7522 27.7983,7.6964 c -1.0255,-0.05265 -1.924,0.75911 -2.005,1.80951 L 25.6901,10.8406 25.0598,10.7413 25.4921,4.508 c 0.0253,-0.36991 0.3061,-0.66857 0.616,-0.66611 z m -0.2145,8.87591 -0.4148,2.4233 c -0.4394,0.1362 -0.7995,0.4668 -0.9725,0.9174 -0.5264,1.3709 -1.4431,2.5423 -2.6511,3.3881 -0.1295,0.0906 -0.2614,0.1755 -0.3955,0.2569 l 1.0834,-7.5139 c 0.0179,-0.1253 0.0839,-0.2354 0.1856,-0.3102 0.1018,-0.0755 0.2264,-0.1056 0.3513,-0.086 l 1.1494,0.1811 c 4e-4,0 0.0011,0 0.0018,4e-4 l 1.2732,0.2007 c 0.125,0.0197 0.2345,0.087 0.3082,0.1899 0.0737,0.1028 0.1024,0.2277 0.081,0.3523 z M 20.3012,17.5855 21.805,1.99588 C 21.8257,1.78531 21.9233,1.59474 22.0739,1.47261 22.1553,1.40663 22.289,1.33153 22.4592,1.35083 l 2.6778,0.30006 c 0.166,0.0186 0.2741,0.11757 0.3351,0.19689 0.1148,0.14845 0.1636,0.35235 0.1334,0.55942 L 25.582,2.56934 C 25.5708,2.57285 25.5599,2.57706 25.5486,2.58057 25.5346,2.58513 25.5206,2.59004 25.5069,2.59496 25.4648,2.60934 25.423,2.62514 25.3823,2.64269 25.3718,2.6469 25.3612,2.65146 25.3507,2.65637 25.271,2.69182 25.1942,2.73253 25.1201,2.7785 25.1135,2.78236 25.1071,2.78658 25.1005,2.79079 25.0545,2.82027 25.0092,2.8515 24.9657,2.88484 24.9618,2.88765 24.958,2.89011 24.9541,2.89327 24.9306,2.91116 24.9078,2.92976 24.8853,2.94872 24.8804,2.95293 24.8755,2.95714 24.8706,2.96135 24.832,2.99469 24.7948,3.02908 24.7586,3.06523 24.7495,3.07436 24.7407,3.08313 24.7316,3.09261 24.7134,3.11156 24.6948,3.13086 24.6772,3.15086 24.6579,3.17262 24.639,3.19473 24.6207,3.21719 24.6035,3.23825 24.587,3.25931 24.5705,3.28072 24.5583,3.29721 24.5463,3.31406 24.534,3.3309 24.5186,3.35266 24.5032,3.37512 24.4881,3.39793 24.4712,3.42391 24.4547,3.45023 24.4389,3.4769 24.4291,3.49339 24.4196,3.50989 24.4105,3.52673 24.3937,3.55692 24.3775,3.58745 24.3621,3.61868 24.3551,3.63342 24.3477,3.64851 24.341,3.66361 24.3263,3.69519 24.3122,3.72748 24.2989,3.76012 24.2936,3.77345 24.2884,3.78644 24.2831,3.79977 24.2677,3.84049 24.2533,3.8819 24.2399,3.92366 24.2368,3.93384 24.234,3.94437 24.2312,3.9549 24.2196,3.99315 24.2094,4.03211 24.1999,4.07176 24.1982,4.08019 24.1957,4.08861 24.194,4.09738 24.1838,4.14301 24.1754,4.18933 24.168,4.23601 24.1666,4.24654 24.1648,4.25742 24.1634,4.26795 24.1568,4.31638 24.1511,4.36551 24.1476,4.41499 l -0.4239,6.11571 -0.4341,-0.0681 c -0.4837,-0.0769 -0.9673,0.0418 -1.361,0.3324 -0.3942,0.2909 -0.6497,0.718 -0.7195,1.2027 l -0.9269,6.4305 z M 15.6602,5.0639 c 0.0702,-0.07229 0.1895,-0.15827 0.3594,-0.15827 h 2.6577 c 0.1699,0 0.2899,0.08633 0.3608,0.15898 0.1242,0.12704 0.193,0.31024 0.1888,0.50256 L 18.9616,17.2223 18.6987,12.1875 c -0.0273,-0.525 -0.247,-1.0118 -0.6183,-1.3708 -0.385,-0.372 -0.8823,-0.5619 -1.4025,-0.5341 L 15.596,10.3398 15.5731,9.45537 c 0,0 0,0 0,-3.5e-4 L 15.4738,5.56542 C 15.4689,5.37309 15.537,5.19025 15.6602,5.0639 Z m 1.089,6.5642 c 0.1902,-0.0088 0.3292,0.0944 0.3945,0.1576 0.1256,0.1211 0.2,0.2888 0.2095,0.472 l 0.4439,8.5078 c -0.0477,7e-4 -0.0958,0.0025 -0.1439,0.0025 -1.137,0 -2.2401,-0.258 -3.2421,-0.7528 l -0.7654,-7.595 c -0.0186,-0.1832 0.0327,-0.3604 0.1404,-0.4861 0.0614,-0.0712 0.1685,-0.1582 0.3313,-0.167 z M 9.83436,1.84778 C 9.89578,1.76811 10.0039,1.66949 10.1699,1.65089 l 2.6774,-0.30006 c 0.1709,-0.0193 0.3039,0.0558 0.3857,0.12178 0.1502,0.12213 0.2481,0.3127 0.2685,0.52327 l 0.725,7.5174 0.0232,0.89772 -0.2035,0.0105 c -0.4988,0.0267 -0.9543,0.2524 -1.2831,0.6356 -0.3464,0.4043 -0.5135,0.95 -0.4584,1.4982 l 0.3706,3.6766 -0.8359,-2.0032 -0.6805,-9.81371 C 11.1554,4.36551 11.1497,4.31673 11.1431,4.2683 11.1417,4.25742 11.1399,4.24689 11.1385,4.23601 11.1311,4.18933 11.1227,4.14301 11.1125,4.09703 11.1108,4.08931 11.1087,4.08124 11.1069,4.07352 11.0974,4.03281 11.0869,3.99315 11.0753,3.95349 11.0725,3.94437 11.0697,3.93454 11.0669,3.92542 11.0536,3.88225 11.0388,3.84013 11.0227,3.79837 11.0185,3.78714 11.0139,3.77591 11.0094,3.76468 10.9946,3.72783 10.9788,3.69168 10.9623,3.65624 10.9592,3.64922 10.9564,3.6422 10.9529,3.63588 10.9342,3.59657 10.9139,3.55867 10.8928,3.52147 10.8862,3.50919 10.8792,3.4969 10.8721,3.48462 10.8507,3.44847 10.8286,3.41267 10.8055,3.37828 10.7991,3.36881 10.7925,3.35968 10.7858,3.35021 10.7665,3.32213 10.7465,3.29475 10.7258,3.26808 10.7174,3.25685 10.7086,3.24562 10.7002,3.23474 10.6745,3.20281 10.6482,3.17192 10.6208,3.14174 10.6117,3.13156 10.6022,3.12174 10.5928,3.11156 10.5689,3.08629 10.545,3.06207 10.5201,3.03856 10.5128,3.03119 10.5054,3.02382 10.4977,3.01645 10.4671,2.98802 10.4359,2.961 10.4036,2.93433 10.3938,2.92625 10.384,2.91853 10.3738,2.91046 10.3404,2.88379 10.306,2.85817 10.2713,2.8336 10.2667,2.8308 10.2622,2.82799 10.258,2.82518 10.2239,2.80202 10.1892,2.77991 10.1537,2.7592 10.1464,2.75464 10.139,2.75043 10.1316,2.74622 10.0927,2.7234 10.0527,2.70235 10.0119,2.68269 10.0074,2.68024 10.0025,2.67813 9.99791,2.67603 9.95544,2.65602 9.91263,2.63707 9.86876,2.62022 c 0,-3.5e-4 -3.5e-4,-3.5e-4 -7.1e-4,-3.5e-4 C 9.82278,2.60233 9.77646,2.58653 9.72943,2.57249 9.72767,2.57214 9.72627,2.57144 9.72487,2.57074 L 9.701,2.4072 C 9.67117,2.20013 9.7196,1.99623 9.83436,1.84778 Z M 6.18971,4.16055 C 6.24938,4.08966 6.35431,4.00263 6.5154,3.99385 L 9.17317,3.84189 h 0.00175 c 0.00316,0 0.00667,3.5e-4 0.00983,0 C 9.50061,3.83241 9.78874,4.13248 9.81471,4.508 L 10.2197,10.3471 9.88525,9.54557 C 9.68275,9.0609 9.31215,8.67626 8.84117,8.46323 8.78291,8.43656 8.7236,8.41374 8.66393,8.39304 8.66042,8.39198 8.65692,8.39058 8.65341,8.38918 8.59585,8.36987 8.53829,8.35408 8.48003,8.34004 8.47442,8.33899 8.46845,8.33724 8.46284,8.33583 8.40598,8.32285 8.34913,8.31337 8.29192,8.30565 8.2849,8.3046 8.27753,8.30354 8.27052,8.30284 8.21436,8.29618 8.15786,8.29196 8.10171,8.29056 c -0.00807,0 -0.0158,-3.5e-4 -0.02352,-7e-4 -0.00947,0 -0.01895,-7e-4 -0.02807,-7e-4 -0.02983,0 -0.05931,0.0028 -0.08914,0.00421 C 7.93571,8.29477 7.91009,8.29512 7.88482,8.29723 7.84692,8.30074 7.80936,8.30705 7.77146,8.31267 7.74795,8.31653 7.72408,8.31864 7.70057,8.3232 7.65951,8.33162 7.6188,8.3425 7.57773,8.35338 7.55843,8.35864 7.53878,8.3625 7.51912,8.36812 7.45911,8.38637 7.3998,8.40743 7.34119,8.43199 L 6.5347,8.76926 6.41292,7.735 6.05249,4.67224 C 6.03003,4.47817 6.07987,4.29181 6.18971,4.16055 Z M 5.42955,10.6918 5.82858,10.5247 6.22972,10.3573 h 3.5e-4 L 7.8613,9.67507 C 8.03748,9.60172 8.20278,9.65331 8.28561,9.69051 8.44459,9.7628 8.57093,9.89546 8.64182,10.0646 l 3.35548,8.0407 C 11.493,17.496 11.0883,16.8075 10.8009,16.0585 10.571,15.4595 10.0102,15.0724 9.37216,15.0724 H 6.91935 L 5.20529,11.4653 C 5.12633,11.2989 5.11474,11.115 5.17406,10.9603 5.18634,10.9273 5.20459,10.8901 5.22986,10.8532 5.27232,10.7918 5.33549,10.7311 5.42955,10.6918 Z M 1.36341,7.35703 C 1.3255,7.17418 1.35709,6.99414 1.45009,6.86324 1.50028,6.79305 1.59117,6.70496 1.74138,6.6853 L 4.33633,6.34172 C 4.56445,6.31189 4.80555,6.45824 4.934,6.69689 L 5.07649,7.90662 5.24144,9.30973 4.90979,9.4487 c -0.4608,0.19268 -0.81386,0.5584 -0.99425,1.03 -0.19057,0.4973 -0.1639,1.0676 0.07264,1.5649 l 1.43926,3.0291 h -2.47 z M 33.9564,16.632 31.8282,28.9771 h -4.4069 c -0.372,0 -0.6738,0.3015 -0.6738,0.6738 0,0.372 0.3018,0.6738 0.6738,0.6738 h 4.1746 l -0.7008,4.0648 h -3.385 c -0.3723,0 -0.6738,0.3014 -0.6738,0.6738 0,0.3724 0.3015,0.6738 0.6738,0.6738 h 3.1526 l -1.5108,8.7651 c -0.0151,0.087 -0.0902,0.1502 -0.1787,0.1502 H 6.33361 c -0.08845,0 -0.16355,-0.0632 -0.17864,-0.1502 L 4.64412,35.7371 h 3.15261 c 0.37201,0 0.67383,-0.3014 0.67383,-0.6738 0,-0.3724 -0.30182,-0.6738 -0.67383,-0.6738 H 4.41179 L 3.71093,30.3247 h 4.1953 c 0.37201,0 0.67383,-0.3018 0.67383,-0.6738 0,-0.3723 -0.30182,-0.6738 -0.67383,-0.6738 H 3.4786 L 1.35042,16.632 C 1.33849,16.5632 1.36551,16.5141 1.39043,16.4846 1.415,16.4551 1.45922,16.42 1.52906,16.42 h 7.8431 c 0.07545,0 0.14213,0.0477 0.17056,0.1214 0.62298,1.6225 1.70738,3.0088 3.13648,4.009 1.4624,1.0241 3.1828,1.5652 4.9744,1.5652 0.092,0 0.185,-0.0021 0.279,-0.0052 0.0439,-0.0014 0.0881,-0.0032 0.1323,-0.0053 0.0386,-0.0021 0.0776,-0.0042 0.1165,-0.0067 0.4099,-0.0245 0.8146,-0.0772 1.2126,-0.1583 0.0014,-3e-4 0.0024,-3e-4 0.0035,-7e-4 1.155,-0.2351 2.2506,-0.7033 3.2302,-1.389 1.429,-1.0002 2.5135,-2.3865 3.1364,-4.009 0.0285,-0.0737 0.0955,-0.1214 0.1706,-0.1214 h 7.8434 c 0.0695,0 0.1138,0.0351 0.1383,0.0642 0.0249,0.0299 0.0516,0.079 0.04,0.1478 z"
       id="path38"
       inkscape:connector-curvature="0" />
  </mask>
  <g
     id="g956"
     transform="matrix(0.80586461,0,0,0.80586461,2.1455309,3.8550195)">
    <path
       id="path2"
       d="m 15.7102,29.1121 -1.713,0.167 C 13.403,29.337 12.8598,28.9254 12.7766,28.3519 L 9.03437,2.50322 C 8.92487,1.74587 9.40146,1.05905 10.0949,0.981141 L 12.7724,0.681076 C 13.4687,0.602814 14.0986,1.1675 14.1723,1.93082 L 16.6841,27.969 c 0.0558,0.5773 -0.3787,1.0852 -0.9739,1.1431 z"
       inkscape:connector-curvature="0"
       style="fill:#fccf3f" />
    <path
       id="path4"
       d="M 11.2626,31.0762 9.56122,31.1608 C 8.97092,31.1903 8.44343,30.7621 8.3771,30.1975 L 5.38347,4.75092 C 5.29573,4.00585 5.78742,3.36044 6.47704,3.32114 L 9.13621,3.16917 c 0.69103,-0.0393 1.29889,0.54398 1.35049,1.29221 l 1.7712,25.54202 c 0.0394,0.5668 -0.4046,1.0434 -0.9953,1.0728 z"
       inkscape:connector-curvature="0"
       style="fill:#efc03c" />
    <path
       id="path6"
       d="m 8.71892,32.8568 -1.66773,0.192 C 6.47317,33.1154 5.91796,32.7297 5.80426,32.1805 L 0.70315,7.49312 C 0.554346,6.77192 0.980754,6.10616 1.65283,6.01702 L 4.24778,5.67344 c 0.67488,-0.0895 1.32134,0.43658 1.4361,1.16446 l 3.92401,24.9018 c 0.08739,0.5538 -0.30919,1.0501 -0.88897,1.1171 z"
       inkscape:connector-curvature="0"
       style="fill:#fccf3f" />
    <path
       id="path8"
       d="m 19.5968,29.1123 1.713,0.1671 c 0.5941,0.0579 1.1374,-0.3538 1.2206,-0.9272 L 26.2723,2.50388 C 26.3821,1.74652 25.9055,1.05936 25.2117,0.9818 L 22.5343,0.681385 C 21.8383,0.603474 21.2084,1.1678 21.1347,1.93148 L 18.6229,27.9693 c -0.0558,0.5773 0.3783,1.0851 0.9739,1.143 z"
       inkscape:connector-curvature="0"
       style="fill:#fccf3f" />
    <path
       id="path10"
       d="m 24.0439,31.0762 1.7015,0.0846 c 0.5903,0.0295 1.1177,-0.3987 1.1841,-0.9633 L 29.9231,4.75092 C 30.0108,4.00585 29.5192,3.36044 28.8295,3.32114 L 26.17,3.16917 C 25.4793,3.12987 24.8715,3.71315 24.8199,4.46138 L 23.0486,30.0034 c -0.0393,0.5668 0.4043,1.0434 0.9953,1.0728 z"
       inkscape:connector-curvature="0"
       style="fill:#efc03c" />
    <path
       id="path12"
       d="m 26.5876,32.8567 1.6681,0.1919 c 0.578,0.0667 1.1332,-0.319 1.2466,-0.8682 L 34.6034,7.4934 C 34.7526,6.7722 34.3261,6.10609 33.6541,6.01695 L 31.0591,5.67337 C 30.3842,5.58423 29.7378,6.10995 29.623,6.83818 L 25.6987,31.7396 c -0.0874,0.5538 0.3092,1.05 0.8889,1.1171 z"
       inkscape:connector-curvature="0"
       style="fill:#fccf3f" />
    <path
       id="path14"
       d="m 18.2377,31.9009 h -1.7 c -0.59,0 -1.0757,-0.4492 -1.0901,-1.0111 L 14.8005,5.58263 c -0.019,-0.74086 0.5292,-1.35082 1.2192,-1.35082 h 2.6577 c 0.6897,0 1.24,0.60996 1.2231,1.35082 L 19.325,30.8898 c -0.0127,0.5619 -0.4973,1.0111 -1.0873,1.0111 z"
       inkscape:connector-curvature="0"
       style="fill:#efc03c" />
    <path
       id="path16"
       d="m 18.3103,34.2289 -1.5614,0.6405 C 16.2071,35.0916 15.581,34.8684 15.342,34.3658 L 4.59648,11.7542 C 4.28238,11.093 4.53927,10.3336 5.16994,10.07 L 7.60134,9.0533 C 8.23271,8.78939 8.98164,9.12911 9.26346,9.80505 L 18.9031,32.9041 c 0.2144,0.5131 -0.0505,1.1023 -0.5928,1.3248 z"
       inkscape:connector-curvature="0"
       style="fill:#fccf3f" />
    <path
       id="path18"
       d="m 18.3264,38.2661 -1.6857,0.0779 c -0.585,0.027 -1.0995,-0.3941 -1.1553,-0.9479 l -2.51,-24.9085 c -0.0734,-0.7282 0.4239,-1.3571 1.1065,-1.3933 l 2.6318,-0.139 c 0.6833,-0.0361 1.274,0.5359 1.3122,1.267 l 1.3049,24.9955 c 0.0288,0.5555 -0.4187,1.0216 -1.0044,1.0483 z"
       inkscape:connector-curvature="0"
       style="fill:#efc03c" />
    <path
       id="path20"
       d="m 25.5995,34.089 1.6376,0.0734 c 0.5682,0.0256 1.0777,-0.3727 1.1441,-0.896 L 31.352,9.80665 C 31.4383,9.12335 30.9698,8.53339 30.3097,8.4997 L 27.7638,8.36915 C 27.1026,8.33546 26.5183,8.87206 26.4653,9.55782 L 24.6467,33.0979 c -0.0407,0.5251 0.3839,0.9655 0.9528,0.9911 z"
       inkscape:connector-curvature="0"
       style="fill:#efc03c" />
    <path
       id="path22"
       d="m 19.2968,37.8907 1.779,0.2804 c 0.6173,0.0976 1.1985,-0.3197 1.3042,-0.9356 l 4.1777,-24.4038 c 0.1077,-0.6279 -0.319,-1.2224 -0.9483,-1.3214 L 23.185,11.1281 c -0.6292,-0.0993 -1.2181,0.3352 -1.309,0.9655 l -3.5324,24.5056 c -0.0891,0.6187 0.3356,1.1943 0.9532,1.2915 z"
       inkscape:connector-curvature="0"
       style="fill:#fccf3f" />
    <path
       id="path24"
       d="m 25.9348,15.7461 c -0.3559,0 -0.6721,0.2214 -0.7995,0.5538 -1.1546,3.0069 -4.0682,5.1421 -7.482,5.1421 -3.4133,0 -6.3269,-2.1352 -7.4816,-5.1421 C 10.044,15.9675 9.72811,15.7461 9.37225,15.7461 H 1.52879 c -0.529936,0 -0.932479,0.478 -0.842284,1.0002 L 5.49106,44.6165 c 0.07089,0.4102 0.4264,0.7096 0.84263,0.7096 H 28.9733 c 0.4163,0 0.7718,-0.2994 0.8427,-0.7096 l 4.8045,-27.8702 c 0.0902,-0.5226 -0.3123,-1.0002 -0.8426,-1.0002 z"
       inkscape:connector-curvature="0"
       style="fill:#f98500" />
    <path
       id="path26"
       d="M 33.7777,15.7461 H 28.385 c 0.5303,0 0.9324,0.478 0.8423,1.0002 l -4.8046,27.8705 c -0.0709,0.4099 -0.4264,0.7093 -0.8423,0.7093 h 5.3928 c 0.4162,0 0.7717,-0.2994 0.8426,-0.7093 l 4.8045,-27.8705 c 0.0902,-0.5226 -0.3123,-1.0002 -0.8426,-1.0002 z"
       inkscape:connector-curvature="0"
       style="fill:#ea3942" />
    <path
       id="path28"
       d="M 32.3958,29.651 H 2.91113 l 0.93284,5.4124 H 31.4626 Z"
       inkscape:connector-curvature="0"
       style="fill:#f3e8d7" />
    <path
       id="path30"
       d="m 32.3959,29.651 h -5.3931 l -0.9332,5.4124 h 5.3931 z"
       inkscape:connector-curvature="0"
       style="fill:#e5d8c6" />
    <path
       id="path32"
       d="m 24.677,32.518 c 0,3.8788 -3.1445,7.0233 -7.0236,7.0233 -3.8787,0 -7.0233,-3.1445 -7.0233,-7.0233 0,-3.879 3.1446,-7.0232 7.0233,-7.0232 3.8791,0 7.0236,3.1442 7.0236,7.0232 z"
       inkscape:connector-curvature="0"
       style="fill:#efa335" />
    <path
       id="path34"
       d="m 20.8263,26.253 c 0.1923,0.6409 0.2972,1.32 0.2972,2.0233 0,3.879 -3.1445,7.0232 -7.0236,7.0232 -1.142,0 -2.2194,-0.2744 -3.1726,-0.758 0.8689,2.8922 3.5509,5 6.726,5 3.8791,0 7.0233,-3.1446 7.0233,-7.0233 3e-4,-2.7367 -1.5663,-5.1063 -3.8503,-6.2652 z"
       inkscape:connector-curvature="0"
       style="fill:#fd8f31" />
    <path
       id="path36"
       d="m 17.6534,24.821 c -4.2441,0 -7.6971,3.453 -7.6971,7.697 0,4.2441 3.453,7.6971 7.6971,7.6971 4.2444,0 7.6971,-3.453 7.6971,-7.6971 0,-4.244 -3.4527,-7.697 -7.6971,-7.697 z m 0,14.0465 c -3.5011,0 -6.3494,-2.8484 -6.3494,-6.3495 0,-3.5011 2.8483,-6.3494 6.3494,-6.3494 3.5015,0 6.3498,2.8483 6.3498,6.3494 0,3.5011 -2.8483,6.3495 -6.3498,6.3495 z"
       inkscape:connector-curvature="0"
       style="fill:#000000" />
    <path
       id="path41"
       mask="url(#path-19-inside-1)"
       d="M 33.7778,15.0727 H 33.7251 L 35.263,7.62972 C 35.3764,7.08153 35.2641,6.51755 34.9549,6.08272 34.6654,5.67491 34.2344,5.41451 33.742,5.34923 L 31.147,5.00565 C 30.9519,4.97968 30.7575,4.9874 30.5694,5.02284 L 30.5922,4.82947 C 30.6582,4.2683 30.4967,3.70853 30.1489,3.2944 29.8233,2.90625 29.3684,2.67673 28.868,2.6483 L 26.9465,2.53845 C 27.0097,1.99272 26.863,1.44383 26.5387,1.02409 26.2267,0.620498 25.782,0.367462 25.2868,0.312011 L 22.6094,0.0115961 C 22.1146,-0.0442053 21.6229,0.103195 21.2249,0.426071 20.796,0.773864 20.5188,1.29889 20.4637,1.86638 L 20.2201,4.39113 C 20.1555,4.29532 20.0829,4.20512 20.0018,4.1223 19.646,3.75836 19.1757,3.55797 18.6773,3.55797 h -2.6577 c -0.3534,0 -0.6914,0.10248 -0.9855,0.29094 L 14.8428,1.86638 C 14.7881,1.29889 14.5105,0.773864 14.0816,0.426071 13.684,0.103195 13.1926,-0.0438543 12.6971,0.0115961 L 10.0197,0.312011 C 9.52447,0.367462 9.07981,0.620498 8.76782,1.02409 8.44354,1.44383 8.29684,1.99272 8.36001,2.53845 L 6.43854,2.6483 C 5.93843,2.67673 5.48325,2.90625 5.15756,3.2944 4.80977,3.70853 4.64833,4.2683 4.71431,4.82947 L 4.73712,5.02319 C 4.54901,4.98775 4.35493,4.97968 4.15945,5.00565 L 1.5645,5.34923 C 1.07212,5.41451 0.641496,5.67491 0.351608,6.08272 0.0424185,6.51755 -0.0698865,7.08153 0.0434714,7.62972 L 1.58135,15.0727 H 1.52871 c -0.45168,0 -0.877739,0.1979 -1.16903,0.5436 -0.291291,0.3457 -0.4141246,0.7995 -0.3372658,1.2445 L 4.82696,44.7313 C 4.95401,45.4666 5.58748,46 6.33361,46 H 28.9732 c 0.7462,0 1.3796,-0.5334 1.5063,-1.2687 l 4.8049,-27.8705 c 0.0769,-0.445 -0.0463,-0.8988 -0.3372,-1.2445 -0.2913,-0.3457 -0.7174,-0.5436 -1.1694,-0.5436 z m -3.405,-8.37616 c 0.1281,-0.23865 0.3689,-0.38605 0.5977,-0.35482 l 2.595,0.34323 c 0.1502,0.02001 0.2411,0.10775 0.2909,0.17829 0.093,0.1309 0.1249,0.31094 0.087,0.49379 l -1.594,7.71537 H 31.3643 L 32.0202,9.8916 C 32.0865,9.36974 31.937,8.84647 31.6103,8.45621 31.2923,8.07578 30.8424,7.85222 30.3441,7.8266 L 30.2402,7.82134 Z m -0.9191,2.43385 0.8216,0.04211 c 0.1533,0.00808 0.2488,0.08528 0.3018,0.14846 0.0881,0.10528 0.1256,0.24777 0.1063,0.40113 l -0.6777,5.35061 h -3.148 l 0.3643,-2.1275 c 0.0754,-0.4404 -0.013,-0.8819 -0.2453,-1.2581 l 0.1604,-2.07731 c 0.0154,-0.2018 0.1267,-0.37938 0.2807,-0.48045 0.0923,-0.06037 0.2001,-0.09336 0.3117,-0.08704 l 1.7231,0.08809 z m -3.3456,-5.2885 c 0.0087,3.5e-4 0.0175,-3.5e-4 0.0266,3.5e-4 h 4e-4 l 2.6563,0.15126 c 0.1608,0.00948 0.2661,0.09616 0.3257,0.16705 0.1099,0.13126 0.1597,0.31762 0.1369,0.51134 l -0.2067,1.75968 c 0,0 -4e-4,3.5e-4 -4e-4,7e-4 L 28.8918,7.7522 27.7983,7.6964 c -1.0255,-0.05265 -1.924,0.75911 -2.005,1.80951 L 25.6901,10.8406 25.0598,10.7413 25.4921,4.508 c 0.0253,-0.36991 0.3061,-0.66857 0.616,-0.66611 z m -0.2145,8.87591 -0.4148,2.4233 c -0.4394,0.1362 -0.7995,0.4668 -0.9725,0.9174 -0.5264,1.3709 -1.4431,2.5423 -2.6511,3.3881 -0.1295,0.0906 -0.2614,0.1755 -0.3955,0.2569 l 1.0834,-7.5139 c 0.0179,-0.1253 0.0839,-0.2354 0.1856,-0.3102 0.1018,-0.0755 0.2264,-0.1056 0.3513,-0.086 l 1.1494,0.1811 c 4e-4,0 0.0011,0 0.0018,4e-4 l 1.2732,0.2007 c 0.125,0.0197 0.2345,0.087 0.3082,0.1899 0.0737,0.1028 0.1024,0.2277 0.081,0.3523 z M 20.3012,17.5855 21.805,1.99588 C 21.8257,1.78531 21.9233,1.59474 22.0739,1.47261 22.1553,1.40663 22.289,1.33153 22.4592,1.35083 l 2.6778,0.30006 c 0.166,0.0186 0.2741,0.11757 0.3351,0.19689 0.1148,0.14845 0.1636,0.35235 0.1334,0.55942 L 25.582,2.56934 C 25.5708,2.57285 25.5599,2.57706 25.5486,2.58057 25.5346,2.58513 25.5206,2.59004 25.5069,2.59496 25.4648,2.60934 25.423,2.62514 25.3823,2.64269 25.3718,2.6469 25.3612,2.65146 25.3507,2.65637 25.271,2.69182 25.1942,2.73253 25.1201,2.7785 25.1135,2.78236 25.1071,2.78658 25.1005,2.79079 25.0545,2.82027 25.0092,2.8515 24.9657,2.88484 24.9618,2.88765 24.958,2.89011 24.9541,2.89327 24.9306,2.91116 24.9078,2.92976 24.8853,2.94872 24.8804,2.95293 24.8755,2.95714 24.8706,2.96135 24.832,2.99469 24.7948,3.02908 24.7586,3.06523 24.7495,3.07436 24.7407,3.08313 24.7316,3.09261 24.7134,3.11156 24.6948,3.13086 24.6772,3.15086 24.6579,3.17262 24.639,3.19473 24.6207,3.21719 24.6035,3.23825 24.587,3.25931 24.5705,3.28072 24.5583,3.29721 24.5463,3.31406 24.534,3.3309 24.5186,3.35266 24.5032,3.37512 24.4881,3.39793 24.4712,3.42391 24.4547,3.45023 24.4389,3.4769 24.4291,3.49339 24.4196,3.50989 24.4105,3.52673 24.3937,3.55692 24.3775,3.58745 24.3621,3.61868 24.3551,3.63342 24.3477,3.64851 24.341,3.66361 24.3263,3.69519 24.3122,3.72748 24.2989,3.76012 24.2936,3.77345 24.2884,3.78644 24.2831,3.79977 24.2677,3.84049 24.2533,3.8819 24.2399,3.92366 24.2368,3.93384 24.234,3.94437 24.2312,3.9549 24.2196,3.99315 24.2094,4.03211 24.1999,4.07176 24.1982,4.08019 24.1957,4.08861 24.194,4.09738 24.1838,4.14301 24.1754,4.18933 24.168,4.23601 24.1666,4.24654 24.1648,4.25742 24.1634,4.26795 24.1568,4.31638 24.1511,4.36551 24.1476,4.41499 l -0.4239,6.11571 -0.4341,-0.0681 c -0.4837,-0.0769 -0.9673,0.0418 -1.361,0.3324 -0.3942,0.2909 -0.6497,0.718 -0.7195,1.2027 l -0.9269,6.4305 z M 15.6602,5.0639 c 0.0702,-0.07229 0.1895,-0.15827 0.3594,-0.15827 h 2.6577 c 0.1699,0 0.2899,0.08633 0.3608,0.15898 0.1242,0.12704 0.193,0.31024 0.1888,0.50256 L 18.9616,17.2223 18.6987,12.1875 c -0.0273,-0.525 -0.247,-1.0118 -0.6183,-1.3708 -0.385,-0.372 -0.8823,-0.5619 -1.4025,-0.5341 L 15.596,10.3398 15.5731,9.45537 c 0,0 0,0 0,-3.5e-4 L 15.4738,5.56542 C 15.4689,5.37309 15.537,5.19025 15.6602,5.0639 Z m 1.089,6.5642 c 0.1902,-0.0088 0.3292,0.0944 0.3945,0.1576 0.1256,0.1211 0.2,0.2888 0.2095,0.472 l 0.4439,8.5078 c -0.0477,7e-4 -0.0958,0.0025 -0.1439,0.0025 -1.137,0 -2.2401,-0.258 -3.2421,-0.7528 l -0.7654,-7.595 c -0.0186,-0.1832 0.0327,-0.3604 0.1404,-0.4861 0.0614,-0.0712 0.1685,-0.1582 0.3313,-0.167 z M 9.83436,1.84778 C 9.89578,1.76811 10.0039,1.66949 10.1699,1.65089 l 2.6774,-0.30006 c 0.1709,-0.0193 0.3039,0.0558 0.3857,0.12178 0.1502,0.12213 0.2481,0.3127 0.2685,0.52327 l 0.725,7.5174 0.0232,0.89772 -0.2035,0.0105 c -0.4988,0.0267 -0.9543,0.2524 -1.2831,0.6356 -0.3464,0.4043 -0.5135,0.95 -0.4584,1.4982 l 0.3706,3.6766 -0.8359,-2.0032 -0.6805,-9.81371 C 11.1554,4.36551 11.1497,4.31673 11.1431,4.2683 11.1417,4.25742 11.1399,4.24689 11.1385,4.23601 11.1311,4.18933 11.1227,4.14301 11.1125,4.09703 11.1108,4.08931 11.1087,4.08124 11.1069,4.07352 11.0974,4.03281 11.0869,3.99315 11.0753,3.95349 11.0725,3.94437 11.0697,3.93454 11.0669,3.92542 11.0536,3.88225 11.0388,3.84013 11.0227,3.79837 11.0185,3.78714 11.0139,3.77591 11.0094,3.76468 10.9946,3.72783 10.9788,3.69168 10.9623,3.65624 10.9592,3.64922 10.9564,3.6422 10.9529,3.63588 10.9342,3.59657 10.9139,3.55867 10.8928,3.52147 10.8862,3.50919 10.8792,3.4969 10.8721,3.48462 10.8507,3.44847 10.8286,3.41267 10.8055,3.37828 10.7991,3.36881 10.7925,3.35968 10.7858,3.35021 10.7665,3.32213 10.7465,3.29475 10.7258,3.26808 10.7174,3.25685 10.7086,3.24562 10.7002,3.23474 10.6745,3.20281 10.6482,3.17192 10.6208,3.14174 10.6117,3.13156 10.6022,3.12174 10.5928,3.11156 10.5689,3.08629 10.545,3.06207 10.5201,3.03856 10.5128,3.03119 10.5054,3.02382 10.4977,3.01645 10.4671,2.98802 10.4359,2.961 10.4036,2.93433 10.3938,2.92625 10.384,2.91853 10.3738,2.91046 10.3404,2.88379 10.306,2.85817 10.2713,2.8336 10.2667,2.8308 10.2622,2.82799 10.258,2.82518 10.2239,2.80202 10.1892,2.77991 10.1537,2.7592 10.1464,2.75464 10.139,2.75043 10.1316,2.74622 10.0927,2.7234 10.0527,2.70235 10.0119,2.68269 10.0074,2.68024 10.0025,2.67813 9.99791,2.67603 9.95544,2.65602 9.91263,2.63707 9.86876,2.62022 c 0,-3.5e-4 -3.5e-4,-3.5e-4 -7.1e-4,-3.5e-4 C 9.82278,2.60233 9.77646,2.58653 9.72943,2.57249 9.72767,2.57214 9.72627,2.57144 9.72487,2.57074 L 9.701,2.4072 C 9.67117,2.20013 9.7196,1.99623 9.83436,1.84778 Z M 6.18971,4.16055 C 6.24938,4.08966 6.35431,4.00263 6.5154,3.99385 L 9.17317,3.84189 h 0.00175 c 0.00316,0 0.00667,3.5e-4 0.00983,0 C 9.50061,3.83241 9.78874,4.13248 9.81471,4.508 L 10.2197,10.3471 9.88525,9.54557 C 9.68275,9.0609 9.31215,8.67626 8.84117,8.46323 8.78291,8.43656 8.7236,8.41374 8.66393,8.39304 8.66042,8.39198 8.65692,8.39058 8.65341,8.38918 8.59585,8.36987 8.53829,8.35408 8.48003,8.34004 8.47442,8.33899 8.46845,8.33724 8.46284,8.33583 8.40598,8.32285 8.34913,8.31337 8.29192,8.30565 8.2849,8.3046 8.27753,8.30354 8.27052,8.30284 8.21436,8.29618 8.15786,8.29196 8.10171,8.29056 c -0.00807,0 -0.0158,-3.5e-4 -0.02352,-7e-4 -0.00947,0 -0.01895,-7e-4 -0.02807,-7e-4 -0.02983,0 -0.05931,0.0028 -0.08914,0.00421 C 7.93571,8.29477 7.91009,8.29512 7.88482,8.29723 7.84692,8.30074 7.80936,8.30705 7.77146,8.31267 7.74795,8.31653 7.72408,8.31864 7.70057,8.3232 7.65951,8.33162 7.6188,8.3425 7.57773,8.35338 7.55843,8.35864 7.53878,8.3625 7.51912,8.36812 7.45911,8.38637 7.3998,8.40743 7.34119,8.43199 L 6.5347,8.76926 6.41292,7.735 6.05249,4.67224 C 6.03003,4.47817 6.07987,4.29181 6.18971,4.16055 Z M 5.42955,10.6918 5.82858,10.5247 6.22972,10.3573 h 3.5e-4 L 7.8613,9.67507 C 8.03748,9.60172 8.20278,9.65331 8.28561,9.69051 8.44459,9.7628 8.57093,9.89546 8.64182,10.0646 l 3.35548,8.0407 C 11.493,17.496 11.0883,16.8075 10.8009,16.0585 10.571,15.4595 10.0102,15.0724 9.37216,15.0724 H 6.91935 L 5.20529,11.4653 C 5.12633,11.2989 5.11474,11.115 5.17406,10.9603 5.18634,10.9273 5.20459,10.8901 5.22986,10.8532 5.27232,10.7918 5.33549,10.7311 5.42955,10.6918 Z M 1.36341,7.35703 C 1.3255,7.17418 1.35709,6.99414 1.45009,6.86324 1.50028,6.79305 1.59117,6.70496 1.74138,6.6853 L 4.33633,6.34172 C 4.56445,6.31189 4.80555,6.45824 4.934,6.69689 L 5.07649,7.90662 5.24144,9.30973 4.90979,9.4487 c -0.4608,0.19268 -0.81386,0.5584 -0.99425,1.03 -0.19057,0.4973 -0.1639,1.0676 0.07264,1.5649 l 1.43926,3.0291 h -2.47 z M 33.9564,16.632 31.8282,28.9771 h -4.4069 c -0.372,0 -0.6738,0.3015 -0.6738,0.6738 0,0.372 0.3018,0.6738 0.6738,0.6738 h 4.1746 l -0.7008,4.0648 h -3.385 c -0.3723,0 -0.6738,0.3014 -0.6738,0.6738 0,0.3724 0.3015,0.6738 0.6738,0.6738 h 3.1526 l -1.5108,8.7651 c -0.0151,0.087 -0.0902,0.1502 -0.1787,0.1502 H 6.33361 c -0.08845,0 -0.16355,-0.0632 -0.17864,-0.1502 L 4.64412,35.7371 h 3.15261 c 0.37201,0 0.67383,-0.3014 0.67383,-0.6738 0,-0.3724 -0.30182,-0.6738 -0.67383,-0.6738 H 4.41179 L 3.71093,30.3247 h 4.1953 c 0.37201,0 0.67383,-0.3018 0.67383,-0.6738 0,-0.3723 -0.30182,-0.6738 -0.67383,-0.6738 H 3.4786 L 1.35042,16.632 C 1.33849,16.5632 1.36551,16.5141 1.39043,16.4846 1.415,16.4551 1.45922,16.42 1.52906,16.42 h 7.8431 c 0.07545,0 0.14213,0.0477 0.17056,0.1214 0.62298,1.6225 1.70738,3.0088 3.13648,4.009 1.4624,1.0241 3.1828,1.5652 4.9744,1.5652 0.092,0 0.185,-0.0021 0.279,-0.0052 0.0439,-0.0014 0.0881,-0.0032 0.1323,-0.0053 0.0386,-0.0021 0.0776,-0.0042 0.1165,-0.0067 0.4099,-0.0245 0.8146,-0.0772 1.2126,-0.1583 0.0014,-3e-4 0.0024,-3e-4 0.0035,-7e-4 1.155,-0.2351 2.2506,-0.7033 3.2302,-1.389 1.429,-1.0002 2.5135,-2.3865 3.1364,-4.009 0.0285,-0.0737 0.0955,-0.1214 0.1706,-0.1214 h 7.8434 c 0.0695,0 0.1138,0.0351 0.1383,0.0642 0.0249,0.0299 0.0516,0.079 0.04,0.1478 z"
       inkscape:connector-curvature="0"
       style="fill:#000000;stroke:#000000;stroke-width:4" />
    <path
       id="path43"
       d="m 49.8012,32.6852 c 0,0.6105 -0.2472,1.1627 -0.6469,1.5624 -0.4004,0.3997 -0.9525,0.6469 -1.5623,0.6469 H 22.0301 c -1.2196,0 -2.2092,-0.9889 -2.2092,-2.2093 0,-0.3269 0.0707,-0.6366 0.1978,-0.9154 0.1105,-0.2425 0.263,-0.4608 0.4491,-0.6469 0.4004,-0.3998 0.9525,-0.647 1.5623,-0.647 H 47.592 c 0.8935,0 1.6633,0.5302 2.0115,1.2939 0.127,0.2788 0.1977,0.5885 0.1977,0.9154 z"
       inkscape:connector-curvature="0"
       style="fill:#d57200" />
    <path
       id="path45"
       d="m 49.6033,31.77 c -0.1106,0.2417 -0.2638,0.4608 -0.4492,0.6462 -0.4004,0.3998 -0.9525,0.647 -1.5623,0.647 H 22.03 c -0.8928,0 -1.6627,-0.5302 -2.0115,-1.2931 0.1105,-0.2425 0.263,-0.4608 0.4491,-0.647 0.4004,-0.3997 0.9526,-0.6469 1.5624,-0.6469 h 25.5619 c 0.8933,0 1.6632,0.5301 2.0114,1.2938 z"
       inkscape:connector-curvature="0"
       style="fill:#f98500" />
    <path
       id="path47"
       d="m 51.7014,36.678 c 0,2.8466 -1.3179,4.9617 -3.4481,6.3647 -2.131,1.4037 -5.0744,2.0953 -8.3254,2.0953 H 29.694 c -6.5021,0 -11.7735,-2.7669 -11.7735,-8.46 0,-0.3172 0.079,-0.6181 0.2218,-0.8886 0.1209,-0.2308 0.2877,-0.4388 0.4903,-0.616 0.4395,-0.3853 1.048,-0.6236 1.7189,-0.6236 h 28.9188 c 0.98,0 1.8246,0.5082 2.2092,1.2396 0.1429,0.2705 0.2219,0.5713 0.2219,0.8886 z"
       inkscape:connector-curvature="0"
       style="fill:#ffa733" />
    <path
       id="path49"
       d="m 51.4795,35.7894 c -0.4587,1.8954 -1.6083,3.3718 -3.2263,4.4377 -2.1309,1.4037 -5.0743,2.0952 -8.3254,2.0952 H 29.694 c -5.7205,0 -10.4879,-2.1413 -11.5516,-6.5329 0.1209,-0.2308 0.2877,-0.4388 0.4903,-0.616 0.4395,-0.3853 1.048,-0.6236 1.7189,-0.6236 h 28.9187 c 0.98,0 1.8247,0.5081 2.2092,1.2396 z"
       inkscape:connector-curvature="0"
       style="fill:#ffb655" />
    <path
       id="path51"
       d="m 44.2054,29.5489 -5.7151,5.7151 c -0.1435,0.1428 -0.2966,0.2692 -0.4587,0.3783 -1.21,0.8193 -2.8679,0.6937 -3.9399,-0.3783 l -5.715,-5.7151 z"
       inkscape:connector-curvature="0"
       style="fill:#eebf00" />
    <path
       id="path53"
       d="m 44.2054,29.549 -5.7151,5.715 c -0.1435,0.1429 -0.2966,0.2692 -0.4587,0.3784 -0.4361,-0.1484 -0.8454,-0.3962 -1.1929,-0.7444 l -5.349,-5.3491 h 12.7157 z"
       inkscape:connector-curvature="0"
       style="fill:#ffd422" />
    <path
       id="path55"
       d="m 51.0598,30.3463 c 0,0.2994 -0.0494,0.6057 -0.1566,0.9045 -0.4195,1.1709 -1.5431,1.6255 -2.4186,0.9785 L 47.4345,31.454 c -0.7327,-0.5418 -1.6674,-0.3201 -2.1976,0.5219 l -0.0446,0.0707 c -0.5089,0.809 -1.3962,1.0493 -2.1207,0.5754 l -2.3514,-1.5376 c -0.5425,-0.3543 -1.1929,-0.3158 -1.7065,0.1024 l -1.8844,1.5329 c -0.5412,0.4401 -1.2307,0.4587 -1.7863,0.0474 l -2.1495,-1.5932 c -0.5494,-0.4073 -1.2306,-0.3943 -1.7697,0.0343 l -1.9572,1.5541 c -0.5254,0.4169 -1.1861,0.4409 -1.7292,0.0639 l -2.5341,-1.7609 c -0.4986,-0.3461 -1.0995,-0.3557 -1.6049,-0.0254 l -2.3637,1.5458 c -1.5741,0.2027 -2.3398,-0.9532 -2.3398,-0.9532 -0.377,-0.6551 -0.4148,-1.4319 -0.2108,-2.0835 0.2424,-0.7788 0.8296,-1.379 1.5932,-1.379 H 49.345 c 0.7486,0 1.3467,0.5913 1.5926,1.3756 0.0796,0.2513 0.1222,0.5225 0.1222,0.8007 z"
       inkscape:connector-curvature="0"
       style="fill:#ffb531" />
    <path
       id="path57"
       d="m 50.9376,29.5456 c -0.0103,0.0343 -0.0219,0.0679 -0.0343,0.1023 -0.4196,1.1716 -1.5431,1.6262 -2.4187,0.9792 l -1.05,-0.776 C 46.7019,29.31 45.7672,29.5318 45.237,30.373 l -0.0447,0.0714 c -0.5089,0.809 -1.3961,1.0493 -2.1206,0.5754 l -2.3514,-1.5375 c -0.5425,-0.3551 -1.1929,-0.3159 -1.7066,0.1023 l -1.8844,1.5329 c -0.5411,0.4402 -1.2306,0.458 -1.7862,0.0467 L 33.1936,29.571 c -0.5494,-0.4073 -1.2306,-0.3935 -1.7697,0.0343 l -1.9573,1.5548 c -0.5253,0.4162 -1.186,0.4409 -1.7291,0.0638 l -2.5341,-1.7608 c -0.4986,-0.3468 -1.0995,-0.3564 -1.6049,-0.0254 l -2.3638,1.5452 c -1.574,0.2032 -2.3397,-0.9533 -2.3397,-0.9533 -0.0886,-0.1545 -0.1586,-0.3158 -0.2108,-0.4806 0.2424,-0.7788 0.8296,-1.379 1.5932,-1.379 h 29.0677 c 0.7485,0 1.3467,0.5913 1.5925,1.3756 z"
       inkscape:connector-curvature="0"
       style="fill:#ffb531" />
    <path
       id="path59"
       d="m 50.4732,26.7568 c 0.0049,0.2286 -0.0254,0.4491 -0.0844,0.6571 -0.2658,0.9258 -1.1187,1.6029 -2.1296,1.6029 -3.9694,0 -14.5417,-0.0893 -16.1363,-0.0364 -0.0357,0.0014 -0.0714,0.0028 -0.1065,0.0035 -2.0135,0.0762 -2.4723,0.399 -2.4723,1.4724 v 3.9275 c 0,0.2019 -0.0817,0.3852 -0.2142,0.5178 -0.1325,0.1325 -0.3152,0.2142 -0.5171,0.2142 -0.4045,0 -0.7321,0.3276 -0.7321,0.7321 v 1.7107 c 0,0.1737 -0.0206,0.3419 -0.0604,0.504 -0.226,0.9354 -1.07,1.6297 -2.0836,1.6297 h -0.0542 c -1.1524,0 -2.085,-0.936 -2.0816,-2.0884 l 0.0096,-3.0965 c 7e-4,-0.2377 0.0975,-0.4533 0.2534,-0.6085 0.1566,-0.1559 0.3715,-0.252 0.6098,-0.252 0.4766,0 0.8632,-0.3867 0.8632,-0.8632 v -2.3274 c 0,-0.7953 -0.6441,-1.4394 -1.4394,-1.4394 h -2.6933 c -1.2122,0 -2.232,-0.9566 -2.2567,-2.1688 -0.0248,-1.2436 0.9765,-2.26 2.2147,-2.26 h 26.853 c 1.2128,-10e-5 2.234,0.9566 2.258,2.1687 z"
       inkscape:connector-curvature="0"
       style="fill:#cd6e00" />
    <path
       id="path61"
       d="m 50.4733,26.7568 c 0.0048,0.2287 -0.0255,0.4492 -0.0845,0.6572 -4.2022,-0.0041 -14.243,-0.0872 -15.7937,-0.0364 -2.1041,0.0694 -2.5787,0.3846 -2.5787,1.4765 v 0.1298 c -2.0135,0.0762 -2.4722,0.399 -2.4722,1.4724 v 3.9275 c 0,0.2019 -0.0818,0.3852 -0.2143,0.5178 -0.1325,0.1325 -0.3152,0.2142 -0.5171,0.2142 -0.4045,0 -0.7321,0.3276 -0.7321,0.7321 v 1.7107 c 0,0.1737 -0.0206,0.342 -0.0604,0.5041 -0.993,-0.16 -1.7505,-1.0233 -1.7471,-2.0616 l 0.0096,-3.0959 c 7e-4,-0.2383 0.0975,-0.4532 0.2534,-0.6085 0.1566,-0.1559 0.3715,-0.252 0.6098,-0.252 0.4766,0 0.8632,-0.3867 0.8632,-0.8632 v -2.3274 c 0,-0.7953 -0.6441,-1.4394 -1.4394,-1.4394 h -2.6934 c -1.2121,0 -2.2319,-0.9566 -2.2566,-2.1688 -0.0048,-0.2287 0.0254,-0.4491 0.0851,-0.6578 h 26.5103 c 1.2128,0 2.234,0.9567 2.2581,2.1687 z"
       inkscape:connector-curvature="0"
       style="fill:#f98500" />
    <path
       id="path63"
       d="m 37.8045,22.3368 -4.8999,4.902 c -0.491,0.491 -1.07,0.8405 -1.6867,1.0472 -1.5204,0.5137 -3.2675,0.1641 -4.4775,-1.0472 l -4.902,-4.902 z"
       inkscape:connector-curvature="0"
       style="fill:#eebf00" />
    <path
       id="path65"
       d="m 37.8043,22.3368 -4.8999,4.902 c -0.491,0.491 -1.07,0.8406 -1.6866,1.0473 -0.616,-0.2067 -1.1949,-0.5563 -1.6853,-1.0473 l -4.9019,-4.902 z"
       inkscape:connector-curvature="0"
       style="fill:#ffd422" />
    <path
       id="path67"
       d="m 51.7013,23.0264 c 0,0.0364 -0.0014,0.0722 -0.0034,0.1079 -0.0268,0.4608 -0.2246,0.8762 -0.5309,1.1825 -0.3303,0.3303 -0.7863,0.5343 -1.2903,0.5343 H 19.7451 c -1.0074,0 -1.8246,-0.8173 -1.8246,-1.8247 0,-2.1865 1.0137,-3.8327 2.5444,-5.0709 1.2422,-1.0054 2.8259,-1.7422 4.4837,-2.2827 4.6382,-1.5102 9.8623,-1.482 9.8623,-1.482 0,0 16.8904,-0.0913 16.8904,8.8356 z"
       inkscape:connector-curvature="0"
       style="fill:#ffa733" />
    <path
       id="path69"
       d="m 51.7014,23.0264 c 0,0.0364 -0.0013,0.0722 -0.0034,0.1078 H 23.4536 c -1.0074,0 -1.8246,-0.8172 -1.8246,-1.8246 0,-2.1866 1.0137,-3.8327 2.5444,-5.0709 0.2458,-0.1991 0.5047,-0.3873 0.7753,-0.5659 4.6383,-1.5102 9.8623,-1.482 9.8623,-1.482 0,0 16.8904,-0.0913 16.8904,8.8356 z"
       inkscape:connector-curvature="0"
       style="fill:#ffb655" />
    <path
       id="path71"
       d="m 43.8895,17.3832 c 0.2929,0.31 0.2791,0.7987 -0.0309,1.0916 -0.31,0.2929 -0.7987,0.279 -1.0916,-0.0309 -0.2929,-0.3099 -0.832,-1.3839 -0.522,-1.6768 0.3101,-0.2929 1.3516,0.3061 1.6445,0.6161 z"
       inkscape:connector-curvature="0"
       style="fill:#fff5cc" />
    <path
       id="path73"
       d="m 39.7965,21.1989 c 0.1528,0.3981 -0.046,0.8448 -0.444,0.9976 -0.3981,0.1528 -0.8448,-0.046 -0.9977,-0.444 -0.1528,-0.3981 -0.2427,-1.5963 0.1555,-1.7492 0.398,-0.1528 1.1334,0.7975 1.2862,1.1956 z"
       inkscape:connector-curvature="0"
       style="fill:#fff5cc" />
    <path
       id="path75"
       d="m 35.583,18.0229 c 0,0.4264 -0.3458,0.7721 -0.7722,0.7721 -0.4264,0 -0.7722,-0.3457 -0.7722,-0.7721 0,-0.4265 0.3458,-1.5773 0.7722,-1.5773 0.4264,0 0.7722,1.1508 0.7722,1.5773 z"
       inkscape:connector-curvature="0"
       style="fill:#fff5cc" />
    <path
       id="path77"
       d="m 31.3374,21.6825 c -0.1066,0.4128 -0.5278,0.6612 -0.9407,0.5545 -0.4128,-0.1067 -0.6612,-0.5278 -0.5545,-0.9407 0.1067,-0.4128 0.7291,-1.4406 1.142,-1.3339 0.4129,0.1065 0.4598,1.3072 0.3532,1.7201 z"
       inkscape:connector-curvature="0"
       style="fill:#fff5cc" />
    <path
       id="path79"
       d="m 27.0893,18.3202 c -0.1858,0.3837 -0.6477,0.5442 -1.0315,0.3582 -0.3837,-0.1859 -0.5442,-0.6477 -0.3582,-1.0315 0.1858,-0.3838 0.9987,-1.2688 1.3825,-1.0829 0.3838,0.186 0.1932,1.3724 0.0072,1.7562 z"
       inkscape:connector-curvature="0"
       style="fill:#fff5cc" />
    <path
       id="path81"
       d="m 51.5844,38.1952 c -0.2747,-0.0701 -0.5555,0.0961 -0.6263,0.3714 -0.9683,3.7923 -5.0922,6.0564 -11.0311,6.0564 H 29.6938 c -2.9495,0 -5.5358,-0.5769 -7.4806,-1.6688 -0.2479,-0.1387 -0.5618,-0.0507 -0.7012,0.1971 -0.1387,0.2479 -0.0508,0.5618 0.1971,0.7012 2.098,1.1778 4.8594,1.8007 7.9847,1.8007 H 39.927 c 5.1823,0 10.747,-1.8108 12.0297,-6.8317 0.07,-0.2755 -0.0962,-0.5556 -0.3723,-0.6263 z"
       inkscape:connector-curvature="0"
       style="fill:#000000" />
    <path
       id="path83"
       d="m 36.8175,32.3098 c 0.0013,-0.0012 10e-4,-7e-4 0.0012,-9e-4 -5e-4,3e-4 -9e-4,6e-4 -0.0012,9e-4 z"
       inkscape:connector-curvature="0"
       style="fill:#000000" />
    <path
       id="path85"
       d="m 49.918,34.1006 c 0.2378,-0.3891 0.3811,-0.842 0.3968,-1.3259 1.5123,-0.8735 1.7122,-3.4466 0.3207,-4.6266 0.4875,-0.8578 0.4939,-1.9759 -0.1243,-2.8692 0.9827,-0.2774 1.7052,-1.1825 1.7052,-2.2525 0,-5.8992 -6.7402,-8.1967 -12.6161,-8.9942 -0.2816,-0.0385 -0.5418,0.1586 -0.5803,0.4409 -0.0378,0.2815 0.1593,0.5411 0.4416,0.5796 5.2037,0.7067 11.7247,2.6997 11.7247,7.9737 0,0.7218 -0.5878,1.3097 -1.3096,1.3097 -27.6468,0 -2.4839,0 -30.1314,0 -0.7218,0 -1.3097,-0.5879 -1.3097,-1.3097 0,-3.3808 2.6275,-5.8036 7.8097,-7.2011 2.7534,-0.7427 6.1701,-1.1128 8.5856,-1.1194 0.1126,0 1.138,0.0034 2.6034,0.1256 0.285,0.0233 0.5322,-0.1874 0.5563,-0.4704 0.0233,-0.2837 -0.1874,-0.5329 -0.4704,-0.5562 -0.8903,-0.0741 -1.8319,-0.1247 -2.7291,-0.1291 -4.4909,0 -11.1291,1.0314 -14.6503,3.8793 -1.8151,1.4683 -2.7353,3.3094 -2.7353,5.4713 0,1.0658 0.7169,1.9675 1.6935,2.2491 -0.5707,0.8409 -0.6316,1.9577 -0.1079,2.8644 -0.9603,0.8158 -1.2735,2.4781 -0.5425,3.7496 0.134,0.2177 0.4622,0.557 0.8571,0.7993 0.0012,0.5166 0.1466,0.9996 0.398,1.4113 -1.3135,0.2658 -2.2982,1.3206 -2.2982,2.5781 0,2.3816 0.8543,4.3697 2.5382,5.9094 0.0981,0.0899 0.2232,0.1346 0.3468,0.1346 0.468,0 0.694,-0.5786 0.3482,-0.8948 -1.4614,-1.3364 -2.2031,-3.0691 -2.2031,-5.1492 0,-0.8893 0.8598,-1.6131 1.916,-1.6131 h 2.942 l -0.0075,2.5368 c -0.0043,1.444 1.1627,2.6055 2.5965,2.6055 h 0.0543 c 1.4662,0 2.6591,-1.188 2.6591,-2.6487 V 35.848 c 0,-0.1202 0.0974,-0.217 0.217,-0.217 0.4361,0 0.8206,-0.2253 1.0431,-0.5659 h 3.216 c 0.305,0.2252 1.1945,1.6241 3.1268,1.6241 1.9277,0 2.8236,-1.3997 3.1274,-1.6241 h 9.944 c 1.0459,0 1.9057,0.7163 1.916,1.5973 0.0028,0.2823 0.2328,0.509 0.5144,0.509 h 0.0062 c 0.2843,-0.0028 0.5123,-0.2363 0.5095,-0.5206 C 52.2016,35.408 51.2182,34.3655 49.918,34.1006 Z M 35.5046,25.3661 h 13.6373 c 1.4996,0.9246 0.7789,3.0993 -0.8825,3.0993 -11.0682,0 -0.8625,-0.0286 -16.1543,0 1.0327,-0.5491 1.3538,-1.1237 3.3995,-3.0993 z m -16.1742,5.9905 c -0.4772,-0.8519 -0.2321,-1.9573 0.3338,-2.4359 0.4779,0.3811 1.0843,0.6112 1.7402,0.6112 h 2.6933 c 0.4897,0 0.8914,0.3825 0.9223,0.8647 -0.2074,-0.0742 -0.4223,-0.1113 -0.6379,-0.1113 -0.776,0 -1.0934,0.3419 -3.3252,1.8013 -0.7581,0.0614 -1.3895,-0.2774 -1.7265,-0.73 z m 4.0504,2.6782 h -2.3721 c -0.3054,-0.2316 -0.5305,-0.5637 -0.6241,-0.947 0.2749,0.0432 0.8987,0.0811 1.1324,-0.0714 l 2.3638,-1.5451 c 0.6069,-0.3974 1.0948,0.0776 1.1413,0.0954 v 1.2169 c 0,0.1923 -0.1559,0.3482 -0.3482,0.3482 -0.5919,0 -1.0987,0.3763 -1.2931,0.903 z m 5.6485,-1.5939 c 0,1.0113 0,0.2149 0,1.9429 0,0.1195 -0.0969,0.217 -0.2164,0.217 -0.69,0 -1.2471,0.5627 -1.2471,1.2471 v 1.7107 c 0,1.4685 -1.81,2.1431 -2.793,1.1579 -0.5373,-0.5398 -0.4561,-1.2259 -0.4566,-1.142 0.0023,-0.7477 0.005,-1.6128 0.0095,-3.0656 7e-4,-0.191 0.1566,-0.3469 0.3482,-0.3469 0.7543,0 1.3783,-0.6128 1.3783,-1.3782 0,-1.0147 0,-1.3124 0,-2.3274 0,-0.7829 -0.4629,-1.46 -1.1298,-1.7711 -0.6495,-0.3061 -1.0346,-0.1338 -3.5181,-0.1834 -1.7282,0 -2.3992,-2.2207 -0.9498,-3.1356 h 3.6844 l 2.2368,2.2367 c 0.8653,0.8661 1.9992,1.3662 3.2141,1.4228 -0.7634,0.6159 -0.5155,1.4683 -0.5605,3.4151 z m -1.925,-5.566 -1.5088,-1.5088 h 8.4531 l -1.5081,1.5088 c -1.5064,1.505 -3.937,1.5005 -5.4362,0 z m 2.9551,7.1599 v -1.0857 l 0.4999,-0.3969 1.4827,1.4826 z m 7.7938,1.0302 c -1.02,0.8471 -2.5342,0.7901 -3.4893,-0.1649 -0.7429,-0.7429 -2.2506,-2.2506 -2.9928,-2.9927 0.1832,-0.0911 0.7646,-0.877 1.5163,-0.3201 l 2.1495,1.5932 c 0.7324,0.5445 1.6841,0.5354 2.4173,-0.0611 l 1.8845,-1.5328 c 0.3419,-0.2782 0.743,-0.3043 1.1001,-0.0707 l 0.6297,0.4113 c -3.5518,3.4768 -3.1172,3.057 -3.2153,3.1378 z m 10.7605,-1.0302 h -8.2574 l 1.5555,-1.5554 0.6421,0.4195 c 0.1174,0.0533 0.7514,0.6452 1.7004,0.4368 0.9471,-0.2069 1.3997,-1.0647 1.4188,-1.0857 0.3452,-0.5484 0.9352,-0.7667 1.4559,-0.3819 0.8481,0.5602 1.2605,1.1284 2.12,1.171 -0.0859,0.4042 -0.3171,0.7545 -0.6353,0.9957 z m 0.1772,-2.2195 c -1.0959,-0.8093 -1.0525,-0.7794 -1.1146,-0.822 -0.9466,-0.6465 -2.1834,-0.3863 -2.8753,0.708 -0.0178,0.0207 -0.2755,0.5209 -0.7657,0.6277 -0.4537,0.1 -0.5038,-0.0204 -3.0333,-1.6749 -0.7349,-0.4807 -1.6207,-0.4299 -2.313,0.1333 -1.0765,0.8755 -1.8743,1.5243 -1.8544,1.5083 -0.015,0.0123 -0.0098,0.008 -0.011,0.0089 0.0043,-0.0036 0.0017,-0.0014 -0.0026,0.0021 -10e-4,8e-4 -0.0021,0.0017 -0.0031,0.0025 -5e-4,5e-4 -9e-4,8e-4 -0.0013,0.0011 3e-4,-2e-4 6e-4,-5e-4 10e-4,-8e-4 -8e-4,6e-4 -0.0016,0.0013 -0.0024,0.002 -0.0038,0.0031 -0.0097,0.0079 -0.0106,0.0086 -0.3578,0.2912 -0.7898,0.3035 -1.1544,0.0329 -2.1467,-1.5911 -2.4693,-1.9844 -3.3053,-1.9902 -0.7073,-0.005 -1.1532,0.3424 -1.7065,0.8118 l -0.579,0.4594 v -1.1778 c 0,-1.3634 0.2927,-0.9243 18.2,-0.9243 0.6298,0 1.2259,-0.2116 1.7086,-0.6003 0.5032,0.4348 0.7415,1.3362 0.4512,2.1447 -0.2778,0.7744 -0.9902,1.2096 -1.6283,0.739 z"
       inkscape:connector-curvature="0"
       style="fill:#000000" />
    <path
       id="path87"
       d="m 41.8913,16.3924 c -0.3058,0.2888 -0.3367,0.7571 -0.0919,1.3917 0.29,0.7518 0.7276,1.4163 1.5298,1.4163 1.1171,0 1.7122,-1.3484 0.9346,-2.1713 0,0 0,0 0,0 -0.2925,-0.3096 -1.6815,-1.29 -2.3725,-0.6367 z m 1.4297,1.7777 c -0.0398,-0.0011 -0.116,-0.013 -0.1796,-0.0804 -0.1535,-0.1625 -0.3534,-0.563 -0.4365,-0.8363 0.2681,0.0984 0.6567,0.3206 0.8103,0.4831 0.1565,0.1659 0.0346,0.4392 -0.1942,0.4336 z"
       inkscape:connector-curvature="0"
       style="fill:#000000" />
    <path
       id="path89"
       d="m 37.8739,21.937 c 0.1233,0.3209 0.3641,0.5747 0.6782,0.7145 1.0384,0.462 2.1376,-0.5639 1.7251,-1.6375 v 10e-5 c -0.1527,-0.3976 -1.0636,-1.8328 -1.9517,-1.4919 -0.888,0.3411 -0.6043,2.0172 -0.4516,2.4148 z m 0.8762,-1.3089 c 0.2105,0.1931 0.4852,0.5465 0.5654,0.7552 v 1e-4 c 0.0508,0.1323 -0.0151,0.2811 -0.1479,0.3321 -0.1331,0.051 -0.2814,-0.0158 -0.3322,-0.1478 -0.08,-0.2087 -0.1124,-0.6552 -0.0853,-0.9396 z"
       inkscape:connector-curvature="0"
       style="fill:#000000" />
    <path
       id="path91"
       d="m 33.5236,18.0229 c 0,0.7098 0.5774,1.2873 1.2873,1.2873 0.7098,0 1.2872,-0.5775 1.2872,-1.2873 0,-0.4258 -0.336,-2.0923 -1.2872,-2.0923 -0.9513,0 -1.2873,1.6664 -1.2873,2.0923 z m 1.2873,0.2571 c -0.1418,0 -0.2572,-0.1154 -0.2572,-0.2571 0,-0.2236 0.1299,-0.652 0.2572,-0.9078 0.1273,0.2558 0.2571,0.6842 0.2571,0.9078 0,0.1417 -0.1154,0.2571 -0.2571,0.2571 z"
       inkscape:connector-curvature="0"
       style="fill:#000000" />
    <path
       id="path93"
       d="m 29.8858,20.1264 c -0.4685,0.6272 -0.8039,1.3396 -0.4048,2.0168 0.5815,0.9867 2.0701,0.7719 2.3552,-0.3318 0.1065,-0.4124 0.198,-2.1097 -0.7231,-2.3477 -0.4072,-0.105 -0.8201,0.1178 -1.2273,0.6627 z m 0.9531,1.4275 c -0.0043,0.0069 -0.0185,0.0984 -0.1184,0.1573 -0.1975,0.1166 -0.4363,-0.0658 -0.3795,-0.2859 0.0559,-0.2164 0.2888,-0.5988 0.476,-0.8145 0.0593,0.2794 0.0777,0.7266 0.0219,0.9431 z"
       inkscape:connector-curvature="0"
       style="fill:#000000" />
    <path
       id="path95"
       d="m 25.2361,17.4218 c -0.4142,0.8551 0.2138,1.8483 1.1563,1.8483 0.4782,0 0.9384,-0.2675 1.1605,-0.726 0.2244,-0.4631 0.5686,-2.0493 -0.2462,-2.444 -0.7981,-0.3869 -1.8318,0.8285 -2.0706,1.3217 z m 1.3898,0.6731 c -0.0619,0.1276 -0.2159,0.1811 -0.3434,0.1193 -0.1276,-0.0618 -0.1811,-0.216 -0.1193,-0.3435 0.0974,-0.2011 0.4011,-0.5302 0.6271,-0.7048 0.0029,0.2856 -0.067,0.7279 -0.1644,0.929 z"
       inkscape:connector-curvature="0"
       style="fill:#000000" />
  </g>
</svg>
