<svg width="53" height="46" viewBox="0 0 53 46" fill="none" xmlns="http://www.w3.org/2000/svg">
<path d="M15.7102 29.1121L13.9972 29.2791C13.403 29.337 12.8598 28.9254 12.7766 28.3519L9.03437 2.50322C8.92487 1.74587 9.40146 1.05905 10.0949 0.981141L12.7724 0.681076C13.4687 0.602814 14.0986 1.1675 14.1723 1.93082L16.6841 27.969C16.7399 28.5463 16.3054 29.0542 15.7102 29.1121Z" fill="#FCCF3F"/>
<path d="M11.2626 31.0762L9.56122 31.1608C8.97092 31.1903 8.44343 30.7621 8.3771 30.1975L5.38347 4.75092C5.29573 4.00585 5.78742 3.36044 6.47704 3.32114L9.13621 3.16917C9.82724 3.12987 10.4351 3.71315 10.4867 4.46138L12.2579 30.0034C12.2973 30.5702 11.8533 31.0468 11.2626 31.0762Z" fill="#EFC03C"/>
<path d="M8.71892 32.8568L7.05119 33.0488C6.47317 33.1154 5.91796 32.7297 5.80426 32.1805L0.70315 7.49312C0.554346 6.77192 0.980754 6.10616 1.65283 6.01702L4.24778 5.67344C4.92266 5.58394 5.56912 6.11002 5.68388 6.8379L9.60789 31.7397C9.69528 32.2935 9.2987 32.7898 8.71892 32.8568Z" fill="#FCCF3F"/>
<path d="M19.5968 29.1123L21.3098 29.2794C21.9039 29.3373 22.4472 28.9256 22.5304 28.3522L26.2723 2.50388C26.3821 1.74652 25.9055 1.05936 25.2117 0.9818L22.5343 0.681385C21.8383 0.603474 21.2084 1.1678 21.1347 1.93148L18.6229 27.9693C18.5671 28.5466 19.0012 29.0544 19.5968 29.1123Z" fill="#FCCF3F"/>
<path d="M24.0439 31.0762L25.7454 31.1608C26.3357 31.1903 26.8631 30.7621 26.9295 30.1975L29.9231 4.75092C30.0108 4.00585 29.5192 3.36044 28.8295 3.32114L26.17 3.16917C25.4793 3.12987 24.8715 3.71315 24.8199 4.46138L23.0486 30.0034C23.0093 30.5702 23.4529 31.0468 24.0439 31.0762Z" fill="#EFC03C"/>
<path d="M26.5876 32.8567L28.2557 33.0486C28.8337 33.1153 29.3889 32.7296 29.5023 32.1804L34.6034 7.4934C34.7526 6.7722 34.3261 6.10609 33.6541 6.01695L31.0591 5.67337C30.3842 5.58423 29.7378 6.10995 29.623 6.83818L25.6987 31.7396C25.6113 32.2934 26.0079 32.7896 26.5876 32.8567Z" fill="#FCCF3F"/>
<path d="M18.2377 31.9009H16.5377C15.9477 31.9009 15.462 31.4517 15.4476 30.8898L14.8005 5.58263C14.7815 4.84177 15.3297 4.23181 16.0197 4.23181H18.6774C19.3671 4.23181 19.9174 4.84177 19.9005 5.58263L19.325 30.8898C19.3123 31.4517 18.8277 31.9009 18.2377 31.9009Z" fill="#EFC03C"/>
<path d="M18.3103 34.2289L16.7489 34.8694C16.2071 35.0916 15.581 34.8684 15.342 34.3658L4.59648 11.7542C4.28238 11.093 4.53927 10.3336 5.16994 10.07L7.60134 9.0533C8.23271 8.78939 8.98164 9.12911 9.26346 9.80505L18.9031 32.9041C19.1175 33.4172 18.8526 34.0064 18.3103 34.2289Z" fill="#FCCF3F"/>
<path d="M18.3264 38.2661L16.6407 38.344C16.0557 38.371 15.5412 37.9499 15.4854 37.3961L12.9754 12.4876C12.902 11.7594 13.3993 11.1305 14.0819 11.0943L16.7137 10.9553C17.397 10.9192 17.9877 11.4912 18.0259 12.2223L19.3308 37.2178C19.3596 37.7733 18.9121 38.2394 18.3264 38.2661Z" fill="#EFC03C"/>
<path d="M25.5995 34.089L27.2371 34.1624C27.8053 34.188 28.3148 33.7897 28.3812 33.2664L31.352 9.80665C31.4383 9.12335 30.9698 8.53339 30.3097 8.4997L27.7638 8.36915C27.1026 8.33546 26.5183 8.87206 26.4653 9.55782L24.6467 33.0979C24.606 33.623 25.0306 34.0634 25.5995 34.089Z" fill="#EFC03C"/>
<path d="M19.2968 37.8907L21.0758 38.1711C21.6931 38.2687 22.2743 37.8514 22.38 37.2355L26.5577 12.8317C26.6654 12.2038 26.2387 11.6093 25.6094 11.5103L23.185 11.1281C22.5558 11.0288 21.9669 11.4633 21.876 12.0936L18.3436 36.5992C18.2545 37.2179 18.6792 37.7935 19.2968 37.8907Z" fill="#FCCF3F"/>
<path d="M25.9348 15.7461C25.5789 15.7461 25.2627 15.9675 25.1353 16.2999C23.9807 19.3068 21.0671 21.442 17.6533 21.442C14.24 21.442 11.3264 19.3068 10.1717 16.2999C10.044 15.9675 9.72811 15.7461 9.37225 15.7461H1.52879C0.998854 15.7461 0.596311 16.2241 0.686506 16.7463L5.49106 44.6165C5.56195 45.0267 5.91746 45.3261 6.33369 45.3261H28.9733C29.3896 45.3261 29.7451 45.0267 29.816 44.6165L34.6205 16.7463C34.7107 16.2237 34.3082 15.7461 33.7779 15.7461H25.9348Z" fill="#F98500"/>
<path d="M33.7777 15.7461H28.385C28.9153 15.7461 29.3174 16.2241 29.2273 16.7463L24.4227 44.6168C24.3518 45.0267 23.9963 45.3261 23.5804 45.3261H28.9732C29.3894 45.3261 29.7449 45.0267 29.8158 44.6168L34.6203 16.7463C34.7105 16.2237 34.308 15.7461 33.7777 15.7461Z" fill="#EA3942"/>
<path d="M32.3958 29.651H2.91113L3.84397 35.0634H31.4626L32.3958 29.651Z" fill="#F3E8D7"/>
<path d="M32.3959 29.651H27.0028L26.0696 35.0634H31.4627L32.3959 29.651Z" fill="#E5D8C6"/>
<path d="M24.677 32.518C24.677 36.3968 21.5325 39.5413 17.6534 39.5413C13.7747 39.5413 10.6301 36.3968 10.6301 32.518C10.6301 28.639 13.7747 25.4948 17.6534 25.4948C21.5325 25.4948 24.677 28.639 24.677 32.518Z" fill="#EFA335"/>
<path d="M20.8263 26.253C21.0186 26.8939 21.1235 27.573 21.1235 28.2763C21.1235 32.1553 17.979 35.2995 14.0999 35.2995C12.9579 35.2995 11.8805 35.0251 10.9273 34.5415C11.7962 37.4337 14.4782 39.5415 17.6533 39.5415C21.5324 39.5415 24.6766 36.3969 24.6766 32.5182C24.6769 29.7815 23.1103 27.4119 20.8263 26.253Z" fill="#FD8F31"/>
<path d="M17.6534 24.821C13.4093 24.821 9.9563 28.274 9.9563 32.518C9.9563 36.7621 13.4093 40.2151 17.6534 40.2151C21.8978 40.2151 25.3505 36.7621 25.3505 32.518C25.3505 28.274 21.8978 24.821 17.6534 24.821ZM17.6534 38.8675C14.1523 38.8675 11.304 36.0191 11.304 32.518C11.304 29.0169 14.1523 26.1686 17.6534 26.1686C21.1549 26.1686 24.0032 29.0169 24.0032 32.518C24.0032 36.0191 21.1549 38.8675 17.6534 38.8675Z" fill="black"/>
<mask id="path-19-inside-1" fill="white">
<path d="M33.7778 15.0727H33.7251L35.263 7.62972C35.3764 7.08153 35.2641 6.51755 34.9549 6.08272C34.6654 5.67491 34.2344 5.41451 33.742 5.34923L31.147 5.00565C30.9519 4.97968 30.7575 4.9874 30.5694 5.02284L30.5922 4.82947C30.6582 4.2683 30.4967 3.70853 30.1489 3.2944C29.8233 2.90625 29.3684 2.67673 28.868 2.6483L26.9465 2.53845C27.0097 1.99272 26.863 1.44383 26.5387 1.02409C26.2267 0.620498 25.782 0.367462 25.2868 0.312011L22.6094 0.0115961C22.1146 -0.0442053 21.6229 0.103195 21.2249 0.426071C20.796 0.773864 20.5188 1.29889 20.4637 1.86638L20.2201 4.39113C20.1555 4.29532 20.0829 4.20512 20.0018 4.1223C19.646 3.75836 19.1757 3.55797 18.6773 3.55797H16.0196C15.6662 3.55797 15.3282 3.66045 15.0341 3.84891L14.8428 1.86638C14.7881 1.29889 14.5105 0.773864 14.0816 0.426071C13.684 0.103195 13.1926 -0.0438543 12.6971 0.0115961L10.0197 0.312011C9.52447 0.367462 9.07981 0.620498 8.76782 1.02409C8.44354 1.44383 8.29684 1.99272 8.36001 2.53845L6.43854 2.6483C5.93843 2.67673 5.48325 2.90625 5.15756 3.2944C4.80977 3.70853 4.64833 4.2683 4.71431 4.82947L4.73712 5.02319C4.54901 4.98775 4.35493 4.97968 4.15945 5.00565L1.5645 5.34923C1.07212 5.41451 0.641496 5.67491 0.351608 6.08272C0.0424185 6.51755 -0.0698865 7.08153 0.0434714 7.62972L1.58135 15.0727H1.52871C1.07703 15.0727 0.650971 15.2706 0.35968 15.6163C0.068389 15.962 -0.0544446 16.4158 0.0224142 16.8608L4.82696 44.7313C4.95401 45.4666 5.58748 46 6.33361 46H28.9732C29.7194 46 30.3528 45.4666 30.4795 44.7313L35.2844 16.8608C35.3613 16.4158 35.2381 15.962 34.9472 15.6163C34.6559 15.2706 34.2298 15.0727 33.7778 15.0727ZM30.3728 6.69654C30.5009 6.45789 30.7417 6.31049 30.9705 6.34172L33.5655 6.68495C33.7157 6.70496 33.8066 6.7927 33.8564 6.86324C33.9494 6.99414 33.9813 7.17418 33.9434 7.35703L32.3494 15.0724H31.3643L32.0202 9.8916C32.0865 9.36974 31.937 8.84647 31.6103 8.45621C31.2923 8.07578 30.8424 7.85222 30.3441 7.8266L30.2402 7.82134L30.3728 6.69654ZM29.4537 9.13039L30.2753 9.1725C30.4286 9.18058 30.5241 9.25778 30.5771 9.32096C30.6652 9.42624 30.7027 9.56873 30.6834 9.72209L30.0057 15.0727H26.8577L27.222 12.9452C27.2974 12.5048 27.209 12.0633 26.9767 11.6871L27.1371 9.60979C27.1525 9.40799 27.2638 9.23041 27.4178 9.12934C27.5101 9.06897 27.6179 9.03598 27.7295 9.0423L29.4526 9.13039H29.4537ZM26.1081 3.84189C26.1168 3.84224 26.1256 3.84154 26.1347 3.84224H26.1351L28.7914 3.9935C28.9522 4.00298 29.0575 4.08966 29.1171 4.16055C29.227 4.29181 29.2768 4.47817 29.254 4.67189L29.0473 6.43157C29.0473 6.43157 29.0469 6.43192 29.0469 6.43227L28.8918 7.7522L27.7983 7.6964C26.7728 7.64375 25.8743 8.45551 25.7933 9.50591L25.6901 10.8406L25.0598 10.7413L25.4921 4.508C25.5174 4.13809 25.7982 3.83943 26.1081 3.84189ZM25.8936 12.7178L25.4788 15.1411C25.0394 15.2773 24.6793 15.6079 24.5063 16.0585C23.9799 17.4294 23.0632 18.6008 21.8552 19.4466C21.7257 19.5372 21.5938 19.6221 21.4597 19.7035L22.5431 12.1896C22.561 12.0643 22.627 11.9542 22.7287 11.8794C22.8305 11.8039 22.9551 11.7738 23.08 11.7934L24.2294 11.9745C24.2298 11.9745 24.2305 11.9745 24.2312 11.9749L25.5044 12.1756C25.6294 12.1953 25.7389 12.2626 25.8126 12.3655C25.8863 12.4683 25.915 12.5932 25.8936 12.7178ZM20.3012 17.5855L21.805 1.99588C21.8257 1.78531 21.9233 1.59474 22.0739 1.47261C22.1553 1.40663 22.289 1.33153 22.4592 1.35083L25.137 1.65089C25.303 1.66949 25.4111 1.76846 25.4721 1.84778C25.5869 1.99623 25.6357 2.20013 25.6055 2.4072L25.582 2.56934C25.5708 2.57285 25.5599 2.57706 25.5486 2.58057C25.5346 2.58513 25.5206 2.59004 25.5069 2.59496C25.4648 2.60934 25.423 2.62514 25.3823 2.64269C25.3718 2.6469 25.3612 2.65146 25.3507 2.65637C25.271 2.69182 25.1942 2.73253 25.1201 2.7785C25.1135 2.78236 25.1071 2.78658 25.1005 2.79079C25.0545 2.82027 25.0092 2.8515 24.9657 2.88484C24.9618 2.88765 24.958 2.89011 24.9541 2.89327C24.9306 2.91116 24.9078 2.92976 24.8853 2.94872C24.8804 2.95293 24.8755 2.95714 24.8706 2.96135C24.832 2.99469 24.7948 3.02908 24.7586 3.06523C24.7495 3.07436 24.7407 3.08313 24.7316 3.09261C24.7134 3.11156 24.6948 3.13086 24.6772 3.15086C24.6579 3.17262 24.639 3.19473 24.6207 3.21719C24.6035 3.23825 24.587 3.25931 24.5705 3.28072C24.5583 3.29721 24.5463 3.31406 24.534 3.3309C24.5186 3.35266 24.5032 3.37512 24.4881 3.39793C24.4712 3.42391 24.4547 3.45023 24.4389 3.4769C24.4291 3.49339 24.4196 3.50989 24.4105 3.52673C24.3937 3.55692 24.3775 3.58745 24.3621 3.61868C24.3551 3.63342 24.3477 3.64851 24.341 3.66361C24.3263 3.69519 24.3122 3.72748 24.2989 3.76012C24.2936 3.77345 24.2884 3.78644 24.2831 3.79977C24.2677 3.84049 24.2533 3.8819 24.2399 3.92366C24.2368 3.93384 24.234 3.94437 24.2312 3.9549C24.2196 3.99315 24.2094 4.03211 24.1999 4.07176C24.1982 4.08019 24.1957 4.08861 24.194 4.09738C24.1838 4.14301 24.1754 4.18933 24.168 4.23601C24.1666 4.24654 24.1648 4.25742 24.1634 4.26795C24.1568 4.31638 24.1511 4.36551 24.1476 4.41499L23.7237 10.5307L23.2896 10.4626C22.8059 10.3857 22.3223 10.5044 21.9286 10.795C21.5344 11.0859 21.2789 11.513 21.2091 11.9977L20.2822 18.4282L20.3012 17.5855ZM15.6602 5.0639C15.7304 4.99161 15.8497 4.90563 16.0196 4.90563H18.6773C18.8472 4.90563 18.9672 4.99196 19.0381 5.06461C19.1623 5.19165 19.2311 5.37485 19.2269 5.56717L18.9616 17.2223L18.6987 12.1875C18.6714 11.6625 18.4517 11.1757 18.0804 10.8167C17.6954 10.4447 17.1981 10.2548 16.6779 10.2826L15.596 10.3398L15.5731 9.45537C15.5731 9.45537 15.5731 9.45537 15.5731 9.45502L15.4738 5.56542C15.4689 5.37309 15.537 5.19025 15.6602 5.0639ZM16.7492 11.6281C16.9394 11.6193 17.0784 11.7225 17.1437 11.7857C17.2693 11.9068 17.3437 12.0745 17.3532 12.2577L17.7971 20.7655C17.7494 20.7662 17.7013 20.768 17.6532 20.768C16.5162 20.768 15.4131 20.51 14.4111 20.0152L13.6457 12.4202C13.6271 12.237 13.6784 12.0598 13.7861 11.9341C13.8475 11.8629 13.9546 11.7759 14.1174 11.7671L16.7492 11.6281ZM9.83436 1.84778C9.89578 1.76811 10.0039 1.66949 10.1699 1.65089L12.8473 1.35083C13.0182 1.33153 13.1512 1.40663 13.233 1.47261C13.3832 1.59474 13.4811 1.78531 13.5015 1.99588L14.2265 9.51328L14.2497 10.411L14.0462 10.4215C13.5474 10.4482 13.0919 10.6739 12.7631 11.0571C12.4167 11.4614 12.2496 12.0071 12.3047 12.5553L12.6753 16.2319L11.8394 14.2287L11.1589 4.41499C11.1554 4.36551 11.1497 4.31673 11.1431 4.2683C11.1417 4.25742 11.1399 4.24689 11.1385 4.23601C11.1311 4.18933 11.1227 4.14301 11.1125 4.09703C11.1108 4.08931 11.1087 4.08124 11.1069 4.07352C11.0974 4.03281 11.0869 3.99315 11.0753 3.95349C11.0725 3.94437 11.0697 3.93454 11.0669 3.92542C11.0536 3.88225 11.0388 3.84013 11.0227 3.79837C11.0185 3.78714 11.0139 3.77591 11.0094 3.76468C10.9946 3.72783 10.9788 3.69168 10.9623 3.65624C10.9592 3.64922 10.9564 3.6422 10.9529 3.63588C10.9342 3.59657 10.9139 3.55867 10.8928 3.52147C10.8862 3.50919 10.8792 3.4969 10.8721 3.48462C10.8507 3.44847 10.8286 3.41267 10.8055 3.37828C10.7991 3.36881 10.7925 3.35968 10.7858 3.35021C10.7665 3.32213 10.7465 3.29475 10.7258 3.26808C10.7174 3.25685 10.7086 3.24562 10.7002 3.23474C10.6745 3.20281 10.6482 3.17192 10.6208 3.14174C10.6117 3.13156 10.6022 3.12174 10.5928 3.11156C10.5689 3.08629 10.545 3.06207 10.5201 3.03856C10.5128 3.03119 10.5054 3.02382 10.4977 3.01645C10.4671 2.98802 10.4359 2.961 10.4036 2.93433C10.3938 2.92625 10.384 2.91853 10.3738 2.91046C10.3404 2.88379 10.306 2.85817 10.2713 2.8336C10.2667 2.8308 10.2622 2.82799 10.258 2.82518C10.2239 2.80202 10.1892 2.77991 10.1537 2.7592C10.1464 2.75464 10.139 2.75043 10.1316 2.74622C10.0927 2.7234 10.0527 2.70235 10.0119 2.68269C10.0074 2.68024 10.0025 2.67813 9.99791 2.67603C9.95544 2.65602 9.91263 2.63707 9.86876 2.62022C9.86876 2.61987 9.86841 2.61987 9.86805 2.61987C9.82278 2.60233 9.77646 2.58653 9.72943 2.57249C9.72767 2.57214 9.72627 2.57144 9.72487 2.57074L9.701 2.4072C9.67117 2.20013 9.7196 1.99623 9.83436 1.84778ZM6.18971 4.16055C6.24938 4.08966 6.35431 4.00263 6.5154 3.99385L9.17317 3.84189H9.17492C9.17808 3.84189 9.18159 3.84224 9.18475 3.84189C9.50061 3.83241 9.78874 4.13248 9.81471 4.508L10.2197 10.3471L9.88525 9.54557C9.68275 9.0609 9.31215 8.67626 8.84117 8.46323C8.78291 8.43656 8.7236 8.41374 8.66393 8.39304C8.66042 8.39198 8.65692 8.39058 8.65341 8.38918C8.59585 8.36987 8.53829 8.35408 8.48003 8.34004C8.47442 8.33899 8.46845 8.33724 8.46284 8.33583C8.40598 8.32285 8.34913 8.31337 8.29192 8.30565C8.2849 8.3046 8.27753 8.30354 8.27052 8.30284C8.21436 8.29618 8.15786 8.29196 8.10171 8.29056C8.09364 8.29056 8.08591 8.29021 8.07819 8.28986C8.06872 8.28986 8.05924 8.28916 8.05012 8.28916C8.02029 8.28916 7.99081 8.29196 7.96098 8.29337C7.93571 8.29477 7.91009 8.29512 7.88482 8.29723C7.84692 8.30074 7.80936 8.30705 7.77146 8.31267C7.74795 8.31653 7.72408 8.31864 7.70057 8.3232C7.65951 8.33162 7.6188 8.3425 7.57773 8.35338C7.55843 8.35864 7.53878 8.3625 7.51912 8.36812C7.45911 8.38637 7.3998 8.40743 7.34119 8.43199L6.5347 8.76926L6.41292 7.735L6.05249 4.67224C6.03003 4.47817 6.07987 4.29181 6.18971 4.16055ZM5.42955 10.6918L5.82858 10.5247L6.22972 10.3573H6.23007L7.8613 9.67507C8.03748 9.60172 8.20278 9.65331 8.28561 9.69051C8.44459 9.7628 8.57093 9.89546 8.64182 10.0646L11.9973 18.1053C11.493 17.496 11.0883 16.8075 10.8009 16.0585C10.571 15.4595 10.0102 15.0724 9.37216 15.0724H6.91935L5.20529 11.4653C5.12633 11.2989 5.11474 11.115 5.17406 10.9603C5.18634 10.9273 5.20459 10.8901 5.22986 10.8532C5.27232 10.7918 5.33549 10.7311 5.42955 10.6918ZM1.36341 7.35703C1.3255 7.17418 1.35709 6.99414 1.45009 6.86324C1.50028 6.79305 1.59117 6.70496 1.74138 6.6853L4.33633 6.34172C4.56445 6.31189 4.80555 6.45824 4.934 6.69689L5.07649 7.90662L5.24144 9.30973L4.90979 9.4487C4.44899 9.64138 4.09593 10.0071 3.91554 10.4787C3.72497 10.976 3.75164 11.5463 3.98818 12.0436L5.42744 15.0727H2.95744L1.36341 7.35703ZM33.9564 16.632L31.8282 28.9771H27.4213C27.0493 28.9771 26.7475 29.2786 26.7475 29.6509C26.7475 30.0229 27.0493 30.3247 27.4213 30.3247H31.5959L30.8951 34.3895H27.5101C27.1378 34.3895 26.8363 34.6909 26.8363 35.0633C26.8363 35.4357 27.1378 35.7371 27.5101 35.7371H30.6627L29.1519 44.5022C29.1368 44.5892 29.0617 44.6524 28.9732 44.6524H6.33361C6.24516 44.6524 6.17006 44.5892 6.15497 44.5022L4.64412 35.7371H7.79673C8.16874 35.7371 8.47056 35.4357 8.47056 35.0633C8.47056 34.6909 8.16874 34.3895 7.79673 34.3895H4.41179L3.71093 30.3247H7.90623C8.27824 30.3247 8.58006 30.0229 8.58006 29.6509C8.58006 29.2786 8.27824 28.9771 7.90623 28.9771H3.4786L1.35042 16.632C1.33849 16.5632 1.36551 16.5141 1.39043 16.4846C1.415 16.4551 1.45922 16.42 1.52906 16.42H9.37216C9.44761 16.42 9.51429 16.4677 9.54272 16.5414C10.1657 18.1639 11.2501 19.5502 12.6792 20.5504C14.1416 21.5745 15.862 22.1156 17.6536 22.1156C17.7456 22.1156 17.8386 22.1135 17.9326 22.1104C17.9765 22.109 18.0207 22.1072 18.0649 22.1051C18.1035 22.103 18.1425 22.1009 18.1814 22.0984C18.5913 22.0739 18.996 22.0212 19.394 21.9401C19.3954 21.9398 19.3964 21.9398 19.3975 21.9394C20.5525 21.7043 21.6481 21.2361 22.6277 20.5504C24.0567 19.5502 25.1412 18.1639 25.7641 16.5414C25.7926 16.4677 25.8596 16.42 25.9347 16.42H33.7781C33.8476 16.42 33.8919 16.4551 33.9164 16.4842C33.9413 16.5141 33.968 16.5632 33.9564 16.632Z"/>
</mask>
<path d="M33.7778 15.0727H33.7251L35.263 7.62972C35.3764 7.08153 35.2641 6.51755 34.9549 6.08272C34.6654 5.67491 34.2344 5.41451 33.742 5.34923L31.147 5.00565C30.9519 4.97968 30.7575 4.9874 30.5694 5.02284L30.5922 4.82947C30.6582 4.2683 30.4967 3.70853 30.1489 3.2944C29.8233 2.90625 29.3684 2.67673 28.868 2.6483L26.9465 2.53845C27.0097 1.99272 26.863 1.44383 26.5387 1.02409C26.2267 0.620498 25.782 0.367462 25.2868 0.312011L22.6094 0.0115961C22.1146 -0.0442053 21.6229 0.103195 21.2249 0.426071C20.796 0.773864 20.5188 1.29889 20.4637 1.86638L20.2201 4.39113C20.1555 4.29532 20.0829 4.20512 20.0018 4.1223C19.646 3.75836 19.1757 3.55797 18.6773 3.55797H16.0196C15.6662 3.55797 15.3282 3.66045 15.0341 3.84891L14.8428 1.86638C14.7881 1.29889 14.5105 0.773864 14.0816 0.426071C13.684 0.103195 13.1926 -0.0438543 12.6971 0.0115961L10.0197 0.312011C9.52447 0.367462 9.07981 0.620498 8.76782 1.02409C8.44354 1.44383 8.29684 1.99272 8.36001 2.53845L6.43854 2.6483C5.93843 2.67673 5.48325 2.90625 5.15756 3.2944C4.80977 3.70853 4.64833 4.2683 4.71431 4.82947L4.73712 5.02319C4.54901 4.98775 4.35493 4.97968 4.15945 5.00565L1.5645 5.34923C1.07212 5.41451 0.641496 5.67491 0.351608 6.08272C0.0424185 6.51755 -0.0698865 7.08153 0.0434714 7.62972L1.58135 15.0727H1.52871C1.07703 15.0727 0.650971 15.2706 0.35968 15.6163C0.068389 15.962 -0.0544446 16.4158 0.0224142 16.8608L4.82696 44.7313C4.95401 45.4666 5.58748 46 6.33361 46H28.9732C29.7194 46 30.3528 45.4666 30.4795 44.7313L35.2844 16.8608C35.3613 16.4158 35.2381 15.962 34.9472 15.6163C34.6559 15.2706 34.2298 15.0727 33.7778 15.0727ZM30.3728 6.69654C30.5009 6.45789 30.7417 6.31049 30.9705 6.34172L33.5655 6.68495C33.7157 6.70496 33.8066 6.7927 33.8564 6.86324C33.9494 6.99414 33.9813 7.17418 33.9434 7.35703L32.3494 15.0724H31.3643L32.0202 9.8916C32.0865 9.36974 31.937 8.84647 31.6103 8.45621C31.2923 8.07578 30.8424 7.85222 30.3441 7.8266L30.2402 7.82134L30.3728 6.69654ZM29.4537 9.13039L30.2753 9.1725C30.4286 9.18058 30.5241 9.25778 30.5771 9.32096C30.6652 9.42624 30.7027 9.56873 30.6834 9.72209L30.0057 15.0727H26.8577L27.222 12.9452C27.2974 12.5048 27.209 12.0633 26.9767 11.6871L27.1371 9.60979C27.1525 9.40799 27.2638 9.23041 27.4178 9.12934C27.5101 9.06897 27.6179 9.03598 27.7295 9.0423L29.4526 9.13039H29.4537ZM26.1081 3.84189C26.1168 3.84224 26.1256 3.84154 26.1347 3.84224H26.1351L28.7914 3.9935C28.9522 4.00298 29.0575 4.08966 29.1171 4.16055C29.227 4.29181 29.2768 4.47817 29.254 4.67189L29.0473 6.43157C29.0473 6.43157 29.0469 6.43192 29.0469 6.43227L28.8918 7.7522L27.7983 7.6964C26.7728 7.64375 25.8743 8.45551 25.7933 9.50591L25.6901 10.8406L25.0598 10.7413L25.4921 4.508C25.5174 4.13809 25.7982 3.83943 26.1081 3.84189ZM25.8936 12.7178L25.4788 15.1411C25.0394 15.2773 24.6793 15.6079 24.5063 16.0585C23.9799 17.4294 23.0632 18.6008 21.8552 19.4466C21.7257 19.5372 21.5938 19.6221 21.4597 19.7035L22.5431 12.1896C22.561 12.0643 22.627 11.9542 22.7287 11.8794C22.8305 11.8039 22.9551 11.7738 23.08 11.7934L24.2294 11.9745C24.2298 11.9745 24.2305 11.9745 24.2312 11.9749L25.5044 12.1756C25.6294 12.1953 25.7389 12.2626 25.8126 12.3655C25.8863 12.4683 25.915 12.5932 25.8936 12.7178ZM20.3012 17.5855L21.805 1.99588C21.8257 1.78531 21.9233 1.59474 22.0739 1.47261C22.1553 1.40663 22.289 1.33153 22.4592 1.35083L25.137 1.65089C25.303 1.66949 25.4111 1.76846 25.4721 1.84778C25.5869 1.99623 25.6357 2.20013 25.6055 2.4072L25.582 2.56934C25.5708 2.57285 25.5599 2.57706 25.5486 2.58057C25.5346 2.58513 25.5206 2.59004 25.5069 2.59496C25.4648 2.60934 25.423 2.62514 25.3823 2.64269C25.3718 2.6469 25.3612 2.65146 25.3507 2.65637C25.271 2.69182 25.1942 2.73253 25.1201 2.7785C25.1135 2.78236 25.1071 2.78658 25.1005 2.79079C25.0545 2.82027 25.0092 2.8515 24.9657 2.88484C24.9618 2.88765 24.958 2.89011 24.9541 2.89327C24.9306 2.91116 24.9078 2.92976 24.8853 2.94872C24.8804 2.95293 24.8755 2.95714 24.8706 2.96135C24.832 2.99469 24.7948 3.02908 24.7586 3.06523C24.7495 3.07436 24.7407 3.08313 24.7316 3.09261C24.7134 3.11156 24.6948 3.13086 24.6772 3.15086C24.6579 3.17262 24.639 3.19473 24.6207 3.21719C24.6035 3.23825 24.587 3.25931 24.5705 3.28072C24.5583 3.29721 24.5463 3.31406 24.534 3.3309C24.5186 3.35266 24.5032 3.37512 24.4881 3.39793C24.4712 3.42391 24.4547 3.45023 24.4389 3.4769C24.4291 3.49339 24.4196 3.50989 24.4105 3.52673C24.3937 3.55692 24.3775 3.58745 24.3621 3.61868C24.3551 3.63342 24.3477 3.64851 24.341 3.66361C24.3263 3.69519 24.3122 3.72748 24.2989 3.76012C24.2936 3.77345 24.2884 3.78644 24.2831 3.79977C24.2677 3.84049 24.2533 3.8819 24.2399 3.92366C24.2368 3.93384 24.234 3.94437 24.2312 3.9549C24.2196 3.99315 24.2094 4.03211 24.1999 4.07176C24.1982 4.08019 24.1957 4.08861 24.194 4.09738C24.1838 4.14301 24.1754 4.18933 24.168 4.23601C24.1666 4.24654 24.1648 4.25742 24.1634 4.26795C24.1568 4.31638 24.1511 4.36551 24.1476 4.41499L23.7237 10.5307L23.2896 10.4626C22.8059 10.3857 22.3223 10.5044 21.9286 10.795C21.5344 11.0859 21.2789 11.513 21.2091 11.9977L20.2822 18.4282L20.3012 17.5855ZM15.6602 5.0639C15.7304 4.99161 15.8497 4.90563 16.0196 4.90563H18.6773C18.8472 4.90563 18.9672 4.99196 19.0381 5.06461C19.1623 5.19165 19.2311 5.37485 19.2269 5.56717L18.9616 17.2223L18.6987 12.1875C18.6714 11.6625 18.4517 11.1757 18.0804 10.8167C17.6954 10.4447 17.1981 10.2548 16.6779 10.2826L15.596 10.3398L15.5731 9.45537C15.5731 9.45537 15.5731 9.45537 15.5731 9.45502L15.4738 5.56542C15.4689 5.37309 15.537 5.19025 15.6602 5.0639ZM16.7492 11.6281C16.9394 11.6193 17.0784 11.7225 17.1437 11.7857C17.2693 11.9068 17.3437 12.0745 17.3532 12.2577L17.7971 20.7655C17.7494 20.7662 17.7013 20.768 17.6532 20.768C16.5162 20.768 15.4131 20.51 14.4111 20.0152L13.6457 12.4202C13.6271 12.237 13.6784 12.0598 13.7861 11.9341C13.8475 11.8629 13.9546 11.7759 14.1174 11.7671L16.7492 11.6281ZM9.83436 1.84778C9.89578 1.76811 10.0039 1.66949 10.1699 1.65089L12.8473 1.35083C13.0182 1.33153 13.1512 1.40663 13.233 1.47261C13.3832 1.59474 13.4811 1.78531 13.5015 1.99588L14.2265 9.51328L14.2497 10.411L14.0462 10.4215C13.5474 10.4482 13.0919 10.6739 12.7631 11.0571C12.4167 11.4614 12.2496 12.0071 12.3047 12.5553L12.6753 16.2319L11.8394 14.2287L11.1589 4.41499C11.1554 4.36551 11.1497 4.31673 11.1431 4.2683C11.1417 4.25742 11.1399 4.24689 11.1385 4.23601C11.1311 4.18933 11.1227 4.14301 11.1125 4.09703C11.1108 4.08931 11.1087 4.08124 11.1069 4.07352C11.0974 4.03281 11.0869 3.99315 11.0753 3.95349C11.0725 3.94437 11.0697 3.93454 11.0669 3.92542C11.0536 3.88225 11.0388 3.84013 11.0227 3.79837C11.0185 3.78714 11.0139 3.77591 11.0094 3.76468C10.9946 3.72783 10.9788 3.69168 10.9623 3.65624C10.9592 3.64922 10.9564 3.6422 10.9529 3.63588C10.9342 3.59657 10.9139 3.55867 10.8928 3.52147C10.8862 3.50919 10.8792 3.4969 10.8721 3.48462C10.8507 3.44847 10.8286 3.41267 10.8055 3.37828C10.7991 3.36881 10.7925 3.35968 10.7858 3.35021C10.7665 3.32213 10.7465 3.29475 10.7258 3.26808C10.7174 3.25685 10.7086 3.24562 10.7002 3.23474C10.6745 3.20281 10.6482 3.17192 10.6208 3.14174C10.6117 3.13156 10.6022 3.12174 10.5928 3.11156C10.5689 3.08629 10.545 3.06207 10.5201 3.03856C10.5128 3.03119 10.5054 3.02382 10.4977 3.01645C10.4671 2.98802 10.4359 2.961 10.4036 2.93433C10.3938 2.92625 10.384 2.91853 10.3738 2.91046C10.3404 2.88379 10.306 2.85817 10.2713 2.8336C10.2667 2.8308 10.2622 2.82799 10.258 2.82518C10.2239 2.80202 10.1892 2.77991 10.1537 2.7592C10.1464 2.75464 10.139 2.75043 10.1316 2.74622C10.0927 2.7234 10.0527 2.70235 10.0119 2.68269C10.0074 2.68024 10.0025 2.67813 9.99791 2.67603C9.95544 2.65602 9.91263 2.63707 9.86876 2.62022C9.86876 2.61987 9.86841 2.61987 9.86805 2.61987C9.82278 2.60233 9.77646 2.58653 9.72943 2.57249C9.72767 2.57214 9.72627 2.57144 9.72487 2.57074L9.701 2.4072C9.67117 2.20013 9.7196 1.99623 9.83436 1.84778ZM6.18971 4.16055C6.24938 4.08966 6.35431 4.00263 6.5154 3.99385L9.17317 3.84189H9.17492C9.17808 3.84189 9.18159 3.84224 9.18475 3.84189C9.50061 3.83241 9.78874 4.13248 9.81471 4.508L10.2197 10.3471L9.88525 9.54557C9.68275 9.0609 9.31215 8.67626 8.84117 8.46323C8.78291 8.43656 8.7236 8.41374 8.66393 8.39304C8.66042 8.39198 8.65692 8.39058 8.65341 8.38918C8.59585 8.36987 8.53829 8.35408 8.48003 8.34004C8.47442 8.33899 8.46845 8.33724 8.46284 8.33583C8.40598 8.32285 8.34913 8.31337 8.29192 8.30565C8.2849 8.3046 8.27753 8.30354 8.27052 8.30284C8.21436 8.29618 8.15786 8.29196 8.10171 8.29056C8.09364 8.29056 8.08591 8.29021 8.07819 8.28986C8.06872 8.28986 8.05924 8.28916 8.05012 8.28916C8.02029 8.28916 7.99081 8.29196 7.96098 8.29337C7.93571 8.29477 7.91009 8.29512 7.88482 8.29723C7.84692 8.30074 7.80936 8.30705 7.77146 8.31267C7.74795 8.31653 7.72408 8.31864 7.70057 8.3232C7.65951 8.33162 7.6188 8.3425 7.57773 8.35338C7.55843 8.35864 7.53878 8.3625 7.51912 8.36812C7.45911 8.38637 7.3998 8.40743 7.34119 8.43199L6.5347 8.76926L6.41292 7.735L6.05249 4.67224C6.03003 4.47817 6.07987 4.29181 6.18971 4.16055ZM5.42955 10.6918L5.82858 10.5247L6.22972 10.3573H6.23007L7.8613 9.67507C8.03748 9.60172 8.20278 9.65331 8.28561 9.69051C8.44459 9.7628 8.57093 9.89546 8.64182 10.0646L11.9973 18.1053C11.493 17.496 11.0883 16.8075 10.8009 16.0585C10.571 15.4595 10.0102 15.0724 9.37216 15.0724H6.91935L5.20529 11.4653C5.12633 11.2989 5.11474 11.115 5.17406 10.9603C5.18634 10.9273 5.20459 10.8901 5.22986 10.8532C5.27232 10.7918 5.33549 10.7311 5.42955 10.6918ZM1.36341 7.35703C1.3255 7.17418 1.35709 6.99414 1.45009 6.86324C1.50028 6.79305 1.59117 6.70496 1.74138 6.6853L4.33633 6.34172C4.56445 6.31189 4.80555 6.45824 4.934 6.69689L5.07649 7.90662L5.24144 9.30973L4.90979 9.4487C4.44899 9.64138 4.09593 10.0071 3.91554 10.4787C3.72497 10.976 3.75164 11.5463 3.98818 12.0436L5.42744 15.0727H2.95744L1.36341 7.35703ZM33.9564 16.632L31.8282 28.9771H27.4213C27.0493 28.9771 26.7475 29.2786 26.7475 29.6509C26.7475 30.0229 27.0493 30.3247 27.4213 30.3247H31.5959L30.8951 34.3895H27.5101C27.1378 34.3895 26.8363 34.6909 26.8363 35.0633C26.8363 35.4357 27.1378 35.7371 27.5101 35.7371H30.6627L29.1519 44.5022C29.1368 44.5892 29.0617 44.6524 28.9732 44.6524H6.33361C6.24516 44.6524 6.17006 44.5892 6.15497 44.5022L4.64412 35.7371H7.79673C8.16874 35.7371 8.47056 35.4357 8.47056 35.0633C8.47056 34.6909 8.16874 34.3895 7.79673 34.3895H4.41179L3.71093 30.3247H7.90623C8.27824 30.3247 8.58006 30.0229 8.58006 29.6509C8.58006 29.2786 8.27824 28.9771 7.90623 28.9771H3.4786L1.35042 16.632C1.33849 16.5632 1.36551 16.5141 1.39043 16.4846C1.415 16.4551 1.45922 16.42 1.52906 16.42H9.37216C9.44761 16.42 9.51429 16.4677 9.54272 16.5414C10.1657 18.1639 11.2501 19.5502 12.6792 20.5504C14.1416 21.5745 15.862 22.1156 17.6536 22.1156C17.7456 22.1156 17.8386 22.1135 17.9326 22.1104C17.9765 22.109 18.0207 22.1072 18.0649 22.1051C18.1035 22.103 18.1425 22.1009 18.1814 22.0984C18.5913 22.0739 18.996 22.0212 19.394 21.9401C19.3954 21.9398 19.3964 21.9398 19.3975 21.9394C20.5525 21.7043 21.6481 21.2361 22.6277 20.5504C24.0567 19.5502 25.1412 18.1639 25.7641 16.5414C25.7926 16.4677 25.8596 16.42 25.9347 16.42H33.7781C33.8476 16.42 33.8919 16.4551 33.9164 16.4842C33.9413 16.5141 33.968 16.5632 33.9564 16.632Z" fill="black" stroke="black" stroke-width="4" mask="url(#path-19-inside-1)"/>
<path d="M49.8012 32.6852C49.8012 33.2957 49.554 33.8479 49.1543 34.2476C48.7539 34.6473 48.2018 34.8945 47.592 34.8945H22.0301C20.8105 34.8945 19.8209 33.9056 19.8209 32.6852C19.8209 32.3583 19.8916 32.0486 20.0187 31.7698C20.1292 31.5273 20.2817 31.309 20.4678 31.1229C20.8682 30.7231 21.4203 30.4759 22.0301 30.4759H47.592C48.4855 30.4759 49.2553 31.0061 49.6035 31.7698C49.7305 32.0486 49.8012 32.3583 49.8012 32.6852Z" fill="#D57200"/>
<path d="M49.6033 31.77C49.4927 32.0117 49.3395 32.2308 49.1541 32.4162C48.7537 32.816 48.2016 33.0632 47.5918 33.0632H22.03C21.1372 33.0632 20.3673 32.533 20.0185 31.7701C20.129 31.5276 20.2815 31.3093 20.4676 31.1231C20.868 30.7234 21.4202 30.4762 22.03 30.4762H47.5919C48.4852 30.4762 49.2551 31.0063 49.6033 31.77Z" fill="#F98500"/>
<path d="M51.7014 36.678C51.7014 39.5246 50.3835 41.6397 48.2533 43.0427C46.1223 44.4464 43.1789 45.138 39.9279 45.138H29.694C23.1919 45.138 17.9205 42.3711 17.9205 36.678C17.9205 36.3608 17.9995 36.0599 18.1423 35.7894C18.2632 35.5586 18.43 35.3506 18.6326 35.1734C19.0721 34.7881 19.6806 34.5498 20.3515 34.5498H49.2703C50.2503 34.5498 51.0949 35.058 51.4795 35.7894C51.6224 36.0599 51.7014 36.3607 51.7014 36.678Z" fill="#FFA733"/>
<path d="M51.4795 35.7894C51.0208 37.6848 49.8712 39.1612 48.2532 40.2271C46.1223 41.6308 43.1789 42.3223 39.9278 42.3223H29.694C23.9735 42.3223 19.2061 40.181 18.1424 35.7894C18.2633 35.5586 18.4301 35.3506 18.6327 35.1734C19.0722 34.7881 19.6807 34.5498 20.3516 34.5498H49.2703C50.2503 34.5498 51.095 35.0579 51.4795 35.7894Z" fill="#FFB655"/>
<path d="M44.2054 29.5489L38.4903 35.264C38.3468 35.4068 38.1937 35.5332 38.0316 35.6423C36.8216 36.4616 35.1637 36.336 34.0917 35.264L28.3767 29.5489H44.2054Z" fill="#EEBF00"/>
<path d="M44.2054 29.549L38.4903 35.264C38.3468 35.4069 38.1937 35.5332 38.0316 35.6424C37.5955 35.494 37.1862 35.2462 36.8387 34.898L31.4897 29.5489H44.2054V29.549Z" fill="#FFD422"/>
<path d="M51.0598 30.3463C51.0598 30.6457 51.0104 30.952 50.9032 31.2508C50.4837 32.4217 49.3601 32.8763 48.4846 32.2293L47.4345 31.454C46.7018 30.9122 45.7671 31.1339 45.2369 31.9759L45.1923 32.0466C44.6834 32.8556 43.7961 33.0959 43.0716 32.622L40.7202 31.0844C40.1777 30.7301 39.5273 30.7686 39.0137 31.1868L37.1293 32.7197C36.5881 33.1598 35.8986 33.1784 35.343 32.7671L33.1935 31.1739C32.6441 30.7666 31.9629 30.7796 31.4238 31.2082L29.4666 32.7623C28.9412 33.1792 28.2805 33.2032 27.7374 32.8262L25.2033 31.0653C24.7047 30.7192 24.1038 30.7096 23.5984 31.0399L21.2347 32.5857C19.6606 32.7884 18.8949 31.6325 18.8949 31.6325C18.5179 30.9774 18.4801 30.2006 18.6841 29.549C18.9265 28.7702 19.5137 28.17 20.2773 28.17H49.345C50.0936 28.17 50.6917 28.7613 50.9376 29.5456C51.0172 29.7969 51.0598 30.0681 51.0598 30.3463Z" fill="#FFB531"/>
<path d="M50.9376 29.5456C50.9273 29.5799 50.9157 29.6135 50.9033 29.6479C50.4837 30.8195 49.3602 31.2741 48.4846 30.6271L47.4346 29.8511C46.7019 29.31 45.7672 29.5318 45.237 30.373L45.1923 30.4444C44.6834 31.2534 43.7962 31.4937 43.0717 31.0198L40.7203 29.4823C40.1778 29.1272 39.5274 29.1664 39.0137 29.5846L37.1293 31.1175C36.5882 31.5577 35.8987 31.5755 35.3431 31.1642L33.1936 29.571C32.6442 29.1637 31.963 29.1775 31.4239 29.6053L29.4666 31.1601C28.9413 31.5763 28.2806 31.601 27.7375 31.2239L25.2034 29.4631C24.7048 29.1163 24.1039 29.1067 23.5985 29.4377L21.2347 30.9829C19.6607 31.1861 18.895 30.0296 18.895 30.0296C18.8064 29.8751 18.7364 29.7138 18.6842 29.549C18.9266 28.7702 19.5138 28.17 20.2774 28.17H49.3451C50.0936 28.17 50.6918 28.7613 50.9376 29.5456Z" fill="#FFB531"/>
<path d="M50.4732 26.7568C50.4781 26.9854 50.4478 27.2059 50.3888 27.4139C50.123 28.3397 49.2701 29.0168 48.2592 29.0168C44.2898 29.0168 33.7175 28.9275 32.1229 28.9804C32.0872 28.9818 32.0515 28.9832 32.0164 28.9839C30.0029 29.0601 29.5441 29.3829 29.5441 30.4563V34.3838C29.5441 34.5857 29.4624 34.769 29.3299 34.9016C29.1974 35.0341 29.0147 35.1158 28.8128 35.1158C28.4083 35.1158 28.0807 35.4434 28.0807 35.8479V37.5586C28.0807 37.7323 28.0601 37.9005 28.0203 38.0626C27.7943 38.998 26.9503 39.6923 25.9367 39.6923H25.8825C24.7301 39.6923 23.7975 38.7563 23.8009 37.6039L23.8105 34.5074C23.8112 34.2697 23.908 34.0541 24.0639 33.8989C24.2205 33.743 24.4354 33.6469 24.6737 33.6469C25.1503 33.6469 25.5369 33.2602 25.5369 32.7837V30.4563C25.5369 29.661 24.8928 29.0169 24.0975 29.0169H21.4042C20.192 29.0169 19.1722 28.0603 19.1475 26.8481C19.1227 25.6045 20.124 24.5881 21.3622 24.5881H48.2152C49.428 24.588 50.4492 25.5447 50.4732 26.7568Z" fill="#CD6E00"/>
<path d="M50.4733 26.7568C50.4781 26.9855 50.4478 27.206 50.3888 27.414C46.1866 27.4099 36.1458 27.3268 34.5951 27.3776C32.491 27.447 32.0164 27.7622 32.0164 28.8541V28.9839C30.0029 29.0601 29.5442 29.3829 29.5442 30.4563V34.3838C29.5442 34.5857 29.4624 34.769 29.3299 34.9016C29.1974 35.0341 29.0147 35.1158 28.8128 35.1158C28.4083 35.1158 28.0807 35.4434 28.0807 35.8479V37.5586C28.0807 37.7323 28.0601 37.9006 28.0203 38.0627C27.0273 37.9027 26.2698 37.0394 26.2732 36.0011L26.2828 32.9052C26.2835 32.6669 26.3803 32.452 26.5362 32.2967C26.6928 32.1408 26.9077 32.0447 27.146 32.0447C27.6226 32.0447 28.0092 31.658 28.0092 31.1815V28.8541C28.0092 28.0588 27.3651 27.4147 26.5698 27.4147H23.8764C22.6643 27.4147 21.6445 26.4581 21.6198 25.2459C21.615 25.0172 21.6452 24.7968 21.7049 24.5881H48.2152C49.428 24.5881 50.4492 25.5448 50.4733 26.7568Z" fill="#F98500"/>
<path d="M37.8045 22.3368L32.9046 27.2388C32.4136 27.7298 31.8346 28.0793 31.2179 28.286C29.6975 28.7997 27.9504 28.4501 26.7404 27.2388L21.8384 22.3368H37.8045Z" fill="#EEBF00"/>
<path d="M37.8043 22.3368L32.9044 27.2388C32.4134 27.7298 31.8344 28.0794 31.2178 28.2861C30.6018 28.0794 30.0229 27.7298 29.5325 27.2388L24.6306 22.3368H37.8043Z" fill="#FFD422"/>
<path d="M51.7013 23.0264C51.7013 23.0628 51.6999 23.0986 51.6979 23.1343C51.6711 23.5951 51.4733 24.0105 51.167 24.3168C50.8367 24.6471 50.3807 24.8511 49.8767 24.8511H19.7451C18.7377 24.8511 17.9205 24.0338 17.9205 23.0264C17.9205 20.8399 18.9342 19.1937 20.4649 17.9555C21.7071 16.9501 23.2908 16.2133 24.9486 15.6728C29.5868 14.1626 34.8109 14.1908 34.8109 14.1908C34.8109 14.1908 51.7013 14.0995 51.7013 23.0264Z" fill="#FFA733"/>
<path d="M51.7014 23.0264C51.7014 23.0628 51.7001 23.0986 51.698 23.1342H23.4536C22.4462 23.1342 21.629 22.317 21.629 21.3096C21.629 19.123 22.6427 17.4769 24.1734 16.2387C24.4192 16.0396 24.6781 15.8514 24.9487 15.6728C29.587 14.1626 34.811 14.1908 34.811 14.1908C34.811 14.1908 51.7014 14.0995 51.7014 23.0264Z" fill="#FFB655"/>
<path d="M43.8895 17.3832C44.1824 17.6932 44.1686 18.1819 43.8586 18.4748C43.5486 18.7677 43.0599 18.7538 42.767 18.4439C42.4741 18.134 41.935 17.06 42.245 16.7671C42.5551 16.4742 43.5966 17.0732 43.8895 17.3832Z" fill="#FFF5CC"/>
<path d="M39.7965 21.1989C39.9493 21.597 39.7505 22.0437 39.3525 22.1965C38.9544 22.3493 38.5077 22.1505 38.3548 21.7525C38.202 21.3544 38.1121 20.1562 38.5103 20.0033C38.9083 19.8505 39.6437 20.8008 39.7965 21.1989Z" fill="#FFF5CC"/>
<path d="M35.583 18.0229C35.583 18.4493 35.2372 18.795 34.8108 18.795C34.3844 18.795 34.0386 18.4493 34.0386 18.0229C34.0386 17.5964 34.3844 16.4456 34.8108 16.4456C35.2372 16.4456 35.583 17.5964 35.583 18.0229Z" fill="#FFF5CC"/>
<path d="M31.3374 21.6825C31.2308 22.0953 30.8096 22.3437 30.3967 22.237C29.9839 22.1303 29.7355 21.7092 29.8422 21.2963C29.9489 20.8835 30.5713 19.8557 30.9842 19.9624C31.3971 20.0689 31.444 21.2696 31.3374 21.6825Z" fill="#FFF5CC"/>
<path d="M27.0893 18.3202C26.9035 18.7039 26.4416 18.8644 26.0578 18.6784C25.6741 18.4925 25.5136 18.0307 25.6996 17.6469C25.8854 17.2631 26.6983 16.3781 27.0821 16.564C27.4659 16.75 27.2753 17.9364 27.0893 18.3202Z" fill="#FFF5CC"/>
<path d="M51.5844 38.1952C51.3097 38.1251 51.0289 38.2913 50.9581 38.5666C49.9898 42.3589 45.8659 44.623 39.927 44.623H29.6938C26.7443 44.623 24.158 44.0461 22.2132 42.9542C21.9653 42.8155 21.6514 42.9035 21.512 43.1513C21.3733 43.3992 21.4612 43.7131 21.7091 43.8525C23.8071 45.0303 26.5685 45.6532 29.6938 45.6532H39.927C45.1093 45.6532 50.674 43.8424 51.9567 38.8215C52.0267 38.546 51.8605 38.2659 51.5844 38.1952Z" fill="black"/>
<path d="M36.8175 32.3098C36.8188 32.3086 36.8185 32.3091 36.8187 32.3089C36.8182 32.3092 36.8178 32.3095 36.8175 32.3098Z" fill="black"/>
<path d="M49.918 34.1006C50.1558 33.7115 50.2991 33.2586 50.3148 32.7747C51.8271 31.9012 52.027 29.3281 50.6355 28.1481C51.123 27.2903 51.1294 26.1722 50.5112 25.2789C51.4939 25.0015 52.2164 24.0964 52.2164 23.0264C52.2164 17.1272 45.4762 14.8297 39.6003 14.0322C39.3187 13.9937 39.0585 14.1908 39.02 14.4731C38.9822 14.7546 39.1793 15.0142 39.4616 15.0527C44.6653 15.7594 51.1863 17.7524 51.1863 23.0264C51.1863 23.7482 50.5985 24.3361 49.8767 24.3361C22.2299 24.3361 47.3928 24.3361 19.7453 24.3361C19.0235 24.3361 18.4356 23.7482 18.4356 23.0264C18.4356 19.6456 21.0631 17.2228 26.2453 15.8253C28.9987 15.0826 32.4154 14.7125 34.8309 14.7059C34.9435 14.7059 35.9689 14.7093 37.4343 14.8315C37.7193 14.8548 37.9665 14.6441 37.9906 14.3611C38.0139 14.0774 37.8032 13.8282 37.5202 13.8049C36.6299 13.7308 35.6883 13.6802 34.7911 13.6758C30.3002 13.6758 23.662 14.7072 20.1408 17.5551C18.3257 19.0234 17.4055 20.8645 17.4055 23.0264C17.4055 24.0922 18.1224 24.9939 19.099 25.2755C18.5283 26.1164 18.4674 27.2332 18.9911 28.1399C18.0308 28.9557 17.7176 30.618 18.4486 31.8895C18.5826 32.1072 18.9108 32.4465 19.3057 32.6888C19.3069 33.2054 19.4523 33.6884 19.7037 34.1001C18.3902 34.3659 17.4055 35.4207 17.4055 36.6782C17.4055 39.0598 18.2598 41.0479 19.9437 42.5876C20.0418 42.6775 20.1669 42.7222 20.2905 42.7222C20.7585 42.7222 20.9845 42.1436 20.6387 41.8274C19.1773 40.491 18.4356 38.7583 18.4356 36.6782C18.4356 35.7889 19.2954 35.0651 20.3516 35.0651H23.2936L23.2861 37.6019C23.2818 39.0459 24.4488 40.2074 25.8826 40.2074H25.9369C27.4031 40.2074 28.596 39.0194 28.596 37.5587V35.848C28.596 35.7278 28.6934 35.631 28.813 35.631C29.2491 35.631 29.6336 35.4057 29.8561 35.0651H33.0721C33.3771 35.2903 34.2666 36.6892 36.1989 36.6892C38.1266 36.6892 39.0225 35.2895 39.3263 35.0651H49.2703C50.3162 35.0651 51.176 35.7814 51.1863 36.6624C51.1891 36.9447 51.4191 37.1714 51.7007 37.1714H51.7069C51.9912 37.1686 52.2192 36.9351 52.2164 36.6508C52.2016 35.408 51.2182 34.3655 49.918 34.1006ZM35.5046 25.3661H49.1419C50.6415 26.2907 49.9208 28.4654 48.2594 28.4654C37.1912 28.4654 47.3969 28.4368 32.1051 28.4654C33.1378 27.9163 33.4589 27.3417 35.5046 25.3661ZM19.3304 31.3566C18.8532 30.5047 19.0983 29.3993 19.6642 28.9207C20.1421 29.3018 20.7485 29.5319 21.4044 29.5319H24.0977C24.5874 29.5319 24.9891 29.9144 25.02 30.3966C24.8126 30.3224 24.5977 30.2853 24.3821 30.2853C23.6061 30.2853 23.2887 30.6272 21.0569 32.0866C20.2988 32.148 19.6674 31.8092 19.3304 31.3566ZM23.3808 34.0348H21.0087C20.7033 33.8032 20.4782 33.4711 20.3846 33.0878C20.6595 33.131 21.2833 33.1689 21.517 33.0164L23.8808 31.4713C24.4877 31.0739 24.9756 31.5489 25.0221 31.5667V32.7836C25.0221 32.9759 24.8662 33.1318 24.6739 33.1318C24.082 33.1318 23.5752 33.5081 23.3808 34.0348ZM29.0293 32.4409C29.0293 33.4522 29.0293 32.6558 29.0293 34.3838C29.0293 34.5033 28.9324 34.6008 28.8129 34.6008C28.1229 34.6008 27.5658 35.1635 27.5658 35.8479V37.5586C27.5658 39.0271 25.7558 39.7017 24.7728 38.7165C24.2355 38.1767 24.3167 37.4906 24.3162 37.5745C24.3185 36.8268 24.3212 35.9617 24.3257 34.5089C24.3264 34.3179 24.4823 34.162 24.6739 34.162C25.4282 34.162 26.0522 33.5492 26.0522 32.7838C26.0522 31.7691 26.0522 31.4714 26.0522 30.4564C26.0522 29.6735 25.5893 28.9964 24.9224 28.6853C24.2729 28.3792 23.8878 28.5515 21.4043 28.5019C19.6761 28.5019 19.0051 26.2812 20.4545 25.3663H24.1389L26.3757 27.603C27.241 28.4691 28.3749 28.9692 29.5898 29.0258C28.8264 29.6417 29.0743 30.4941 29.0293 32.4409ZM27.1043 26.8749L25.5955 25.3661H34.0486L32.5405 26.8749C31.0341 28.3799 28.6035 28.3754 27.1043 26.8749ZM30.0594 34.0348V32.9491L30.5593 32.5522L32.042 34.0348H30.0594ZM37.8532 35.065C36.8332 35.9121 35.319 35.8551 34.3639 34.9001C33.621 34.1572 32.1133 32.6495 31.3711 31.9074C31.5543 31.8163 32.1357 31.0304 32.8874 31.5873L35.0369 33.1805C35.7693 33.725 36.721 33.7159 37.4542 33.1194L39.3387 31.5866C39.6806 31.3084 40.0817 31.2823 40.4388 31.5159L41.0685 31.9272C37.5167 35.404 37.9513 34.9842 37.8532 35.065ZM48.6137 34.0348H40.3563L41.9118 32.4794L42.5539 32.8989C42.6713 32.9522 43.3053 33.5441 44.2543 33.3357C45.2014 33.1288 45.654 32.271 45.6731 32.25C46.0183 31.7016 46.6083 31.4833 47.129 31.8681C47.9771 32.4283 48.3895 32.9965 49.249 33.0391C49.1631 33.4433 48.9319 33.7936 48.6137 34.0348ZM48.7909 31.8153C47.695 31.006 47.7384 31.0359 47.6763 30.9933C46.7297 30.3468 45.4929 30.607 44.801 31.7013C44.7832 31.722 44.5255 32.2222 44.0353 32.329C43.5816 32.429 43.5315 32.3086 41.002 30.6541C40.2671 30.1734 39.3813 30.2242 38.689 30.7874C37.6125 31.6629 36.8147 32.3117 36.8346 32.2957C36.8196 32.308 36.8248 32.3037 36.8236 32.3046C36.8279 32.301 36.8253 32.3032 36.821 32.3067C36.82 32.3075 36.8189 32.3084 36.8179 32.3092C36.8174 32.3097 36.817 32.31 36.8166 32.3103C36.8169 32.3101 36.8172 32.3098 36.8176 32.3095C36.8168 32.3101 36.816 32.3108 36.8152 32.3115C36.8114 32.3146 36.8055 32.3194 36.8046 32.3201C36.4468 32.6113 36.0148 32.6236 35.6502 32.353C33.5035 30.7619 33.1809 30.3686 32.3449 30.3628C31.6376 30.3578 31.1917 30.7052 30.6384 31.1746L30.0594 31.634V30.4562C30.0594 29.0928 30.3521 29.5319 48.2594 29.5319C48.8892 29.5319 49.4853 29.3203 49.968 28.9316C50.4712 29.3664 50.7095 30.2678 50.4192 31.0763C50.1414 31.8507 49.429 32.2859 48.7909 31.8153Z" fill="black"/>
<path d="M41.8913 16.3924C41.5855 16.6812 41.5546 17.1495 41.7994 17.7841C42.0894 18.5359 42.527 19.2004 43.3292 19.2004C44.4463 19.2004 45.0414 17.852 44.2638 17.0291C44.2638 17.0291 44.2638 17.0291 44.2638 17.0291C43.9713 16.7195 42.5823 15.7391 41.8913 16.3924ZM43.321 18.1701C43.2812 18.169 43.205 18.1571 43.1414 18.0897C42.9879 17.9272 42.788 17.5267 42.7049 17.2534C42.973 17.3518 43.3616 17.574 43.5152 17.7365C43.6717 17.9024 43.5498 18.1757 43.321 18.1701Z" fill="black"/>
<path d="M37.8739 21.937C37.9972 22.2579 38.238 22.5117 38.5521 22.6515C39.5905 23.1135 40.6897 22.0876 40.2772 21.014V21.0141C40.1245 20.6165 39.2136 19.1813 38.3255 19.5222C37.4375 19.8633 37.7212 21.5394 37.8739 21.937ZM38.7501 20.6281C38.9606 20.8212 39.2353 21.1746 39.3155 21.3833V21.3834C39.3663 21.5157 39.3004 21.6645 39.1676 21.7155C39.0345 21.7665 38.8862 21.6997 38.8354 21.5677C38.7554 21.359 38.723 20.9125 38.7501 20.6281Z" fill="black"/>
<path d="M33.5236 18.0229C33.5236 18.7327 34.101 19.3102 34.8109 19.3102C35.5207 19.3102 36.0981 18.7327 36.0981 18.0229C36.0981 17.5971 35.7621 15.9306 34.8109 15.9306C33.8596 15.9306 33.5236 17.597 33.5236 18.0229ZM34.8109 18.28C34.6691 18.28 34.5537 18.1646 34.5537 18.0229C34.5537 17.7993 34.6836 17.3709 34.8109 17.1151C34.9382 17.3709 35.068 17.7993 35.068 18.0229C35.068 18.1646 34.9526 18.28 34.8109 18.28Z" fill="black"/>
<path d="M29.8858 20.1264C29.4173 20.7536 29.0819 21.466 29.481 22.1432C30.0625 23.1299 31.5511 22.9151 31.8362 21.8114C31.9427 21.399 32.0342 19.7017 31.1131 19.4637C30.7059 19.3587 30.293 19.5815 29.8858 20.1264ZM30.8389 21.5539C30.8346 21.5608 30.8204 21.6523 30.7205 21.7112C30.523 21.8278 30.2842 21.6454 30.341 21.4253C30.3969 21.2089 30.6298 20.8265 30.817 20.6108C30.8763 20.8902 30.8947 21.3374 30.8389 21.5539Z" fill="black"/>
<path d="M25.2361 17.4218C24.8219 18.2769 25.4499 19.2701 26.3924 19.2701C26.8706 19.2701 27.3308 19.0026 27.5529 18.5441C27.7773 18.081 28.1215 16.4948 27.3067 16.1001C26.5086 15.7132 25.4749 16.9286 25.2361 17.4218ZM26.6259 18.0949C26.564 18.2225 26.41 18.276 26.2825 18.2142C26.1549 18.1524 26.1014 17.9982 26.1632 17.8707C26.2606 17.6696 26.5643 17.3405 26.7903 17.1659C26.7932 17.4515 26.7233 17.8938 26.6259 18.0949Z" fill="black"/>
</svg>
