<svg width="7" height="10" viewBox="0 0 7 10" fill="none" xmlns="http://www.w3.org/2000/svg">
<path d="M6.31387 2.26561C6.27131 2.22299 6.21683 2.20172 6.15061 2.20172H4.93617C4.85562 1.80886 4.7041 1.46783 4.48158 1.17902H6.13633C6.20273 1.17902 6.25706 1.15773 6.29977 1.11522C6.34216 1.07263 6.36345 1.01812 6.36345 0.951855V0.227267C6.36345 0.160948 6.34218 0.106544 6.29977 0.0639064C6.25701 0.0213685 6.20268 0 6.13628 0H0.227242C0.160923 0 0.106519 0.0213685 0.0638816 0.0638816C0.0213685 0.106519 0 0.160923 0 0.227242V1.17183C0 1.23338 0.0224878 1.28664 0.0674636 1.33161C0.112439 1.37659 0.165699 1.39908 0.227242 1.39908H1.25708C2.25608 1.39908 2.89057 1.66652 3.16042 2.2016H0.227242C0.160923 2.2016 0.106444 2.22287 0.0638816 2.26548C0.0213685 2.30814 0 2.36252 0 2.42884V3.15333C0 3.2196 0.021269 3.27408 0.0638816 3.31659C0.106519 3.35925 0.161022 3.38047 0.227242 3.38047H3.26C3.15582 3.76884 2.91313 4.06471 2.53193 4.26832C2.1507 4.47196 1.64774 4.57378 1.0227 4.57378H0.227242C0.165699 4.57378 0.112439 4.59629 0.0674636 4.64124C0.022463 4.68624 0 4.73952 0 4.80102V5.7031C0 5.76474 0.021269 5.8168 0.0638816 5.85937C0.972925 6.82525 2.15195 8.17694 3.6008 9.91477C3.64346 9.97164 3.70262 10 3.77839 10H5.16329C5.26281 10 5.33152 9.95751 5.36928 9.87211C5.41662 9.78689 5.40734 9.70639 5.34085 9.63062C3.95844 7.93549 2.87171 6.66657 2.08098 5.82379C2.88591 5.72912 3.53933 5.46864 4.04125 5.04259C4.5431 4.61649 4.84846 4.0624 4.95744 3.3806H6.15061C6.21683 3.3806 6.27134 3.35935 6.31387 3.31672C6.35654 3.2742 6.37788 3.21972 6.37788 3.15346V2.42904C6.37788 2.36265 6.35654 2.30824 6.31387 2.26561Z" fill="black"/>
</svg>
