<svg width="28" height="28" viewBox="0 0 28 28" fill="none" xmlns="http://www.w3.org/2000/svg">
<path d="M18.4117 16.8408C17.9598 16.8408 17.5928 16.4751 17.5916 16.0229C17.5901 15.57 17.9562 15.2015 18.4093 15.2002C20.4699 15.1938 22.4303 13.9496 23.9293 11.6968C25.3681 9.53448 26.2134 6.70676 26.3422 3.66113H22.729C22.2759 3.66113 21.9087 3.29391 21.9087 2.84082C21.9087 2.38773 22.2759 2.02051 22.729 2.02051H27.1798C27.6329 2.02051 28.0001 2.38773 28.0001 2.84082C28.0001 6.51642 27.0395 9.98416 25.2955 12.6057C23.4835 15.3286 21.0399 16.8327 18.4144 16.8408C18.4136 16.8408 18.4127 16.8408 18.4117 16.8408Z" fill="#FF8E1D"/>
<path d="M9.58847 16.8408C9.5874 16.8408 9.58676 16.8408 9.58591 16.8408C6.96048 16.8327 4.51663 15.3286 2.70489 12.6057C0.960663 9.98416 0 6.51642 0 2.84082C0 2.38773 0.367218 2.02051 0.820312 2.02051H5.27115C5.72424 2.02051 6.09146 2.38773 6.09146 2.84082C6.09146 3.29391 5.72424 3.66113 5.27115 3.66113H1.65793C1.78674 6.70676 2.63205 9.53448 4.0708 11.6968C5.56979 13.9496 7.53021 15.1938 9.59082 15.2002C10.0439 15.2015 10.4101 15.57 10.4086 16.0229C10.4073 16.4751 10.0403 16.8406 9.58847 16.8408Z" fill="#FFB023"/>
<path d="M22.7867 0H5.21362C4.76074 0 4.39331 0.367218 4.39331 0.820313C4.39331 5.63901 5.33817 10.1823 7.05356 13.6131C8.15265 15.8111 9.49677 17.4066 10.9832 18.3201V22.7863C10.9832 23.2394 11.3506 23.6066 11.8035 23.6066H16.1968C16.6499 23.6066 17.0172 23.2394 17.0172 22.7863V18.3201C18.5035 17.4069 19.8479 15.8111 20.9467 13.6131C22.6621 10.1823 23.607 5.63901 23.607 0.820313C23.607 0.367218 23.2398 0 22.7867 0Z" fill="#FFD12B"/>
<path d="M17.017 22.7863V18.3201C18.5034 17.4069 19.8477 15.8111 20.9466 13.6131C22.662 10.1823 23.6068 5.63901 23.6068 0.820313C23.6068 0.367218 23.2396 0 22.7865 0H14V23.6066H16.1967C16.6498 23.6066 17.017 23.2394 17.017 22.7863Z" fill="#FFB023"/>
<path d="M18.3932 21.9658H9.60684C7.94336 21.9658 6.58984 23.3193 6.58984 24.9828V27.1795C6.58984 27.6324 6.95706 27.9996 7.41016 27.9996H20.5898C21.0429 27.9996 21.4102 27.6324 21.4102 27.1795V24.9828C21.4102 23.3193 20.0569 21.9658 18.3932 21.9658Z" fill="#FF8E1D"/>
<path d="M18.3932 21.9658H14V27.9996H20.5898C21.0429 27.9996 21.4102 27.6324 21.4102 27.1795V24.9828C21.4102 23.3193 20.0569 21.9658 18.3932 21.9658Z" fill="#FF6D15"/>
<path d="M21.4684 27.9998H6.53149C6.07861 27.9998 5.71118 27.6326 5.71118 27.1797C5.71118 26.7266 6.07861 26.3594 6.53149 26.3594H21.4684C21.9215 26.3594 22.2888 26.7266 22.2888 27.1797C22.2888 27.6326 21.9215 27.9998 21.4684 27.9998Z" fill="#FFB023"/>
<path d="M21.4685 26.3594H14V27.9998H21.4685C21.9216 27.9998 22.2888 27.6326 22.2888 27.1797C22.2888 26.7266 21.9216 26.3594 21.4685 26.3594Z" fill="#FF8E1D"/>
</svg>
