<svg width="18" height="19" viewBox="0 0 18 19" fill="none" xmlns="http://www.w3.org/2000/svg">
<path d="M11.1724 12.3722L12.3794 11.1651L17.5094 16.2949L16.3024 17.502L11.1724 12.3722Z" fill="#979797"/>
<path d="M13.0522 14.5351L14.5103 13.077L17.9997 16.5663L16.5417 18.0244L13.0522 14.5351Z" fill="#979797"/>
<path fill-rule="evenodd" clip-rule="evenodd" d="M2.15612 2.15612C3.53666 0.77558 5.40908 0 7.36146 0C9.31384 0 11.1863 0.77558 12.5668 2.15612C13.9473 3.53666 14.7229 5.40908 14.7229 7.36146C14.7229 9.31384 13.9473 11.1863 12.5668 12.5668C11.1863 13.9473 9.31384 14.7229 7.36146 14.7229C5.40908 14.7229 3.53666 13.9473 2.15612 12.5668C0.77558 11.1863 0 9.31384 0 7.36146C0 5.40908 0.77558 3.53666 2.15612 2.15612ZM3.0619 3.06131C4.20235 1.92086 5.74913 1.28017 7.36196 1.28017C8.9748 1.28017 10.5216 1.92086 11.662 3.06131C12.8025 4.20176 13.4432 5.74853 13.4432 7.36137C13.4432 8.97421 12.8025 10.521 11.662 11.6614C10.5216 12.8019 8.9748 13.4426 7.36196 13.4426C5.74913 13.4426 4.20235 12.8019 3.0619 11.6614C1.92146 10.521 1.28076 8.97421 1.28076 7.36137C1.28076 5.74853 1.92146 4.20176 3.0619 3.06131Z" fill="#979797"/>
<path d="M9.77522 3.93727C9.16508 3.24054 8.26782 2.82249 7.29878 2.82249C6.32974 2.82249 5.43248 3.24054 4.82235 3.93727C4.67879 4.07662 4.71468 4.32048 4.85824 4.42499C5.0018 4.56434 5.25303 4.5295 5.3607 4.39015C5.86317 3.83276 6.54509 3.51923 7.29878 3.51923C8.05248 3.51923 8.7344 3.83276 9.23686 4.39015C9.30864 4.45982 9.41632 4.5295 9.52399 4.5295C9.59577 4.5295 9.70344 4.49466 9.73933 4.45982C9.88289 4.32048 9.88289 4.07662 9.77522 3.93727Z" fill="white"/>
</svg>
