<svg width="21" height="24" viewBox="0 0 21 24" fill="none" xmlns="http://www.w3.org/2000/svg">
<path fill-rule="evenodd" clip-rule="evenodd" d="M14.5153 18.8669C14.3106 18.4951 13.9158 18.2432 13.4659 18.2432H11.0547C10.6991 18.2432 10.6493 18.1839 10.427 17.9751C8.64897 16.3007 7.1982 16.3829 5.42014 17.0847C5.03759 17.2356 4.98773 17.2329 4.63754 17.249H3.71484V21.7536H5.09689C5.28413 21.7536 5.2666 21.763 5.54275 21.8371L10.132 23.0643C11.7458 23.502 12.3924 23.9035 13.9253 22.8811L19.5815 18.8533C20.0988 18.4842 20.2914 17.804 19.9573 17.2625C19.6232 16.7223 18.9322 16.597 18.3678 16.888L14.5153 18.8669Z" fill="#FFDCD5"/>
<path fill-rule="evenodd" clip-rule="evenodd" d="M8.71471 21.7539V17.2494V17.1753C8.71471 16.7712 8.38466 16.4412 7.98191 16.4412H6.20789C5.80514 16.4412 5.4751 16.7712 5.4751 17.1753V21.828C5.4751 22.2308 5.80514 22.5608 6.20789 22.5608H7.98191C8.38466 22.5608 8.71471 22.2308 8.71471 21.828V21.7539Z" fill="#FF9EB1"/>
<path d="M18.1507 16.4656L14.6516 18.2629C14.3486 17.9576 13.929 17.7683 13.4659 17.7683H11.0547C10.9475 17.7683 10.9082 17.7616 10.8964 17.7588C10.8746 17.744 10.8201 17.6927 10.7759 17.6511L10.7528 17.6294C8.79024 15.7812 7.13185 15.8985 5.24577 16.6429C4.95061 16.7593 4.945 16.7595 4.65246 16.7729L4.1213 16.7736C3.95549 16.3036 3.50754 15.9658 2.98209 15.9658H1.20798C0.541899 15.9658 0 16.5083 0 17.1752V21.828C0 22.4941 0.541899 23.036 1.20798 23.036H2.98204C3.50754 23.036 3.95549 22.6986 4.1213 22.2291H5.09689C5.20733 22.2387 5.31501 22.2611 5.41999 22.2965L10.0077 23.5232C10.2086 23.5777 10.393 23.6313 10.5714 23.6831C11.1638 23.8553 11.6619 24 12.1812 24C12.7678 24 13.3816 23.8153 14.189 23.2767C14.193 23.274 14.197 23.2713 14.201 23.2685L19.8575 19.2405C20.601 18.71 20.8178 17.7524 20.3615 17.0128C19.9104 16.2836 18.9597 16.0485 18.1507 16.4656ZM3.23956 21.828C3.23956 21.9676 3.12161 22.0856 2.98204 22.0856H1.20798C1.06835 22.0856 0.950451 21.9676 0.950451 21.828V17.1752C0.950451 17.0349 1.0684 16.9163 1.20798 16.9163H2.98204C3.12166 16.9163 3.23956 17.0349 3.23956 17.1752V21.828ZM19.3057 18.4666L13.6556 22.49C12.5055 23.2555 12.0161 23.1132 10.8365 22.7705C10.6541 22.7175 10.4655 22.6627 10.2547 22.6055L5.66583 21.3784C5.4812 21.3212 5.29149 21.2879 5.09679 21.2787H4.19001V17.7245L4.6957 17.7224C5.05739 17.7059 5.16955 17.6947 5.59459 17.527C7.22936 16.8818 8.4909 16.8049 10.1016 18.3217L10.1244 18.3431C10.4017 18.6043 10.5736 18.7187 11.0547 18.7187H13.4659C13.8635 18.7187 14.1869 19.0421 14.1869 19.4396C14.1869 19.8364 13.8635 20.1593 13.4659 20.1593H9.55687C9.29441 20.1593 9.08165 20.372 9.08165 20.6345C9.08165 20.8969 9.29441 21.1097 9.55687 21.1097H13.4659C14.3875 21.1097 15.1373 20.3605 15.1373 19.4396C15.1373 19.3232 15.1252 19.2095 15.1025 19.0997L18.5855 17.3107C18.903 17.147 19.3373 17.1638 19.5528 17.5123C19.7428 17.8203 19.6364 18.2306 19.3057 18.4666Z" fill="black"/>
<path d="M17.1768 0.285156V14.4951H20.3134V0.285156L18.7451 1.84478L17.1768 0.285156Z" fill="#FFC15A"/>
<path d="M6.10254 0.285156L7.20982 1.39418L8.31722 0.285156L9.4245 1.39418L10.5318 0.285156L11.6392 1.39418L12.7465 0.285156L13.8539 1.39418L14.9611 0.285156L16.0684 1.39418L17.1758 0.285156V14.4951H6.10254V0.285156Z" fill="#FFCB7C"/>
<path d="M13.7358 4.75288H9.5902C9.08144 4.75288 8.66895 4.33793 8.66895 3.82615C8.66895 3.31436 9.08144 2.89941 9.5902 2.89941H13.7358C14.2446 2.89941 14.6571 3.31436 14.6571 3.82615C14.6571 4.33793 14.2446 4.75288 13.7358 4.75288Z" fill="white"/>
<path d="M20.3089 0C20.2343 0 20.1665 0.0285293 20.1152 0.0749882C20.1118 0.0778073 20.1083 0.0809647 20.1047 0.0845731L18.7501 1.43932L17.3953 0.0845731C17.3953 0.0845731 17.3952 0.0845731 17.3952 0.0846859C17.3689 0.0582991 17.3375 0.0367611 17.3017 0.021989C17.1938 -0.0226656 17.0697 0.00202976 16.9871 0.0845731L16.0826 0.988942L15.1783 0.0845731C15.1241 0.0304463 15.0507 0 14.9742 0C14.8976 0 14.8242 0.0304463 14.7701 0.0845731L13.8657 0.988942L12.9613 0.0845731C12.9071 0.0304463 12.8337 0 12.7571 0C12.6807 0 12.6073 0.0304463 12.553 0.0845731L11.6486 0.988942L10.7443 0.0845731C10.69 0.0304463 10.6166 0 10.5401 0C10.4636 0 10.3902 0.0304463 10.336 0.0845731L9.43159 0.988942L8.52722 0.0845731C8.47309 0.0304463 8.39968 0 8.32312 0C8.24655 0 8.17314 0.0304463 8.11901 0.0845731L7.21464 0.988942L6.31016 0.0845731C6.22762 0.00202976 6.10347 -0.0226656 5.99555 0.021989C5.88775 0.0666436 5.81738 0.171965 5.81738 0.288676V14.4916C5.81738 14.651 5.94661 14.7802 6.10606 14.7802H20.3089C20.4683 14.7802 20.5976 14.651 20.5976 14.4916V0.288676C20.5976 0.129228 20.4684 0 20.3089 0ZM18.7501 2.1362C18.8239 2.1362 18.8978 2.10801 18.9542 2.05163L20.0203 0.985559V13.7946L19.0388 12.8131V6.10968C19.0388 5.95023 18.9094 5.821 18.7501 5.821C18.5906 5.821 18.4614 5.95023 18.4614 6.10968V12.8131L17.4799 13.7946V0.985559L18.546 2.05163C18.6022 2.10801 18.6762 2.1362 18.7501 2.1362ZM18.7501 13.3409L19.6119 14.2029H17.8881L18.7501 13.3409ZM6.39474 0.985559L7.01043 1.60136C7.06467 1.65549 7.13808 1.68582 7.21464 1.68582C7.2911 1.68582 7.36451 1.65549 7.41875 1.60136L8.32312 0.696883L9.22748 1.60136C9.28161 1.65549 9.35502 1.68582 9.43159 1.68582C9.50815 1.68582 9.58156 1.65549 9.63569 1.60136L10.5401 0.696883L11.4445 1.60136C11.5573 1.71402 11.74 1.71402 11.8527 1.60136L12.7571 0.696883L13.6615 1.60136C13.7156 1.65549 13.7891 1.68582 13.8657 1.68582C13.9422 1.68582 14.0156 1.65549 14.0698 1.60136L14.9742 0.696883L15.8785 1.60136C15.9327 1.65549 16.0061 1.68582 16.0826 1.68582C16.1592 1.68582 16.2326 1.65549 16.2867 1.60136L16.9026 0.985559V14.2029H6.39474V0.985559Z" fill="black"/>
<path d="M9.5538 5.03802H10.481C10.6409 5.03802 10.7707 4.90886 10.7707 4.74948C10.7707 4.59011 10.6409 4.46094 10.481 4.46094H9.5538C9.20227 4.46094 8.91638 4.17623 8.91638 3.82614C8.91638 3.47606 9.20227 3.19135 9.5538 3.19135H13.726C14.0774 3.19135 14.3634 3.47606 14.3634 3.82614C14.3634 4.17623 14.0774 4.46094 13.726 4.46094H12.7988C12.6388 4.46094 12.5091 4.59011 12.5091 4.74948C12.5091 4.90886 12.6388 5.03802 12.7988 5.03802H13.726C14.3969 5.03802 14.9429 4.49441 14.9429 3.82614C14.9429 3.15787 14.3969 2.61426 13.726 2.61426H9.5538C8.88277 2.61426 8.33691 3.15787 8.33691 3.82614C8.33691 4.49441 8.88277 5.03802 9.5538 5.03802Z" fill="black"/>
<path d="M15.8003 7.13716C15.9567 7.13716 16.0836 7.00766 16.0836 6.84788C16.0836 6.68821 15.9567 6.55859 15.8003 6.55859H15.177C14.8646 6.55859 14.6104 6.81816 14.6104 7.13716V8.64142C14.6104 8.96054 14.8646 9.21999 15.177 9.21999H15.8003C15.9567 9.21999 16.0836 9.09049 16.0836 8.9307C16.0836 8.77103 15.9567 8.64142 15.8003 8.64142H15.177V8.17857H15.8003C15.9567 8.17857 16.0836 8.04907 16.0836 7.88929C16.0836 7.72962 15.9567 7.60001 15.8003 7.60001H15.177V7.13716H15.8003Z" fill="black"/>
<path d="M7.5367 7.13716H7.94765V8.9307C7.94765 9.09049 8.07917 9.21999 8.24119 9.21999C8.40332 9.21999 8.53472 9.09049 8.53472 8.9307V7.13716H8.94567C9.1078 7.13716 9.23921 7.00766 9.23921 6.84788C9.23921 6.68809 9.1078 6.55859 8.94567 6.55859H7.5367C7.37468 6.55859 7.24316 6.68809 7.24316 6.84788C7.24316 7.00766 7.37457 7.13716 7.5367 7.13716Z" fill="black"/>
<path d="M10.4511 6.55859C10.3306 6.55859 10.2228 6.63339 10.1805 6.74638L9.40028 8.82907C9.34429 8.97866 9.42004 9.14532 9.56949 9.20147C9.71895 9.25763 9.88556 9.1817 9.94155 9.03222L10.0242 8.81144H10.8781L10.9609 9.03222C11.0043 9.14826 11.1144 9.21989 11.2314 9.21989C11.2652 9.21989 11.2994 9.21401 11.3328 9.20147C11.4823 9.14532 11.558 8.97866 11.502 8.82907L10.7218 6.74627C10.6794 6.63339 10.5716 6.55859 10.4511 6.55859ZM10.2409 8.23295L10.4512 7.67174L10.6614 8.23295H10.2409Z" fill="black"/>
<path d="M13.719 6.64309C13.6075 6.53063 13.4266 6.53041 13.3148 6.64253L12.758 7.20143V6.85879C12.758 6.70005 12.6301 6.57119 12.4723 6.57119C12.3144 6.57119 12.1865 6.70005 12.1865 6.85879V8.92947C12.1865 9.08832 12.3144 9.21706 12.4723 9.21706C12.6301 9.21706 12.758 9.08832 12.758 8.92947V8.58391L13.3128 9.13674C13.3684 9.19224 13.4411 9.21999 13.5138 9.21999C13.5874 9.21999 13.6609 9.19156 13.7169 9.13472C13.8278 9.02193 13.827 8.83982 13.7148 8.72804L12.8777 7.89368L13.7184 7.04988C13.8301 6.93765 13.8304 6.75554 13.719 6.64309Z" fill="black"/>
<path d="M12.1229 10.3243C11.9709 10.2793 11.8117 10.3672 11.7672 10.5204L11.4371 11.6564L11.1071 10.5204C11.0713 10.3973 10.9593 10.3125 10.832 10.3125C10.7048 10.3125 10.5927 10.3973 10.5568 10.5204L10.2269 11.6563L9.89677 10.5204C9.8522 10.3671 9.69295 10.2793 9.5411 10.3243C9.38914 10.3692 9.30212 10.5299 9.34658 10.6831L9.95176 12.766C9.98759 12.8891 10.0996 12.9739 10.2269 12.9739C10.3541 12.9739 10.4662 12.8891 10.5019 12.766L10.832 11.6301L11.1621 12.766C11.1978 12.8891 11.3099 12.9739 11.4371 12.9739C11.5645 12.9739 11.6765 12.8891 11.7123 12.766L12.3174 10.6831C12.3619 10.5299 12.2749 10.3692 12.1229 10.3243Z" fill="black"/>
<path d="M15.9541 10.3593C15.8223 10.2722 15.6461 10.3102 15.5605 10.4441L15.1331 11.1124L14.7058 10.4441C14.6201 10.3102 14.4439 10.2722 14.3121 10.3593C14.1804 10.4464 14.143 10.6255 14.2286 10.7595L14.8485 11.7288V12.6846C14.8485 12.8443 14.976 12.9739 15.133 12.9739C15.2902 12.9739 15.4176 12.8443 15.4176 12.6846V11.7288L16.0376 10.7595C16.1233 10.6255 16.0859 10.4464 15.9541 10.3593Z" fill="black"/>
<path d="M8.53615 10.5002C8.49382 10.3873 8.38602 10.3125 8.26558 10.3125C8.14513 10.3125 8.03733 10.3873 7.995 10.5002L7.21475 12.583C7.15876 12.7326 7.23439 12.8992 7.38385 12.9554C7.53331 13.0115 7.69992 12.9356 7.75591 12.7861L7.83865 12.5653H8.69261L8.77524 12.7861C8.81881 12.9021 8.92887 12.9739 9.04593 12.9739C9.07957 12.9739 9.11389 12.9679 9.1473 12.9554C9.29676 12.8992 9.3725 12.7326 9.3164 12.583L8.53615 10.5002ZM8.05527 11.9868L8.26558 11.4256L8.47576 11.9868H8.05527Z" fill="black"/>
<path d="M13.6211 10.5002C13.5789 10.3873 13.4711 10.3125 13.3505 10.3125C13.2301 10.3125 13.1223 10.3873 13.0799 10.5002L12.2997 12.583C12.2437 12.7326 12.3195 12.8992 12.4689 12.9554C12.6184 13.0114 12.785 12.9356 12.841 12.7861L12.9236 12.5653H13.7775L13.8603 12.7861C13.9037 12.9021 14.0138 12.9739 14.1308 12.9739C14.1646 12.9739 14.1989 12.9679 14.2322 12.9554C14.3817 12.8992 14.4574 12.7326 14.4014 12.583L13.6211 10.5002ZM13.1403 11.9868L13.3505 11.4256L13.5608 11.9868H13.1403Z" fill="black"/>
<path d="M18.7441 5.22752C18.8191 5.22752 18.8926 5.197 18.9456 5.14398C18.9987 5.09074 19.0293 5.01745 19.0293 4.94238C19.0293 4.86741 18.9988 4.7939 18.9456 4.74054C18.8926 4.68752 18.8191 4.65723 18.7441 4.65723C18.6691 4.65723 18.5955 4.68752 18.5425 4.74054C18.4895 4.7939 18.459 4.86719 18.459 4.94238C18.459 5.01745 18.4894 5.09097 18.5425 5.14398C18.5955 5.197 18.6692 5.22752 18.7441 5.22752Z" fill="black"/>
<path d="M11.8647 4.95453C11.9177 4.9014 11.9482 4.82822 11.9482 4.75315C11.9482 4.67785 11.9177 4.60456 11.8647 4.55131C11.8117 4.49829 11.738 4.46777 11.6631 4.46777C11.5881 4.46777 11.5145 4.49829 11.4615 4.55131C11.4084 4.60433 11.3779 4.67785 11.3779 4.75315C11.3779 4.82822 11.4084 4.9014 11.4615 4.95453C11.5145 5.00777 11.5881 5.03807 11.6631 5.03807C11.738 5.03807 11.8117 5.00777 11.8647 4.95453Z" fill="black"/>
</svg>
