<svg width="10" height="10" viewBox="0 0 10 10" fill="none" xmlns="http://www.w3.org/2000/svg">
<g opacity="0.5">
<path d="M8.18186 4.59103V1.89621C8.71089 2.08385 9.09095 2.58909 9.09095 3.18164C9.09095 3.43267 9.29447 3.63618 9.5455 3.63618C9.79653 3.63618 10 3.43267 10 3.18164C10 2.08409 9.21798 1.16582 8.18186 0.954637V0.454637C8.18186 0.203607 7.97835 9.15527e-05 7.72732 9.15527e-05C7.47629 9.15527e-05 7.27277 0.203607 7.27277 0.454637V0.954637C6.23665 1.16579 5.45459 2.08406 5.45459 3.18164C5.45459 4.27921 6.23665 5.19745 7.27277 5.40864V8.10345C6.74371 7.91582 6.36368 7.41058 6.36368 6.818C6.36368 6.56697 6.16017 6.36345 5.90914 6.36345C5.6581 6.36345 5.45459 6.56697 5.45459 6.818C5.45459 7.91555 6.23665 8.83385 7.27277 9.045V9.54527C7.27277 9.7963 7.47629 9.99982 7.72732 9.99982C7.97835 9.99982 8.18186 9.7963 8.18186 9.54527V9.045C9.21798 8.83382 10 7.91558 10 6.818C10 5.72042 9.21798 4.80218 8.18186 4.59103ZM6.36368 3.18167C6.36368 2.58909 6.74371 2.08385 7.27277 1.89624V4.46712C6.74371 4.27945 6.36368 3.77421 6.36368 3.18167ZM8.18186 8.10345V5.53258C8.71089 5.72021 9.09095 6.22545 9.09095 6.818C9.09095 7.41058 8.71089 7.91582 8.18186 8.10345Z" fill="black"/>
<path d="M2.27273 1.81803C3.02464 1.81803 3.63636 2.42975 3.63636 3.18166C3.63636 3.43269 3.83988 3.63621 4.09091 3.63621C4.34194 3.63621 4.54545 3.43269 4.54545 3.18166C4.54545 1.92848 3.52591 0.908936 2.27273 0.908936C1.01955 0.908936 0 1.92848 0 3.18166C0 4.43484 1.01955 5.45439 2.27273 5.45439C3.02464 5.45439 3.63636 6.06612 3.63636 6.81803C3.63636 7.56994 3.02464 8.18166 2.2727 8.18166C1.52079 8.18166 0.909091 7.56994 0.909091 6.81803C0.909091 6.567 0.705576 6.36348 0.454545 6.36348C0.203515 6.36348 0 6.567 0 6.81803C0 8.07121 1.01952 9.09075 2.2727 9.09075C3.52591 9.09075 4.54545 8.07121 4.54545 6.81803C4.54545 5.56485 3.52591 4.5453 2.27273 4.5453C1.52082 4.5453 0.909091 3.93357 0.909091 3.18166C0.909091 2.42975 1.52082 1.81803 2.27273 1.81803Z" fill="black"/>
</g>
</svg>
