<svg width="11" height="10" viewBox="0 0 11 10" fill="none" xmlns="http://www.w3.org/2000/svg">
<path d="M5.08816 10C2.28243 10 0 7.75711 0 5C0 2.24289 2.28243 0 5.08816 0C7.89388 0 10.1763 2.24289 10.1763 5C10.1763 7.75711 7.89388 10 5.08816 10ZM5.08816 0.625C2.63313 0.625 0.63602 2.58751 0.63602 5C0.63602 7.41249 2.63313 9.375 5.08816 9.375C7.54318 9.375 9.5403 7.41249 9.5403 5C9.5403 2.58751 7.54318 0.625 5.08816 0.625Z" fill="black"/>
<path d="M7.31435 7.70834C7.2329 7.70834 7.15154 7.6779 7.08958 7.61664L4.86351 5.42914C4.80373 5.37039 4.77026 5.29082 4.77026 5.20834V2.29163C4.77026 2.11913 4.91273 1.97913 5.08827 1.97913C5.26382 1.97913 5.40628 2.11913 5.40628 2.29163V5.07872L7.53911 7.17459C7.66333 7.29666 7.66333 7.49457 7.53911 7.61664C7.47716 7.6779 7.39579 7.70834 7.31435 7.70834Z" fill="black"/>
</svg>
