<?xml version="1.0" encoding="UTF-8" standalone="no"?>
<svg
   xmlns:dc="http://purl.org/dc/elements/1.1/"
   xmlns:cc="http://creativecommons.org/ns#"
   xmlns:rdf="http://www.w3.org/1999/02/22-rdf-syntax-ns#"
   xmlns:svg="http://www.w3.org/2000/svg"
   xmlns="http://www.w3.org/2000/svg"
   xmlns:sodipodi="http://sodipodi.sourceforge.net/DTD/sodipodi-0.dtd"
   xmlns:inkscape="http://www.inkscape.org/namespaces/inkscape"
   width="45"
   height="45"
   viewBox="0 0 45 45"
   version="1.1"
   id="svg38"
   sodipodi:docname="vegfruits.svg"
   style="fill:none"
   inkscape:version="0.92.2 (5c3e80d, 2017-08-06)">
  <metadata
     id="metadata44">
    <rdf:RDF>
      <cc:Work
         rdf:about="">
        <dc:format>image/svg+xml</dc:format>
        <dc:type
           rdf:resource="http://purl.org/dc/dcmitype/StillImage" />
        <dc:title></dc:title>
      </cc:Work>
    </rdf:RDF>
  </metadata>
  <defs
     id="defs42" />
  <sodipodi:namedview
     pagecolor="#ffffff"
     bordercolor="#666666"
     borderopacity="1"
     objecttolerance="10"
     gridtolerance="10"
     guidetolerance="10"
     inkscape:pageopacity="0"
     inkscape:pageshadow="2"
     inkscape:window-width="1366"
     inkscape:window-height="705"
     id="namedview40"
     showgrid="false"
     inkscape:zoom="4.9166667"
     inkscape:cx="-2.6186441"
     inkscape:cy="24"
     inkscape:window-x="-4"
     inkscape:window-y="-4"
     inkscape:window-maximized="1"
     inkscape:current-layer="svg38" />
  <g
     id="g869"
     transform="matrix(0.88135572,0,0,0.88135572,2.6660114,3.9152572)">
    <path
       style="fill:#f98500"
       inkscape:connector-curvature="0"
       id="path2"
       d="m 16.0917,22.5673 c -0.8469,0.3288 -1.8035,-0.0299 -2.222,-0.837 L 6.09794,6.76459 C 5.19123,4.99103 5.87873,2.82887 7.6523,1.92216 7.7619,1.87234 7.86154,1.82252 7.97114,1.7727 9.97388,0.96563 12.1759,2.14137 12.7339,4.17399 l 0.0099,0.02989 4.414,16.25102 c 0.2292,0.8669 -0.2291,1.7835 -1.0661,2.1124 z" />
    <path
       style="fill:#fa6d00"
       inkscape:connector-curvature="0"
       id="path4"
       d="m 15.6731,15.0248 -2.202,0.8669 c -0.4085,0.1494 -0.8669,-0.0499 -1.0362,-0.4584 -0.1595,-0.4085 0.0398,-0.8768 0.4483,-1.0362 l 2.3615,-0.9267 z" />
    <path
       style="fill:#fa6d00"
       inkscape:connector-curvature="0"
       id="path6"
       d="m 16.53,18.1434 -1.8931,0.7074 C 14.2284,18.9903 13.78,18.801 13.6006,18.3925 13.4412,17.9839 13.6405,17.5156 14.059,17.3562 l 2.0525,-0.7672 z" />
    <path
       style="fill:#598c44"
       inkscape:connector-curvature="0"
       id="path8"
       d="M 25.4676,7.9304 C 24.8,7.4721 24.4612,6.66498 24.6107,5.8579 24.9794,4.00462 23.7837,2.20116 21.9205,1.82254 c -0.02,0 -0.0499,-0.00997 -0.0698,-0.00997 C 21.0835,1.68304 20.4458,1.13503 20.2067,0.38774 20.1469,0.20839 20.0772,0.02904 19.9974,-0.14035 19.1505,-1.8342 17.098,-2.521712 15.4041,-1.67478 c -1.6042,0.79711 -2.3216,2.70021 -1.644,4.35421 0.3487,0.85689 0.5181,1.63407 -0.0698,2.46108 -1.096,1.5444 -0.7273,3.68659 0.8171,4.77269 0.0099,0.01 0.0299,0.0199 0.0398,0.0299 0.6676,0.4683 0.9864,1.2853 0.827,2.0824 -0.3587,1.8533 0.8569,3.6568 2.7201,4.0155 1.674,0.3188 3.318,-0.6277 3.8859,-2.2319 1.6939,0.8469 3.7465,0.1494 4.5934,-1.5345 0.7572,-1.5244 0.2889,-3.3678 -1.106,-4.3442 z" />
    <path
       style="fill:#5f9548"
       inkscape:connector-curvature="0"
       id="path10"
       d="M 33.2395,10.6704 C 32.7911,9.9929 32.7811,9.1161 33.2196,8.4286 34.2658,6.85426 33.8274,4.722 32.2531,3.67579 32.2331,3.66583 32.2132,3.6459 32.1933,3.63594 31.2168,3.01818 31.2866,2.14136 31.2069,1.13501 c -0.1395,-1.88317 -1.7935,-3.298034 -3.6767,-3.15854 -1.7835,0.13949 -3.1685,1.62411 -3.1685,3.4176 0,0.92664 -0.1395,1.70382 -0.9864,2.25183 -1.5942,1.01632 -2.0625,3.13862 -1.0363,4.7328 0.01,0.01 0.02,0.0299 0.0299,0.0399 0.4384,0.6875 0.4384,1.5643 -0.0199,2.2419 -1.0263,1.5842 -0.5779,3.7065 1.0063,4.7428 1.4249,0.9266 3.318,0.6675 4.434,-0.6078 1.2554,1.4148 3.4176,1.5543 4.8324,0.3088 1.2754,-1.1159 1.5345,-3.009 0.6178,-4.4339 z" />
    <path
       style="fill:#ffb531"
       inkscape:connector-curvature="0"
       id="path12"
       d="M 38.5701,20.2956 29.0048,17.1071 34.2757,1.30444 c 0.6377,-1.9031 2.5806,-3.377753 4.6033,-3.327933 1.2554,0.029893 2.4312,0.269023 3.4176,1.066133 1.5942,1.27538 2.2219,3.40764 1.5743,5.34063 z" />
    <path
       style="fill:#ffb531"
       inkscape:connector-curvature="0"
       id="path14"
       d="M 32.1932,12.3244 V 41.0203 H 8.27994 V 12.3244 l 2.39136,1.5942 2.3913,-1.5942 2.3913,1.5942 2.3913,-1.5942 2.3914,1.5942 2.3913,-1.5942 2.3913,1.5942 2.3913,-1.5942 2.3914,1.5942 z" />
    <path
       style="fill:#fcac1f"
       inkscape:connector-curvature="0"
       id="path16"
       d="M 32.1932,18.9304 V 41.0202 H 8.27994 V 36.1878 C 17.0581,33.2385 25.7565,27.868 32.1932,18.9304 Z" />
    <path
       style="fill:#f98500"
       inkscape:connector-curvature="0"
       id="path18"
       d="M 41.7586,12.3244 V 41.0203 H 32.1933 V 12.3244 l 2.3913,1.5942 2.3914,-1.5942 2.3913,1.5942 z" />
    <path
       style="fill:#f35244"
       inkscape:connector-curvature="0"
       id="path20"
       d="m 8.42946,44.2089 c 3.52184,0 6.37684,-2.855 6.37684,-6.3768 0,-3.5218 -2.855,-6.3768 -6.37684,-6.3768 -3.52185,0 -6.37686,2.855 -6.37686,6.3768 0,3.5218 2.85501,6.3768 6.37686,6.3768 z" />
    <path
       style="fill:#5f9548"
       inkscape:connector-curvature="0"
       id="path22"
       d="m 21.8309,27.4694 0.7971,1.5942 c -0.9864,0.9864 -1.385,2.4212 -1.0462,3.7863 l 0.2491,0.9964 h -3.1884 v -1.2156 c 0,-2.1821 1.2355,-4.1849 3.1884,-5.1613 z" />
    <path
       style="fill:#fa9f0c"
       inkscape:connector-curvature="0"
       id="path24"
       d="m 17.1577,44.2088 c -1.0064,0 -1.9031,-0.6576 -2.1921,-1.6241 l -1.7935,-5.9882 c -0.4982,-1.664 0.5979,-3.5472 2.4412,-3.5472 0.8967,0 1.7237,0.4683 2.1821,1.2356 l 1.644,2.75 v 4.8922 c 0,1.2554 -1.0263,2.2817 -2.2817,2.2817 z" />
    <path
       style="fill:#fa9f0c"
       inkscape:connector-curvature="0"
       id="path26"
       d="m 23.3155,44.2088 c 1.0063,0 1.9031,-0.6576 2.192,-1.6241 l 1.7935,-5.9882 c 0.5082,-1.6839 -0.6078,-3.5472 -2.4411,-3.5472 -0.8968,0 -1.7238,0.4683 -2.1821,1.2356 l -1.644,2.75 v 4.8922 c 0,1.2554 1.0262,2.2817 2.2817,2.2817 z" />
    <path
       style="fill:#ffb531"
       inkscape:connector-curvature="0"
       id="path28"
       d="m 20.2366,33.0493 c 1.3252,0 2.3913,1.0662 2.3913,2.3914 v 6.3768 c 0,1.3251 -1.0661,2.3913 -2.3913,2.3913 -1.3252,0 -2.3914,-1.0662 -2.3914,-2.3913 v -6.3768 c 0,-1.3252 1.0662,-2.3914 2.3914,-2.3914 z" />
    <path
       style="fill:#000000"
       inkscape:connector-curvature="0"
       id="path30"
       d="m 42.7946,-1.57514 c -1.4746,-1.185697 -3.4973,-1.544396 -5.4203,-0.98642 -1.8732,0.548011 -3.2781,1.8732 -3.856,3.61688 L 30.3,10.7202 29.9213,10.1623 28.5862,11.0491 V 7.8307 L 30.7981,6.35608 29.9114,5.03089 28.5762,5.91767 V 2.26094 H 26.982 V 5.90771 L 25.6568,5.02093 24.77,6.34612 26.982,7.8208 v 3.2183 l -1.3252,-0.8868 -0.8868,1.3252 1.2256,0.817 -0.9864,0.6577 -1.953,-1.2954 c -0.0896,-0.0597 -0.1793,-0.0996 -0.2789,-0.1195 0.0597,-0.1495 0.1394,-0.2989 0.2291,-0.4384 0.6178,-0.9466 0.6178,-2.1622 0.01,-3.1187 -0.558,-0.8469 -0.5381,-2.11235 0.0398,-2.95927 0.2491,-0.3587 1.2654,-1.08606 1.5345,-1.44476 0.5281,-0.69747 0.5878,-1.49458 0.6476,-2.19205 0.0399,-0.54801 0.0797,-1.02627 0.3189,-1.39494 0.7672,-1.22555 2.3913,-1.59421 3.6168,-0.82699 0.2591,0.15942 0.4783,0.36866 0.6676,0.59783 0.4285,0.53804 0.4683,1.07609 0.5181,1.80345 0.02,0.2491 0.0399,0.51812 0.0698,0.79711 L 32.0137,2.1613 C 31.9838,1.92217 31.9639,1.68304 31.954,1.45387 31.8942,0.58702 31.8244,-0.29977 31.0971,-1.2264 c -1.4448,-1.8333526 -4.0952,-2.142232 -5.9285,-0.70744 -0.3787,0.29892 -0.7075,0.65762 -0.9665,1.06613 -0.4384,0.69747 -0.4982,1.45473 -0.558,2.11234 -0.01,0.14946 -0.0199,0.28895 -0.0399,0.42844 C 23.116,1.34427 22.558,1.1151 21.9702,1.0055 21.4919,0.92579 21.0934,0.58702 20.9439,0.12868 20.5952,-0.95738 19.8379,-1.85413 18.8216,-2.372247 17.8252,-2.900331 16.6594,-2.9999694 15.5834,-2.651235 13.9991,-2.123151 12.8433,-0.63854 12.7038,1.06528 12.654,1.71293 12.8134,2.28087 12.9728,2.78903 12.2255,1.56347 10.9203,0.78629 9.48547,0.69662 L 9.51537,-2.840548 7.92115,-2.850512 7.90122,-0.54886 6.94469,-2.9999695 5.48997,-2.392175 6.4465,0.05893 4.87221,-1.61499 3.7164,-0.52894 6.13762,2.06166 C 4.82239,3.41675 4.51351,5.44937 5.39033,7.1233 l 1.654,3.1884 L 8.4592,9.5744 6.8052,6.38597 C 6.09776,5.02093 6.62585,3.33704 7.9909,2.6296 c 1.36504,-0.70743 3.0489,-0.17935 3.7564,1.1857 0.0896,0.17935 0.1594,0.3587 0.2192,0.55798 l 0.0299,0.09964 -2.57071,1.00635 0.57791,1.48461 2.4112,-0.9366 V 6.03724 C 12.2654,6.60518 12.2255,7.193 12.3252,7.7809 l -1.7337,0.6776 0.5779,1.4846 1.7137,-0.6676 c 0.3986,0.6676 1.0861,1.2853 1.0861,1.2853 l -2.2219,0.8669 0.259,0.6476 -1.3252,0.8868 -1.95288,-1.2953 C 8.35956,11.4177 7.87133,11.5174 7.62223,11.886 7.53256,12.0155 7.4927,12.175 7.4927,12.3244 V 29.0637 H 9.08692 V 13.809 l 1.15578,0.7673 c 0.2691,0.1793 0.6178,0.1793 0.8868,0 l 1.9529,-1.2953 1.9529,1.2953 c 0.2691,0.1793 0.6178,0.1793 0.8868,0 l 1.9529,-1.2953 1.9529,1.2953 c 0.2691,0.1793 0.6178,0.1793 0.8868,0 l 1.9529,-1.2953 1.953,1.2953 c 0.269,0.1793 0.6177,0.1793 0.8867,0 l 1.953,-1.2953 1.9529,1.2953 c 0.269,0.1793 0.6177,0.1793 0.8868,0 l 1.1558,-0.7673 v 26.4142 h -3.1885 v 1.5942 h 13.5509 c 0.4384,0 0.7971,-0.3587 0.7971,-0.7971 V 12.3244 c 0,-0.2391 -0.1096,-0.4583 -0.289,-0.6078 L 44.6878,4.6423 C 45.3753,2.39047 44.6379,-0.09053 42.7946,-1.57514 Z M 21.7012,8.8769 c 0.0697,0.1096 0.1195,0.2292 0.1494,0.3587 L 21.3026,10.0427 20.087,7.0536 21.1531,5.47927 C 20.8742,6.62511 21.0535,7.9005 21.7012,8.8769 Z m -5.5599,3.6368 C 16.3506,11.6668 16.1812,10.78 15.693,10.0626 15.2247,9.3851 14.4774,8.9168 14.0987,8.1795 13.8995,7.7909 13.8197,7.3425 13.8696,6.90409 13.9891,5.92764 14.7265,5.1106 14.8361,4.13415 c 0.0797,-0.7174 -0.2093,-1.41487 -0.3587,-2.1223 -0.3488,-1.56433 0.6376,-3.14858 2.3215,-3.22829 0.8171,-0.02989 1.5943,0.31884 2.1124,0.94656 0.4583,0.56794 0.6676,1.31523 1.1259,1.89314 0.3388,0.42844 0.7971,0.73732 1.3152,0.88678 0.5082,0.14946 1.106,0.16938 1.4448,0.5779 -0.5879,0.41848 -1.0662,0.96649 -1.395,1.61414 l -1.1358,-0.75725 -0.8968,1.2953 -1.375,-3.35781 -1.4647,0.59783 1.3651,3.36778 -1.5544,-0.29892 -0.3188,1.55439 2.5607,0.5779 1.2454,2.9293 -1.5543,-0.2989 -0.1893,0.9366 c -0.01,0.01 -1.5345,0.9665 -1.943,1.2654 z m 2.77,-0.4384 1.644,0.3388 0.1096,0.269 -0.4284,0.279 z m 10.2827,0.4783 0.6177,-0.4185 -0.2291,0.6776 z m 3.7962,1.2554 1.1558,0.7673 c 0.269,0.1793 0.6178,0.1793 0.8868,0 l 1.1558,-0.7673 v 22.0899 l -3.1884,3.1884 V 13.809 Z m 7.9711,0 V 39.0873 L 37.7728,35.8989 V 13.809 l 1.1558,0.7673 c 0.2691,0.1793 0.6178,0.1793 0.8868,0 z m -3.9856,23.5546 2.8597,2.8596 h -5.7193 z m 6.1378,-33.22945 -2.7102,8.13045 -1.0362,0.6876 -1.953,-1.2954 c -0.269,-0.1793 -0.6177,-0.1793 -0.8867,0 l -1.953,1.2954 c 0,0 -1.9927,-1.3252 -2.0126,-1.3352 -0.2591,-0.1395 -0.578,-0.1196 -0.8171,0.0398 l -0.1196,0.0798 3.3977,-10.18309 c 0.4185,-1.24548 1.4348,-2.18208 2.7999,-2.5906 1.4148,-0.41848 2.8994,-0.15942 3.9755,0.69747 1.3252,1.07609 1.8533,2.85962 1.3153,4.47377 z" />
    <path
       style="fill:#000000"
       inkscape:connector-curvature="0"
       id="path32"
       d="m 36.0329,3.57968 4.7844,-0.79579 0.2615,1.57189 -4.7845,0.79579 z" />
    <path
       style="fill:#000000"
       inkscape:connector-curvature="0"
       id="path34"
       d="M 34.4372,8.36 39.2216,7.5642 39.4831,9.136 34.6986,9.9318 Z" />
    <path
       style="fill:#000000"
       inkscape:connector-curvature="0"
       id="path36"
       d="m 24.8698,32.2521 c -0.8768,-0.01 -1.7238,0.3387 -2.3415,0.9665 -0.01,-0.01 -0.02,-0.02 -0.0299,-0.0399 l -0.1296,-0.5281 c 0,-0.0099 0,-0.0099 -0.0099,-0.0199 -0.3089,-1.0861 0.3089,-2.4611 0.8469,-2.9991 0.2391,-0.2391 0.2989,-0.6178 0.1495,-0.9167 l -0.7971,-1.5942 c -0.1993,-0.3986 -0.6776,-0.558 -1.0662,-0.3587 -2.2319,1.106 -3.6368,3.3877 -3.6268,5.8687 v 0.4284 c -0.1893,-0.1395 -0.3986,-0.269 -0.6078,-0.3886 -1.5444,-0.8269 -3.5471,-0.3088 -4.4638,1.1459 -0.5281,0.8469 -0.6676,1.9928 -0.3687,2.9991 l 1.0363,3.4574 c -1.375,2.76 -4.7229,3.8859 -7.48289,2.5209 C 3.24822,41.4387 2.11234,38.1407 3.42756,35.3907 3.44749,35.3508 3.46742,35.311 3.48735,35.2711 l 0.02989,2.7102 1.59421,-0.02 -0.04981,-3.3179 3.17846,0.1494 0.07971,-1.5942 -2.76995,-0.1295 c 0.827,-0.5082 1.78353,-0.7871 2.75003,-0.817 1.1558,-0.0299 2.29171,0.2989 3.24821,0.9465 l 0.8868,-1.3252 C 10.6414,30.6678 8.39953,30.339 6.33701,30.9667 L 6.67578,30.1696 5.21109,29.5419 4.11507,32.0926 c -0.07971,0.0598 -0.16939,0.1296 -0.2491,0.1993 L 1.43479,29.8607 0.308879,30.9867 2.75999,33.4378 C 2.71017,33.5075 2.66035,33.5773 2.61053,33.647 L 0,34.763 0.627723,36.2276 1.5444,35.8291 c -1.105991,3.8062 1.08606,7.7817 4.89225,8.8877 2.51089,0.7274 5.22105,0.0299 7.07435,-1.8234 0.1893,-0.1893 0.3686,-0.3985 0.538,-0.6078 l 0.1595,0.5182 c 0.4882,1.634 2.202,2.5507 3.836,2.0625 0.2292,-0.0698 0.4384,-0.1595 0.6477,-0.279 0.9665,0.538 2.1422,0.538 3.1087,0 1.4747,0.8469 3.3578,0.3288 4.2047,-1.1459 0.1196,-0.1992 0.2093,-0.4184 0.279,-0.6476 l 1.7935,-5.9883 c 0.1096,-0.3985 0.1595,-0.817 0.1395,-1.2355 -0.0099,-1.8234 -1.5045,-3.3179 -3.3478,-3.3179 z m -3.3678,-3.6568 0.1793,0.3587 c -0.6277,0.8669 -1.0761,2.1323 -0.9963,3.328 -0.2292,-0.0399 -0.8569,-0.0698 -1.2356,0.0697 0.0797,-1.5045 0.837,-2.8795 2.0526,-3.7564 z m -5.7691,13.7601 -1.7935,-5.9883 c -0.1694,-0.5679 -0.0896,-1.2455 0.1893,-1.6938 0.4584,-0.7373 1.5644,-1.0163 2.3615,-0.5879 0.3786,0.1993 0.5281,0.3388 0.6775,0.5281 -0.0697,0.269 -0.1096,0.548 -0.1096,0.827 v 6.3768 c 0,0.5481 0.1395,1.0861 0.4085,1.5644 -0.7672,0.1594 -1.5145,-0.289 -1.7337,-1.0263 z m 2.9095,-0.5381 v -6.3768 c 0,-0.8768 0.7174,-1.5942 1.5942,-1.5942 0.8768,0 1.5942,0.7174 1.5942,1.5942 v 6.3768 c 0,0.8769 -0.7174,1.5943 -1.5942,1.5943 -0.8768,0 -1.5942,-0.7174 -1.5942,-1.5943 z m 7.9013,-5.4502 -1.7935,5.9883 c -0.2192,0.7373 -0.9765,1.1857 -1.7337,1.0263 0.269,-0.4783 0.4085,-1.0163 0.4085,-1.5644 v -6.3768 c 0,-0.2491 -0.0299,-0.4882 -0.0897,-0.7274 0.2093,-0.3188 0.6875,-0.8668 1.5245,-0.8668 0.9665,0 1.7437,0.7871 1.7437,1.7436 0.0199,0.2591 0,0.5281 -0.0598,0.7772 z" />
  </g>
</svg>
