<svg width="45" height="48" viewBox="0 0 45 48" fill="none" xmlns="http://www.w3.org/2000/svg">
<path d="M16.0917 25.5673C15.2448 25.8961 14.2882 25.5374 13.8697 24.7303L6.09794 9.76459C5.19123 7.99103 5.87873 5.82887 7.6523 4.92216C7.7619 4.87234 7.86154 4.82252 7.97114 4.7727C9.97388 3.96563 12.1759 5.14137 12.7339 7.17399L12.7438 7.20388L17.1578 23.4549C17.387 24.3218 16.9287 25.2384 16.0917 25.5673Z" fill="#F98500"/>
<path d="M15.6731 18.0248L13.4711 18.8917C13.0626 19.0411 12.6042 18.8418 12.4349 18.4333C12.2754 18.0248 12.4747 17.5565 12.8832 17.3971L15.2447 16.4704L15.6731 18.0248Z" fill="#FA6D00"/>
<path d="M16.53 21.1434L14.6369 21.8508C14.2284 21.9903 13.78 21.801 13.6006 21.3925C13.4412 20.9839 13.6405 20.5156 14.059 20.3562L16.1115 19.589L16.53 21.1434Z" fill="#FA6D00"/>
<path d="M25.4676 10.9304C24.8 10.4721 24.4612 9.66498 24.6107 8.8579C24.9794 7.00462 23.7837 5.20116 21.9205 4.82254C21.9005 4.82254 21.8706 4.81257 21.8507 4.81257C21.0835 4.68304 20.4458 4.13503 20.2067 3.38774C20.1469 3.20839 20.0772 3.02904 19.9974 2.85965C19.1505 1.1658 17.098 0.478288 15.4041 1.32522C13.7999 2.12233 13.0825 4.02543 13.7601 5.67943C14.1088 6.53632 14.2782 7.3135 13.6903 8.14051C12.5943 9.68491 12.963 11.8271 14.5074 12.9132C14.5173 12.9232 14.5373 12.9331 14.5472 12.9431C15.2148 13.4114 15.5336 14.2284 15.3742 15.0255C15.0155 16.8788 16.2311 18.6823 18.0943 19.041C19.7683 19.3598 21.4123 18.4133 21.9802 16.8091C23.6741 17.656 25.7267 16.9585 26.5736 15.2746C27.3308 13.7502 26.8625 11.9068 25.4676 10.9304Z" fill="#598C44"/>
<path d="M33.2395 13.6704C32.7911 12.9929 32.7811 12.1161 33.2196 11.4286C34.2658 9.85426 33.8274 7.722 32.2531 6.67579C32.2331 6.66583 32.2132 6.6459 32.1933 6.63594C31.2168 6.01818 31.2866 5.14136 31.2069 4.13501C31.0674 2.25184 29.4134 0.836976 27.5302 0.97647C25.7467 1.11596 24.3617 2.60058 24.3617 4.39407C24.3617 5.32071 24.2222 6.09789 23.3753 6.6459C21.7811 7.66222 21.3128 9.78452 22.339 11.3787C22.349 11.3887 22.359 11.4086 22.3689 11.4186C22.8073 12.1061 22.8073 12.9829 22.349 13.6605C21.3227 15.2447 21.7711 17.367 23.3553 18.4033C24.7802 19.3299 26.6733 19.0708 27.7893 17.7955C29.0447 19.2103 31.2069 19.3498 32.6217 18.1043C33.8971 16.9884 34.1562 15.0953 33.2395 13.6704Z" fill="#5F9548"/>
<path d="M38.5701 23.2956L29.0048 20.1071L34.2757 4.30444C34.9134 2.40134 36.8563 0.926687 38.879 0.976507C40.1344 1.0064 41.3102 1.24553 42.2966 2.04264C43.8908 3.31802 44.5185 5.45028 43.8709 7.38327L38.5701 23.2956Z" fill="#FFB531"/>
<path d="M32.1932 15.3244V44.0203H8.27994V15.3244L10.6713 16.9186L13.0626 15.3244L15.4539 16.9186L17.8452 15.3244L20.2366 16.9186L22.6279 15.3244L25.0192 16.9186L27.4105 15.3244L29.8019 16.9186L32.1932 15.3244Z" fill="#FFB531"/>
<path d="M32.1932 21.9304V44.0202H8.27994V39.1878C17.0581 36.2385 25.7565 30.868 32.1932 21.9304Z" fill="#FCAC1F"/>
<path d="M41.7586 15.3244V44.0203H32.1933V15.3244L34.5846 16.9186L36.976 15.3244L39.3673 16.9186L41.7586 15.3244Z" fill="#F98500"/>
<path d="M8.42946 47.2089C11.9513 47.2089 14.8063 44.3539 14.8063 40.8321C14.8063 37.3103 11.9513 34.4553 8.42946 34.4553C4.90761 34.4553 2.0526 37.3103 2.0526 40.8321C2.0526 44.3539 4.90761 47.2089 8.42946 47.2089Z" fill="#F35244"/>
<path d="M21.8309 30.4694L22.628 32.0636C21.6416 33.05 21.243 34.4848 21.5818 35.8499L21.8309 36.8463H18.6425V35.6307C18.6425 33.4486 19.878 31.4458 21.8309 30.4694Z" fill="#5F9548"/>
<path d="M17.1577 47.2088C16.1513 47.2088 15.2546 46.5512 14.9656 45.5847L13.1721 39.5965C12.6739 37.9325 13.77 36.0493 15.6133 36.0493C16.51 36.0493 17.337 36.5176 17.7954 37.2849L19.4394 40.0349V44.9271C19.4394 46.1825 18.4131 47.2088 17.1577 47.2088Z" fill="#FA9F0C"/>
<path d="M23.3155 47.2088C24.3218 47.2088 25.2186 46.5512 25.5075 45.5847L27.301 39.5965C27.8092 37.9126 26.6932 36.0493 24.8599 36.0493C23.9631 36.0493 23.1361 36.5176 22.6778 37.2849L21.0338 40.0349V44.9271C21.0338 46.1825 22.06 47.2088 23.3155 47.2088Z" fill="#FA9F0C"/>
<path d="M20.2366 36.0493C21.5618 36.0493 22.6279 37.1155 22.6279 38.4407V44.8175C22.6279 46.1426 21.5618 47.2088 20.2366 47.2088C18.9114 47.2088 17.8452 46.1426 17.8452 44.8175V38.4407C17.8452 37.1155 18.9114 36.0493 20.2366 36.0493Z" fill="#FFB531"/>
<path d="M42.7946 1.42486C41.32 0.239163 39.2973 -0.119536 37.3743 0.43844C35.5011 0.986451 34.0962 2.31164 33.5183 4.05532L30.3 13.7202L29.9213 13.1623L28.5862 14.0491V10.8307L30.7981 9.35608L29.9114 8.03089L28.5762 8.91767V5.26094H26.982V8.90771L25.6568 8.02093L24.77 9.34612L26.982 10.8208V14.0391L25.6568 13.1523L24.77 14.4775L25.9956 15.2945L25.0092 15.9522L23.0562 14.6568C22.9666 14.5971 22.8769 14.5572 22.7773 14.5373C22.837 14.3878 22.9167 14.2384 23.0064 14.0989C23.6242 13.1523 23.6242 11.9367 23.0164 10.9802C22.4584 10.1333 22.4783 8.86785 23.0562 8.02093C23.3053 7.66223 24.3216 6.93487 24.5907 6.57617C25.1188 5.8787 25.1785 5.08159 25.2383 4.38412C25.2782 3.83611 25.318 3.35785 25.5572 2.98918C26.3244 1.76363 27.9485 1.39497 29.174 2.16219C29.4331 2.32161 29.6523 2.53085 29.8416 2.76002C30.2701 3.29806 30.3099 3.83611 30.3597 4.56347C30.3797 4.81257 30.3996 5.08159 30.4295 5.36058L32.0137 5.1613C31.9838 4.92217 31.9639 4.68304 31.954 4.45387C31.8942 3.58702 31.8244 2.70023 31.0971 1.7736C29.6523 -0.0597526 27.0019 -0.368632 25.1686 1.06616C24.7899 1.36508 24.4611 1.72378 24.2021 2.13229C23.7637 2.82976 23.7039 3.58702 23.6441 4.24463C23.6341 4.39409 23.6242 4.53358 23.6042 4.67307C23.116 4.34427 22.558 4.1151 21.9702 4.0055C21.4919 3.92579 21.0934 3.58702 20.9439 3.12868C20.5952 2.04262 19.8379 1.14587 18.8216 0.627753C17.8252 0.099669 16.6594 3.06126e-05 15.5834 0.348765C13.9991 0.876849 12.8433 2.36146 12.7038 4.06528C12.654 4.71293 12.8134 5.28087 12.9728 5.78903C12.2255 4.56347 10.9203 3.78629 9.48547 3.69662L9.51537 0.159452L7.92115 0.149488L7.90122 2.45114L6.94469 3.05176e-05L5.48997 0.607825L6.4465 3.05893L4.87221 1.38501L3.7164 2.47106L6.13762 5.06166C4.82239 6.41675 4.51351 8.44937 5.39033 10.1233L7.04433 13.3117L8.4592 12.5744L6.8052 9.38597C6.09776 8.02093 6.62585 6.33704 7.9909 5.6296C9.35594 4.92217 11.0398 5.45025 11.7473 6.8153C11.8369 6.99465 11.9067 7.174 11.9665 7.37328L11.9964 7.47292L9.42569 8.47927L10.0036 9.96388L12.4148 9.02728V9.03724C12.2654 9.60518 12.2255 10.193 12.3252 10.7809L10.5915 11.4585L11.1694 12.9431L12.8831 12.2755C13.2817 12.9431 13.9692 13.5608 13.9692 13.5608L11.7473 14.4277L12.0063 15.0753L10.6811 15.9621L8.72822 14.6668C8.35956 14.4177 7.87133 14.5174 7.62223 14.886C7.53256 15.0155 7.4927 15.175 7.4927 15.3244V32.0637H9.08692V16.809L10.2427 17.5763C10.5118 17.7556 10.8605 17.7556 11.1295 17.5763L13.0824 16.281L15.0353 17.5763C15.3044 17.7556 15.6531 17.7556 15.9221 17.5763L17.875 16.281L19.8279 17.5763C20.097 17.7556 20.4457 17.7556 20.7147 17.5763L22.6676 16.281L24.6206 17.5763C24.8896 17.7556 25.2383 17.7556 25.5073 17.5763L27.4603 16.281L29.4132 17.5763C29.6822 17.7556 30.0309 17.7556 30.3 17.5763L31.4558 16.809V43.2232H28.2673V44.8174H41.8182C42.2566 44.8174 42.6153 44.4587 42.6153 44.0203V15.3244C42.6153 15.0853 42.5057 14.8661 42.3263 14.7166L44.6878 7.6423C45.3753 5.39047 44.6379 2.90947 42.7946 1.42486ZM21.7012 11.8769C21.7709 11.9865 21.8207 12.1061 21.8506 12.2356L21.3026 13.0427L20.087 10.0536L21.1531 8.47927C20.8742 9.62511 21.0535 10.9005 21.7012 11.8769ZM16.1413 15.5137C16.3506 14.6668 16.1812 13.78 15.693 13.0626C15.2247 12.3851 14.4774 11.9168 14.0987 11.1795C13.8995 10.7909 13.8197 10.3425 13.8696 9.90409C13.9891 8.92764 14.7265 8.1106 14.8361 7.13415C14.9158 6.41675 14.6268 5.71928 14.4774 5.01185C14.1286 3.44752 15.115 1.86327 16.7989 1.78356C17.616 1.75367 18.3932 2.1024 18.9113 2.73012C19.3696 3.29806 19.5789 4.04535 20.0372 4.62326C20.376 5.0517 20.8343 5.36058 21.3524 5.51004C21.8606 5.6595 22.4584 5.67942 22.7972 6.08794C22.2093 6.50642 21.731 7.05443 21.4022 7.70208L20.2664 6.94483L19.3696 8.24013L17.9946 4.88232L16.5299 5.48015L17.895 8.84793L16.3406 8.54901L16.0218 10.1034L18.5825 10.6813L19.8279 13.6106L18.2736 13.3117L18.0843 14.2483C18.0743 14.2583 16.5498 15.2148 16.1413 15.5137ZM18.9113 15.0753L20.5553 15.4141L20.6649 15.6831L20.2365 15.9621L18.9113 15.0753ZM29.194 15.5536L29.8117 15.1351L29.5826 15.8127L29.194 15.5536ZM32.9902 16.809L34.146 17.5763C34.415 17.7556 34.7638 17.7556 35.0328 17.5763L36.1886 16.809V38.8989L33.0002 42.0873V16.809H32.9902ZM40.9613 16.809V42.0873L37.7728 38.8989V16.809L38.9286 17.5763C39.1977 17.7556 39.5464 17.7556 39.8154 17.5763L40.9613 16.809ZM36.9757 40.3636L39.8354 43.2232H34.1161L36.9757 40.3636ZM43.1135 7.13415L40.4033 15.2646L39.3671 15.9522L37.4141 14.6568C37.1451 14.4775 36.7964 14.4775 36.5274 14.6568L34.5744 15.9522C34.5744 15.9522 32.5817 14.627 32.5618 14.617C32.3027 14.4775 31.9838 14.4974 31.7447 14.6568L31.6251 14.7366L35.0228 4.55351C35.4413 3.30803 36.4576 2.37143 37.8227 1.96291C39.2375 1.54443 40.7221 1.80349 41.7982 2.66038C43.1234 3.73647 43.6515 5.52 43.1135 7.13415Z" fill="black"/>
<path d="M36.0329 6.57968L40.8173 5.78389L41.0788 7.35578L36.2943 8.15157L36.0329 6.57968Z" fill="black"/>
<path d="M34.4372 11.36L39.2216 10.5642L39.4831 12.136L34.6986 12.9318L34.4372 11.36Z" fill="black"/>
<path d="M24.8698 35.2521C23.993 35.2421 23.146 35.5908 22.5283 36.2186C22.5183 36.2086 22.5083 36.1986 22.4984 36.1787L22.3688 35.6506C22.3688 35.6407 22.3688 35.6407 22.3589 35.6307C22.05 34.5446 22.6678 33.1696 23.2058 32.6316C23.4449 32.3925 23.5047 32.0138 23.3553 31.7149L22.5582 30.1207C22.3589 29.7221 21.8806 29.5627 21.492 29.762C19.2601 30.868 17.8552 33.1497 17.8652 35.6307V36.0591C17.6759 35.9196 17.4666 35.7901 17.2574 35.6705C15.713 34.8436 13.7103 35.3617 12.7936 36.8164C12.2655 37.6633 12.126 38.8092 12.4249 39.8155L13.4612 43.2729C12.0862 46.0329 8.7383 47.1588 5.97831 45.7938C3.24822 44.4387 2.11234 41.1407 3.42756 38.3907C3.44749 38.3508 3.46742 38.311 3.48735 38.2711L3.51724 40.9813L5.11145 40.9613L5.06164 37.6434L8.2401 37.7928L8.31981 36.1986L5.54986 36.0691C6.37686 35.5609 7.33339 35.282 8.29989 35.2521C9.45569 35.2222 10.5916 35.551 11.5481 36.1986L12.4349 34.8734C10.6414 33.6678 8.39953 33.339 6.33701 33.9667L6.67578 33.1696L5.21109 32.5419L4.11507 35.0926C4.03536 35.1524 3.94568 35.2222 3.86597 35.2919L1.43479 32.8607L0.308879 33.9867L2.75999 36.4378C2.71017 36.5075 2.66035 36.5773 2.61053 36.647L0 37.763L0.627723 39.2276L1.5444 38.8291C0.438409 42.6353 2.63046 46.6108 6.43665 47.7168C8.94754 48.4442 11.6577 47.7467 13.511 45.8934C13.7003 45.7041 13.8796 45.4949 14.049 45.2856L14.2085 45.8038C14.6967 47.4378 16.4105 48.3545 18.0445 47.8663C18.2737 47.7965 18.4829 47.7068 18.6922 47.5873C19.6587 48.1253 20.8344 48.1253 21.8009 47.5873C23.2756 48.4342 25.1587 47.9161 26.0056 46.4414C26.1252 46.2422 26.2149 46.023 26.2846 45.7938L28.0781 39.8055C28.1877 39.407 28.2376 38.9885 28.2176 38.57C28.2077 36.7466 26.7131 35.2521 24.8698 35.2521ZM21.502 31.5953L21.6813 31.954C21.0536 32.8209 20.6052 34.0863 20.685 35.282C20.4558 35.2421 19.8281 35.2122 19.4494 35.3517C19.5291 33.8472 20.2864 32.4722 21.502 31.5953ZM15.7329 45.3554L13.9394 39.3671C13.77 38.7992 13.8498 38.1216 14.1287 37.6733C14.5871 36.936 15.6931 36.657 16.4902 37.0854C16.8688 37.2847 17.0183 37.4242 17.1677 37.6135C17.098 37.8825 17.0581 38.1615 17.0581 38.4405V44.8173C17.0581 45.3654 17.1976 45.9034 17.4666 46.3817C16.6994 46.5411 15.9521 46.0927 15.7329 45.3554ZM18.6424 44.8173V38.4405C18.6424 37.5637 19.3598 36.8463 20.2366 36.8463C21.1134 36.8463 21.8308 37.5637 21.8308 38.4405V44.8173C21.8308 45.6942 21.1134 46.4116 20.2366 46.4116C19.3598 46.4116 18.6424 45.6942 18.6424 44.8173ZM26.5437 39.3671L24.7502 45.3554C24.531 46.0927 23.7737 46.5411 23.0165 46.3817C23.2855 45.9034 23.425 45.3654 23.425 44.8173V38.4405C23.425 38.1914 23.3951 37.9523 23.3353 37.7131C23.5446 37.3943 24.0228 36.8463 24.8598 36.8463C25.8263 36.8463 26.6035 37.6334 26.6035 38.5899C26.6234 38.849 26.6035 39.118 26.5437 39.3671Z" fill="black"/>
</svg>
