<svg width="24" height="24" viewBox="0 0 24 24" fill="none" xmlns="http://www.w3.org/2000/svg">
<g clip-path="url(#clip0)">
<path d="M17.5385 8.53868H24V5.53868C24 3.62998 22.4472 2.07715 20.5385 2.07715H3.46153C1.55283 2.07715 0 3.62998 0 5.53868V18.4617C0 20.3704 1.55283 21.9233 3.46153 21.9233H20.5385C22.4472 21.9233 24 20.3704 24 18.4617V15.4617H17.5385C15.6298 15.4617 14.0769 13.9089 14.0769 12.0002C14.0769 10.0915 15.6298 8.53868 17.5385 8.53868Z" fill="black"/>
<path d="M17.5389 9.92285C16.3936 9.92285 15.4619 10.8545 15.4619 11.9998C15.4619 13.145 16.3936 14.0767 17.5389 14.0767H24.0004V9.9229H17.5389V9.92285ZM18.4619 12.6921H17.5389C17.1565 12.6921 16.8466 12.3821 16.8466 11.9998C16.8466 11.6175 17.1565 11.3075 17.5389 11.3075H18.4619C18.8443 11.3075 19.1542 11.6175 19.1542 11.9998C19.1542 12.3821 18.8443 12.6921 18.4619 12.6921Z" fill="black"/>
</g>
<defs>
<clipPath id="clip0">
<rect width="24" height="24" fill="white"/>
</clipPath>
</defs>
</svg>
